G04 #@! TF.GenerationSoftware,KiCad,Pcbnew,(5.1.4)-1*
G04 #@! TF.CreationDate,2019-10-07T12:46:13-05:00*
G04 #@! TF.ProjectId,nightlight,6e696768-746c-4696-9768-742e6b696361,rev?*
G04 #@! TF.SameCoordinates,Original*
G04 #@! TF.FileFunction,Legend,Top*
G04 #@! TF.FilePolarity,Positive*
%FSLAX46Y46*%
G04 Gerber Fmt 4.6, Leading zero omitted, Abs format (unit mm)*
G04 Created by KiCad (PCBNEW (5.1.4)-1) date 2019-10-07 12:46:13*
%MOMM*%
%LPD*%
G04 APERTURE LIST*
%ADD10C,0.150000*%
%ADD11C,0.300000*%
%ADD12C,0.500000*%
%ADD13C,0.120000*%
G04 APERTURE END LIST*
D10*
X131347152Y-84161380D02*
X131347152Y-84875666D01*
X131299533Y-85018523D01*
X131204295Y-85113761D01*
X131061438Y-85161380D01*
X130966200Y-85161380D01*
X132299533Y-85161380D02*
X131823342Y-85161380D01*
X131823342Y-84161380D01*
X133204295Y-85066142D02*
X133156676Y-85113761D01*
X133013819Y-85161380D01*
X132918580Y-85161380D01*
X132775723Y-85113761D01*
X132680485Y-85018523D01*
X132632866Y-84923285D01*
X132585247Y-84732809D01*
X132585247Y-84589952D01*
X132632866Y-84399476D01*
X132680485Y-84304238D01*
X132775723Y-84209000D01*
X132918580Y-84161380D01*
X133013819Y-84161380D01*
X133156676Y-84209000D01*
X133204295Y-84256619D01*
X133918580Y-84161380D02*
X133918580Y-84875666D01*
X133870961Y-85018523D01*
X133775723Y-85113761D01*
X133632866Y-85161380D01*
X133537628Y-85161380D01*
X134870961Y-85161380D02*
X134394771Y-85161380D01*
X134394771Y-84161380D01*
X135775723Y-85066142D02*
X135728104Y-85113761D01*
X135585247Y-85161380D01*
X135490009Y-85161380D01*
X135347152Y-85113761D01*
X135251914Y-85018523D01*
X135204295Y-84923285D01*
X135156676Y-84732809D01*
X135156676Y-84589952D01*
X135204295Y-84399476D01*
X135251914Y-84304238D01*
X135347152Y-84209000D01*
X135490009Y-84161380D01*
X135585247Y-84161380D01*
X135728104Y-84209000D01*
X135775723Y-84256619D01*
X136490009Y-84161380D02*
X136490009Y-84875666D01*
X136442390Y-85018523D01*
X136347152Y-85113761D01*
X136204295Y-85161380D01*
X136109057Y-85161380D01*
X137442390Y-85161380D02*
X136966200Y-85161380D01*
X136966200Y-84161380D01*
X138347152Y-85066142D02*
X138299533Y-85113761D01*
X138156676Y-85161380D01*
X138061438Y-85161380D01*
X137918580Y-85113761D01*
X137823342Y-85018523D01*
X137775723Y-84923285D01*
X137728104Y-84732809D01*
X137728104Y-84589952D01*
X137775723Y-84399476D01*
X137823342Y-84304238D01*
X137918580Y-84209000D01*
X138061438Y-84161380D01*
X138156676Y-84161380D01*
X138299533Y-84209000D01*
X138347152Y-84256619D01*
X139061438Y-84161380D02*
X139061438Y-84875666D01*
X139013819Y-85018523D01*
X138918580Y-85113761D01*
X138775723Y-85161380D01*
X138680485Y-85161380D01*
X140013819Y-85161380D02*
X139537628Y-85161380D01*
X139537628Y-84161380D01*
X140918580Y-85066142D02*
X140870961Y-85113761D01*
X140728104Y-85161380D01*
X140632866Y-85161380D01*
X140490009Y-85113761D01*
X140394771Y-85018523D01*
X140347152Y-84923285D01*
X140299533Y-84732809D01*
X140299533Y-84589952D01*
X140347152Y-84399476D01*
X140394771Y-84304238D01*
X140490009Y-84209000D01*
X140632866Y-84161380D01*
X140728104Y-84161380D01*
X140870961Y-84209000D01*
X140918580Y-84256619D01*
D11*
X152200600Y-112601971D02*
X152200600Y-113601971D01*
X152200600Y-112744828D02*
X152272028Y-112673400D01*
X152414885Y-112601971D01*
X152629171Y-112601971D01*
X152772028Y-112673400D01*
X152843457Y-112816257D01*
X152843457Y-113601971D01*
X153557742Y-113601971D02*
X153557742Y-112601971D01*
X153557742Y-112101971D02*
X153486314Y-112173400D01*
X153557742Y-112244828D01*
X153629171Y-112173400D01*
X153557742Y-112101971D01*
X153557742Y-112244828D01*
X154914885Y-112601971D02*
X154914885Y-113816257D01*
X154843457Y-113959114D01*
X154772028Y-114030542D01*
X154629171Y-114101971D01*
X154414885Y-114101971D01*
X154272028Y-114030542D01*
X154914885Y-113530542D02*
X154772028Y-113601971D01*
X154486314Y-113601971D01*
X154343457Y-113530542D01*
X154272028Y-113459114D01*
X154200600Y-113316257D01*
X154200600Y-112887685D01*
X154272028Y-112744828D01*
X154343457Y-112673400D01*
X154486314Y-112601971D01*
X154772028Y-112601971D01*
X154914885Y-112673400D01*
X155629171Y-113601971D02*
X155629171Y-112101971D01*
X156272028Y-113601971D02*
X156272028Y-112816257D01*
X156200600Y-112673400D01*
X156057742Y-112601971D01*
X155843457Y-112601971D01*
X155700600Y-112673400D01*
X155629171Y-112744828D01*
X156772028Y-112601971D02*
X157343457Y-112601971D01*
X156986314Y-112101971D02*
X156986314Y-113387685D01*
X157057742Y-113530542D01*
X157200600Y-113601971D01*
X157343457Y-113601971D01*
X158057742Y-113601971D02*
X157914885Y-113530542D01*
X157843457Y-113387685D01*
X157843457Y-112101971D01*
X158629171Y-113601971D02*
X158629171Y-112601971D01*
X158629171Y-112101971D02*
X158557742Y-112173400D01*
X158629171Y-112244828D01*
X158700600Y-112173400D01*
X158629171Y-112101971D01*
X158629171Y-112244828D01*
X159986314Y-112601971D02*
X159986314Y-113816257D01*
X159914885Y-113959114D01*
X159843457Y-114030542D01*
X159700600Y-114101971D01*
X159486314Y-114101971D01*
X159343457Y-114030542D01*
X159986314Y-113530542D02*
X159843457Y-113601971D01*
X159557742Y-113601971D01*
X159414885Y-113530542D01*
X159343457Y-113459114D01*
X159272028Y-113316257D01*
X159272028Y-112887685D01*
X159343457Y-112744828D01*
X159414885Y-112673400D01*
X159557742Y-112601971D01*
X159843457Y-112601971D01*
X159986314Y-112673400D01*
X160700600Y-113601971D02*
X160700600Y-112101971D01*
X161343457Y-113601971D02*
X161343457Y-112816257D01*
X161272028Y-112673400D01*
X161129171Y-112601971D01*
X160914885Y-112601971D01*
X160772028Y-112673400D01*
X160700600Y-112744828D01*
X161843457Y-112601971D02*
X162414885Y-112601971D01*
X162057742Y-112101971D02*
X162057742Y-113387685D01*
X162129171Y-113530542D01*
X162272028Y-113601971D01*
X162414885Y-113601971D01*
X151772028Y-116151971D02*
X150914885Y-116151971D01*
X151343457Y-116151971D02*
X151343457Y-114651971D01*
X151200600Y-114866257D01*
X151057742Y-115009114D01*
X150914885Y-115080542D01*
X152700600Y-114651971D02*
X152843457Y-114651971D01*
X152986314Y-114723400D01*
X153057742Y-114794828D01*
X153129171Y-114937685D01*
X153200600Y-115223400D01*
X153200600Y-115580542D01*
X153129171Y-115866257D01*
X153057742Y-116009114D01*
X152986314Y-116080542D01*
X152843457Y-116151971D01*
X152700600Y-116151971D01*
X152557742Y-116080542D01*
X152486314Y-116009114D01*
X152414885Y-115866257D01*
X152343457Y-115580542D01*
X152343457Y-115223400D01*
X152414885Y-114937685D01*
X152486314Y-114794828D01*
X152557742Y-114723400D01*
X152700600Y-114651971D01*
X154914885Y-114580542D02*
X153629171Y-116509114D01*
X156200600Y-116151971D02*
X155343457Y-116151971D01*
X155772028Y-116151971D02*
X155772028Y-114651971D01*
X155629171Y-114866257D01*
X155486314Y-115009114D01*
X155343457Y-115080542D01*
X157914885Y-114580542D02*
X156629171Y-116509114D01*
X158343457Y-114794828D02*
X158414885Y-114723400D01*
X158557742Y-114651971D01*
X158914885Y-114651971D01*
X159057742Y-114723400D01*
X159129171Y-114794828D01*
X159200600Y-114937685D01*
X159200600Y-115080542D01*
X159129171Y-115294828D01*
X158272028Y-116151971D01*
X159200600Y-116151971D01*
X160129171Y-114651971D02*
X160272028Y-114651971D01*
X160414885Y-114723400D01*
X160486314Y-114794828D01*
X160557742Y-114937685D01*
X160629171Y-115223400D01*
X160629171Y-115580542D01*
X160557742Y-115866257D01*
X160486314Y-116009114D01*
X160414885Y-116080542D01*
X160272028Y-116151971D01*
X160129171Y-116151971D01*
X159986314Y-116080542D01*
X159914885Y-116009114D01*
X159843457Y-115866257D01*
X159772028Y-115580542D01*
X159772028Y-115223400D01*
X159843457Y-114937685D01*
X159914885Y-114794828D01*
X159986314Y-114723400D01*
X160129171Y-114651971D01*
X162057742Y-116151971D02*
X161200600Y-116151971D01*
X161629171Y-116151971D02*
X161629171Y-114651971D01*
X161486314Y-114866257D01*
X161343457Y-115009114D01*
X161200600Y-115080542D01*
X162772028Y-116151971D02*
X163057742Y-116151971D01*
X163200600Y-116080542D01*
X163272028Y-116009114D01*
X163414885Y-115794828D01*
X163486314Y-115509114D01*
X163486314Y-114937685D01*
X163414885Y-114794828D01*
X163343457Y-114723400D01*
X163200600Y-114651971D01*
X162914885Y-114651971D01*
X162772028Y-114723400D01*
X162700600Y-114794828D01*
X162629171Y-114937685D01*
X162629171Y-115294828D01*
X162700600Y-115437685D01*
X162772028Y-115509114D01*
X162914885Y-115580542D01*
X163200600Y-115580542D01*
X163343457Y-115509114D01*
X163414885Y-115437685D01*
X163486314Y-115294828D01*
D10*
X178425647Y-98445580D02*
X177854219Y-98445580D01*
X178139933Y-98445580D02*
X178139933Y-97445580D01*
X178044695Y-97588438D01*
X177949457Y-97683676D01*
X177854219Y-97731295D01*
X178806600Y-97540819D02*
X178854219Y-97493200D01*
X178949457Y-97445580D01*
X179187552Y-97445580D01*
X179282790Y-97493200D01*
X179330409Y-97540819D01*
X179378028Y-97636057D01*
X179378028Y-97731295D01*
X179330409Y-97874152D01*
X178758980Y-98445580D01*
X179378028Y-98445580D01*
X179663742Y-97445580D02*
X179997076Y-98445580D01*
X180330409Y-97445580D01*
X180663742Y-98445580D02*
X180663742Y-97445580D01*
X181139933Y-98445580D02*
X181139933Y-97445580D01*
X181711361Y-98445580D01*
X181711361Y-97445580D01*
X176504647Y-95778628D02*
X177266552Y-95778628D01*
X182473647Y-95778628D02*
X183235552Y-95778628D01*
X182854600Y-96159580D02*
X182854600Y-95397676D01*
X176455628Y-106186314D02*
X176455628Y-107186314D01*
X176455628Y-106233933D02*
X176550866Y-106186314D01*
X176741342Y-106186314D01*
X176836580Y-106233933D01*
X176884200Y-106281552D01*
X176931819Y-106376790D01*
X176931819Y-106662504D01*
X176884200Y-106757742D01*
X176836580Y-106805361D01*
X176741342Y-106852980D01*
X176550866Y-106852980D01*
X176455628Y-106805361D01*
X177503247Y-106852980D02*
X177408009Y-106805361D01*
X177360390Y-106757742D01*
X177312771Y-106662504D01*
X177312771Y-106376790D01*
X177360390Y-106281552D01*
X177408009Y-106233933D01*
X177503247Y-106186314D01*
X177646104Y-106186314D01*
X177741342Y-106233933D01*
X177788961Y-106281552D01*
X177836580Y-106376790D01*
X177836580Y-106662504D01*
X177788961Y-106757742D01*
X177741342Y-106805361D01*
X177646104Y-106852980D01*
X177503247Y-106852980D01*
X178169914Y-106186314D02*
X178360390Y-106852980D01*
X178550866Y-106376790D01*
X178741342Y-106852980D01*
X178931819Y-106186314D01*
X179693723Y-106805361D02*
X179598485Y-106852980D01*
X179408009Y-106852980D01*
X179312771Y-106805361D01*
X179265152Y-106710123D01*
X179265152Y-106329171D01*
X179312771Y-106233933D01*
X179408009Y-106186314D01*
X179598485Y-106186314D01*
X179693723Y-106233933D01*
X179741342Y-106329171D01*
X179741342Y-106424409D01*
X179265152Y-106519647D01*
X180169914Y-106852980D02*
X180169914Y-106186314D01*
X180169914Y-106376790D02*
X180217533Y-106281552D01*
X180265152Y-106233933D01*
X180360390Y-106186314D01*
X180455628Y-106186314D01*
X180507000Y-95006800D02*
G75*
G03X180582000Y-96431800I-675000J-750000D01*
G01*
D12*
X180007000Y-95756800D02*
G75*
G03X180007000Y-95756800I-175000J0D01*
G01*
D10*
X183757000Y-95756800D02*
G75*
G03X183757000Y-95756800I-925000J0D01*
G01*
X177757000Y-95756800D02*
G75*
G03X177757000Y-95756800I-925000J0D01*
G01*
X177832000Y-95756800D02*
X178732000Y-95756800D01*
X179832000Y-95756800D02*
X181832000Y-95756800D01*
D13*
X148885000Y-97435200D02*
X116545000Y-97435200D01*
X148885000Y-73405200D02*
X148885000Y-97435200D01*
X116545000Y-73405200D02*
X148885000Y-73405200D01*
X116545000Y-97435200D02*
X116545000Y-73405200D01*
X131445000Y-77860200D02*
X131445000Y-75200200D01*
X131445000Y-77860200D02*
X136585000Y-77860200D01*
X136585000Y-77860200D02*
X136585000Y-75200200D01*
X131445000Y-75200200D02*
X136585000Y-75200200D01*
X128845000Y-75200200D02*
X130175000Y-75200200D01*
X128845000Y-76530200D02*
X128845000Y-75200200D01*
X147599200Y-116416200D02*
X143539200Y-116416200D01*
X143539200Y-116416200D02*
X143539200Y-118686200D01*
X143539200Y-118686200D02*
X147599200Y-118686200D01*
X141249200Y-116416200D02*
X137189200Y-116416200D01*
X137189200Y-116416200D02*
X137189200Y-118686200D01*
X137189200Y-118686200D02*
X141249200Y-118686200D01*
X134899200Y-116416200D02*
X130839200Y-116416200D01*
X130839200Y-116416200D02*
X130839200Y-118686200D01*
X130839200Y-118686200D02*
X134899200Y-118686200D01*
X128549200Y-116416200D02*
X124489200Y-116416200D01*
X124489200Y-116416200D02*
X124489200Y-118686200D01*
X124489200Y-118686200D02*
X128549200Y-118686200D01*
X122199200Y-116416200D02*
X118139200Y-116416200D01*
X118139200Y-116416200D02*
X118139200Y-118686200D01*
X118139200Y-118686200D02*
X122199200Y-118686200D01*
X147599200Y-110066200D02*
X143539200Y-110066200D01*
X143539200Y-110066200D02*
X143539200Y-112336200D01*
X143539200Y-112336200D02*
X147599200Y-112336200D01*
X141249200Y-110066200D02*
X137189200Y-110066200D01*
X137189200Y-110066200D02*
X137189200Y-112336200D01*
X137189200Y-112336200D02*
X141249200Y-112336200D01*
X134899200Y-110066200D02*
X130839200Y-110066200D01*
X130839200Y-110066200D02*
X130839200Y-112336200D01*
X130839200Y-112336200D02*
X134899200Y-112336200D01*
X128549200Y-110066200D02*
X124489200Y-110066200D01*
X124489200Y-110066200D02*
X124489200Y-112336200D01*
X124489200Y-112336200D02*
X128549200Y-112336200D01*
X183464200Y-101320600D02*
X183464200Y-111480600D01*
X183464200Y-111480600D02*
X173304200Y-111480600D01*
X173304200Y-111480600D02*
X173304200Y-101320600D01*
X173304200Y-101320600D02*
X183464200Y-101320600D01*
X118139200Y-112336200D02*
X122199200Y-112336200D01*
X118139200Y-110066200D02*
X118139200Y-112336200D01*
X122199200Y-110066200D02*
X118139200Y-110066200D01*
X175157700Y-92383300D02*
X175157700Y-93433300D01*
X176207700Y-93433300D02*
X175157700Y-93433300D01*
X181257700Y-84033300D02*
X190057700Y-84033300D01*
X190057700Y-84033300D02*
X190057700Y-93233300D01*
X175357700Y-86733300D02*
X175357700Y-84033300D01*
X175357700Y-84033300D02*
X177257700Y-84033300D01*
X190057700Y-93233300D02*
X175357700Y-93233300D01*
X175357700Y-93233300D02*
X175357700Y-90633300D01*
X110758800Y-76107000D02*
X110758800Y-76263000D01*
X110758800Y-78423000D02*
X110758800Y-78579000D01*
X113991135Y-76264392D02*
G75*
G03X110758800Y-76107484I-1672335J-1078608D01*
G01*
X113991135Y-78421608D02*
G75*
G02X110758800Y-78578516I-1672335J1078608D01*
G01*
X113359930Y-76263163D02*
G75*
G03X111277839Y-76263000I-1041130J-1079837D01*
G01*
X113359930Y-78422837D02*
G75*
G02X111277839Y-78423000I-1041130J1079837D01*
G01*
D10*
X138338085Y-75906380D02*
X138338085Y-76620666D01*
X138290466Y-76763523D01*
X138195228Y-76858761D01*
X138052371Y-76906380D01*
X137957133Y-76906380D01*
X138957133Y-76334952D02*
X138861895Y-76287333D01*
X138814276Y-76239714D01*
X138766657Y-76144476D01*
X138766657Y-76096857D01*
X138814276Y-76001619D01*
X138861895Y-75954000D01*
X138957133Y-75906380D01*
X139147609Y-75906380D01*
X139242847Y-75954000D01*
X139290466Y-76001619D01*
X139338085Y-76096857D01*
X139338085Y-76144476D01*
X139290466Y-76239714D01*
X139242847Y-76287333D01*
X139147609Y-76334952D01*
X138957133Y-76334952D01*
X138861895Y-76382571D01*
X138814276Y-76430190D01*
X138766657Y-76525428D01*
X138766657Y-76715904D01*
X138814276Y-76811142D01*
X138861895Y-76858761D01*
X138957133Y-76906380D01*
X139147609Y-76906380D01*
X139242847Y-76858761D01*
X139290466Y-76811142D01*
X139338085Y-76715904D01*
X139338085Y-76525428D01*
X139290466Y-76430190D01*
X139242847Y-76382571D01*
X139147609Y-76334952D01*
X139957133Y-75906380D02*
X140052371Y-75906380D01*
X140147609Y-75954000D01*
X140195228Y-76001619D01*
X140242847Y-76096857D01*
X140290466Y-76287333D01*
X140290466Y-76525428D01*
X140242847Y-76715904D01*
X140195228Y-76811142D01*
X140147609Y-76858761D01*
X140052371Y-76906380D01*
X139957133Y-76906380D01*
X139861895Y-76858761D01*
X139814276Y-76811142D01*
X139766657Y-76715904D01*
X139719038Y-76525428D01*
X139719038Y-76287333D01*
X139766657Y-76096857D01*
X139814276Y-76001619D01*
X139861895Y-75954000D01*
X139957133Y-75906380D01*
X141242847Y-76906380D02*
X140671419Y-76906380D01*
X140957133Y-76906380D02*
X140957133Y-75906380D01*
X140861895Y-76049238D01*
X140766657Y-76144476D01*
X140671419Y-76192095D01*
X144308723Y-116183580D02*
X144308723Y-115183580D01*
X144546819Y-115183580D01*
X144689676Y-115231200D01*
X144784914Y-115326438D01*
X144832533Y-115421676D01*
X144880152Y-115612152D01*
X144880152Y-115755009D01*
X144832533Y-115945485D01*
X144784914Y-116040723D01*
X144689676Y-116135961D01*
X144546819Y-116183580D01*
X144308723Y-116183580D01*
X145784914Y-115183580D02*
X145308723Y-115183580D01*
X145261104Y-115659771D01*
X145308723Y-115612152D01*
X145403961Y-115564533D01*
X145642057Y-115564533D01*
X145737295Y-115612152D01*
X145784914Y-115659771D01*
X145832533Y-115755009D01*
X145832533Y-115993104D01*
X145784914Y-116088342D01*
X145737295Y-116135961D01*
X145642057Y-116183580D01*
X145403961Y-116183580D01*
X145308723Y-116135961D01*
X145261104Y-116088342D01*
X146784914Y-116183580D02*
X146213485Y-116183580D01*
X146499200Y-116183580D02*
X146499200Y-115183580D01*
X146403961Y-115326438D01*
X146308723Y-115421676D01*
X146213485Y-115469295D01*
X147737295Y-116183580D02*
X147165866Y-116183580D01*
X147451580Y-116183580D02*
X147451580Y-115183580D01*
X147356342Y-115326438D01*
X147261104Y-115421676D01*
X147165866Y-115469295D01*
X137958723Y-116183580D02*
X137958723Y-115183580D01*
X138196819Y-115183580D01*
X138339676Y-115231200D01*
X138434914Y-115326438D01*
X138482533Y-115421676D01*
X138530152Y-115612152D01*
X138530152Y-115755009D01*
X138482533Y-115945485D01*
X138434914Y-116040723D01*
X138339676Y-116135961D01*
X138196819Y-116183580D01*
X137958723Y-116183580D01*
X139434914Y-115183580D02*
X138958723Y-115183580D01*
X138911104Y-115659771D01*
X138958723Y-115612152D01*
X139053961Y-115564533D01*
X139292057Y-115564533D01*
X139387295Y-115612152D01*
X139434914Y-115659771D01*
X139482533Y-115755009D01*
X139482533Y-115993104D01*
X139434914Y-116088342D01*
X139387295Y-116135961D01*
X139292057Y-116183580D01*
X139053961Y-116183580D01*
X138958723Y-116135961D01*
X138911104Y-116088342D01*
X140101580Y-115183580D02*
X140196819Y-115183580D01*
X140292057Y-115231200D01*
X140339676Y-115278819D01*
X140387295Y-115374057D01*
X140434914Y-115564533D01*
X140434914Y-115802628D01*
X140387295Y-115993104D01*
X140339676Y-116088342D01*
X140292057Y-116135961D01*
X140196819Y-116183580D01*
X140101580Y-116183580D01*
X140006342Y-116135961D01*
X139958723Y-116088342D01*
X139911104Y-115993104D01*
X139863485Y-115802628D01*
X139863485Y-115564533D01*
X139911104Y-115374057D01*
X139958723Y-115278819D01*
X140006342Y-115231200D01*
X140101580Y-115183580D01*
X140911104Y-116183580D02*
X141101580Y-116183580D01*
X141196819Y-116135961D01*
X141244438Y-116088342D01*
X141339676Y-115945485D01*
X141387295Y-115755009D01*
X141387295Y-115374057D01*
X141339676Y-115278819D01*
X141292057Y-115231200D01*
X141196819Y-115183580D01*
X141006342Y-115183580D01*
X140911104Y-115231200D01*
X140863485Y-115278819D01*
X140815866Y-115374057D01*
X140815866Y-115612152D01*
X140863485Y-115707390D01*
X140911104Y-115755009D01*
X141006342Y-115802628D01*
X141196819Y-115802628D01*
X141292057Y-115755009D01*
X141339676Y-115707390D01*
X141387295Y-115612152D01*
X131608723Y-116183580D02*
X131608723Y-115183580D01*
X131846819Y-115183580D01*
X131989676Y-115231200D01*
X132084914Y-115326438D01*
X132132533Y-115421676D01*
X132180152Y-115612152D01*
X132180152Y-115755009D01*
X132132533Y-115945485D01*
X132084914Y-116040723D01*
X131989676Y-116135961D01*
X131846819Y-116183580D01*
X131608723Y-116183580D01*
X133084914Y-115183580D02*
X132608723Y-115183580D01*
X132561104Y-115659771D01*
X132608723Y-115612152D01*
X132703961Y-115564533D01*
X132942057Y-115564533D01*
X133037295Y-115612152D01*
X133084914Y-115659771D01*
X133132533Y-115755009D01*
X133132533Y-115993104D01*
X133084914Y-116088342D01*
X133037295Y-116135961D01*
X132942057Y-116183580D01*
X132703961Y-116183580D01*
X132608723Y-116135961D01*
X132561104Y-116088342D01*
X133751580Y-115183580D02*
X133846819Y-115183580D01*
X133942057Y-115231200D01*
X133989676Y-115278819D01*
X134037295Y-115374057D01*
X134084914Y-115564533D01*
X134084914Y-115802628D01*
X134037295Y-115993104D01*
X133989676Y-116088342D01*
X133942057Y-116135961D01*
X133846819Y-116183580D01*
X133751580Y-116183580D01*
X133656342Y-116135961D01*
X133608723Y-116088342D01*
X133561104Y-115993104D01*
X133513485Y-115802628D01*
X133513485Y-115564533D01*
X133561104Y-115374057D01*
X133608723Y-115278819D01*
X133656342Y-115231200D01*
X133751580Y-115183580D01*
X134418247Y-115183580D02*
X135084914Y-115183580D01*
X134656342Y-116183580D01*
X125258723Y-116183580D02*
X125258723Y-115183580D01*
X125496819Y-115183580D01*
X125639676Y-115231200D01*
X125734914Y-115326438D01*
X125782533Y-115421676D01*
X125830152Y-115612152D01*
X125830152Y-115755009D01*
X125782533Y-115945485D01*
X125734914Y-116040723D01*
X125639676Y-116135961D01*
X125496819Y-116183580D01*
X125258723Y-116183580D01*
X126734914Y-115183580D02*
X126258723Y-115183580D01*
X126211104Y-115659771D01*
X126258723Y-115612152D01*
X126353961Y-115564533D01*
X126592057Y-115564533D01*
X126687295Y-115612152D01*
X126734914Y-115659771D01*
X126782533Y-115755009D01*
X126782533Y-115993104D01*
X126734914Y-116088342D01*
X126687295Y-116135961D01*
X126592057Y-116183580D01*
X126353961Y-116183580D01*
X126258723Y-116135961D01*
X126211104Y-116088342D01*
X127401580Y-115183580D02*
X127496819Y-115183580D01*
X127592057Y-115231200D01*
X127639676Y-115278819D01*
X127687295Y-115374057D01*
X127734914Y-115564533D01*
X127734914Y-115802628D01*
X127687295Y-115993104D01*
X127639676Y-116088342D01*
X127592057Y-116135961D01*
X127496819Y-116183580D01*
X127401580Y-116183580D01*
X127306342Y-116135961D01*
X127258723Y-116088342D01*
X127211104Y-115993104D01*
X127163485Y-115802628D01*
X127163485Y-115564533D01*
X127211104Y-115374057D01*
X127258723Y-115278819D01*
X127306342Y-115231200D01*
X127401580Y-115183580D01*
X128592057Y-115516914D02*
X128592057Y-116183580D01*
X128353961Y-115135961D02*
X128115866Y-115850247D01*
X128734914Y-115850247D01*
X118908723Y-116183580D02*
X118908723Y-115183580D01*
X119146819Y-115183580D01*
X119289676Y-115231200D01*
X119384914Y-115326438D01*
X119432533Y-115421676D01*
X119480152Y-115612152D01*
X119480152Y-115755009D01*
X119432533Y-115945485D01*
X119384914Y-116040723D01*
X119289676Y-116135961D01*
X119146819Y-116183580D01*
X118908723Y-116183580D01*
X120384914Y-115183580D02*
X119908723Y-115183580D01*
X119861104Y-115659771D01*
X119908723Y-115612152D01*
X120003961Y-115564533D01*
X120242057Y-115564533D01*
X120337295Y-115612152D01*
X120384914Y-115659771D01*
X120432533Y-115755009D01*
X120432533Y-115993104D01*
X120384914Y-116088342D01*
X120337295Y-116135961D01*
X120242057Y-116183580D01*
X120003961Y-116183580D01*
X119908723Y-116135961D01*
X119861104Y-116088342D01*
X121051580Y-115183580D02*
X121146819Y-115183580D01*
X121242057Y-115231200D01*
X121289676Y-115278819D01*
X121337295Y-115374057D01*
X121384914Y-115564533D01*
X121384914Y-115802628D01*
X121337295Y-115993104D01*
X121289676Y-116088342D01*
X121242057Y-116135961D01*
X121146819Y-116183580D01*
X121051580Y-116183580D01*
X120956342Y-116135961D01*
X120908723Y-116088342D01*
X120861104Y-115993104D01*
X120813485Y-115802628D01*
X120813485Y-115564533D01*
X120861104Y-115374057D01*
X120908723Y-115278819D01*
X120956342Y-115231200D01*
X121051580Y-115183580D01*
X121765866Y-115278819D02*
X121813485Y-115231200D01*
X121908723Y-115183580D01*
X122146819Y-115183580D01*
X122242057Y-115231200D01*
X122289676Y-115278819D01*
X122337295Y-115374057D01*
X122337295Y-115469295D01*
X122289676Y-115612152D01*
X121718247Y-116183580D01*
X122337295Y-116183580D01*
X144308723Y-109833580D02*
X144308723Y-108833580D01*
X144546819Y-108833580D01*
X144689676Y-108881200D01*
X144784914Y-108976438D01*
X144832533Y-109071676D01*
X144880152Y-109262152D01*
X144880152Y-109405009D01*
X144832533Y-109595485D01*
X144784914Y-109690723D01*
X144689676Y-109785961D01*
X144546819Y-109833580D01*
X144308723Y-109833580D01*
X145784914Y-108833580D02*
X145308723Y-108833580D01*
X145261104Y-109309771D01*
X145308723Y-109262152D01*
X145403961Y-109214533D01*
X145642057Y-109214533D01*
X145737295Y-109262152D01*
X145784914Y-109309771D01*
X145832533Y-109405009D01*
X145832533Y-109643104D01*
X145784914Y-109738342D01*
X145737295Y-109785961D01*
X145642057Y-109833580D01*
X145403961Y-109833580D01*
X145308723Y-109785961D01*
X145261104Y-109738342D01*
X146784914Y-109833580D02*
X146213485Y-109833580D01*
X146499200Y-109833580D02*
X146499200Y-108833580D01*
X146403961Y-108976438D01*
X146308723Y-109071676D01*
X146213485Y-109119295D01*
X147403961Y-108833580D02*
X147499200Y-108833580D01*
X147594438Y-108881200D01*
X147642057Y-108928819D01*
X147689676Y-109024057D01*
X147737295Y-109214533D01*
X147737295Y-109452628D01*
X147689676Y-109643104D01*
X147642057Y-109738342D01*
X147594438Y-109785961D01*
X147499200Y-109833580D01*
X147403961Y-109833580D01*
X147308723Y-109785961D01*
X147261104Y-109738342D01*
X147213485Y-109643104D01*
X147165866Y-109452628D01*
X147165866Y-109214533D01*
X147213485Y-109024057D01*
X147261104Y-108928819D01*
X147308723Y-108881200D01*
X147403961Y-108833580D01*
X137958723Y-109833580D02*
X137958723Y-108833580D01*
X138196819Y-108833580D01*
X138339676Y-108881200D01*
X138434914Y-108976438D01*
X138482533Y-109071676D01*
X138530152Y-109262152D01*
X138530152Y-109405009D01*
X138482533Y-109595485D01*
X138434914Y-109690723D01*
X138339676Y-109785961D01*
X138196819Y-109833580D01*
X137958723Y-109833580D01*
X139434914Y-108833580D02*
X138958723Y-108833580D01*
X138911104Y-109309771D01*
X138958723Y-109262152D01*
X139053961Y-109214533D01*
X139292057Y-109214533D01*
X139387295Y-109262152D01*
X139434914Y-109309771D01*
X139482533Y-109405009D01*
X139482533Y-109643104D01*
X139434914Y-109738342D01*
X139387295Y-109785961D01*
X139292057Y-109833580D01*
X139053961Y-109833580D01*
X138958723Y-109785961D01*
X138911104Y-109738342D01*
X140101580Y-108833580D02*
X140196819Y-108833580D01*
X140292057Y-108881200D01*
X140339676Y-108928819D01*
X140387295Y-109024057D01*
X140434914Y-109214533D01*
X140434914Y-109452628D01*
X140387295Y-109643104D01*
X140339676Y-109738342D01*
X140292057Y-109785961D01*
X140196819Y-109833580D01*
X140101580Y-109833580D01*
X140006342Y-109785961D01*
X139958723Y-109738342D01*
X139911104Y-109643104D01*
X139863485Y-109452628D01*
X139863485Y-109214533D01*
X139911104Y-109024057D01*
X139958723Y-108928819D01*
X140006342Y-108881200D01*
X140101580Y-108833580D01*
X141006342Y-109262152D02*
X140911104Y-109214533D01*
X140863485Y-109166914D01*
X140815866Y-109071676D01*
X140815866Y-109024057D01*
X140863485Y-108928819D01*
X140911104Y-108881200D01*
X141006342Y-108833580D01*
X141196819Y-108833580D01*
X141292057Y-108881200D01*
X141339676Y-108928819D01*
X141387295Y-109024057D01*
X141387295Y-109071676D01*
X141339676Y-109166914D01*
X141292057Y-109214533D01*
X141196819Y-109262152D01*
X141006342Y-109262152D01*
X140911104Y-109309771D01*
X140863485Y-109357390D01*
X140815866Y-109452628D01*
X140815866Y-109643104D01*
X140863485Y-109738342D01*
X140911104Y-109785961D01*
X141006342Y-109833580D01*
X141196819Y-109833580D01*
X141292057Y-109785961D01*
X141339676Y-109738342D01*
X141387295Y-109643104D01*
X141387295Y-109452628D01*
X141339676Y-109357390D01*
X141292057Y-109309771D01*
X141196819Y-109262152D01*
X131608723Y-109833580D02*
X131608723Y-108833580D01*
X131846819Y-108833580D01*
X131989676Y-108881200D01*
X132084914Y-108976438D01*
X132132533Y-109071676D01*
X132180152Y-109262152D01*
X132180152Y-109405009D01*
X132132533Y-109595485D01*
X132084914Y-109690723D01*
X131989676Y-109785961D01*
X131846819Y-109833580D01*
X131608723Y-109833580D01*
X133084914Y-108833580D02*
X132608723Y-108833580D01*
X132561104Y-109309771D01*
X132608723Y-109262152D01*
X132703961Y-109214533D01*
X132942057Y-109214533D01*
X133037295Y-109262152D01*
X133084914Y-109309771D01*
X133132533Y-109405009D01*
X133132533Y-109643104D01*
X133084914Y-109738342D01*
X133037295Y-109785961D01*
X132942057Y-109833580D01*
X132703961Y-109833580D01*
X132608723Y-109785961D01*
X132561104Y-109738342D01*
X133751580Y-108833580D02*
X133846819Y-108833580D01*
X133942057Y-108881200D01*
X133989676Y-108928819D01*
X134037295Y-109024057D01*
X134084914Y-109214533D01*
X134084914Y-109452628D01*
X134037295Y-109643104D01*
X133989676Y-109738342D01*
X133942057Y-109785961D01*
X133846819Y-109833580D01*
X133751580Y-109833580D01*
X133656342Y-109785961D01*
X133608723Y-109738342D01*
X133561104Y-109643104D01*
X133513485Y-109452628D01*
X133513485Y-109214533D01*
X133561104Y-109024057D01*
X133608723Y-108928819D01*
X133656342Y-108881200D01*
X133751580Y-108833580D01*
X134942057Y-108833580D02*
X134751580Y-108833580D01*
X134656342Y-108881200D01*
X134608723Y-108928819D01*
X134513485Y-109071676D01*
X134465866Y-109262152D01*
X134465866Y-109643104D01*
X134513485Y-109738342D01*
X134561104Y-109785961D01*
X134656342Y-109833580D01*
X134846819Y-109833580D01*
X134942057Y-109785961D01*
X134989676Y-109738342D01*
X135037295Y-109643104D01*
X135037295Y-109405009D01*
X134989676Y-109309771D01*
X134942057Y-109262152D01*
X134846819Y-109214533D01*
X134656342Y-109214533D01*
X134561104Y-109262152D01*
X134513485Y-109309771D01*
X134465866Y-109405009D01*
X125258723Y-109833580D02*
X125258723Y-108833580D01*
X125496819Y-108833580D01*
X125639676Y-108881200D01*
X125734914Y-108976438D01*
X125782533Y-109071676D01*
X125830152Y-109262152D01*
X125830152Y-109405009D01*
X125782533Y-109595485D01*
X125734914Y-109690723D01*
X125639676Y-109785961D01*
X125496819Y-109833580D01*
X125258723Y-109833580D01*
X126734914Y-108833580D02*
X126258723Y-108833580D01*
X126211104Y-109309771D01*
X126258723Y-109262152D01*
X126353961Y-109214533D01*
X126592057Y-109214533D01*
X126687295Y-109262152D01*
X126734914Y-109309771D01*
X126782533Y-109405009D01*
X126782533Y-109643104D01*
X126734914Y-109738342D01*
X126687295Y-109785961D01*
X126592057Y-109833580D01*
X126353961Y-109833580D01*
X126258723Y-109785961D01*
X126211104Y-109738342D01*
X127401580Y-108833580D02*
X127496819Y-108833580D01*
X127592057Y-108881200D01*
X127639676Y-108928819D01*
X127687295Y-109024057D01*
X127734914Y-109214533D01*
X127734914Y-109452628D01*
X127687295Y-109643104D01*
X127639676Y-109738342D01*
X127592057Y-109785961D01*
X127496819Y-109833580D01*
X127401580Y-109833580D01*
X127306342Y-109785961D01*
X127258723Y-109738342D01*
X127211104Y-109643104D01*
X127163485Y-109452628D01*
X127163485Y-109214533D01*
X127211104Y-109024057D01*
X127258723Y-108928819D01*
X127306342Y-108881200D01*
X127401580Y-108833580D01*
X128068247Y-108833580D02*
X128687295Y-108833580D01*
X128353961Y-109214533D01*
X128496819Y-109214533D01*
X128592057Y-109262152D01*
X128639676Y-109309771D01*
X128687295Y-109405009D01*
X128687295Y-109643104D01*
X128639676Y-109738342D01*
X128592057Y-109785961D01*
X128496819Y-109833580D01*
X128211104Y-109833580D01*
X128115866Y-109785961D01*
X128068247Y-109738342D01*
X118908723Y-109833580D02*
X118908723Y-108833580D01*
X119146819Y-108833580D01*
X119289676Y-108881200D01*
X119384914Y-108976438D01*
X119432533Y-109071676D01*
X119480152Y-109262152D01*
X119480152Y-109405009D01*
X119432533Y-109595485D01*
X119384914Y-109690723D01*
X119289676Y-109785961D01*
X119146819Y-109833580D01*
X118908723Y-109833580D01*
X120384914Y-108833580D02*
X119908723Y-108833580D01*
X119861104Y-109309771D01*
X119908723Y-109262152D01*
X120003961Y-109214533D01*
X120242057Y-109214533D01*
X120337295Y-109262152D01*
X120384914Y-109309771D01*
X120432533Y-109405009D01*
X120432533Y-109643104D01*
X120384914Y-109738342D01*
X120337295Y-109785961D01*
X120242057Y-109833580D01*
X120003961Y-109833580D01*
X119908723Y-109785961D01*
X119861104Y-109738342D01*
X121051580Y-108833580D02*
X121146819Y-108833580D01*
X121242057Y-108881200D01*
X121289676Y-108928819D01*
X121337295Y-109024057D01*
X121384914Y-109214533D01*
X121384914Y-109452628D01*
X121337295Y-109643104D01*
X121289676Y-109738342D01*
X121242057Y-109785961D01*
X121146819Y-109833580D01*
X121051580Y-109833580D01*
X120956342Y-109785961D01*
X120908723Y-109738342D01*
X120861104Y-109643104D01*
X120813485Y-109452628D01*
X120813485Y-109214533D01*
X120861104Y-109024057D01*
X120908723Y-108928819D01*
X120956342Y-108881200D01*
X121051580Y-108833580D01*
X122337295Y-109833580D02*
X121765866Y-109833580D01*
X122051580Y-109833580D02*
X122051580Y-108833580D01*
X121956342Y-108976438D01*
X121861104Y-109071676D01*
X121765866Y-109119295D01*
X172907485Y-82434180D02*
X172907485Y-83148466D01*
X172859866Y-83291323D01*
X172764628Y-83386561D01*
X172621771Y-83434180D01*
X172526533Y-83434180D01*
X173288438Y-82434180D02*
X173955104Y-82434180D01*
X173526533Y-83434180D01*
X174526533Y-82434180D02*
X174621771Y-82434180D01*
X174717009Y-82481800D01*
X174764628Y-82529419D01*
X174812247Y-82624657D01*
X174859866Y-82815133D01*
X174859866Y-83053228D01*
X174812247Y-83243704D01*
X174764628Y-83338942D01*
X174717009Y-83386561D01*
X174621771Y-83434180D01*
X174526533Y-83434180D01*
X174431295Y-83386561D01*
X174383676Y-83338942D01*
X174336057Y-83243704D01*
X174288438Y-83053228D01*
X174288438Y-82815133D01*
X174336057Y-82624657D01*
X174383676Y-82529419D01*
X174431295Y-82481800D01*
X174526533Y-82434180D01*
X175812247Y-83434180D02*
X175240819Y-83434180D01*
X175526533Y-83434180D02*
X175526533Y-82434180D01*
X175431295Y-82577038D01*
X175336057Y-82672276D01*
X175240819Y-82719895D01*
X111271180Y-74930619D02*
X111175942Y-74883000D01*
X111080704Y-74787761D01*
X110937847Y-74644904D01*
X110842609Y-74597285D01*
X110747371Y-74597285D01*
X110794990Y-74835380D02*
X110699752Y-74787761D01*
X110604514Y-74692523D01*
X110556895Y-74502047D01*
X110556895Y-74168714D01*
X110604514Y-73978238D01*
X110699752Y-73883000D01*
X110794990Y-73835380D01*
X110985466Y-73835380D01*
X111080704Y-73883000D01*
X111175942Y-73978238D01*
X111223561Y-74168714D01*
X111223561Y-74502047D01*
X111175942Y-74692523D01*
X111080704Y-74787761D01*
X110985466Y-74835380D01*
X110794990Y-74835380D01*
X112080704Y-73835380D02*
X111890228Y-73835380D01*
X111794990Y-73883000D01*
X111747371Y-73930619D01*
X111652133Y-74073476D01*
X111604514Y-74263952D01*
X111604514Y-74644904D01*
X111652133Y-74740142D01*
X111699752Y-74787761D01*
X111794990Y-74835380D01*
X111985466Y-74835380D01*
X112080704Y-74787761D01*
X112128323Y-74740142D01*
X112175942Y-74644904D01*
X112175942Y-74406809D01*
X112128323Y-74311571D01*
X112080704Y-74263952D01*
X111985466Y-74216333D01*
X111794990Y-74216333D01*
X111699752Y-74263952D01*
X111652133Y-74311571D01*
X111604514Y-74406809D01*
X112794990Y-73835380D02*
X112890228Y-73835380D01*
X112985466Y-73883000D01*
X113033085Y-73930619D01*
X113080704Y-74025857D01*
X113128323Y-74216333D01*
X113128323Y-74454428D01*
X113080704Y-74644904D01*
X113033085Y-74740142D01*
X112985466Y-74787761D01*
X112890228Y-74835380D01*
X112794990Y-74835380D01*
X112699752Y-74787761D01*
X112652133Y-74740142D01*
X112604514Y-74644904D01*
X112556895Y-74454428D01*
X112556895Y-74216333D01*
X112604514Y-74025857D01*
X112652133Y-73930619D01*
X112699752Y-73883000D01*
X112794990Y-73835380D01*
X114080704Y-74835380D02*
X113509276Y-74835380D01*
X113794990Y-74835380D02*
X113794990Y-73835380D01*
X113699752Y-73978238D01*
X113604514Y-74073476D01*
X113509276Y-74121095D01*
M02*
