G04 #@! TF.GenerationSoftware,KiCad,Pcbnew,(5.1.4)-1*
G04 #@! TF.CreationDate,2019-10-07T12:46:13-05:00*
G04 #@! TF.ProjectId,nightlight,6e696768-746c-4696-9768-742e6b696361,rev?*
G04 #@! TF.SameCoordinates,Original*
G04 #@! TF.FileFunction,Copper,L3,Inr*
G04 #@! TF.FilePolarity,Positive*
%FSLAX46Y46*%
G04 Gerber Fmt 4.6, Leading zero omitted, Abs format (unit mm)*
G04 Created by KiCad (PCBNEW (5.1.4)-1) date 2019-10-07 12:46:13*
%MOMM*%
%LPD*%
G04 APERTURE LIST*
%ADD10R,1.700000X1.700000*%
%ADD11O,1.700000X1.700000*%
%ADD12C,6.000000*%
%ADD13R,3.500000X3.500000*%
%ADD14C,0.100000*%
%ADD15C,3.000000*%
%ADD16C,3.500000*%
%ADD17R,1.800000X1.800000*%
%ADD18C,1.800000*%
%ADD19C,2.000000*%
%ADD20C,0.558800*%
%ADD21C,0.254000*%
G04 APERTURE END LIST*
D10*
X130175000Y-76530200D03*
D11*
X132715000Y-76530200D03*
X135255000Y-76530200D03*
D10*
X96926400Y-75361800D03*
D12*
X90119200Y-117652800D03*
X90119200Y-77812800D03*
X179959200Y-77812800D03*
X179959200Y-117652800D03*
D11*
X89468499Y-97887801D03*
X89468499Y-100427801D03*
X89468499Y-102967801D03*
X89468499Y-105507801D03*
X89468499Y-108047801D03*
D10*
X89468499Y-110587801D03*
D13*
X176257700Y-88633300D03*
D14*
G36*
X183081213Y-86886911D02*
G01*
X183154018Y-86897711D01*
X183225414Y-86915595D01*
X183294713Y-86940390D01*
X183361248Y-86971859D01*
X183424378Y-87009698D01*
X183483495Y-87053542D01*
X183538030Y-87102970D01*
X183587458Y-87157505D01*
X183631302Y-87216622D01*
X183669141Y-87279752D01*
X183700610Y-87346287D01*
X183725405Y-87415586D01*
X183743289Y-87486982D01*
X183754089Y-87559787D01*
X183757700Y-87633300D01*
X183757700Y-89633300D01*
X183754089Y-89706813D01*
X183743289Y-89779618D01*
X183725405Y-89851014D01*
X183700610Y-89920313D01*
X183669141Y-89986848D01*
X183631302Y-90049978D01*
X183587458Y-90109095D01*
X183538030Y-90163630D01*
X183483495Y-90213058D01*
X183424378Y-90256902D01*
X183361248Y-90294741D01*
X183294713Y-90326210D01*
X183225414Y-90351005D01*
X183154018Y-90368889D01*
X183081213Y-90379689D01*
X183007700Y-90383300D01*
X181507700Y-90383300D01*
X181434187Y-90379689D01*
X181361382Y-90368889D01*
X181289986Y-90351005D01*
X181220687Y-90326210D01*
X181154152Y-90294741D01*
X181091022Y-90256902D01*
X181031905Y-90213058D01*
X180977370Y-90163630D01*
X180927942Y-90109095D01*
X180884098Y-90049978D01*
X180846259Y-89986848D01*
X180814790Y-89920313D01*
X180789995Y-89851014D01*
X180772111Y-89779618D01*
X180761311Y-89706813D01*
X180757700Y-89633300D01*
X180757700Y-87633300D01*
X180761311Y-87559787D01*
X180772111Y-87486982D01*
X180789995Y-87415586D01*
X180814790Y-87346287D01*
X180846259Y-87279752D01*
X180884098Y-87216622D01*
X180927942Y-87157505D01*
X180977370Y-87102970D01*
X181031905Y-87053542D01*
X181091022Y-87009698D01*
X181154152Y-86971859D01*
X181220687Y-86940390D01*
X181289986Y-86915595D01*
X181361382Y-86897711D01*
X181434187Y-86886911D01*
X181507700Y-86883300D01*
X183007700Y-86883300D01*
X183081213Y-86886911D01*
X183081213Y-86886911D01*
G37*
D15*
X182257700Y-88633300D03*
D14*
G36*
X180218465Y-82187513D02*
G01*
X180303404Y-82200113D01*
X180386699Y-82220977D01*
X180467548Y-82249905D01*
X180545172Y-82286619D01*
X180618824Y-82330764D01*
X180687794Y-82381916D01*
X180751418Y-82439582D01*
X180809084Y-82503206D01*
X180860236Y-82572176D01*
X180904381Y-82645828D01*
X180941095Y-82723452D01*
X180970023Y-82804301D01*
X180990887Y-82887596D01*
X181003487Y-82972535D01*
X181007700Y-83058300D01*
X181007700Y-84808300D01*
X181003487Y-84894065D01*
X180990887Y-84979004D01*
X180970023Y-85062299D01*
X180941095Y-85143148D01*
X180904381Y-85220772D01*
X180860236Y-85294424D01*
X180809084Y-85363394D01*
X180751418Y-85427018D01*
X180687794Y-85484684D01*
X180618824Y-85535836D01*
X180545172Y-85579981D01*
X180467548Y-85616695D01*
X180386699Y-85645623D01*
X180303404Y-85666487D01*
X180218465Y-85679087D01*
X180132700Y-85683300D01*
X178382700Y-85683300D01*
X178296935Y-85679087D01*
X178211996Y-85666487D01*
X178128701Y-85645623D01*
X178047852Y-85616695D01*
X177970228Y-85579981D01*
X177896576Y-85535836D01*
X177827606Y-85484684D01*
X177763982Y-85427018D01*
X177706316Y-85363394D01*
X177655164Y-85294424D01*
X177611019Y-85220772D01*
X177574305Y-85143148D01*
X177545377Y-85062299D01*
X177524513Y-84979004D01*
X177511913Y-84894065D01*
X177507700Y-84808300D01*
X177507700Y-83058300D01*
X177511913Y-82972535D01*
X177524513Y-82887596D01*
X177545377Y-82804301D01*
X177574305Y-82723452D01*
X177611019Y-82645828D01*
X177655164Y-82572176D01*
X177706316Y-82503206D01*
X177763982Y-82439582D01*
X177827606Y-82381916D01*
X177896576Y-82330764D01*
X177970228Y-82286619D01*
X178047852Y-82249905D01*
X178128701Y-82220977D01*
X178211996Y-82200113D01*
X178296935Y-82187513D01*
X178382700Y-82183300D01*
X180132700Y-82183300D01*
X180218465Y-82187513D01*
X180218465Y-82187513D01*
G37*
D16*
X179257700Y-83933300D03*
D17*
X111048800Y-77343000D03*
D18*
X113588800Y-77343000D03*
D19*
X94894400Y-87405600D03*
X94894400Y-82905600D03*
X88394400Y-87405600D03*
X88394400Y-82905600D03*
D20*
X102285800Y-85457000D03*
X111506000Y-102426800D03*
X120116600Y-102909400D03*
X154482800Y-73812400D03*
X155117800Y-73812400D03*
X155752800Y-73812400D03*
X156387800Y-73812400D03*
X157022800Y-73812400D03*
X157657800Y-73812400D03*
X158292800Y-73812400D03*
X158927800Y-73812400D03*
X154482800Y-74447400D03*
X155117800Y-74447400D03*
X155752800Y-74447400D03*
X156387800Y-74447400D03*
X157022800Y-74447400D03*
X157657800Y-74447400D03*
X158292800Y-74447400D03*
X158927800Y-74447400D03*
X154482800Y-75082400D03*
X155117800Y-75082400D03*
X155752800Y-75082400D03*
X156387800Y-75082400D03*
X157022800Y-75082400D03*
X157657800Y-75082400D03*
X158292800Y-75082400D03*
X158927800Y-75082400D03*
X154482800Y-75717400D03*
X155117800Y-75717400D03*
X155752800Y-75717400D03*
X156387800Y-75717400D03*
X157022800Y-75717400D03*
X157657800Y-75717400D03*
X158292800Y-75717400D03*
X158927800Y-75717400D03*
X154482800Y-76352400D03*
X155117800Y-76352400D03*
X155752800Y-76352400D03*
X156387800Y-76352400D03*
X157022800Y-76352400D03*
X157657800Y-76352400D03*
X158292800Y-76352400D03*
X158927800Y-76352400D03*
X131953000Y-113969800D03*
X132588000Y-113969800D03*
X132588000Y-114604800D03*
X131953000Y-113334800D03*
X131953000Y-114604800D03*
X132588000Y-113334800D03*
X130632200Y-119380000D03*
X129997200Y-119380000D03*
X131267200Y-119380000D03*
X92481400Y-107670600D03*
X94259400Y-111328200D03*
X168478200Y-119848600D03*
X136067800Y-103201500D03*
X128498600Y-103112600D03*
X147602000Y-88823800D03*
X145084800Y-102376000D03*
X154940000Y-102933500D03*
X174929800Y-75768200D03*
X105906600Y-78663800D03*
X123139200Y-78677800D03*
X98261200Y-97637600D03*
X148183600Y-84251800D03*
X148818600Y-84251800D03*
X148183600Y-84886800D03*
X148818600Y-84886800D03*
X148183600Y-85521800D03*
X148818600Y-85521800D03*
X136067800Y-112725200D03*
X135432800Y-113360200D03*
X135432800Y-113995200D03*
X136067800Y-113995200D03*
X136067800Y-113360200D03*
X135432800Y-112725200D03*
X102285800Y-83707000D03*
X95021400Y-91188600D03*
X111506000Y-104176800D03*
X120116600Y-104659400D03*
X152196800Y-81178400D03*
X152831800Y-81813400D03*
X153466800Y-81813400D03*
X153466800Y-81178400D03*
X152831800Y-81178400D03*
X152196800Y-81813400D03*
X157276800Y-80577800D03*
X164236400Y-76657200D03*
X162966400Y-76657200D03*
X163601400Y-77292200D03*
X163601400Y-76657200D03*
X164236400Y-77292200D03*
X162966400Y-77292200D03*
X182168800Y-93345000D03*
X180898800Y-93345000D03*
X180898800Y-92710000D03*
X181533800Y-92710000D03*
X182168800Y-92710000D03*
X181533800Y-93345000D03*
X129006600Y-113842800D03*
X129641600Y-113842800D03*
X129641600Y-114477800D03*
X129006600Y-113207800D03*
X129006600Y-114477800D03*
X129641600Y-113207800D03*
X137134600Y-115798600D03*
X137769600Y-115798600D03*
X137134600Y-116433600D03*
X106072200Y-110363000D03*
X143216600Y-114528600D03*
X123139200Y-80427800D03*
X168478200Y-118098600D03*
X136067800Y-104951500D03*
X128498600Y-104862600D03*
X151169400Y-89611200D03*
X145084800Y-104126000D03*
X125577600Y-113614200D03*
X129999800Y-110159800D03*
X143242000Y-108610400D03*
X160705800Y-99910900D03*
X159794000Y-107886500D03*
X170078400Y-100723700D03*
X110845600Y-88101200D03*
X94259400Y-113078200D03*
X142341600Y-84048600D03*
X160756600Y-102971600D03*
X161366200Y-92608400D03*
X157632400Y-90271600D03*
X147193000Y-117246400D03*
X147828000Y-117246400D03*
X147828000Y-117881400D03*
X147193000Y-117881400D03*
X147193000Y-110871000D03*
X147193000Y-111506000D03*
X147828000Y-110871000D03*
X147828000Y-111506000D03*
X143256000Y-109524800D03*
X145592800Y-119176800D03*
X109194600Y-91592400D03*
X102311200Y-107035600D03*
X118745000Y-117221000D03*
X118745000Y-117856000D03*
X119380000Y-117221000D03*
X119380000Y-117856000D03*
X118770400Y-111480600D03*
X119405400Y-110845600D03*
X118770400Y-110845600D03*
X119405400Y-111480600D03*
X178943000Y-112979200D03*
X94284800Y-106502200D03*
X143242000Y-112852200D03*
X94716600Y-105283000D03*
X127355600Y-112471200D03*
X166217600Y-102387400D03*
X170637200Y-92303600D03*
X170713400Y-81915000D03*
X103174800Y-98628200D03*
X104965500Y-96837500D03*
X133934200Y-93319600D03*
X147534600Y-106603800D03*
X108864400Y-103911400D03*
X122224800Y-107137200D03*
D21*
G36*
X184633200Y-122326800D02*
G01*
X85445200Y-122326800D01*
X85445200Y-117319801D01*
X86738200Y-117319801D01*
X86738200Y-117985799D01*
X86868130Y-118639001D01*
X87122997Y-119254304D01*
X87493006Y-119808062D01*
X87963938Y-120278994D01*
X88517696Y-120649003D01*
X89132999Y-120903870D01*
X89786201Y-121033800D01*
X90452199Y-121033800D01*
X91105401Y-120903870D01*
X91720704Y-120649003D01*
X92274462Y-120278994D01*
X92745394Y-119808062D01*
X93074876Y-119314956D01*
X129336800Y-119314956D01*
X129336800Y-119445044D01*
X129362179Y-119572631D01*
X129411961Y-119692817D01*
X129484234Y-119800980D01*
X129576220Y-119892966D01*
X129684383Y-119965239D01*
X129804569Y-120015021D01*
X129932156Y-120040400D01*
X130062244Y-120040400D01*
X130189831Y-120015021D01*
X130310017Y-119965239D01*
X130314700Y-119962110D01*
X130319383Y-119965239D01*
X130439569Y-120015021D01*
X130567156Y-120040400D01*
X130697244Y-120040400D01*
X130824831Y-120015021D01*
X130945017Y-119965239D01*
X130949700Y-119962110D01*
X130954383Y-119965239D01*
X131074569Y-120015021D01*
X131202156Y-120040400D01*
X131332244Y-120040400D01*
X131459831Y-120015021D01*
X131580017Y-119965239D01*
X131688180Y-119892966D01*
X131780166Y-119800980D01*
X131852439Y-119692817D01*
X131902221Y-119572631D01*
X131927600Y-119445044D01*
X131927600Y-119314956D01*
X131902221Y-119187369D01*
X131870902Y-119111756D01*
X144932400Y-119111756D01*
X144932400Y-119241844D01*
X144957779Y-119369431D01*
X145007561Y-119489617D01*
X145079834Y-119597780D01*
X145171820Y-119689766D01*
X145279983Y-119762039D01*
X145400169Y-119811821D01*
X145527756Y-119837200D01*
X145657844Y-119837200D01*
X145785431Y-119811821D01*
X145853669Y-119783556D01*
X167817800Y-119783556D01*
X167817800Y-119913644D01*
X167843179Y-120041231D01*
X167892961Y-120161417D01*
X167965234Y-120269580D01*
X168057220Y-120361566D01*
X168165383Y-120433839D01*
X168285569Y-120483621D01*
X168413156Y-120509000D01*
X168543244Y-120509000D01*
X168670831Y-120483621D01*
X168791017Y-120433839D01*
X168899180Y-120361566D01*
X168991166Y-120269580D01*
X169063439Y-120161417D01*
X169113221Y-120041231D01*
X169138600Y-119913644D01*
X169138600Y-119783556D01*
X169113221Y-119655969D01*
X169063439Y-119535783D01*
X168991166Y-119427620D01*
X168899180Y-119335634D01*
X168791017Y-119263361D01*
X168670831Y-119213579D01*
X168543244Y-119188200D01*
X168413156Y-119188200D01*
X168285569Y-119213579D01*
X168165383Y-119263361D01*
X168057220Y-119335634D01*
X167965234Y-119427620D01*
X167892961Y-119535783D01*
X167843179Y-119655969D01*
X167817800Y-119783556D01*
X145853669Y-119783556D01*
X145905617Y-119762039D01*
X146013780Y-119689766D01*
X146105766Y-119597780D01*
X146178039Y-119489617D01*
X146227821Y-119369431D01*
X146253200Y-119241844D01*
X146253200Y-119111756D01*
X146227821Y-118984169D01*
X146178039Y-118863983D01*
X146105766Y-118755820D01*
X146013780Y-118663834D01*
X145905617Y-118591561D01*
X145785431Y-118541779D01*
X145657844Y-118516400D01*
X145527756Y-118516400D01*
X145400169Y-118541779D01*
X145279983Y-118591561D01*
X145171820Y-118663834D01*
X145079834Y-118755820D01*
X145007561Y-118863983D01*
X144957779Y-118984169D01*
X144932400Y-119111756D01*
X131870902Y-119111756D01*
X131852439Y-119067183D01*
X131780166Y-118959020D01*
X131688180Y-118867034D01*
X131580017Y-118794761D01*
X131459831Y-118744979D01*
X131332244Y-118719600D01*
X131202156Y-118719600D01*
X131074569Y-118744979D01*
X130954383Y-118794761D01*
X130949700Y-118797890D01*
X130945017Y-118794761D01*
X130824831Y-118744979D01*
X130697244Y-118719600D01*
X130567156Y-118719600D01*
X130439569Y-118744979D01*
X130319383Y-118794761D01*
X130314700Y-118797890D01*
X130310017Y-118794761D01*
X130189831Y-118744979D01*
X130062244Y-118719600D01*
X129932156Y-118719600D01*
X129804569Y-118744979D01*
X129684383Y-118794761D01*
X129576220Y-118867034D01*
X129484234Y-118959020D01*
X129411961Y-119067183D01*
X129362179Y-119187369D01*
X129336800Y-119314956D01*
X93074876Y-119314956D01*
X93115403Y-119254304D01*
X93370270Y-118639001D01*
X93500200Y-117985799D01*
X93500200Y-117319801D01*
X93467610Y-117155956D01*
X118084600Y-117155956D01*
X118084600Y-117286044D01*
X118109979Y-117413631D01*
X118159761Y-117533817D01*
X118162890Y-117538500D01*
X118159761Y-117543183D01*
X118109979Y-117663369D01*
X118084600Y-117790956D01*
X118084600Y-117921044D01*
X118109979Y-118048631D01*
X118159761Y-118168817D01*
X118232034Y-118276980D01*
X118324020Y-118368966D01*
X118432183Y-118441239D01*
X118552369Y-118491021D01*
X118679956Y-118516400D01*
X118810044Y-118516400D01*
X118937631Y-118491021D01*
X119057817Y-118441239D01*
X119062500Y-118438110D01*
X119067183Y-118441239D01*
X119187369Y-118491021D01*
X119314956Y-118516400D01*
X119445044Y-118516400D01*
X119572631Y-118491021D01*
X119692817Y-118441239D01*
X119800980Y-118368966D01*
X119892966Y-118276980D01*
X119965239Y-118168817D01*
X120015021Y-118048631D01*
X120040400Y-117921044D01*
X120040400Y-117790956D01*
X120015021Y-117663369D01*
X119965239Y-117543183D01*
X119962110Y-117538500D01*
X119965239Y-117533817D01*
X120015021Y-117413631D01*
X120040400Y-117286044D01*
X120040400Y-117181356D01*
X146532600Y-117181356D01*
X146532600Y-117311444D01*
X146557979Y-117439031D01*
X146607761Y-117559217D01*
X146610890Y-117563900D01*
X146607761Y-117568583D01*
X146557979Y-117688769D01*
X146532600Y-117816356D01*
X146532600Y-117946444D01*
X146557979Y-118074031D01*
X146607761Y-118194217D01*
X146680034Y-118302380D01*
X146772020Y-118394366D01*
X146880183Y-118466639D01*
X147000369Y-118516421D01*
X147127956Y-118541800D01*
X147258044Y-118541800D01*
X147385631Y-118516421D01*
X147505817Y-118466639D01*
X147510500Y-118463510D01*
X147515183Y-118466639D01*
X147635369Y-118516421D01*
X147762956Y-118541800D01*
X147893044Y-118541800D01*
X148020631Y-118516421D01*
X148140817Y-118466639D01*
X148248980Y-118394366D01*
X148340966Y-118302380D01*
X148413239Y-118194217D01*
X148463021Y-118074031D01*
X148488400Y-117946444D01*
X148488400Y-117816356D01*
X148463021Y-117688769D01*
X148413239Y-117568583D01*
X148410110Y-117563900D01*
X148413239Y-117559217D01*
X148463021Y-117439031D01*
X148486737Y-117319801D01*
X176578200Y-117319801D01*
X176578200Y-117985799D01*
X176708130Y-118639001D01*
X176962997Y-119254304D01*
X177333006Y-119808062D01*
X177803938Y-120278994D01*
X178357696Y-120649003D01*
X178972999Y-120903870D01*
X179626201Y-121033800D01*
X180292199Y-121033800D01*
X180945401Y-120903870D01*
X181560704Y-120649003D01*
X182114462Y-120278994D01*
X182585394Y-119808062D01*
X182955403Y-119254304D01*
X183210270Y-118639001D01*
X183340200Y-117985799D01*
X183340200Y-117319801D01*
X183210270Y-116666599D01*
X182955403Y-116051296D01*
X182585394Y-115497538D01*
X182114462Y-115026606D01*
X181560704Y-114656597D01*
X180945401Y-114401730D01*
X180292199Y-114271800D01*
X179626201Y-114271800D01*
X178972999Y-114401730D01*
X178357696Y-114656597D01*
X177803938Y-115026606D01*
X177333006Y-115497538D01*
X176962997Y-116051296D01*
X176708130Y-116666599D01*
X176578200Y-117319801D01*
X148486737Y-117319801D01*
X148488400Y-117311444D01*
X148488400Y-117181356D01*
X148463021Y-117053769D01*
X148413239Y-116933583D01*
X148340966Y-116825420D01*
X148248980Y-116733434D01*
X148140817Y-116661161D01*
X148020631Y-116611379D01*
X147893044Y-116586000D01*
X147762956Y-116586000D01*
X147635369Y-116611379D01*
X147515183Y-116661161D01*
X147510500Y-116664290D01*
X147505817Y-116661161D01*
X147385631Y-116611379D01*
X147258044Y-116586000D01*
X147127956Y-116586000D01*
X147000369Y-116611379D01*
X146880183Y-116661161D01*
X146772020Y-116733434D01*
X146680034Y-116825420D01*
X146607761Y-116933583D01*
X146557979Y-117053769D01*
X146532600Y-117181356D01*
X120040400Y-117181356D01*
X120040400Y-117155956D01*
X120015021Y-117028369D01*
X119965239Y-116908183D01*
X119892966Y-116800020D01*
X119800980Y-116708034D01*
X119692817Y-116635761D01*
X119572631Y-116585979D01*
X119445044Y-116560600D01*
X119314956Y-116560600D01*
X119187369Y-116585979D01*
X119067183Y-116635761D01*
X119062500Y-116638890D01*
X119057817Y-116635761D01*
X118937631Y-116585979D01*
X118810044Y-116560600D01*
X118679956Y-116560600D01*
X118552369Y-116585979D01*
X118432183Y-116635761D01*
X118324020Y-116708034D01*
X118232034Y-116800020D01*
X118159761Y-116908183D01*
X118109979Y-117028369D01*
X118084600Y-117155956D01*
X93467610Y-117155956D01*
X93370270Y-116666599D01*
X93115403Y-116051296D01*
X92745394Y-115497538D01*
X92274462Y-115026606D01*
X91720704Y-114656597D01*
X91105401Y-114401730D01*
X90452199Y-114271800D01*
X89786201Y-114271800D01*
X89132999Y-114401730D01*
X88517696Y-114656597D01*
X87963938Y-115026606D01*
X87493006Y-115497538D01*
X87122997Y-116051296D01*
X86868130Y-116666599D01*
X86738200Y-117319801D01*
X85445200Y-117319801D01*
X85445200Y-113269756D01*
X131292600Y-113269756D01*
X131292600Y-113399844D01*
X131317979Y-113527431D01*
X131367761Y-113647617D01*
X131370890Y-113652300D01*
X131367761Y-113656983D01*
X131317979Y-113777169D01*
X131292600Y-113904756D01*
X131292600Y-114034844D01*
X131317979Y-114162431D01*
X131367761Y-114282617D01*
X131370890Y-114287300D01*
X131367761Y-114291983D01*
X131317979Y-114412169D01*
X131292600Y-114539756D01*
X131292600Y-114669844D01*
X131317979Y-114797431D01*
X131367761Y-114917617D01*
X131440034Y-115025780D01*
X131532020Y-115117766D01*
X131640183Y-115190039D01*
X131760369Y-115239821D01*
X131887956Y-115265200D01*
X132018044Y-115265200D01*
X132145631Y-115239821D01*
X132265817Y-115190039D01*
X132270500Y-115186910D01*
X132275183Y-115190039D01*
X132395369Y-115239821D01*
X132522956Y-115265200D01*
X132653044Y-115265200D01*
X132780631Y-115239821D01*
X132900817Y-115190039D01*
X133008980Y-115117766D01*
X133100966Y-115025780D01*
X133173239Y-114917617D01*
X133223021Y-114797431D01*
X133248400Y-114669844D01*
X133248400Y-114539756D01*
X133223021Y-114412169D01*
X133173239Y-114291983D01*
X133170110Y-114287300D01*
X133173239Y-114282617D01*
X133223021Y-114162431D01*
X133248400Y-114034844D01*
X133248400Y-113904756D01*
X133223021Y-113777169D01*
X133173239Y-113656983D01*
X133170110Y-113652300D01*
X133173239Y-113647617D01*
X133223021Y-113527431D01*
X133248400Y-113399844D01*
X133248400Y-113269756D01*
X133223021Y-113142169D01*
X133173239Y-113021983D01*
X133100966Y-112913820D01*
X133008980Y-112821834D01*
X132957082Y-112787156D01*
X142581600Y-112787156D01*
X142581600Y-112917244D01*
X142606979Y-113044831D01*
X142656761Y-113165017D01*
X142729034Y-113273180D01*
X142821020Y-113365166D01*
X142929183Y-113437439D01*
X143049369Y-113487221D01*
X143176956Y-113512600D01*
X143307044Y-113512600D01*
X143434631Y-113487221D01*
X143554817Y-113437439D01*
X143662980Y-113365166D01*
X143754966Y-113273180D01*
X143827239Y-113165017D01*
X143877021Y-113044831D01*
X143902400Y-112917244D01*
X143902400Y-112914156D01*
X178282600Y-112914156D01*
X178282600Y-113044244D01*
X178307979Y-113171831D01*
X178357761Y-113292017D01*
X178430034Y-113400180D01*
X178522020Y-113492166D01*
X178630183Y-113564439D01*
X178750369Y-113614221D01*
X178877956Y-113639600D01*
X179008044Y-113639600D01*
X179135631Y-113614221D01*
X179255817Y-113564439D01*
X179363980Y-113492166D01*
X179455966Y-113400180D01*
X179528239Y-113292017D01*
X179578021Y-113171831D01*
X179603400Y-113044244D01*
X179603400Y-112914156D01*
X179578021Y-112786569D01*
X179528239Y-112666383D01*
X179455966Y-112558220D01*
X179363980Y-112466234D01*
X179255817Y-112393961D01*
X179135631Y-112344179D01*
X179008044Y-112318800D01*
X178877956Y-112318800D01*
X178750369Y-112344179D01*
X178630183Y-112393961D01*
X178522020Y-112466234D01*
X178430034Y-112558220D01*
X178357761Y-112666383D01*
X178307979Y-112786569D01*
X178282600Y-112914156D01*
X143902400Y-112914156D01*
X143902400Y-112787156D01*
X143877021Y-112659569D01*
X143827239Y-112539383D01*
X143754966Y-112431220D01*
X143662980Y-112339234D01*
X143554817Y-112266961D01*
X143434631Y-112217179D01*
X143307044Y-112191800D01*
X143176956Y-112191800D01*
X143049369Y-112217179D01*
X142929183Y-112266961D01*
X142821020Y-112339234D01*
X142729034Y-112431220D01*
X142656761Y-112539383D01*
X142606979Y-112659569D01*
X142581600Y-112787156D01*
X132957082Y-112787156D01*
X132900817Y-112749561D01*
X132780631Y-112699779D01*
X132653044Y-112674400D01*
X132522956Y-112674400D01*
X132395369Y-112699779D01*
X132275183Y-112749561D01*
X132270500Y-112752690D01*
X132265817Y-112749561D01*
X132145631Y-112699779D01*
X132018044Y-112674400D01*
X131887956Y-112674400D01*
X131760369Y-112699779D01*
X131640183Y-112749561D01*
X131532020Y-112821834D01*
X131440034Y-112913820D01*
X131367761Y-113021983D01*
X131317979Y-113142169D01*
X131292600Y-113269756D01*
X85445200Y-113269756D01*
X85445200Y-112406156D01*
X126695200Y-112406156D01*
X126695200Y-112536244D01*
X126720579Y-112663831D01*
X126770361Y-112784017D01*
X126842634Y-112892180D01*
X126934620Y-112984166D01*
X127042783Y-113056439D01*
X127162969Y-113106221D01*
X127290556Y-113131600D01*
X127420644Y-113131600D01*
X127548231Y-113106221D01*
X127668417Y-113056439D01*
X127776580Y-112984166D01*
X127868566Y-112892180D01*
X127940839Y-112784017D01*
X127990621Y-112663831D01*
X128016000Y-112536244D01*
X128016000Y-112406156D01*
X127990621Y-112278569D01*
X127940839Y-112158383D01*
X127868566Y-112050220D01*
X127776580Y-111958234D01*
X127668417Y-111885961D01*
X127548231Y-111836179D01*
X127420644Y-111810800D01*
X127290556Y-111810800D01*
X127162969Y-111836179D01*
X127042783Y-111885961D01*
X126934620Y-111958234D01*
X126842634Y-112050220D01*
X126770361Y-112158383D01*
X126720579Y-112278569D01*
X126695200Y-112406156D01*
X85445200Y-112406156D01*
X85445200Y-109737801D01*
X88235656Y-109737801D01*
X88235656Y-111437801D01*
X88243012Y-111512490D01*
X88264798Y-111584309D01*
X88300177Y-111650497D01*
X88347788Y-111708512D01*
X88405803Y-111756123D01*
X88471991Y-111791502D01*
X88543810Y-111813288D01*
X88618499Y-111820644D01*
X90318499Y-111820644D01*
X90393188Y-111813288D01*
X90465007Y-111791502D01*
X90531195Y-111756123D01*
X90589210Y-111708512D01*
X90636821Y-111650497D01*
X90672200Y-111584309D01*
X90693986Y-111512490D01*
X90701342Y-111437801D01*
X90701342Y-111263156D01*
X93599000Y-111263156D01*
X93599000Y-111393244D01*
X93624379Y-111520831D01*
X93674161Y-111641017D01*
X93746434Y-111749180D01*
X93838420Y-111841166D01*
X93946583Y-111913439D01*
X94066769Y-111963221D01*
X94194356Y-111988600D01*
X94324444Y-111988600D01*
X94452031Y-111963221D01*
X94572217Y-111913439D01*
X94680380Y-111841166D01*
X94772366Y-111749180D01*
X94844639Y-111641017D01*
X94894421Y-111520831D01*
X94919800Y-111393244D01*
X94919800Y-111263156D01*
X94894421Y-111135569D01*
X94844639Y-111015383D01*
X94772366Y-110907220D01*
X94680380Y-110815234D01*
X94628482Y-110780556D01*
X118110000Y-110780556D01*
X118110000Y-110910644D01*
X118135379Y-111038231D01*
X118185161Y-111158417D01*
X118188290Y-111163100D01*
X118185161Y-111167783D01*
X118135379Y-111287969D01*
X118110000Y-111415556D01*
X118110000Y-111545644D01*
X118135379Y-111673231D01*
X118185161Y-111793417D01*
X118257434Y-111901580D01*
X118349420Y-111993566D01*
X118457583Y-112065839D01*
X118577769Y-112115621D01*
X118705356Y-112141000D01*
X118835444Y-112141000D01*
X118963031Y-112115621D01*
X119083217Y-112065839D01*
X119087900Y-112062710D01*
X119092583Y-112065839D01*
X119212769Y-112115621D01*
X119340356Y-112141000D01*
X119470444Y-112141000D01*
X119598031Y-112115621D01*
X119718217Y-112065839D01*
X119826380Y-111993566D01*
X119918366Y-111901580D01*
X119990639Y-111793417D01*
X120040421Y-111673231D01*
X120065800Y-111545644D01*
X120065800Y-111415556D01*
X120040421Y-111287969D01*
X119990639Y-111167783D01*
X119987510Y-111163100D01*
X119990639Y-111158417D01*
X120040421Y-111038231D01*
X120065800Y-110910644D01*
X120065800Y-110805956D01*
X146532600Y-110805956D01*
X146532600Y-110936044D01*
X146557979Y-111063631D01*
X146607761Y-111183817D01*
X146610890Y-111188500D01*
X146607761Y-111193183D01*
X146557979Y-111313369D01*
X146532600Y-111440956D01*
X146532600Y-111571044D01*
X146557979Y-111698631D01*
X146607761Y-111818817D01*
X146680034Y-111926980D01*
X146772020Y-112018966D01*
X146880183Y-112091239D01*
X147000369Y-112141021D01*
X147127956Y-112166400D01*
X147258044Y-112166400D01*
X147385631Y-112141021D01*
X147505817Y-112091239D01*
X147510500Y-112088110D01*
X147515183Y-112091239D01*
X147635369Y-112141021D01*
X147762956Y-112166400D01*
X147893044Y-112166400D01*
X148020631Y-112141021D01*
X148140817Y-112091239D01*
X148248980Y-112018966D01*
X148340966Y-111926980D01*
X148413239Y-111818817D01*
X148463021Y-111698631D01*
X148488400Y-111571044D01*
X148488400Y-111440956D01*
X148463021Y-111313369D01*
X148413239Y-111193183D01*
X148410110Y-111188500D01*
X148413239Y-111183817D01*
X148463021Y-111063631D01*
X148488400Y-110936044D01*
X148488400Y-110805956D01*
X148463021Y-110678369D01*
X148413239Y-110558183D01*
X148340966Y-110450020D01*
X148248980Y-110358034D01*
X148140817Y-110285761D01*
X148020631Y-110235979D01*
X147893044Y-110210600D01*
X147762956Y-110210600D01*
X147635369Y-110235979D01*
X147515183Y-110285761D01*
X147510500Y-110288890D01*
X147505817Y-110285761D01*
X147385631Y-110235979D01*
X147258044Y-110210600D01*
X147127956Y-110210600D01*
X147000369Y-110235979D01*
X146880183Y-110285761D01*
X146772020Y-110358034D01*
X146680034Y-110450020D01*
X146607761Y-110558183D01*
X146557979Y-110678369D01*
X146532600Y-110805956D01*
X120065800Y-110805956D01*
X120065800Y-110780556D01*
X120040421Y-110652969D01*
X119990639Y-110532783D01*
X119918366Y-110424620D01*
X119826380Y-110332634D01*
X119718217Y-110260361D01*
X119598031Y-110210579D01*
X119470444Y-110185200D01*
X119340356Y-110185200D01*
X119212769Y-110210579D01*
X119092583Y-110260361D01*
X119087900Y-110263490D01*
X119083217Y-110260361D01*
X118963031Y-110210579D01*
X118835444Y-110185200D01*
X118705356Y-110185200D01*
X118577769Y-110210579D01*
X118457583Y-110260361D01*
X118349420Y-110332634D01*
X118257434Y-110424620D01*
X118185161Y-110532783D01*
X118135379Y-110652969D01*
X118110000Y-110780556D01*
X94628482Y-110780556D01*
X94572217Y-110742961D01*
X94452031Y-110693179D01*
X94324444Y-110667800D01*
X94194356Y-110667800D01*
X94066769Y-110693179D01*
X93946583Y-110742961D01*
X93838420Y-110815234D01*
X93746434Y-110907220D01*
X93674161Y-111015383D01*
X93624379Y-111135569D01*
X93599000Y-111263156D01*
X90701342Y-111263156D01*
X90701342Y-109737801D01*
X90693986Y-109663112D01*
X90672200Y-109591293D01*
X90636821Y-109525105D01*
X90589210Y-109467090D01*
X90580274Y-109459756D01*
X142595600Y-109459756D01*
X142595600Y-109589844D01*
X142620979Y-109717431D01*
X142670761Y-109837617D01*
X142743034Y-109945780D01*
X142835020Y-110037766D01*
X142943183Y-110110039D01*
X143063369Y-110159821D01*
X143190956Y-110185200D01*
X143321044Y-110185200D01*
X143448631Y-110159821D01*
X143568817Y-110110039D01*
X143676980Y-110037766D01*
X143768966Y-109945780D01*
X143841239Y-109837617D01*
X143891021Y-109717431D01*
X143916400Y-109589844D01*
X143916400Y-109459756D01*
X143891021Y-109332169D01*
X143841239Y-109211983D01*
X143768966Y-109103820D01*
X143676980Y-109011834D01*
X143568817Y-108939561D01*
X143448631Y-108889779D01*
X143321044Y-108864400D01*
X143190956Y-108864400D01*
X143063369Y-108889779D01*
X142943183Y-108939561D01*
X142835020Y-109011834D01*
X142743034Y-109103820D01*
X142670761Y-109211983D01*
X142620979Y-109332169D01*
X142595600Y-109459756D01*
X90580274Y-109459756D01*
X90531195Y-109419479D01*
X90465007Y-109384100D01*
X90393188Y-109362314D01*
X90318499Y-109354958D01*
X88618499Y-109354958D01*
X88543810Y-109362314D01*
X88471991Y-109384100D01*
X88405803Y-109419479D01*
X88347788Y-109467090D01*
X88300177Y-109525105D01*
X88264798Y-109591293D01*
X88243012Y-109663112D01*
X88235656Y-109737801D01*
X85445200Y-109737801D01*
X85445200Y-108047801D01*
X88231543Y-108047801D01*
X88255311Y-108289119D01*
X88325701Y-108521164D01*
X88440008Y-108735017D01*
X88593839Y-108922461D01*
X88781283Y-109076292D01*
X88995136Y-109190599D01*
X89227181Y-109260989D01*
X89408027Y-109278801D01*
X89528971Y-109278801D01*
X89709817Y-109260989D01*
X89941862Y-109190599D01*
X90155715Y-109076292D01*
X90343159Y-108922461D01*
X90496990Y-108735017D01*
X90611297Y-108521164D01*
X90681687Y-108289119D01*
X90705455Y-108047801D01*
X90681687Y-107806483D01*
X90620737Y-107605556D01*
X91821000Y-107605556D01*
X91821000Y-107735644D01*
X91846379Y-107863231D01*
X91896161Y-107983417D01*
X91968434Y-108091580D01*
X92060420Y-108183566D01*
X92168583Y-108255839D01*
X92288769Y-108305621D01*
X92416356Y-108331000D01*
X92546444Y-108331000D01*
X92674031Y-108305621D01*
X92794217Y-108255839D01*
X92902380Y-108183566D01*
X92994366Y-108091580D01*
X93066639Y-107983417D01*
X93116421Y-107863231D01*
X93141800Y-107735644D01*
X93141800Y-107605556D01*
X93116421Y-107477969D01*
X93066639Y-107357783D01*
X92994366Y-107249620D01*
X92902380Y-107157634D01*
X92794217Y-107085361D01*
X92674031Y-107035579D01*
X92546444Y-107010200D01*
X92416356Y-107010200D01*
X92288769Y-107035579D01*
X92168583Y-107085361D01*
X92060420Y-107157634D01*
X91968434Y-107249620D01*
X91896161Y-107357783D01*
X91846379Y-107477969D01*
X91821000Y-107605556D01*
X90620737Y-107605556D01*
X90611297Y-107574438D01*
X90496990Y-107360585D01*
X90343159Y-107173141D01*
X90155715Y-107019310D01*
X89941862Y-106905003D01*
X89709817Y-106834613D01*
X89528971Y-106816801D01*
X89408027Y-106816801D01*
X89227181Y-106834613D01*
X88995136Y-106905003D01*
X88781283Y-107019310D01*
X88593839Y-107173141D01*
X88440008Y-107360585D01*
X88325701Y-107574438D01*
X88255311Y-107806483D01*
X88231543Y-108047801D01*
X85445200Y-108047801D01*
X85445200Y-106437156D01*
X93624400Y-106437156D01*
X93624400Y-106567244D01*
X93649779Y-106694831D01*
X93699561Y-106815017D01*
X93771834Y-106923180D01*
X93863820Y-107015166D01*
X93971983Y-107087439D01*
X94092169Y-107137221D01*
X94219756Y-107162600D01*
X94349844Y-107162600D01*
X94477431Y-107137221D01*
X94597617Y-107087439D01*
X94705780Y-107015166D01*
X94750390Y-106970556D01*
X101650800Y-106970556D01*
X101650800Y-107100644D01*
X101676179Y-107228231D01*
X101725961Y-107348417D01*
X101798234Y-107456580D01*
X101890220Y-107548566D01*
X101998383Y-107620839D01*
X102118569Y-107670621D01*
X102246156Y-107696000D01*
X102376244Y-107696000D01*
X102503831Y-107670621D01*
X102624017Y-107620839D01*
X102732180Y-107548566D01*
X102824166Y-107456580D01*
X102896439Y-107348417D01*
X102946221Y-107228231D01*
X102971600Y-107100644D01*
X102971600Y-107072156D01*
X121564400Y-107072156D01*
X121564400Y-107202244D01*
X121589779Y-107329831D01*
X121639561Y-107450017D01*
X121711834Y-107558180D01*
X121803820Y-107650166D01*
X121911983Y-107722439D01*
X122032169Y-107772221D01*
X122159756Y-107797600D01*
X122289844Y-107797600D01*
X122417431Y-107772221D01*
X122537617Y-107722439D01*
X122645780Y-107650166D01*
X122737766Y-107558180D01*
X122810039Y-107450017D01*
X122859821Y-107329831D01*
X122885200Y-107202244D01*
X122885200Y-107072156D01*
X122859821Y-106944569D01*
X122810039Y-106824383D01*
X122737766Y-106716220D01*
X122645780Y-106624234D01*
X122537617Y-106551961D01*
X122505737Y-106538756D01*
X146874200Y-106538756D01*
X146874200Y-106668844D01*
X146899579Y-106796431D01*
X146949361Y-106916617D01*
X147021634Y-107024780D01*
X147113620Y-107116766D01*
X147221783Y-107189039D01*
X147341969Y-107238821D01*
X147469556Y-107264200D01*
X147599644Y-107264200D01*
X147727231Y-107238821D01*
X147847417Y-107189039D01*
X147955580Y-107116766D01*
X148047566Y-107024780D01*
X148119839Y-106916617D01*
X148169621Y-106796431D01*
X148195000Y-106668844D01*
X148195000Y-106538756D01*
X148169621Y-106411169D01*
X148119839Y-106290983D01*
X148047566Y-106182820D01*
X147955580Y-106090834D01*
X147847417Y-106018561D01*
X147727231Y-105968779D01*
X147599644Y-105943400D01*
X147469556Y-105943400D01*
X147341969Y-105968779D01*
X147221783Y-106018561D01*
X147113620Y-106090834D01*
X147021634Y-106182820D01*
X146949361Y-106290983D01*
X146899579Y-106411169D01*
X146874200Y-106538756D01*
X122505737Y-106538756D01*
X122417431Y-106502179D01*
X122289844Y-106476800D01*
X122159756Y-106476800D01*
X122032169Y-106502179D01*
X121911983Y-106551961D01*
X121803820Y-106624234D01*
X121711834Y-106716220D01*
X121639561Y-106824383D01*
X121589779Y-106944569D01*
X121564400Y-107072156D01*
X102971600Y-107072156D01*
X102971600Y-106970556D01*
X102946221Y-106842969D01*
X102896439Y-106722783D01*
X102824166Y-106614620D01*
X102732180Y-106522634D01*
X102624017Y-106450361D01*
X102503831Y-106400579D01*
X102376244Y-106375200D01*
X102246156Y-106375200D01*
X102118569Y-106400579D01*
X101998383Y-106450361D01*
X101890220Y-106522634D01*
X101798234Y-106614620D01*
X101725961Y-106722783D01*
X101676179Y-106842969D01*
X101650800Y-106970556D01*
X94750390Y-106970556D01*
X94797766Y-106923180D01*
X94870039Y-106815017D01*
X94919821Y-106694831D01*
X94945200Y-106567244D01*
X94945200Y-106437156D01*
X94919821Y-106309569D01*
X94870039Y-106189383D01*
X94797766Y-106081220D01*
X94705780Y-105989234D01*
X94631094Y-105939330D01*
X94651556Y-105943400D01*
X94781644Y-105943400D01*
X94909231Y-105918021D01*
X95029417Y-105868239D01*
X95137580Y-105795966D01*
X95229566Y-105703980D01*
X95301839Y-105595817D01*
X95351621Y-105475631D01*
X95377000Y-105348044D01*
X95377000Y-105217956D01*
X95351621Y-105090369D01*
X95301839Y-104970183D01*
X95229566Y-104862020D01*
X95137580Y-104770034D01*
X95029417Y-104697761D01*
X94909231Y-104647979D01*
X94781644Y-104622600D01*
X94651556Y-104622600D01*
X94523969Y-104647979D01*
X94403783Y-104697761D01*
X94295620Y-104770034D01*
X94203634Y-104862020D01*
X94131361Y-104970183D01*
X94081579Y-105090369D01*
X94056200Y-105217956D01*
X94056200Y-105348044D01*
X94081579Y-105475631D01*
X94131361Y-105595817D01*
X94203634Y-105703980D01*
X94295620Y-105795966D01*
X94370306Y-105845870D01*
X94349844Y-105841800D01*
X94219756Y-105841800D01*
X94092169Y-105867179D01*
X93971983Y-105916961D01*
X93863820Y-105989234D01*
X93771834Y-106081220D01*
X93699561Y-106189383D01*
X93649779Y-106309569D01*
X93624400Y-106437156D01*
X85445200Y-106437156D01*
X85445200Y-102967801D01*
X88231543Y-102967801D01*
X88255311Y-103209119D01*
X88325701Y-103441164D01*
X88440008Y-103655017D01*
X88593839Y-103842461D01*
X88781283Y-103996292D01*
X88995136Y-104110599D01*
X89227181Y-104180989D01*
X89408027Y-104198801D01*
X89528971Y-104198801D01*
X89709817Y-104180989D01*
X89941862Y-104110599D01*
X90155715Y-103996292D01*
X90338412Y-103846356D01*
X108204000Y-103846356D01*
X108204000Y-103976444D01*
X108229379Y-104104031D01*
X108279161Y-104224217D01*
X108351434Y-104332380D01*
X108443420Y-104424366D01*
X108551583Y-104496639D01*
X108671769Y-104546421D01*
X108799356Y-104571800D01*
X108929444Y-104571800D01*
X109057031Y-104546421D01*
X109177217Y-104496639D01*
X109285380Y-104424366D01*
X109377366Y-104332380D01*
X109449639Y-104224217D01*
X109499421Y-104104031D01*
X109524800Y-103976444D01*
X109524800Y-103846356D01*
X109499421Y-103718769D01*
X109449639Y-103598583D01*
X109377366Y-103490420D01*
X109285380Y-103398434D01*
X109177217Y-103326161D01*
X109057031Y-103276379D01*
X108929444Y-103251000D01*
X108799356Y-103251000D01*
X108671769Y-103276379D01*
X108551583Y-103326161D01*
X108443420Y-103398434D01*
X108351434Y-103490420D01*
X108279161Y-103598583D01*
X108229379Y-103718769D01*
X108204000Y-103846356D01*
X90338412Y-103846356D01*
X90343159Y-103842461D01*
X90496990Y-103655017D01*
X90611297Y-103441164D01*
X90681687Y-103209119D01*
X90705455Y-102967801D01*
X90681687Y-102726483D01*
X90611297Y-102494438D01*
X90540377Y-102361756D01*
X110845600Y-102361756D01*
X110845600Y-102491844D01*
X110870979Y-102619431D01*
X110920761Y-102739617D01*
X110993034Y-102847780D01*
X111085020Y-102939766D01*
X111193183Y-103012039D01*
X111313369Y-103061821D01*
X111440956Y-103087200D01*
X111571044Y-103087200D01*
X111698631Y-103061821D01*
X111818817Y-103012039D01*
X111926980Y-102939766D01*
X112018966Y-102847780D01*
X112021253Y-102844356D01*
X119456200Y-102844356D01*
X119456200Y-102974444D01*
X119481579Y-103102031D01*
X119531361Y-103222217D01*
X119603634Y-103330380D01*
X119695620Y-103422366D01*
X119803783Y-103494639D01*
X119923969Y-103544421D01*
X120051556Y-103569800D01*
X120181644Y-103569800D01*
X120309231Y-103544421D01*
X120429417Y-103494639D01*
X120537580Y-103422366D01*
X120629566Y-103330380D01*
X120701839Y-103222217D01*
X120751621Y-103102031D01*
X120762456Y-103047556D01*
X127838200Y-103047556D01*
X127838200Y-103177644D01*
X127863579Y-103305231D01*
X127913361Y-103425417D01*
X127985634Y-103533580D01*
X128077620Y-103625566D01*
X128185783Y-103697839D01*
X128305969Y-103747621D01*
X128433556Y-103773000D01*
X128563644Y-103773000D01*
X128691231Y-103747621D01*
X128811417Y-103697839D01*
X128919580Y-103625566D01*
X129011566Y-103533580D01*
X129083839Y-103425417D01*
X129133621Y-103305231D01*
X129159000Y-103177644D01*
X129159000Y-103136456D01*
X135407400Y-103136456D01*
X135407400Y-103266544D01*
X135432779Y-103394131D01*
X135482561Y-103514317D01*
X135554834Y-103622480D01*
X135646820Y-103714466D01*
X135754983Y-103786739D01*
X135875169Y-103836521D01*
X136002756Y-103861900D01*
X136132844Y-103861900D01*
X136260431Y-103836521D01*
X136380617Y-103786739D01*
X136488780Y-103714466D01*
X136580766Y-103622480D01*
X136653039Y-103514317D01*
X136702821Y-103394131D01*
X136728200Y-103266544D01*
X136728200Y-103136456D01*
X136702821Y-103008869D01*
X136653039Y-102888683D01*
X136580766Y-102780520D01*
X136488780Y-102688534D01*
X136380617Y-102616261D01*
X136260431Y-102566479D01*
X136132844Y-102541100D01*
X136002756Y-102541100D01*
X135875169Y-102566479D01*
X135754983Y-102616261D01*
X135646820Y-102688534D01*
X135554834Y-102780520D01*
X135482561Y-102888683D01*
X135432779Y-103008869D01*
X135407400Y-103136456D01*
X129159000Y-103136456D01*
X129159000Y-103047556D01*
X129133621Y-102919969D01*
X129083839Y-102799783D01*
X129011566Y-102691620D01*
X128919580Y-102599634D01*
X128811417Y-102527361D01*
X128691231Y-102477579D01*
X128563644Y-102452200D01*
X128433556Y-102452200D01*
X128305969Y-102477579D01*
X128185783Y-102527361D01*
X128077620Y-102599634D01*
X127985634Y-102691620D01*
X127913361Y-102799783D01*
X127863579Y-102919969D01*
X127838200Y-103047556D01*
X120762456Y-103047556D01*
X120777000Y-102974444D01*
X120777000Y-102844356D01*
X120751621Y-102716769D01*
X120701839Y-102596583D01*
X120629566Y-102488420D01*
X120537580Y-102396434D01*
X120429417Y-102324161D01*
X120397537Y-102310956D01*
X144424400Y-102310956D01*
X144424400Y-102441044D01*
X144449779Y-102568631D01*
X144499561Y-102688817D01*
X144571834Y-102796980D01*
X144663820Y-102888966D01*
X144771983Y-102961239D01*
X144892169Y-103011021D01*
X145019756Y-103036400D01*
X145149844Y-103036400D01*
X145277431Y-103011021D01*
X145397617Y-102961239D01*
X145505780Y-102888966D01*
X145526290Y-102868456D01*
X154279600Y-102868456D01*
X154279600Y-102998544D01*
X154304979Y-103126131D01*
X154354761Y-103246317D01*
X154427034Y-103354480D01*
X154519020Y-103446466D01*
X154627183Y-103518739D01*
X154747369Y-103568521D01*
X154874956Y-103593900D01*
X155005044Y-103593900D01*
X155132631Y-103568521D01*
X155252817Y-103518739D01*
X155360980Y-103446466D01*
X155452966Y-103354480D01*
X155525239Y-103246317D01*
X155575021Y-103126131D01*
X155600400Y-102998544D01*
X155600400Y-102906556D01*
X160096200Y-102906556D01*
X160096200Y-103036644D01*
X160121579Y-103164231D01*
X160171361Y-103284417D01*
X160243634Y-103392580D01*
X160335620Y-103484566D01*
X160443783Y-103556839D01*
X160563969Y-103606621D01*
X160691556Y-103632000D01*
X160821644Y-103632000D01*
X160949231Y-103606621D01*
X161069417Y-103556839D01*
X161177580Y-103484566D01*
X161269566Y-103392580D01*
X161341839Y-103284417D01*
X161391621Y-103164231D01*
X161417000Y-103036644D01*
X161417000Y-102906556D01*
X161391621Y-102778969D01*
X161341839Y-102658783D01*
X161269566Y-102550620D01*
X161177580Y-102458634D01*
X161069417Y-102386361D01*
X160949231Y-102336579D01*
X160877729Y-102322356D01*
X165557200Y-102322356D01*
X165557200Y-102452444D01*
X165582579Y-102580031D01*
X165632361Y-102700217D01*
X165704634Y-102808380D01*
X165796620Y-102900366D01*
X165904783Y-102972639D01*
X166024969Y-103022421D01*
X166152556Y-103047800D01*
X166282644Y-103047800D01*
X166410231Y-103022421D01*
X166530417Y-102972639D01*
X166638580Y-102900366D01*
X166730566Y-102808380D01*
X166802839Y-102700217D01*
X166852621Y-102580031D01*
X166878000Y-102452444D01*
X166878000Y-102322356D01*
X166852621Y-102194769D01*
X166802839Y-102074583D01*
X166730566Y-101966420D01*
X166638580Y-101874434D01*
X166530417Y-101802161D01*
X166410231Y-101752379D01*
X166282644Y-101727000D01*
X166152556Y-101727000D01*
X166024969Y-101752379D01*
X165904783Y-101802161D01*
X165796620Y-101874434D01*
X165704634Y-101966420D01*
X165632361Y-102074583D01*
X165582579Y-102194769D01*
X165557200Y-102322356D01*
X160877729Y-102322356D01*
X160821644Y-102311200D01*
X160691556Y-102311200D01*
X160563969Y-102336579D01*
X160443783Y-102386361D01*
X160335620Y-102458634D01*
X160243634Y-102550620D01*
X160171361Y-102658783D01*
X160121579Y-102778969D01*
X160096200Y-102906556D01*
X155600400Y-102906556D01*
X155600400Y-102868456D01*
X155575021Y-102740869D01*
X155525239Y-102620683D01*
X155452966Y-102512520D01*
X155360980Y-102420534D01*
X155252817Y-102348261D01*
X155132631Y-102298479D01*
X155005044Y-102273100D01*
X154874956Y-102273100D01*
X154747369Y-102298479D01*
X154627183Y-102348261D01*
X154519020Y-102420534D01*
X154427034Y-102512520D01*
X154354761Y-102620683D01*
X154304979Y-102740869D01*
X154279600Y-102868456D01*
X145526290Y-102868456D01*
X145597766Y-102796980D01*
X145670039Y-102688817D01*
X145719821Y-102568631D01*
X145745200Y-102441044D01*
X145745200Y-102310956D01*
X145719821Y-102183369D01*
X145670039Y-102063183D01*
X145597766Y-101955020D01*
X145505780Y-101863034D01*
X145397617Y-101790761D01*
X145277431Y-101740979D01*
X145149844Y-101715600D01*
X145019756Y-101715600D01*
X144892169Y-101740979D01*
X144771983Y-101790761D01*
X144663820Y-101863034D01*
X144571834Y-101955020D01*
X144499561Y-102063183D01*
X144449779Y-102183369D01*
X144424400Y-102310956D01*
X120397537Y-102310956D01*
X120309231Y-102274379D01*
X120181644Y-102249000D01*
X120051556Y-102249000D01*
X119923969Y-102274379D01*
X119803783Y-102324161D01*
X119695620Y-102396434D01*
X119603634Y-102488420D01*
X119531361Y-102596583D01*
X119481579Y-102716769D01*
X119456200Y-102844356D01*
X112021253Y-102844356D01*
X112091239Y-102739617D01*
X112141021Y-102619431D01*
X112166400Y-102491844D01*
X112166400Y-102361756D01*
X112141021Y-102234169D01*
X112091239Y-102113983D01*
X112018966Y-102005820D01*
X111926980Y-101913834D01*
X111818817Y-101841561D01*
X111698631Y-101791779D01*
X111571044Y-101766400D01*
X111440956Y-101766400D01*
X111313369Y-101791779D01*
X111193183Y-101841561D01*
X111085020Y-101913834D01*
X110993034Y-102005820D01*
X110920761Y-102113983D01*
X110870979Y-102234169D01*
X110845600Y-102361756D01*
X90540377Y-102361756D01*
X90496990Y-102280585D01*
X90343159Y-102093141D01*
X90155715Y-101939310D01*
X89941862Y-101825003D01*
X89709817Y-101754613D01*
X89528971Y-101736801D01*
X89408027Y-101736801D01*
X89227181Y-101754613D01*
X88995136Y-101825003D01*
X88781283Y-101939310D01*
X88593839Y-102093141D01*
X88440008Y-102280585D01*
X88325701Y-102494438D01*
X88255311Y-102726483D01*
X88231543Y-102967801D01*
X85445200Y-102967801D01*
X85445200Y-100427801D01*
X88231543Y-100427801D01*
X88255311Y-100669119D01*
X88325701Y-100901164D01*
X88440008Y-101115017D01*
X88593839Y-101302461D01*
X88781283Y-101456292D01*
X88995136Y-101570599D01*
X89227181Y-101640989D01*
X89408027Y-101658801D01*
X89528971Y-101658801D01*
X89709817Y-101640989D01*
X89941862Y-101570599D01*
X90155715Y-101456292D01*
X90343159Y-101302461D01*
X90496990Y-101115017D01*
X90611297Y-100901164D01*
X90681687Y-100669119D01*
X90705455Y-100427801D01*
X90681687Y-100186483D01*
X90611297Y-99954438D01*
X90496990Y-99740585D01*
X90343159Y-99553141D01*
X90155715Y-99399310D01*
X89941862Y-99285003D01*
X89709817Y-99214613D01*
X89528971Y-99196801D01*
X89408027Y-99196801D01*
X89227181Y-99214613D01*
X88995136Y-99285003D01*
X88781283Y-99399310D01*
X88593839Y-99553141D01*
X88440008Y-99740585D01*
X88325701Y-99954438D01*
X88255311Y-100186483D01*
X88231543Y-100427801D01*
X85445200Y-100427801D01*
X85445200Y-97887801D01*
X88231543Y-97887801D01*
X88255311Y-98129119D01*
X88325701Y-98361164D01*
X88440008Y-98575017D01*
X88593839Y-98762461D01*
X88781283Y-98916292D01*
X88995136Y-99030599D01*
X89227181Y-99100989D01*
X89408027Y-99118801D01*
X89528971Y-99118801D01*
X89709817Y-99100989D01*
X89941862Y-99030599D01*
X90155715Y-98916292D01*
X90343159Y-98762461D01*
X90496990Y-98575017D01*
X90503329Y-98563156D01*
X102514400Y-98563156D01*
X102514400Y-98693244D01*
X102539779Y-98820831D01*
X102589561Y-98941017D01*
X102661834Y-99049180D01*
X102753820Y-99141166D01*
X102861983Y-99213439D01*
X102982169Y-99263221D01*
X103109756Y-99288600D01*
X103239844Y-99288600D01*
X103367431Y-99263221D01*
X103487617Y-99213439D01*
X103595780Y-99141166D01*
X103687766Y-99049180D01*
X103760039Y-98941017D01*
X103809821Y-98820831D01*
X103835200Y-98693244D01*
X103835200Y-98563156D01*
X103809821Y-98435569D01*
X103760039Y-98315383D01*
X103687766Y-98207220D01*
X103595780Y-98115234D01*
X103487617Y-98042961D01*
X103367431Y-97993179D01*
X103239844Y-97967800D01*
X103109756Y-97967800D01*
X102982169Y-97993179D01*
X102861983Y-98042961D01*
X102753820Y-98115234D01*
X102661834Y-98207220D01*
X102589561Y-98315383D01*
X102539779Y-98435569D01*
X102514400Y-98563156D01*
X90503329Y-98563156D01*
X90611297Y-98361164D01*
X90681687Y-98129119D01*
X90705455Y-97887801D01*
X90681687Y-97646483D01*
X90659262Y-97572556D01*
X97600800Y-97572556D01*
X97600800Y-97702644D01*
X97626179Y-97830231D01*
X97675961Y-97950417D01*
X97748234Y-98058580D01*
X97840220Y-98150566D01*
X97948383Y-98222839D01*
X98068569Y-98272621D01*
X98196156Y-98298000D01*
X98326244Y-98298000D01*
X98453831Y-98272621D01*
X98574017Y-98222839D01*
X98682180Y-98150566D01*
X98774166Y-98058580D01*
X98846439Y-97950417D01*
X98896221Y-97830231D01*
X98921600Y-97702644D01*
X98921600Y-97572556D01*
X98896221Y-97444969D01*
X98846439Y-97324783D01*
X98774166Y-97216620D01*
X98682180Y-97124634D01*
X98574017Y-97052361D01*
X98453831Y-97002579D01*
X98326244Y-96977200D01*
X98196156Y-96977200D01*
X98068569Y-97002579D01*
X97948383Y-97052361D01*
X97840220Y-97124634D01*
X97748234Y-97216620D01*
X97675961Y-97324783D01*
X97626179Y-97444969D01*
X97600800Y-97572556D01*
X90659262Y-97572556D01*
X90611297Y-97414438D01*
X90496990Y-97200585D01*
X90343159Y-97013141D01*
X90155715Y-96859310D01*
X89993223Y-96772456D01*
X104305100Y-96772456D01*
X104305100Y-96902544D01*
X104330479Y-97030131D01*
X104380261Y-97150317D01*
X104452534Y-97258480D01*
X104544520Y-97350466D01*
X104652683Y-97422739D01*
X104772869Y-97472521D01*
X104900456Y-97497900D01*
X105030544Y-97497900D01*
X105158131Y-97472521D01*
X105278317Y-97422739D01*
X105386480Y-97350466D01*
X105478466Y-97258480D01*
X105550739Y-97150317D01*
X105600521Y-97030131D01*
X105625900Y-96902544D01*
X105625900Y-96772456D01*
X105600521Y-96644869D01*
X105550739Y-96524683D01*
X105478466Y-96416520D01*
X105386480Y-96324534D01*
X105278317Y-96252261D01*
X105158131Y-96202479D01*
X105030544Y-96177100D01*
X104900456Y-96177100D01*
X104772869Y-96202479D01*
X104652683Y-96252261D01*
X104544520Y-96324534D01*
X104452534Y-96416520D01*
X104380261Y-96524683D01*
X104330479Y-96644869D01*
X104305100Y-96772456D01*
X89993223Y-96772456D01*
X89941862Y-96745003D01*
X89709817Y-96674613D01*
X89528971Y-96656801D01*
X89408027Y-96656801D01*
X89227181Y-96674613D01*
X88995136Y-96745003D01*
X88781283Y-96859310D01*
X88593839Y-97013141D01*
X88440008Y-97200585D01*
X88325701Y-97414438D01*
X88255311Y-97646483D01*
X88231543Y-97887801D01*
X85445200Y-97887801D01*
X85445200Y-93254556D01*
X133273800Y-93254556D01*
X133273800Y-93384644D01*
X133299179Y-93512231D01*
X133348961Y-93632417D01*
X133421234Y-93740580D01*
X133513220Y-93832566D01*
X133621383Y-93904839D01*
X133741569Y-93954621D01*
X133869156Y-93980000D01*
X133999244Y-93980000D01*
X134126831Y-93954621D01*
X134247017Y-93904839D01*
X134355180Y-93832566D01*
X134447166Y-93740580D01*
X134519439Y-93632417D01*
X134569221Y-93512231D01*
X134594600Y-93384644D01*
X134594600Y-93254556D01*
X134569221Y-93126969D01*
X134519439Y-93006783D01*
X134447166Y-92898620D01*
X134355180Y-92806634D01*
X134247017Y-92734361D01*
X134126831Y-92684579D01*
X133999244Y-92659200D01*
X133869156Y-92659200D01*
X133741569Y-92684579D01*
X133621383Y-92734361D01*
X133513220Y-92806634D01*
X133421234Y-92898620D01*
X133348961Y-93006783D01*
X133299179Y-93126969D01*
X133273800Y-93254556D01*
X85445200Y-93254556D01*
X85445200Y-92543356D01*
X160705800Y-92543356D01*
X160705800Y-92673444D01*
X160731179Y-92801031D01*
X160780961Y-92921217D01*
X160853234Y-93029380D01*
X160945220Y-93121366D01*
X161053383Y-93193639D01*
X161173569Y-93243421D01*
X161301156Y-93268800D01*
X161431244Y-93268800D01*
X161558831Y-93243421D01*
X161679017Y-93193639D01*
X161787180Y-93121366D01*
X161879166Y-93029380D01*
X161951439Y-92921217D01*
X162001221Y-92801031D01*
X162026600Y-92673444D01*
X162026600Y-92543356D01*
X162001221Y-92415769D01*
X161951439Y-92295583D01*
X161913335Y-92238556D01*
X169976800Y-92238556D01*
X169976800Y-92368644D01*
X170002179Y-92496231D01*
X170051961Y-92616417D01*
X170124234Y-92724580D01*
X170216220Y-92816566D01*
X170324383Y-92888839D01*
X170444569Y-92938621D01*
X170572156Y-92964000D01*
X170702244Y-92964000D01*
X170829831Y-92938621D01*
X170950017Y-92888839D01*
X171058180Y-92816566D01*
X171150166Y-92724580D01*
X171222439Y-92616417D01*
X171272221Y-92496231D01*
X171297600Y-92368644D01*
X171297600Y-92238556D01*
X171272221Y-92110969D01*
X171222439Y-91990783D01*
X171150166Y-91882620D01*
X171058180Y-91790634D01*
X170950017Y-91718361D01*
X170829831Y-91668579D01*
X170702244Y-91643200D01*
X170572156Y-91643200D01*
X170444569Y-91668579D01*
X170324383Y-91718361D01*
X170216220Y-91790634D01*
X170124234Y-91882620D01*
X170051961Y-91990783D01*
X170002179Y-92110969D01*
X169976800Y-92238556D01*
X161913335Y-92238556D01*
X161879166Y-92187420D01*
X161787180Y-92095434D01*
X161679017Y-92023161D01*
X161558831Y-91973379D01*
X161431244Y-91948000D01*
X161301156Y-91948000D01*
X161173569Y-91973379D01*
X161053383Y-92023161D01*
X160945220Y-92095434D01*
X160853234Y-92187420D01*
X160780961Y-92295583D01*
X160731179Y-92415769D01*
X160705800Y-92543356D01*
X85445200Y-92543356D01*
X85445200Y-91527356D01*
X108534200Y-91527356D01*
X108534200Y-91657444D01*
X108559579Y-91785031D01*
X108609361Y-91905217D01*
X108681634Y-92013380D01*
X108773620Y-92105366D01*
X108881783Y-92177639D01*
X109001969Y-92227421D01*
X109129556Y-92252800D01*
X109259644Y-92252800D01*
X109387231Y-92227421D01*
X109507417Y-92177639D01*
X109615580Y-92105366D01*
X109707566Y-92013380D01*
X109779839Y-91905217D01*
X109829621Y-91785031D01*
X109855000Y-91657444D01*
X109855000Y-91527356D01*
X109829621Y-91399769D01*
X109779839Y-91279583D01*
X109707566Y-91171420D01*
X109615580Y-91079434D01*
X109507417Y-91007161D01*
X109387231Y-90957379D01*
X109259644Y-90932000D01*
X109129556Y-90932000D01*
X109001969Y-90957379D01*
X108881783Y-91007161D01*
X108773620Y-91079434D01*
X108681634Y-91171420D01*
X108609361Y-91279583D01*
X108559579Y-91399769D01*
X108534200Y-91527356D01*
X85445200Y-91527356D01*
X85445200Y-90206556D01*
X156972000Y-90206556D01*
X156972000Y-90336644D01*
X156997379Y-90464231D01*
X157047161Y-90584417D01*
X157119434Y-90692580D01*
X157211420Y-90784566D01*
X157319583Y-90856839D01*
X157439769Y-90906621D01*
X157567356Y-90932000D01*
X157697444Y-90932000D01*
X157825031Y-90906621D01*
X157945217Y-90856839D01*
X158053380Y-90784566D01*
X158145366Y-90692580D01*
X158217639Y-90584417D01*
X158267421Y-90464231D01*
X158292800Y-90336644D01*
X158292800Y-90206556D01*
X158267421Y-90078969D01*
X158217639Y-89958783D01*
X158145366Y-89850620D01*
X158053380Y-89758634D01*
X157945217Y-89686361D01*
X157825031Y-89636579D01*
X157697444Y-89611200D01*
X157567356Y-89611200D01*
X157439769Y-89636579D01*
X157319583Y-89686361D01*
X157211420Y-89758634D01*
X157119434Y-89850620D01*
X157047161Y-89958783D01*
X156997379Y-90078969D01*
X156972000Y-90206556D01*
X85445200Y-90206556D01*
X85445200Y-87269583D01*
X87013400Y-87269583D01*
X87013400Y-87541617D01*
X87066471Y-87808423D01*
X87170574Y-88059749D01*
X87321707Y-88285936D01*
X87514064Y-88478293D01*
X87740251Y-88629426D01*
X87991577Y-88733529D01*
X88258383Y-88786600D01*
X88530417Y-88786600D01*
X88797223Y-88733529D01*
X89048549Y-88629426D01*
X89274736Y-88478293D01*
X89467093Y-88285936D01*
X89618226Y-88059749D01*
X89722329Y-87808423D01*
X89775400Y-87541617D01*
X89775400Y-87269583D01*
X93513400Y-87269583D01*
X93513400Y-87541617D01*
X93566471Y-87808423D01*
X93670574Y-88059749D01*
X93821707Y-88285936D01*
X94014064Y-88478293D01*
X94240251Y-88629426D01*
X94491577Y-88733529D01*
X94758383Y-88786600D01*
X95030417Y-88786600D01*
X95170398Y-88758756D01*
X146941600Y-88758756D01*
X146941600Y-88888844D01*
X146966979Y-89016431D01*
X147016761Y-89136617D01*
X147089034Y-89244780D01*
X147181020Y-89336766D01*
X147289183Y-89409039D01*
X147409369Y-89458821D01*
X147536956Y-89484200D01*
X147667044Y-89484200D01*
X147794631Y-89458821D01*
X147914817Y-89409039D01*
X148022980Y-89336766D01*
X148114966Y-89244780D01*
X148187239Y-89136617D01*
X148237021Y-89016431D01*
X148262400Y-88888844D01*
X148262400Y-88758756D01*
X148237021Y-88631169D01*
X148187239Y-88510983D01*
X148114966Y-88402820D01*
X148022980Y-88310834D01*
X147914817Y-88238561D01*
X147794631Y-88188779D01*
X147667044Y-88163400D01*
X147536956Y-88163400D01*
X147409369Y-88188779D01*
X147289183Y-88238561D01*
X147181020Y-88310834D01*
X147089034Y-88402820D01*
X147016761Y-88510983D01*
X146966979Y-88631169D01*
X146941600Y-88758756D01*
X95170398Y-88758756D01*
X95297223Y-88733529D01*
X95548549Y-88629426D01*
X95774736Y-88478293D01*
X95967093Y-88285936D01*
X96118226Y-88059749D01*
X96222329Y-87808423D01*
X96275400Y-87541617D01*
X96275400Y-87269583D01*
X96222329Y-87002777D01*
X96172840Y-86883300D01*
X174124857Y-86883300D01*
X174124857Y-90383300D01*
X174132213Y-90457989D01*
X174153999Y-90529808D01*
X174189378Y-90595996D01*
X174236989Y-90654011D01*
X174295004Y-90701622D01*
X174361192Y-90737001D01*
X174433011Y-90758787D01*
X174507700Y-90766143D01*
X178007700Y-90766143D01*
X178082389Y-90758787D01*
X178154208Y-90737001D01*
X178220396Y-90701622D01*
X178278411Y-90654011D01*
X178326022Y-90595996D01*
X178361401Y-90529808D01*
X178383187Y-90457989D01*
X178390543Y-90383300D01*
X178390543Y-86883300D01*
X178383187Y-86808611D01*
X178361401Y-86736792D01*
X178326022Y-86670604D01*
X178278411Y-86612589D01*
X178220396Y-86564978D01*
X178154208Y-86529599D01*
X178082389Y-86507813D01*
X178007700Y-86500457D01*
X174507700Y-86500457D01*
X174433011Y-86507813D01*
X174361192Y-86529599D01*
X174295004Y-86564978D01*
X174236989Y-86612589D01*
X174189378Y-86670604D01*
X174153999Y-86736792D01*
X174132213Y-86808611D01*
X174124857Y-86883300D01*
X96172840Y-86883300D01*
X96118226Y-86751451D01*
X95967093Y-86525264D01*
X95774736Y-86332907D01*
X95548549Y-86181774D01*
X95297223Y-86077671D01*
X95030417Y-86024600D01*
X94758383Y-86024600D01*
X94491577Y-86077671D01*
X94240251Y-86181774D01*
X94014064Y-86332907D01*
X93821707Y-86525264D01*
X93670574Y-86751451D01*
X93566471Y-87002777D01*
X93513400Y-87269583D01*
X89775400Y-87269583D01*
X89722329Y-87002777D01*
X89618226Y-86751451D01*
X89467093Y-86525264D01*
X89274736Y-86332907D01*
X89048549Y-86181774D01*
X88797223Y-86077671D01*
X88530417Y-86024600D01*
X88258383Y-86024600D01*
X87991577Y-86077671D01*
X87740251Y-86181774D01*
X87514064Y-86332907D01*
X87321707Y-86525264D01*
X87170574Y-86751451D01*
X87066471Y-87002777D01*
X87013400Y-87269583D01*
X85445200Y-87269583D01*
X85445200Y-85391956D01*
X101625400Y-85391956D01*
X101625400Y-85522044D01*
X101650779Y-85649631D01*
X101700561Y-85769817D01*
X101772834Y-85877980D01*
X101864820Y-85969966D01*
X101972983Y-86042239D01*
X102093169Y-86092021D01*
X102220756Y-86117400D01*
X102350844Y-86117400D01*
X102478431Y-86092021D01*
X102598617Y-86042239D01*
X102706780Y-85969966D01*
X102798766Y-85877980D01*
X102871039Y-85769817D01*
X102920821Y-85649631D01*
X102946200Y-85522044D01*
X102946200Y-85391956D01*
X102920821Y-85264369D01*
X102871039Y-85144183D01*
X102798766Y-85036020D01*
X102706780Y-84944034D01*
X102598617Y-84871761D01*
X102478431Y-84821979D01*
X102350844Y-84796600D01*
X102220756Y-84796600D01*
X102093169Y-84821979D01*
X101972983Y-84871761D01*
X101864820Y-84944034D01*
X101772834Y-85036020D01*
X101700561Y-85144183D01*
X101650779Y-85264369D01*
X101625400Y-85391956D01*
X85445200Y-85391956D01*
X85445200Y-82769583D01*
X87013400Y-82769583D01*
X87013400Y-83041617D01*
X87066471Y-83308423D01*
X87170574Y-83559749D01*
X87321707Y-83785936D01*
X87514064Y-83978293D01*
X87740251Y-84129426D01*
X87991577Y-84233529D01*
X88258383Y-84286600D01*
X88530417Y-84286600D01*
X88797223Y-84233529D01*
X89048549Y-84129426D01*
X89274736Y-83978293D01*
X89467093Y-83785936D01*
X89618226Y-83559749D01*
X89722329Y-83308423D01*
X89775400Y-83041617D01*
X89775400Y-82769583D01*
X93513400Y-82769583D01*
X93513400Y-83041617D01*
X93566471Y-83308423D01*
X93670574Y-83559749D01*
X93821707Y-83785936D01*
X94014064Y-83978293D01*
X94240251Y-84129426D01*
X94491577Y-84233529D01*
X94758383Y-84286600D01*
X95030417Y-84286600D01*
X95297223Y-84233529D01*
X95548549Y-84129426D01*
X95774736Y-83978293D01*
X95967093Y-83785936D01*
X96118226Y-83559749D01*
X96222329Y-83308423D01*
X96275400Y-83041617D01*
X96275400Y-82769583D01*
X96222329Y-82502777D01*
X96118226Y-82251451D01*
X95967093Y-82025264D01*
X95791785Y-81849956D01*
X170053000Y-81849956D01*
X170053000Y-81980044D01*
X170078379Y-82107631D01*
X170128161Y-82227817D01*
X170200434Y-82335980D01*
X170292420Y-82427966D01*
X170400583Y-82500239D01*
X170520769Y-82550021D01*
X170648356Y-82575400D01*
X170778444Y-82575400D01*
X170906031Y-82550021D01*
X171026217Y-82500239D01*
X171134380Y-82427966D01*
X171226366Y-82335980D01*
X171298639Y-82227817D01*
X171348421Y-82107631D01*
X171373800Y-81980044D01*
X171373800Y-81849956D01*
X171348421Y-81722369D01*
X171298639Y-81602183D01*
X171226366Y-81494020D01*
X171134380Y-81402034D01*
X171026217Y-81329761D01*
X170906031Y-81279979D01*
X170778444Y-81254600D01*
X170648356Y-81254600D01*
X170520769Y-81279979D01*
X170400583Y-81329761D01*
X170292420Y-81402034D01*
X170200434Y-81494020D01*
X170128161Y-81602183D01*
X170078379Y-81722369D01*
X170053000Y-81849956D01*
X95791785Y-81849956D01*
X95774736Y-81832907D01*
X95548549Y-81681774D01*
X95297223Y-81577671D01*
X95030417Y-81524600D01*
X94758383Y-81524600D01*
X94491577Y-81577671D01*
X94240251Y-81681774D01*
X94014064Y-81832907D01*
X93821707Y-82025264D01*
X93670574Y-82251451D01*
X93566471Y-82502777D01*
X93513400Y-82769583D01*
X89775400Y-82769583D01*
X89722329Y-82502777D01*
X89618226Y-82251451D01*
X89467093Y-82025264D01*
X89274736Y-81832907D01*
X89048549Y-81681774D01*
X88797223Y-81577671D01*
X88530417Y-81524600D01*
X88258383Y-81524600D01*
X87991577Y-81577671D01*
X87740251Y-81681774D01*
X87514064Y-81832907D01*
X87321707Y-82025264D01*
X87170574Y-82251451D01*
X87066471Y-82502777D01*
X87013400Y-82769583D01*
X85445200Y-82769583D01*
X85445200Y-77479801D01*
X86738200Y-77479801D01*
X86738200Y-78145799D01*
X86868130Y-78799001D01*
X87122997Y-79414304D01*
X87493006Y-79968062D01*
X87963938Y-80438994D01*
X88517696Y-80809003D01*
X89132999Y-81063870D01*
X89786201Y-81193800D01*
X90452199Y-81193800D01*
X91105401Y-81063870D01*
X91720704Y-80809003D01*
X92274462Y-80438994D01*
X92745394Y-79968062D01*
X93115403Y-79414304D01*
X93370270Y-78799001D01*
X93410101Y-78598756D01*
X105246200Y-78598756D01*
X105246200Y-78728844D01*
X105271579Y-78856431D01*
X105321361Y-78976617D01*
X105393634Y-79084780D01*
X105485620Y-79176766D01*
X105593783Y-79249039D01*
X105713969Y-79298821D01*
X105841556Y-79324200D01*
X105971644Y-79324200D01*
X106099231Y-79298821D01*
X106219417Y-79249039D01*
X106327580Y-79176766D01*
X106419566Y-79084780D01*
X106491839Y-78976617D01*
X106541621Y-78856431D01*
X106567000Y-78728844D01*
X106567000Y-78598756D01*
X106541621Y-78471169D01*
X106491839Y-78350983D01*
X106419566Y-78242820D01*
X106327580Y-78150834D01*
X106219417Y-78078561D01*
X106099231Y-78028779D01*
X105971644Y-78003400D01*
X105841556Y-78003400D01*
X105713969Y-78028779D01*
X105593783Y-78078561D01*
X105485620Y-78150834D01*
X105393634Y-78242820D01*
X105321361Y-78350983D01*
X105271579Y-78471169D01*
X105246200Y-78598756D01*
X93410101Y-78598756D01*
X93500200Y-78145799D01*
X93500200Y-77479801D01*
X93370270Y-76826599D01*
X93211378Y-76443000D01*
X109765957Y-76443000D01*
X109765957Y-78243000D01*
X109773313Y-78317689D01*
X109795099Y-78389508D01*
X109830478Y-78455696D01*
X109878089Y-78513711D01*
X109936104Y-78561322D01*
X110002292Y-78596701D01*
X110074111Y-78618487D01*
X110148800Y-78625843D01*
X111948800Y-78625843D01*
X112023489Y-78618487D01*
X112042381Y-78612756D01*
X122478800Y-78612756D01*
X122478800Y-78742844D01*
X122504179Y-78870431D01*
X122553961Y-78990617D01*
X122626234Y-79098780D01*
X122718220Y-79190766D01*
X122826383Y-79263039D01*
X122946569Y-79312821D01*
X123074156Y-79338200D01*
X123204244Y-79338200D01*
X123331831Y-79312821D01*
X123452017Y-79263039D01*
X123560180Y-79190766D01*
X123652166Y-79098780D01*
X123724439Y-78990617D01*
X123774221Y-78870431D01*
X123799600Y-78742844D01*
X123799600Y-78612756D01*
X123774221Y-78485169D01*
X123724439Y-78364983D01*
X123652166Y-78256820D01*
X123560180Y-78164834D01*
X123452017Y-78092561D01*
X123331831Y-78042779D01*
X123204244Y-78017400D01*
X123074156Y-78017400D01*
X122946569Y-78042779D01*
X122826383Y-78092561D01*
X122718220Y-78164834D01*
X122626234Y-78256820D01*
X122553961Y-78364983D01*
X122504179Y-78485169D01*
X122478800Y-78612756D01*
X112042381Y-78612756D01*
X112095308Y-78596701D01*
X112161496Y-78561322D01*
X112219511Y-78513711D01*
X112267122Y-78455696D01*
X112302501Y-78389508D01*
X112324287Y-78317689D01*
X112331643Y-78243000D01*
X112331643Y-76443000D01*
X112324287Y-76368311D01*
X112302501Y-76296492D01*
X112267122Y-76230304D01*
X112219511Y-76172289D01*
X112161496Y-76124678D01*
X112095308Y-76089299D01*
X112023489Y-76067513D01*
X111948800Y-76060157D01*
X110148800Y-76060157D01*
X110074111Y-76067513D01*
X110002292Y-76089299D01*
X109936104Y-76124678D01*
X109878089Y-76172289D01*
X109830478Y-76230304D01*
X109795099Y-76296492D01*
X109773313Y-76368311D01*
X109765957Y-76443000D01*
X93211378Y-76443000D01*
X93115403Y-76211296D01*
X92760537Y-75680200D01*
X128942157Y-75680200D01*
X128942157Y-77380200D01*
X128949513Y-77454889D01*
X128971299Y-77526708D01*
X129006678Y-77592896D01*
X129054289Y-77650911D01*
X129112304Y-77698522D01*
X129178492Y-77733901D01*
X129250311Y-77755687D01*
X129325000Y-77763043D01*
X131025000Y-77763043D01*
X131099689Y-77755687D01*
X131171508Y-77733901D01*
X131237696Y-77698522D01*
X131295711Y-77650911D01*
X131343322Y-77592896D01*
X131378701Y-77526708D01*
X131400487Y-77454889D01*
X131407843Y-77380200D01*
X131407843Y-76530200D01*
X131478044Y-76530200D01*
X131501812Y-76771518D01*
X131572202Y-77003563D01*
X131686509Y-77217416D01*
X131840340Y-77404860D01*
X132027784Y-77558691D01*
X132241637Y-77672998D01*
X132473682Y-77743388D01*
X132654528Y-77761200D01*
X132775472Y-77761200D01*
X132956318Y-77743388D01*
X133188363Y-77672998D01*
X133402216Y-77558691D01*
X133498343Y-77479801D01*
X176578200Y-77479801D01*
X176578200Y-78145799D01*
X176708130Y-78799001D01*
X176962997Y-79414304D01*
X177333006Y-79968062D01*
X177803938Y-80438994D01*
X178357696Y-80809003D01*
X178972999Y-81063870D01*
X179626201Y-81193800D01*
X180292199Y-81193800D01*
X180945401Y-81063870D01*
X181560704Y-80809003D01*
X182114462Y-80438994D01*
X182585394Y-79968062D01*
X182955403Y-79414304D01*
X183210270Y-78799001D01*
X183340200Y-78145799D01*
X183340200Y-77479801D01*
X183210270Y-76826599D01*
X182955403Y-76211296D01*
X182585394Y-75657538D01*
X182114462Y-75186606D01*
X181560704Y-74816597D01*
X180945401Y-74561730D01*
X180292199Y-74431800D01*
X179626201Y-74431800D01*
X178972999Y-74561730D01*
X178357696Y-74816597D01*
X177803938Y-75186606D01*
X177333006Y-75657538D01*
X176962997Y-76211296D01*
X176708130Y-76826599D01*
X176578200Y-77479801D01*
X133498343Y-77479801D01*
X133589660Y-77404860D01*
X133743491Y-77217416D01*
X133857798Y-77003563D01*
X133928188Y-76771518D01*
X133951956Y-76530200D01*
X133928188Y-76288882D01*
X133857798Y-76056837D01*
X133743491Y-75842984D01*
X133589660Y-75655540D01*
X133402216Y-75501709D01*
X133188363Y-75387402D01*
X132956318Y-75317012D01*
X132775472Y-75299200D01*
X132654528Y-75299200D01*
X132473682Y-75317012D01*
X132241637Y-75387402D01*
X132027784Y-75501709D01*
X131840340Y-75655540D01*
X131686509Y-75842984D01*
X131572202Y-76056837D01*
X131501812Y-76288882D01*
X131478044Y-76530200D01*
X131407843Y-76530200D01*
X131407843Y-75680200D01*
X131400487Y-75605511D01*
X131378701Y-75533692D01*
X131343322Y-75467504D01*
X131295711Y-75409489D01*
X131237696Y-75361878D01*
X131171508Y-75326499D01*
X131099689Y-75304713D01*
X131025000Y-75297357D01*
X129325000Y-75297357D01*
X129250311Y-75304713D01*
X129178492Y-75326499D01*
X129112304Y-75361878D01*
X129054289Y-75409489D01*
X129006678Y-75467504D01*
X128971299Y-75533692D01*
X128949513Y-75605511D01*
X128942157Y-75680200D01*
X92760537Y-75680200D01*
X92745394Y-75657538D01*
X92274462Y-75186606D01*
X91720704Y-74816597D01*
X91105401Y-74561730D01*
X90452199Y-74431800D01*
X89786201Y-74431800D01*
X89132999Y-74561730D01*
X88517696Y-74816597D01*
X87963938Y-75186606D01*
X87493006Y-75657538D01*
X87122997Y-76211296D01*
X86868130Y-76826599D01*
X86738200Y-77479801D01*
X85445200Y-77479801D01*
X85445200Y-73747356D01*
X153822400Y-73747356D01*
X153822400Y-73877444D01*
X153847779Y-74005031D01*
X153897561Y-74125217D01*
X153900690Y-74129900D01*
X153897561Y-74134583D01*
X153847779Y-74254769D01*
X153822400Y-74382356D01*
X153822400Y-74512444D01*
X153847779Y-74640031D01*
X153897561Y-74760217D01*
X153900690Y-74764900D01*
X153897561Y-74769583D01*
X153847779Y-74889769D01*
X153822400Y-75017356D01*
X153822400Y-75147444D01*
X153847779Y-75275031D01*
X153897561Y-75395217D01*
X153900690Y-75399900D01*
X153897561Y-75404583D01*
X153847779Y-75524769D01*
X153822400Y-75652356D01*
X153822400Y-75782444D01*
X153847779Y-75910031D01*
X153897561Y-76030217D01*
X153900690Y-76034900D01*
X153897561Y-76039583D01*
X153847779Y-76159769D01*
X153822400Y-76287356D01*
X153822400Y-76417444D01*
X153847779Y-76545031D01*
X153897561Y-76665217D01*
X153969834Y-76773380D01*
X154061820Y-76865366D01*
X154169983Y-76937639D01*
X154290169Y-76987421D01*
X154417756Y-77012800D01*
X154547844Y-77012800D01*
X154675431Y-76987421D01*
X154795617Y-76937639D01*
X154800300Y-76934510D01*
X154804983Y-76937639D01*
X154925169Y-76987421D01*
X155052756Y-77012800D01*
X155182844Y-77012800D01*
X155310431Y-76987421D01*
X155430617Y-76937639D01*
X155435300Y-76934510D01*
X155439983Y-76937639D01*
X155560169Y-76987421D01*
X155687756Y-77012800D01*
X155817844Y-77012800D01*
X155945431Y-76987421D01*
X156065617Y-76937639D01*
X156070300Y-76934510D01*
X156074983Y-76937639D01*
X156195169Y-76987421D01*
X156322756Y-77012800D01*
X156452844Y-77012800D01*
X156580431Y-76987421D01*
X156700617Y-76937639D01*
X156705300Y-76934510D01*
X156709983Y-76937639D01*
X156830169Y-76987421D01*
X156957756Y-77012800D01*
X157087844Y-77012800D01*
X157215431Y-76987421D01*
X157335617Y-76937639D01*
X157340300Y-76934510D01*
X157344983Y-76937639D01*
X157465169Y-76987421D01*
X157592756Y-77012800D01*
X157722844Y-77012800D01*
X157850431Y-76987421D01*
X157970617Y-76937639D01*
X157975300Y-76934510D01*
X157979983Y-76937639D01*
X158100169Y-76987421D01*
X158227756Y-77012800D01*
X158357844Y-77012800D01*
X158485431Y-76987421D01*
X158605617Y-76937639D01*
X158610300Y-76934510D01*
X158614983Y-76937639D01*
X158735169Y-76987421D01*
X158862756Y-77012800D01*
X158992844Y-77012800D01*
X159120431Y-76987421D01*
X159240617Y-76937639D01*
X159348780Y-76865366D01*
X159440766Y-76773380D01*
X159513039Y-76665217D01*
X159562821Y-76545031D01*
X159588200Y-76417444D01*
X159588200Y-76287356D01*
X159562821Y-76159769D01*
X159513039Y-76039583D01*
X159509910Y-76034900D01*
X159513039Y-76030217D01*
X159562821Y-75910031D01*
X159588200Y-75782444D01*
X159588200Y-75703156D01*
X174269400Y-75703156D01*
X174269400Y-75833244D01*
X174294779Y-75960831D01*
X174344561Y-76081017D01*
X174416834Y-76189180D01*
X174508820Y-76281166D01*
X174616983Y-76353439D01*
X174737169Y-76403221D01*
X174864756Y-76428600D01*
X174994844Y-76428600D01*
X175122431Y-76403221D01*
X175242617Y-76353439D01*
X175350780Y-76281166D01*
X175442766Y-76189180D01*
X175515039Y-76081017D01*
X175564821Y-75960831D01*
X175590200Y-75833244D01*
X175590200Y-75703156D01*
X175564821Y-75575569D01*
X175515039Y-75455383D01*
X175442766Y-75347220D01*
X175350780Y-75255234D01*
X175242617Y-75182961D01*
X175122431Y-75133179D01*
X174994844Y-75107800D01*
X174864756Y-75107800D01*
X174737169Y-75133179D01*
X174616983Y-75182961D01*
X174508820Y-75255234D01*
X174416834Y-75347220D01*
X174344561Y-75455383D01*
X174294779Y-75575569D01*
X174269400Y-75703156D01*
X159588200Y-75703156D01*
X159588200Y-75652356D01*
X159562821Y-75524769D01*
X159513039Y-75404583D01*
X159509910Y-75399900D01*
X159513039Y-75395217D01*
X159562821Y-75275031D01*
X159588200Y-75147444D01*
X159588200Y-75017356D01*
X159562821Y-74889769D01*
X159513039Y-74769583D01*
X159509910Y-74764900D01*
X159513039Y-74760217D01*
X159562821Y-74640031D01*
X159588200Y-74512444D01*
X159588200Y-74382356D01*
X159562821Y-74254769D01*
X159513039Y-74134583D01*
X159509910Y-74129900D01*
X159513039Y-74125217D01*
X159562821Y-74005031D01*
X159588200Y-73877444D01*
X159588200Y-73747356D01*
X159562821Y-73619769D01*
X159513039Y-73499583D01*
X159440766Y-73391420D01*
X159348780Y-73299434D01*
X159240617Y-73227161D01*
X159120431Y-73177379D01*
X158992844Y-73152000D01*
X158862756Y-73152000D01*
X158735169Y-73177379D01*
X158614983Y-73227161D01*
X158610300Y-73230290D01*
X158605617Y-73227161D01*
X158485431Y-73177379D01*
X158357844Y-73152000D01*
X158227756Y-73152000D01*
X158100169Y-73177379D01*
X157979983Y-73227161D01*
X157975300Y-73230290D01*
X157970617Y-73227161D01*
X157850431Y-73177379D01*
X157722844Y-73152000D01*
X157592756Y-73152000D01*
X157465169Y-73177379D01*
X157344983Y-73227161D01*
X157340300Y-73230290D01*
X157335617Y-73227161D01*
X157215431Y-73177379D01*
X157087844Y-73152000D01*
X156957756Y-73152000D01*
X156830169Y-73177379D01*
X156709983Y-73227161D01*
X156705300Y-73230290D01*
X156700617Y-73227161D01*
X156580431Y-73177379D01*
X156452844Y-73152000D01*
X156322756Y-73152000D01*
X156195169Y-73177379D01*
X156074983Y-73227161D01*
X156070300Y-73230290D01*
X156065617Y-73227161D01*
X155945431Y-73177379D01*
X155817844Y-73152000D01*
X155687756Y-73152000D01*
X155560169Y-73177379D01*
X155439983Y-73227161D01*
X155435300Y-73230290D01*
X155430617Y-73227161D01*
X155310431Y-73177379D01*
X155182844Y-73152000D01*
X155052756Y-73152000D01*
X154925169Y-73177379D01*
X154804983Y-73227161D01*
X154800300Y-73230290D01*
X154795617Y-73227161D01*
X154675431Y-73177379D01*
X154547844Y-73152000D01*
X154417756Y-73152000D01*
X154290169Y-73177379D01*
X154169983Y-73227161D01*
X154061820Y-73299434D01*
X153969834Y-73391420D01*
X153897561Y-73499583D01*
X153847779Y-73619769D01*
X153822400Y-73747356D01*
X85445200Y-73747356D01*
X85445200Y-73138800D01*
X184633201Y-73138800D01*
X184633200Y-122326800D01*
X184633200Y-122326800D01*
G37*
X184633200Y-122326800D02*
X85445200Y-122326800D01*
X85445200Y-117319801D01*
X86738200Y-117319801D01*
X86738200Y-117985799D01*
X86868130Y-118639001D01*
X87122997Y-119254304D01*
X87493006Y-119808062D01*
X87963938Y-120278994D01*
X88517696Y-120649003D01*
X89132999Y-120903870D01*
X89786201Y-121033800D01*
X90452199Y-121033800D01*
X91105401Y-120903870D01*
X91720704Y-120649003D01*
X92274462Y-120278994D01*
X92745394Y-119808062D01*
X93074876Y-119314956D01*
X129336800Y-119314956D01*
X129336800Y-119445044D01*
X129362179Y-119572631D01*
X129411961Y-119692817D01*
X129484234Y-119800980D01*
X129576220Y-119892966D01*
X129684383Y-119965239D01*
X129804569Y-120015021D01*
X129932156Y-120040400D01*
X130062244Y-120040400D01*
X130189831Y-120015021D01*
X130310017Y-119965239D01*
X130314700Y-119962110D01*
X130319383Y-119965239D01*
X130439569Y-120015021D01*
X130567156Y-120040400D01*
X130697244Y-120040400D01*
X130824831Y-120015021D01*
X130945017Y-119965239D01*
X130949700Y-119962110D01*
X130954383Y-119965239D01*
X131074569Y-120015021D01*
X131202156Y-120040400D01*
X131332244Y-120040400D01*
X131459831Y-120015021D01*
X131580017Y-119965239D01*
X131688180Y-119892966D01*
X131780166Y-119800980D01*
X131852439Y-119692817D01*
X131902221Y-119572631D01*
X131927600Y-119445044D01*
X131927600Y-119314956D01*
X131902221Y-119187369D01*
X131870902Y-119111756D01*
X144932400Y-119111756D01*
X144932400Y-119241844D01*
X144957779Y-119369431D01*
X145007561Y-119489617D01*
X145079834Y-119597780D01*
X145171820Y-119689766D01*
X145279983Y-119762039D01*
X145400169Y-119811821D01*
X145527756Y-119837200D01*
X145657844Y-119837200D01*
X145785431Y-119811821D01*
X145853669Y-119783556D01*
X167817800Y-119783556D01*
X167817800Y-119913644D01*
X167843179Y-120041231D01*
X167892961Y-120161417D01*
X167965234Y-120269580D01*
X168057220Y-120361566D01*
X168165383Y-120433839D01*
X168285569Y-120483621D01*
X168413156Y-120509000D01*
X168543244Y-120509000D01*
X168670831Y-120483621D01*
X168791017Y-120433839D01*
X168899180Y-120361566D01*
X168991166Y-120269580D01*
X169063439Y-120161417D01*
X169113221Y-120041231D01*
X169138600Y-119913644D01*
X169138600Y-119783556D01*
X169113221Y-119655969D01*
X169063439Y-119535783D01*
X168991166Y-119427620D01*
X168899180Y-119335634D01*
X168791017Y-119263361D01*
X168670831Y-119213579D01*
X168543244Y-119188200D01*
X168413156Y-119188200D01*
X168285569Y-119213579D01*
X168165383Y-119263361D01*
X168057220Y-119335634D01*
X167965234Y-119427620D01*
X167892961Y-119535783D01*
X167843179Y-119655969D01*
X167817800Y-119783556D01*
X145853669Y-119783556D01*
X145905617Y-119762039D01*
X146013780Y-119689766D01*
X146105766Y-119597780D01*
X146178039Y-119489617D01*
X146227821Y-119369431D01*
X146253200Y-119241844D01*
X146253200Y-119111756D01*
X146227821Y-118984169D01*
X146178039Y-118863983D01*
X146105766Y-118755820D01*
X146013780Y-118663834D01*
X145905617Y-118591561D01*
X145785431Y-118541779D01*
X145657844Y-118516400D01*
X145527756Y-118516400D01*
X145400169Y-118541779D01*
X145279983Y-118591561D01*
X145171820Y-118663834D01*
X145079834Y-118755820D01*
X145007561Y-118863983D01*
X144957779Y-118984169D01*
X144932400Y-119111756D01*
X131870902Y-119111756D01*
X131852439Y-119067183D01*
X131780166Y-118959020D01*
X131688180Y-118867034D01*
X131580017Y-118794761D01*
X131459831Y-118744979D01*
X131332244Y-118719600D01*
X131202156Y-118719600D01*
X131074569Y-118744979D01*
X130954383Y-118794761D01*
X130949700Y-118797890D01*
X130945017Y-118794761D01*
X130824831Y-118744979D01*
X130697244Y-118719600D01*
X130567156Y-118719600D01*
X130439569Y-118744979D01*
X130319383Y-118794761D01*
X130314700Y-118797890D01*
X130310017Y-118794761D01*
X130189831Y-118744979D01*
X130062244Y-118719600D01*
X129932156Y-118719600D01*
X129804569Y-118744979D01*
X129684383Y-118794761D01*
X129576220Y-118867034D01*
X129484234Y-118959020D01*
X129411961Y-119067183D01*
X129362179Y-119187369D01*
X129336800Y-119314956D01*
X93074876Y-119314956D01*
X93115403Y-119254304D01*
X93370270Y-118639001D01*
X93500200Y-117985799D01*
X93500200Y-117319801D01*
X93467610Y-117155956D01*
X118084600Y-117155956D01*
X118084600Y-117286044D01*
X118109979Y-117413631D01*
X118159761Y-117533817D01*
X118162890Y-117538500D01*
X118159761Y-117543183D01*
X118109979Y-117663369D01*
X118084600Y-117790956D01*
X118084600Y-117921044D01*
X118109979Y-118048631D01*
X118159761Y-118168817D01*
X118232034Y-118276980D01*
X118324020Y-118368966D01*
X118432183Y-118441239D01*
X118552369Y-118491021D01*
X118679956Y-118516400D01*
X118810044Y-118516400D01*
X118937631Y-118491021D01*
X119057817Y-118441239D01*
X119062500Y-118438110D01*
X119067183Y-118441239D01*
X119187369Y-118491021D01*
X119314956Y-118516400D01*
X119445044Y-118516400D01*
X119572631Y-118491021D01*
X119692817Y-118441239D01*
X119800980Y-118368966D01*
X119892966Y-118276980D01*
X119965239Y-118168817D01*
X120015021Y-118048631D01*
X120040400Y-117921044D01*
X120040400Y-117790956D01*
X120015021Y-117663369D01*
X119965239Y-117543183D01*
X119962110Y-117538500D01*
X119965239Y-117533817D01*
X120015021Y-117413631D01*
X120040400Y-117286044D01*
X120040400Y-117181356D01*
X146532600Y-117181356D01*
X146532600Y-117311444D01*
X146557979Y-117439031D01*
X146607761Y-117559217D01*
X146610890Y-117563900D01*
X146607761Y-117568583D01*
X146557979Y-117688769D01*
X146532600Y-117816356D01*
X146532600Y-117946444D01*
X146557979Y-118074031D01*
X146607761Y-118194217D01*
X146680034Y-118302380D01*
X146772020Y-118394366D01*
X146880183Y-118466639D01*
X147000369Y-118516421D01*
X147127956Y-118541800D01*
X147258044Y-118541800D01*
X147385631Y-118516421D01*
X147505817Y-118466639D01*
X147510500Y-118463510D01*
X147515183Y-118466639D01*
X147635369Y-118516421D01*
X147762956Y-118541800D01*
X147893044Y-118541800D01*
X148020631Y-118516421D01*
X148140817Y-118466639D01*
X148248980Y-118394366D01*
X148340966Y-118302380D01*
X148413239Y-118194217D01*
X148463021Y-118074031D01*
X148488400Y-117946444D01*
X148488400Y-117816356D01*
X148463021Y-117688769D01*
X148413239Y-117568583D01*
X148410110Y-117563900D01*
X148413239Y-117559217D01*
X148463021Y-117439031D01*
X148486737Y-117319801D01*
X176578200Y-117319801D01*
X176578200Y-117985799D01*
X176708130Y-118639001D01*
X176962997Y-119254304D01*
X177333006Y-119808062D01*
X177803938Y-120278994D01*
X178357696Y-120649003D01*
X178972999Y-120903870D01*
X179626201Y-121033800D01*
X180292199Y-121033800D01*
X180945401Y-120903870D01*
X181560704Y-120649003D01*
X182114462Y-120278994D01*
X182585394Y-119808062D01*
X182955403Y-119254304D01*
X183210270Y-118639001D01*
X183340200Y-117985799D01*
X183340200Y-117319801D01*
X183210270Y-116666599D01*
X182955403Y-116051296D01*
X182585394Y-115497538D01*
X182114462Y-115026606D01*
X181560704Y-114656597D01*
X180945401Y-114401730D01*
X180292199Y-114271800D01*
X179626201Y-114271800D01*
X178972999Y-114401730D01*
X178357696Y-114656597D01*
X177803938Y-115026606D01*
X177333006Y-115497538D01*
X176962997Y-116051296D01*
X176708130Y-116666599D01*
X176578200Y-117319801D01*
X148486737Y-117319801D01*
X148488400Y-117311444D01*
X148488400Y-117181356D01*
X148463021Y-117053769D01*
X148413239Y-116933583D01*
X148340966Y-116825420D01*
X148248980Y-116733434D01*
X148140817Y-116661161D01*
X148020631Y-116611379D01*
X147893044Y-116586000D01*
X147762956Y-116586000D01*
X147635369Y-116611379D01*
X147515183Y-116661161D01*
X147510500Y-116664290D01*
X147505817Y-116661161D01*
X147385631Y-116611379D01*
X147258044Y-116586000D01*
X147127956Y-116586000D01*
X147000369Y-116611379D01*
X146880183Y-116661161D01*
X146772020Y-116733434D01*
X146680034Y-116825420D01*
X146607761Y-116933583D01*
X146557979Y-117053769D01*
X146532600Y-117181356D01*
X120040400Y-117181356D01*
X120040400Y-117155956D01*
X120015021Y-117028369D01*
X119965239Y-116908183D01*
X119892966Y-116800020D01*
X119800980Y-116708034D01*
X119692817Y-116635761D01*
X119572631Y-116585979D01*
X119445044Y-116560600D01*
X119314956Y-116560600D01*
X119187369Y-116585979D01*
X119067183Y-116635761D01*
X119062500Y-116638890D01*
X119057817Y-116635761D01*
X118937631Y-116585979D01*
X118810044Y-116560600D01*
X118679956Y-116560600D01*
X118552369Y-116585979D01*
X118432183Y-116635761D01*
X118324020Y-116708034D01*
X118232034Y-116800020D01*
X118159761Y-116908183D01*
X118109979Y-117028369D01*
X118084600Y-117155956D01*
X93467610Y-117155956D01*
X93370270Y-116666599D01*
X93115403Y-116051296D01*
X92745394Y-115497538D01*
X92274462Y-115026606D01*
X91720704Y-114656597D01*
X91105401Y-114401730D01*
X90452199Y-114271800D01*
X89786201Y-114271800D01*
X89132999Y-114401730D01*
X88517696Y-114656597D01*
X87963938Y-115026606D01*
X87493006Y-115497538D01*
X87122997Y-116051296D01*
X86868130Y-116666599D01*
X86738200Y-117319801D01*
X85445200Y-117319801D01*
X85445200Y-113269756D01*
X131292600Y-113269756D01*
X131292600Y-113399844D01*
X131317979Y-113527431D01*
X131367761Y-113647617D01*
X131370890Y-113652300D01*
X131367761Y-113656983D01*
X131317979Y-113777169D01*
X131292600Y-113904756D01*
X131292600Y-114034844D01*
X131317979Y-114162431D01*
X131367761Y-114282617D01*
X131370890Y-114287300D01*
X131367761Y-114291983D01*
X131317979Y-114412169D01*
X131292600Y-114539756D01*
X131292600Y-114669844D01*
X131317979Y-114797431D01*
X131367761Y-114917617D01*
X131440034Y-115025780D01*
X131532020Y-115117766D01*
X131640183Y-115190039D01*
X131760369Y-115239821D01*
X131887956Y-115265200D01*
X132018044Y-115265200D01*
X132145631Y-115239821D01*
X132265817Y-115190039D01*
X132270500Y-115186910D01*
X132275183Y-115190039D01*
X132395369Y-115239821D01*
X132522956Y-115265200D01*
X132653044Y-115265200D01*
X132780631Y-115239821D01*
X132900817Y-115190039D01*
X133008980Y-115117766D01*
X133100966Y-115025780D01*
X133173239Y-114917617D01*
X133223021Y-114797431D01*
X133248400Y-114669844D01*
X133248400Y-114539756D01*
X133223021Y-114412169D01*
X133173239Y-114291983D01*
X133170110Y-114287300D01*
X133173239Y-114282617D01*
X133223021Y-114162431D01*
X133248400Y-114034844D01*
X133248400Y-113904756D01*
X133223021Y-113777169D01*
X133173239Y-113656983D01*
X133170110Y-113652300D01*
X133173239Y-113647617D01*
X133223021Y-113527431D01*
X133248400Y-113399844D01*
X133248400Y-113269756D01*
X133223021Y-113142169D01*
X133173239Y-113021983D01*
X133100966Y-112913820D01*
X133008980Y-112821834D01*
X132957082Y-112787156D01*
X142581600Y-112787156D01*
X142581600Y-112917244D01*
X142606979Y-113044831D01*
X142656761Y-113165017D01*
X142729034Y-113273180D01*
X142821020Y-113365166D01*
X142929183Y-113437439D01*
X143049369Y-113487221D01*
X143176956Y-113512600D01*
X143307044Y-113512600D01*
X143434631Y-113487221D01*
X143554817Y-113437439D01*
X143662980Y-113365166D01*
X143754966Y-113273180D01*
X143827239Y-113165017D01*
X143877021Y-113044831D01*
X143902400Y-112917244D01*
X143902400Y-112914156D01*
X178282600Y-112914156D01*
X178282600Y-113044244D01*
X178307979Y-113171831D01*
X178357761Y-113292017D01*
X178430034Y-113400180D01*
X178522020Y-113492166D01*
X178630183Y-113564439D01*
X178750369Y-113614221D01*
X178877956Y-113639600D01*
X179008044Y-113639600D01*
X179135631Y-113614221D01*
X179255817Y-113564439D01*
X179363980Y-113492166D01*
X179455966Y-113400180D01*
X179528239Y-113292017D01*
X179578021Y-113171831D01*
X179603400Y-113044244D01*
X179603400Y-112914156D01*
X179578021Y-112786569D01*
X179528239Y-112666383D01*
X179455966Y-112558220D01*
X179363980Y-112466234D01*
X179255817Y-112393961D01*
X179135631Y-112344179D01*
X179008044Y-112318800D01*
X178877956Y-112318800D01*
X178750369Y-112344179D01*
X178630183Y-112393961D01*
X178522020Y-112466234D01*
X178430034Y-112558220D01*
X178357761Y-112666383D01*
X178307979Y-112786569D01*
X178282600Y-112914156D01*
X143902400Y-112914156D01*
X143902400Y-112787156D01*
X143877021Y-112659569D01*
X143827239Y-112539383D01*
X143754966Y-112431220D01*
X143662980Y-112339234D01*
X143554817Y-112266961D01*
X143434631Y-112217179D01*
X143307044Y-112191800D01*
X143176956Y-112191800D01*
X143049369Y-112217179D01*
X142929183Y-112266961D01*
X142821020Y-112339234D01*
X142729034Y-112431220D01*
X142656761Y-112539383D01*
X142606979Y-112659569D01*
X142581600Y-112787156D01*
X132957082Y-112787156D01*
X132900817Y-112749561D01*
X132780631Y-112699779D01*
X132653044Y-112674400D01*
X132522956Y-112674400D01*
X132395369Y-112699779D01*
X132275183Y-112749561D01*
X132270500Y-112752690D01*
X132265817Y-112749561D01*
X132145631Y-112699779D01*
X132018044Y-112674400D01*
X131887956Y-112674400D01*
X131760369Y-112699779D01*
X131640183Y-112749561D01*
X131532020Y-112821834D01*
X131440034Y-112913820D01*
X131367761Y-113021983D01*
X131317979Y-113142169D01*
X131292600Y-113269756D01*
X85445200Y-113269756D01*
X85445200Y-112406156D01*
X126695200Y-112406156D01*
X126695200Y-112536244D01*
X126720579Y-112663831D01*
X126770361Y-112784017D01*
X126842634Y-112892180D01*
X126934620Y-112984166D01*
X127042783Y-113056439D01*
X127162969Y-113106221D01*
X127290556Y-113131600D01*
X127420644Y-113131600D01*
X127548231Y-113106221D01*
X127668417Y-113056439D01*
X127776580Y-112984166D01*
X127868566Y-112892180D01*
X127940839Y-112784017D01*
X127990621Y-112663831D01*
X128016000Y-112536244D01*
X128016000Y-112406156D01*
X127990621Y-112278569D01*
X127940839Y-112158383D01*
X127868566Y-112050220D01*
X127776580Y-111958234D01*
X127668417Y-111885961D01*
X127548231Y-111836179D01*
X127420644Y-111810800D01*
X127290556Y-111810800D01*
X127162969Y-111836179D01*
X127042783Y-111885961D01*
X126934620Y-111958234D01*
X126842634Y-112050220D01*
X126770361Y-112158383D01*
X126720579Y-112278569D01*
X126695200Y-112406156D01*
X85445200Y-112406156D01*
X85445200Y-109737801D01*
X88235656Y-109737801D01*
X88235656Y-111437801D01*
X88243012Y-111512490D01*
X88264798Y-111584309D01*
X88300177Y-111650497D01*
X88347788Y-111708512D01*
X88405803Y-111756123D01*
X88471991Y-111791502D01*
X88543810Y-111813288D01*
X88618499Y-111820644D01*
X90318499Y-111820644D01*
X90393188Y-111813288D01*
X90465007Y-111791502D01*
X90531195Y-111756123D01*
X90589210Y-111708512D01*
X90636821Y-111650497D01*
X90672200Y-111584309D01*
X90693986Y-111512490D01*
X90701342Y-111437801D01*
X90701342Y-111263156D01*
X93599000Y-111263156D01*
X93599000Y-111393244D01*
X93624379Y-111520831D01*
X93674161Y-111641017D01*
X93746434Y-111749180D01*
X93838420Y-111841166D01*
X93946583Y-111913439D01*
X94066769Y-111963221D01*
X94194356Y-111988600D01*
X94324444Y-111988600D01*
X94452031Y-111963221D01*
X94572217Y-111913439D01*
X94680380Y-111841166D01*
X94772366Y-111749180D01*
X94844639Y-111641017D01*
X94894421Y-111520831D01*
X94919800Y-111393244D01*
X94919800Y-111263156D01*
X94894421Y-111135569D01*
X94844639Y-111015383D01*
X94772366Y-110907220D01*
X94680380Y-110815234D01*
X94628482Y-110780556D01*
X118110000Y-110780556D01*
X118110000Y-110910644D01*
X118135379Y-111038231D01*
X118185161Y-111158417D01*
X118188290Y-111163100D01*
X118185161Y-111167783D01*
X118135379Y-111287969D01*
X118110000Y-111415556D01*
X118110000Y-111545644D01*
X118135379Y-111673231D01*
X118185161Y-111793417D01*
X118257434Y-111901580D01*
X118349420Y-111993566D01*
X118457583Y-112065839D01*
X118577769Y-112115621D01*
X118705356Y-112141000D01*
X118835444Y-112141000D01*
X118963031Y-112115621D01*
X119083217Y-112065839D01*
X119087900Y-112062710D01*
X119092583Y-112065839D01*
X119212769Y-112115621D01*
X119340356Y-112141000D01*
X119470444Y-112141000D01*
X119598031Y-112115621D01*
X119718217Y-112065839D01*
X119826380Y-111993566D01*
X119918366Y-111901580D01*
X119990639Y-111793417D01*
X120040421Y-111673231D01*
X120065800Y-111545644D01*
X120065800Y-111415556D01*
X120040421Y-111287969D01*
X119990639Y-111167783D01*
X119987510Y-111163100D01*
X119990639Y-111158417D01*
X120040421Y-111038231D01*
X120065800Y-110910644D01*
X120065800Y-110805956D01*
X146532600Y-110805956D01*
X146532600Y-110936044D01*
X146557979Y-111063631D01*
X146607761Y-111183817D01*
X146610890Y-111188500D01*
X146607761Y-111193183D01*
X146557979Y-111313369D01*
X146532600Y-111440956D01*
X146532600Y-111571044D01*
X146557979Y-111698631D01*
X146607761Y-111818817D01*
X146680034Y-111926980D01*
X146772020Y-112018966D01*
X146880183Y-112091239D01*
X147000369Y-112141021D01*
X147127956Y-112166400D01*
X147258044Y-112166400D01*
X147385631Y-112141021D01*
X147505817Y-112091239D01*
X147510500Y-112088110D01*
X147515183Y-112091239D01*
X147635369Y-112141021D01*
X147762956Y-112166400D01*
X147893044Y-112166400D01*
X148020631Y-112141021D01*
X148140817Y-112091239D01*
X148248980Y-112018966D01*
X148340966Y-111926980D01*
X148413239Y-111818817D01*
X148463021Y-111698631D01*
X148488400Y-111571044D01*
X148488400Y-111440956D01*
X148463021Y-111313369D01*
X148413239Y-111193183D01*
X148410110Y-111188500D01*
X148413239Y-111183817D01*
X148463021Y-111063631D01*
X148488400Y-110936044D01*
X148488400Y-110805956D01*
X148463021Y-110678369D01*
X148413239Y-110558183D01*
X148340966Y-110450020D01*
X148248980Y-110358034D01*
X148140817Y-110285761D01*
X148020631Y-110235979D01*
X147893044Y-110210600D01*
X147762956Y-110210600D01*
X147635369Y-110235979D01*
X147515183Y-110285761D01*
X147510500Y-110288890D01*
X147505817Y-110285761D01*
X147385631Y-110235979D01*
X147258044Y-110210600D01*
X147127956Y-110210600D01*
X147000369Y-110235979D01*
X146880183Y-110285761D01*
X146772020Y-110358034D01*
X146680034Y-110450020D01*
X146607761Y-110558183D01*
X146557979Y-110678369D01*
X146532600Y-110805956D01*
X120065800Y-110805956D01*
X120065800Y-110780556D01*
X120040421Y-110652969D01*
X119990639Y-110532783D01*
X119918366Y-110424620D01*
X119826380Y-110332634D01*
X119718217Y-110260361D01*
X119598031Y-110210579D01*
X119470444Y-110185200D01*
X119340356Y-110185200D01*
X119212769Y-110210579D01*
X119092583Y-110260361D01*
X119087900Y-110263490D01*
X119083217Y-110260361D01*
X118963031Y-110210579D01*
X118835444Y-110185200D01*
X118705356Y-110185200D01*
X118577769Y-110210579D01*
X118457583Y-110260361D01*
X118349420Y-110332634D01*
X118257434Y-110424620D01*
X118185161Y-110532783D01*
X118135379Y-110652969D01*
X118110000Y-110780556D01*
X94628482Y-110780556D01*
X94572217Y-110742961D01*
X94452031Y-110693179D01*
X94324444Y-110667800D01*
X94194356Y-110667800D01*
X94066769Y-110693179D01*
X93946583Y-110742961D01*
X93838420Y-110815234D01*
X93746434Y-110907220D01*
X93674161Y-111015383D01*
X93624379Y-111135569D01*
X93599000Y-111263156D01*
X90701342Y-111263156D01*
X90701342Y-109737801D01*
X90693986Y-109663112D01*
X90672200Y-109591293D01*
X90636821Y-109525105D01*
X90589210Y-109467090D01*
X90580274Y-109459756D01*
X142595600Y-109459756D01*
X142595600Y-109589844D01*
X142620979Y-109717431D01*
X142670761Y-109837617D01*
X142743034Y-109945780D01*
X142835020Y-110037766D01*
X142943183Y-110110039D01*
X143063369Y-110159821D01*
X143190956Y-110185200D01*
X143321044Y-110185200D01*
X143448631Y-110159821D01*
X143568817Y-110110039D01*
X143676980Y-110037766D01*
X143768966Y-109945780D01*
X143841239Y-109837617D01*
X143891021Y-109717431D01*
X143916400Y-109589844D01*
X143916400Y-109459756D01*
X143891021Y-109332169D01*
X143841239Y-109211983D01*
X143768966Y-109103820D01*
X143676980Y-109011834D01*
X143568817Y-108939561D01*
X143448631Y-108889779D01*
X143321044Y-108864400D01*
X143190956Y-108864400D01*
X143063369Y-108889779D01*
X142943183Y-108939561D01*
X142835020Y-109011834D01*
X142743034Y-109103820D01*
X142670761Y-109211983D01*
X142620979Y-109332169D01*
X142595600Y-109459756D01*
X90580274Y-109459756D01*
X90531195Y-109419479D01*
X90465007Y-109384100D01*
X90393188Y-109362314D01*
X90318499Y-109354958D01*
X88618499Y-109354958D01*
X88543810Y-109362314D01*
X88471991Y-109384100D01*
X88405803Y-109419479D01*
X88347788Y-109467090D01*
X88300177Y-109525105D01*
X88264798Y-109591293D01*
X88243012Y-109663112D01*
X88235656Y-109737801D01*
X85445200Y-109737801D01*
X85445200Y-108047801D01*
X88231543Y-108047801D01*
X88255311Y-108289119D01*
X88325701Y-108521164D01*
X88440008Y-108735017D01*
X88593839Y-108922461D01*
X88781283Y-109076292D01*
X88995136Y-109190599D01*
X89227181Y-109260989D01*
X89408027Y-109278801D01*
X89528971Y-109278801D01*
X89709817Y-109260989D01*
X89941862Y-109190599D01*
X90155715Y-109076292D01*
X90343159Y-108922461D01*
X90496990Y-108735017D01*
X90611297Y-108521164D01*
X90681687Y-108289119D01*
X90705455Y-108047801D01*
X90681687Y-107806483D01*
X90620737Y-107605556D01*
X91821000Y-107605556D01*
X91821000Y-107735644D01*
X91846379Y-107863231D01*
X91896161Y-107983417D01*
X91968434Y-108091580D01*
X92060420Y-108183566D01*
X92168583Y-108255839D01*
X92288769Y-108305621D01*
X92416356Y-108331000D01*
X92546444Y-108331000D01*
X92674031Y-108305621D01*
X92794217Y-108255839D01*
X92902380Y-108183566D01*
X92994366Y-108091580D01*
X93066639Y-107983417D01*
X93116421Y-107863231D01*
X93141800Y-107735644D01*
X93141800Y-107605556D01*
X93116421Y-107477969D01*
X93066639Y-107357783D01*
X92994366Y-107249620D01*
X92902380Y-107157634D01*
X92794217Y-107085361D01*
X92674031Y-107035579D01*
X92546444Y-107010200D01*
X92416356Y-107010200D01*
X92288769Y-107035579D01*
X92168583Y-107085361D01*
X92060420Y-107157634D01*
X91968434Y-107249620D01*
X91896161Y-107357783D01*
X91846379Y-107477969D01*
X91821000Y-107605556D01*
X90620737Y-107605556D01*
X90611297Y-107574438D01*
X90496990Y-107360585D01*
X90343159Y-107173141D01*
X90155715Y-107019310D01*
X89941862Y-106905003D01*
X89709817Y-106834613D01*
X89528971Y-106816801D01*
X89408027Y-106816801D01*
X89227181Y-106834613D01*
X88995136Y-106905003D01*
X88781283Y-107019310D01*
X88593839Y-107173141D01*
X88440008Y-107360585D01*
X88325701Y-107574438D01*
X88255311Y-107806483D01*
X88231543Y-108047801D01*
X85445200Y-108047801D01*
X85445200Y-106437156D01*
X93624400Y-106437156D01*
X93624400Y-106567244D01*
X93649779Y-106694831D01*
X93699561Y-106815017D01*
X93771834Y-106923180D01*
X93863820Y-107015166D01*
X93971983Y-107087439D01*
X94092169Y-107137221D01*
X94219756Y-107162600D01*
X94349844Y-107162600D01*
X94477431Y-107137221D01*
X94597617Y-107087439D01*
X94705780Y-107015166D01*
X94750390Y-106970556D01*
X101650800Y-106970556D01*
X101650800Y-107100644D01*
X101676179Y-107228231D01*
X101725961Y-107348417D01*
X101798234Y-107456580D01*
X101890220Y-107548566D01*
X101998383Y-107620839D01*
X102118569Y-107670621D01*
X102246156Y-107696000D01*
X102376244Y-107696000D01*
X102503831Y-107670621D01*
X102624017Y-107620839D01*
X102732180Y-107548566D01*
X102824166Y-107456580D01*
X102896439Y-107348417D01*
X102946221Y-107228231D01*
X102971600Y-107100644D01*
X102971600Y-107072156D01*
X121564400Y-107072156D01*
X121564400Y-107202244D01*
X121589779Y-107329831D01*
X121639561Y-107450017D01*
X121711834Y-107558180D01*
X121803820Y-107650166D01*
X121911983Y-107722439D01*
X122032169Y-107772221D01*
X122159756Y-107797600D01*
X122289844Y-107797600D01*
X122417431Y-107772221D01*
X122537617Y-107722439D01*
X122645780Y-107650166D01*
X122737766Y-107558180D01*
X122810039Y-107450017D01*
X122859821Y-107329831D01*
X122885200Y-107202244D01*
X122885200Y-107072156D01*
X122859821Y-106944569D01*
X122810039Y-106824383D01*
X122737766Y-106716220D01*
X122645780Y-106624234D01*
X122537617Y-106551961D01*
X122505737Y-106538756D01*
X146874200Y-106538756D01*
X146874200Y-106668844D01*
X146899579Y-106796431D01*
X146949361Y-106916617D01*
X147021634Y-107024780D01*
X147113620Y-107116766D01*
X147221783Y-107189039D01*
X147341969Y-107238821D01*
X147469556Y-107264200D01*
X147599644Y-107264200D01*
X147727231Y-107238821D01*
X147847417Y-107189039D01*
X147955580Y-107116766D01*
X148047566Y-107024780D01*
X148119839Y-106916617D01*
X148169621Y-106796431D01*
X148195000Y-106668844D01*
X148195000Y-106538756D01*
X148169621Y-106411169D01*
X148119839Y-106290983D01*
X148047566Y-106182820D01*
X147955580Y-106090834D01*
X147847417Y-106018561D01*
X147727231Y-105968779D01*
X147599644Y-105943400D01*
X147469556Y-105943400D01*
X147341969Y-105968779D01*
X147221783Y-106018561D01*
X147113620Y-106090834D01*
X147021634Y-106182820D01*
X146949361Y-106290983D01*
X146899579Y-106411169D01*
X146874200Y-106538756D01*
X122505737Y-106538756D01*
X122417431Y-106502179D01*
X122289844Y-106476800D01*
X122159756Y-106476800D01*
X122032169Y-106502179D01*
X121911983Y-106551961D01*
X121803820Y-106624234D01*
X121711834Y-106716220D01*
X121639561Y-106824383D01*
X121589779Y-106944569D01*
X121564400Y-107072156D01*
X102971600Y-107072156D01*
X102971600Y-106970556D01*
X102946221Y-106842969D01*
X102896439Y-106722783D01*
X102824166Y-106614620D01*
X102732180Y-106522634D01*
X102624017Y-106450361D01*
X102503831Y-106400579D01*
X102376244Y-106375200D01*
X102246156Y-106375200D01*
X102118569Y-106400579D01*
X101998383Y-106450361D01*
X101890220Y-106522634D01*
X101798234Y-106614620D01*
X101725961Y-106722783D01*
X101676179Y-106842969D01*
X101650800Y-106970556D01*
X94750390Y-106970556D01*
X94797766Y-106923180D01*
X94870039Y-106815017D01*
X94919821Y-106694831D01*
X94945200Y-106567244D01*
X94945200Y-106437156D01*
X94919821Y-106309569D01*
X94870039Y-106189383D01*
X94797766Y-106081220D01*
X94705780Y-105989234D01*
X94631094Y-105939330D01*
X94651556Y-105943400D01*
X94781644Y-105943400D01*
X94909231Y-105918021D01*
X95029417Y-105868239D01*
X95137580Y-105795966D01*
X95229566Y-105703980D01*
X95301839Y-105595817D01*
X95351621Y-105475631D01*
X95377000Y-105348044D01*
X95377000Y-105217956D01*
X95351621Y-105090369D01*
X95301839Y-104970183D01*
X95229566Y-104862020D01*
X95137580Y-104770034D01*
X95029417Y-104697761D01*
X94909231Y-104647979D01*
X94781644Y-104622600D01*
X94651556Y-104622600D01*
X94523969Y-104647979D01*
X94403783Y-104697761D01*
X94295620Y-104770034D01*
X94203634Y-104862020D01*
X94131361Y-104970183D01*
X94081579Y-105090369D01*
X94056200Y-105217956D01*
X94056200Y-105348044D01*
X94081579Y-105475631D01*
X94131361Y-105595817D01*
X94203634Y-105703980D01*
X94295620Y-105795966D01*
X94370306Y-105845870D01*
X94349844Y-105841800D01*
X94219756Y-105841800D01*
X94092169Y-105867179D01*
X93971983Y-105916961D01*
X93863820Y-105989234D01*
X93771834Y-106081220D01*
X93699561Y-106189383D01*
X93649779Y-106309569D01*
X93624400Y-106437156D01*
X85445200Y-106437156D01*
X85445200Y-102967801D01*
X88231543Y-102967801D01*
X88255311Y-103209119D01*
X88325701Y-103441164D01*
X88440008Y-103655017D01*
X88593839Y-103842461D01*
X88781283Y-103996292D01*
X88995136Y-104110599D01*
X89227181Y-104180989D01*
X89408027Y-104198801D01*
X89528971Y-104198801D01*
X89709817Y-104180989D01*
X89941862Y-104110599D01*
X90155715Y-103996292D01*
X90338412Y-103846356D01*
X108204000Y-103846356D01*
X108204000Y-103976444D01*
X108229379Y-104104031D01*
X108279161Y-104224217D01*
X108351434Y-104332380D01*
X108443420Y-104424366D01*
X108551583Y-104496639D01*
X108671769Y-104546421D01*
X108799356Y-104571800D01*
X108929444Y-104571800D01*
X109057031Y-104546421D01*
X109177217Y-104496639D01*
X109285380Y-104424366D01*
X109377366Y-104332380D01*
X109449639Y-104224217D01*
X109499421Y-104104031D01*
X109524800Y-103976444D01*
X109524800Y-103846356D01*
X109499421Y-103718769D01*
X109449639Y-103598583D01*
X109377366Y-103490420D01*
X109285380Y-103398434D01*
X109177217Y-103326161D01*
X109057031Y-103276379D01*
X108929444Y-103251000D01*
X108799356Y-103251000D01*
X108671769Y-103276379D01*
X108551583Y-103326161D01*
X108443420Y-103398434D01*
X108351434Y-103490420D01*
X108279161Y-103598583D01*
X108229379Y-103718769D01*
X108204000Y-103846356D01*
X90338412Y-103846356D01*
X90343159Y-103842461D01*
X90496990Y-103655017D01*
X90611297Y-103441164D01*
X90681687Y-103209119D01*
X90705455Y-102967801D01*
X90681687Y-102726483D01*
X90611297Y-102494438D01*
X90540377Y-102361756D01*
X110845600Y-102361756D01*
X110845600Y-102491844D01*
X110870979Y-102619431D01*
X110920761Y-102739617D01*
X110993034Y-102847780D01*
X111085020Y-102939766D01*
X111193183Y-103012039D01*
X111313369Y-103061821D01*
X111440956Y-103087200D01*
X111571044Y-103087200D01*
X111698631Y-103061821D01*
X111818817Y-103012039D01*
X111926980Y-102939766D01*
X112018966Y-102847780D01*
X112021253Y-102844356D01*
X119456200Y-102844356D01*
X119456200Y-102974444D01*
X119481579Y-103102031D01*
X119531361Y-103222217D01*
X119603634Y-103330380D01*
X119695620Y-103422366D01*
X119803783Y-103494639D01*
X119923969Y-103544421D01*
X120051556Y-103569800D01*
X120181644Y-103569800D01*
X120309231Y-103544421D01*
X120429417Y-103494639D01*
X120537580Y-103422366D01*
X120629566Y-103330380D01*
X120701839Y-103222217D01*
X120751621Y-103102031D01*
X120762456Y-103047556D01*
X127838200Y-103047556D01*
X127838200Y-103177644D01*
X127863579Y-103305231D01*
X127913361Y-103425417D01*
X127985634Y-103533580D01*
X128077620Y-103625566D01*
X128185783Y-103697839D01*
X128305969Y-103747621D01*
X128433556Y-103773000D01*
X128563644Y-103773000D01*
X128691231Y-103747621D01*
X128811417Y-103697839D01*
X128919580Y-103625566D01*
X129011566Y-103533580D01*
X129083839Y-103425417D01*
X129133621Y-103305231D01*
X129159000Y-103177644D01*
X129159000Y-103136456D01*
X135407400Y-103136456D01*
X135407400Y-103266544D01*
X135432779Y-103394131D01*
X135482561Y-103514317D01*
X135554834Y-103622480D01*
X135646820Y-103714466D01*
X135754983Y-103786739D01*
X135875169Y-103836521D01*
X136002756Y-103861900D01*
X136132844Y-103861900D01*
X136260431Y-103836521D01*
X136380617Y-103786739D01*
X136488780Y-103714466D01*
X136580766Y-103622480D01*
X136653039Y-103514317D01*
X136702821Y-103394131D01*
X136728200Y-103266544D01*
X136728200Y-103136456D01*
X136702821Y-103008869D01*
X136653039Y-102888683D01*
X136580766Y-102780520D01*
X136488780Y-102688534D01*
X136380617Y-102616261D01*
X136260431Y-102566479D01*
X136132844Y-102541100D01*
X136002756Y-102541100D01*
X135875169Y-102566479D01*
X135754983Y-102616261D01*
X135646820Y-102688534D01*
X135554834Y-102780520D01*
X135482561Y-102888683D01*
X135432779Y-103008869D01*
X135407400Y-103136456D01*
X129159000Y-103136456D01*
X129159000Y-103047556D01*
X129133621Y-102919969D01*
X129083839Y-102799783D01*
X129011566Y-102691620D01*
X128919580Y-102599634D01*
X128811417Y-102527361D01*
X128691231Y-102477579D01*
X128563644Y-102452200D01*
X128433556Y-102452200D01*
X128305969Y-102477579D01*
X128185783Y-102527361D01*
X128077620Y-102599634D01*
X127985634Y-102691620D01*
X127913361Y-102799783D01*
X127863579Y-102919969D01*
X127838200Y-103047556D01*
X120762456Y-103047556D01*
X120777000Y-102974444D01*
X120777000Y-102844356D01*
X120751621Y-102716769D01*
X120701839Y-102596583D01*
X120629566Y-102488420D01*
X120537580Y-102396434D01*
X120429417Y-102324161D01*
X120397537Y-102310956D01*
X144424400Y-102310956D01*
X144424400Y-102441044D01*
X144449779Y-102568631D01*
X144499561Y-102688817D01*
X144571834Y-102796980D01*
X144663820Y-102888966D01*
X144771983Y-102961239D01*
X144892169Y-103011021D01*
X145019756Y-103036400D01*
X145149844Y-103036400D01*
X145277431Y-103011021D01*
X145397617Y-102961239D01*
X145505780Y-102888966D01*
X145526290Y-102868456D01*
X154279600Y-102868456D01*
X154279600Y-102998544D01*
X154304979Y-103126131D01*
X154354761Y-103246317D01*
X154427034Y-103354480D01*
X154519020Y-103446466D01*
X154627183Y-103518739D01*
X154747369Y-103568521D01*
X154874956Y-103593900D01*
X155005044Y-103593900D01*
X155132631Y-103568521D01*
X155252817Y-103518739D01*
X155360980Y-103446466D01*
X155452966Y-103354480D01*
X155525239Y-103246317D01*
X155575021Y-103126131D01*
X155600400Y-102998544D01*
X155600400Y-102906556D01*
X160096200Y-102906556D01*
X160096200Y-103036644D01*
X160121579Y-103164231D01*
X160171361Y-103284417D01*
X160243634Y-103392580D01*
X160335620Y-103484566D01*
X160443783Y-103556839D01*
X160563969Y-103606621D01*
X160691556Y-103632000D01*
X160821644Y-103632000D01*
X160949231Y-103606621D01*
X161069417Y-103556839D01*
X161177580Y-103484566D01*
X161269566Y-103392580D01*
X161341839Y-103284417D01*
X161391621Y-103164231D01*
X161417000Y-103036644D01*
X161417000Y-102906556D01*
X161391621Y-102778969D01*
X161341839Y-102658783D01*
X161269566Y-102550620D01*
X161177580Y-102458634D01*
X161069417Y-102386361D01*
X160949231Y-102336579D01*
X160877729Y-102322356D01*
X165557200Y-102322356D01*
X165557200Y-102452444D01*
X165582579Y-102580031D01*
X165632361Y-102700217D01*
X165704634Y-102808380D01*
X165796620Y-102900366D01*
X165904783Y-102972639D01*
X166024969Y-103022421D01*
X166152556Y-103047800D01*
X166282644Y-103047800D01*
X166410231Y-103022421D01*
X166530417Y-102972639D01*
X166638580Y-102900366D01*
X166730566Y-102808380D01*
X166802839Y-102700217D01*
X166852621Y-102580031D01*
X166878000Y-102452444D01*
X166878000Y-102322356D01*
X166852621Y-102194769D01*
X166802839Y-102074583D01*
X166730566Y-101966420D01*
X166638580Y-101874434D01*
X166530417Y-101802161D01*
X166410231Y-101752379D01*
X166282644Y-101727000D01*
X166152556Y-101727000D01*
X166024969Y-101752379D01*
X165904783Y-101802161D01*
X165796620Y-101874434D01*
X165704634Y-101966420D01*
X165632361Y-102074583D01*
X165582579Y-102194769D01*
X165557200Y-102322356D01*
X160877729Y-102322356D01*
X160821644Y-102311200D01*
X160691556Y-102311200D01*
X160563969Y-102336579D01*
X160443783Y-102386361D01*
X160335620Y-102458634D01*
X160243634Y-102550620D01*
X160171361Y-102658783D01*
X160121579Y-102778969D01*
X160096200Y-102906556D01*
X155600400Y-102906556D01*
X155600400Y-102868456D01*
X155575021Y-102740869D01*
X155525239Y-102620683D01*
X155452966Y-102512520D01*
X155360980Y-102420534D01*
X155252817Y-102348261D01*
X155132631Y-102298479D01*
X155005044Y-102273100D01*
X154874956Y-102273100D01*
X154747369Y-102298479D01*
X154627183Y-102348261D01*
X154519020Y-102420534D01*
X154427034Y-102512520D01*
X154354761Y-102620683D01*
X154304979Y-102740869D01*
X154279600Y-102868456D01*
X145526290Y-102868456D01*
X145597766Y-102796980D01*
X145670039Y-102688817D01*
X145719821Y-102568631D01*
X145745200Y-102441044D01*
X145745200Y-102310956D01*
X145719821Y-102183369D01*
X145670039Y-102063183D01*
X145597766Y-101955020D01*
X145505780Y-101863034D01*
X145397617Y-101790761D01*
X145277431Y-101740979D01*
X145149844Y-101715600D01*
X145019756Y-101715600D01*
X144892169Y-101740979D01*
X144771983Y-101790761D01*
X144663820Y-101863034D01*
X144571834Y-101955020D01*
X144499561Y-102063183D01*
X144449779Y-102183369D01*
X144424400Y-102310956D01*
X120397537Y-102310956D01*
X120309231Y-102274379D01*
X120181644Y-102249000D01*
X120051556Y-102249000D01*
X119923969Y-102274379D01*
X119803783Y-102324161D01*
X119695620Y-102396434D01*
X119603634Y-102488420D01*
X119531361Y-102596583D01*
X119481579Y-102716769D01*
X119456200Y-102844356D01*
X112021253Y-102844356D01*
X112091239Y-102739617D01*
X112141021Y-102619431D01*
X112166400Y-102491844D01*
X112166400Y-102361756D01*
X112141021Y-102234169D01*
X112091239Y-102113983D01*
X112018966Y-102005820D01*
X111926980Y-101913834D01*
X111818817Y-101841561D01*
X111698631Y-101791779D01*
X111571044Y-101766400D01*
X111440956Y-101766400D01*
X111313369Y-101791779D01*
X111193183Y-101841561D01*
X111085020Y-101913834D01*
X110993034Y-102005820D01*
X110920761Y-102113983D01*
X110870979Y-102234169D01*
X110845600Y-102361756D01*
X90540377Y-102361756D01*
X90496990Y-102280585D01*
X90343159Y-102093141D01*
X90155715Y-101939310D01*
X89941862Y-101825003D01*
X89709817Y-101754613D01*
X89528971Y-101736801D01*
X89408027Y-101736801D01*
X89227181Y-101754613D01*
X88995136Y-101825003D01*
X88781283Y-101939310D01*
X88593839Y-102093141D01*
X88440008Y-102280585D01*
X88325701Y-102494438D01*
X88255311Y-102726483D01*
X88231543Y-102967801D01*
X85445200Y-102967801D01*
X85445200Y-100427801D01*
X88231543Y-100427801D01*
X88255311Y-100669119D01*
X88325701Y-100901164D01*
X88440008Y-101115017D01*
X88593839Y-101302461D01*
X88781283Y-101456292D01*
X88995136Y-101570599D01*
X89227181Y-101640989D01*
X89408027Y-101658801D01*
X89528971Y-101658801D01*
X89709817Y-101640989D01*
X89941862Y-101570599D01*
X90155715Y-101456292D01*
X90343159Y-101302461D01*
X90496990Y-101115017D01*
X90611297Y-100901164D01*
X90681687Y-100669119D01*
X90705455Y-100427801D01*
X90681687Y-100186483D01*
X90611297Y-99954438D01*
X90496990Y-99740585D01*
X90343159Y-99553141D01*
X90155715Y-99399310D01*
X89941862Y-99285003D01*
X89709817Y-99214613D01*
X89528971Y-99196801D01*
X89408027Y-99196801D01*
X89227181Y-99214613D01*
X88995136Y-99285003D01*
X88781283Y-99399310D01*
X88593839Y-99553141D01*
X88440008Y-99740585D01*
X88325701Y-99954438D01*
X88255311Y-100186483D01*
X88231543Y-100427801D01*
X85445200Y-100427801D01*
X85445200Y-97887801D01*
X88231543Y-97887801D01*
X88255311Y-98129119D01*
X88325701Y-98361164D01*
X88440008Y-98575017D01*
X88593839Y-98762461D01*
X88781283Y-98916292D01*
X88995136Y-99030599D01*
X89227181Y-99100989D01*
X89408027Y-99118801D01*
X89528971Y-99118801D01*
X89709817Y-99100989D01*
X89941862Y-99030599D01*
X90155715Y-98916292D01*
X90343159Y-98762461D01*
X90496990Y-98575017D01*
X90503329Y-98563156D01*
X102514400Y-98563156D01*
X102514400Y-98693244D01*
X102539779Y-98820831D01*
X102589561Y-98941017D01*
X102661834Y-99049180D01*
X102753820Y-99141166D01*
X102861983Y-99213439D01*
X102982169Y-99263221D01*
X103109756Y-99288600D01*
X103239844Y-99288600D01*
X103367431Y-99263221D01*
X103487617Y-99213439D01*
X103595780Y-99141166D01*
X103687766Y-99049180D01*
X103760039Y-98941017D01*
X103809821Y-98820831D01*
X103835200Y-98693244D01*
X103835200Y-98563156D01*
X103809821Y-98435569D01*
X103760039Y-98315383D01*
X103687766Y-98207220D01*
X103595780Y-98115234D01*
X103487617Y-98042961D01*
X103367431Y-97993179D01*
X103239844Y-97967800D01*
X103109756Y-97967800D01*
X102982169Y-97993179D01*
X102861983Y-98042961D01*
X102753820Y-98115234D01*
X102661834Y-98207220D01*
X102589561Y-98315383D01*
X102539779Y-98435569D01*
X102514400Y-98563156D01*
X90503329Y-98563156D01*
X90611297Y-98361164D01*
X90681687Y-98129119D01*
X90705455Y-97887801D01*
X90681687Y-97646483D01*
X90659262Y-97572556D01*
X97600800Y-97572556D01*
X97600800Y-97702644D01*
X97626179Y-97830231D01*
X97675961Y-97950417D01*
X97748234Y-98058580D01*
X97840220Y-98150566D01*
X97948383Y-98222839D01*
X98068569Y-98272621D01*
X98196156Y-98298000D01*
X98326244Y-98298000D01*
X98453831Y-98272621D01*
X98574017Y-98222839D01*
X98682180Y-98150566D01*
X98774166Y-98058580D01*
X98846439Y-97950417D01*
X98896221Y-97830231D01*
X98921600Y-97702644D01*
X98921600Y-97572556D01*
X98896221Y-97444969D01*
X98846439Y-97324783D01*
X98774166Y-97216620D01*
X98682180Y-97124634D01*
X98574017Y-97052361D01*
X98453831Y-97002579D01*
X98326244Y-96977200D01*
X98196156Y-96977200D01*
X98068569Y-97002579D01*
X97948383Y-97052361D01*
X97840220Y-97124634D01*
X97748234Y-97216620D01*
X97675961Y-97324783D01*
X97626179Y-97444969D01*
X97600800Y-97572556D01*
X90659262Y-97572556D01*
X90611297Y-97414438D01*
X90496990Y-97200585D01*
X90343159Y-97013141D01*
X90155715Y-96859310D01*
X89993223Y-96772456D01*
X104305100Y-96772456D01*
X104305100Y-96902544D01*
X104330479Y-97030131D01*
X104380261Y-97150317D01*
X104452534Y-97258480D01*
X104544520Y-97350466D01*
X104652683Y-97422739D01*
X104772869Y-97472521D01*
X104900456Y-97497900D01*
X105030544Y-97497900D01*
X105158131Y-97472521D01*
X105278317Y-97422739D01*
X105386480Y-97350466D01*
X105478466Y-97258480D01*
X105550739Y-97150317D01*
X105600521Y-97030131D01*
X105625900Y-96902544D01*
X105625900Y-96772456D01*
X105600521Y-96644869D01*
X105550739Y-96524683D01*
X105478466Y-96416520D01*
X105386480Y-96324534D01*
X105278317Y-96252261D01*
X105158131Y-96202479D01*
X105030544Y-96177100D01*
X104900456Y-96177100D01*
X104772869Y-96202479D01*
X104652683Y-96252261D01*
X104544520Y-96324534D01*
X104452534Y-96416520D01*
X104380261Y-96524683D01*
X104330479Y-96644869D01*
X104305100Y-96772456D01*
X89993223Y-96772456D01*
X89941862Y-96745003D01*
X89709817Y-96674613D01*
X89528971Y-96656801D01*
X89408027Y-96656801D01*
X89227181Y-96674613D01*
X88995136Y-96745003D01*
X88781283Y-96859310D01*
X88593839Y-97013141D01*
X88440008Y-97200585D01*
X88325701Y-97414438D01*
X88255311Y-97646483D01*
X88231543Y-97887801D01*
X85445200Y-97887801D01*
X85445200Y-93254556D01*
X133273800Y-93254556D01*
X133273800Y-93384644D01*
X133299179Y-93512231D01*
X133348961Y-93632417D01*
X133421234Y-93740580D01*
X133513220Y-93832566D01*
X133621383Y-93904839D01*
X133741569Y-93954621D01*
X133869156Y-93980000D01*
X133999244Y-93980000D01*
X134126831Y-93954621D01*
X134247017Y-93904839D01*
X134355180Y-93832566D01*
X134447166Y-93740580D01*
X134519439Y-93632417D01*
X134569221Y-93512231D01*
X134594600Y-93384644D01*
X134594600Y-93254556D01*
X134569221Y-93126969D01*
X134519439Y-93006783D01*
X134447166Y-92898620D01*
X134355180Y-92806634D01*
X134247017Y-92734361D01*
X134126831Y-92684579D01*
X133999244Y-92659200D01*
X133869156Y-92659200D01*
X133741569Y-92684579D01*
X133621383Y-92734361D01*
X133513220Y-92806634D01*
X133421234Y-92898620D01*
X133348961Y-93006783D01*
X133299179Y-93126969D01*
X133273800Y-93254556D01*
X85445200Y-93254556D01*
X85445200Y-92543356D01*
X160705800Y-92543356D01*
X160705800Y-92673444D01*
X160731179Y-92801031D01*
X160780961Y-92921217D01*
X160853234Y-93029380D01*
X160945220Y-93121366D01*
X161053383Y-93193639D01*
X161173569Y-93243421D01*
X161301156Y-93268800D01*
X161431244Y-93268800D01*
X161558831Y-93243421D01*
X161679017Y-93193639D01*
X161787180Y-93121366D01*
X161879166Y-93029380D01*
X161951439Y-92921217D01*
X162001221Y-92801031D01*
X162026600Y-92673444D01*
X162026600Y-92543356D01*
X162001221Y-92415769D01*
X161951439Y-92295583D01*
X161913335Y-92238556D01*
X169976800Y-92238556D01*
X169976800Y-92368644D01*
X170002179Y-92496231D01*
X170051961Y-92616417D01*
X170124234Y-92724580D01*
X170216220Y-92816566D01*
X170324383Y-92888839D01*
X170444569Y-92938621D01*
X170572156Y-92964000D01*
X170702244Y-92964000D01*
X170829831Y-92938621D01*
X170950017Y-92888839D01*
X171058180Y-92816566D01*
X171150166Y-92724580D01*
X171222439Y-92616417D01*
X171272221Y-92496231D01*
X171297600Y-92368644D01*
X171297600Y-92238556D01*
X171272221Y-92110969D01*
X171222439Y-91990783D01*
X171150166Y-91882620D01*
X171058180Y-91790634D01*
X170950017Y-91718361D01*
X170829831Y-91668579D01*
X170702244Y-91643200D01*
X170572156Y-91643200D01*
X170444569Y-91668579D01*
X170324383Y-91718361D01*
X170216220Y-91790634D01*
X170124234Y-91882620D01*
X170051961Y-91990783D01*
X170002179Y-92110969D01*
X169976800Y-92238556D01*
X161913335Y-92238556D01*
X161879166Y-92187420D01*
X161787180Y-92095434D01*
X161679017Y-92023161D01*
X161558831Y-91973379D01*
X161431244Y-91948000D01*
X161301156Y-91948000D01*
X161173569Y-91973379D01*
X161053383Y-92023161D01*
X160945220Y-92095434D01*
X160853234Y-92187420D01*
X160780961Y-92295583D01*
X160731179Y-92415769D01*
X160705800Y-92543356D01*
X85445200Y-92543356D01*
X85445200Y-91527356D01*
X108534200Y-91527356D01*
X108534200Y-91657444D01*
X108559579Y-91785031D01*
X108609361Y-91905217D01*
X108681634Y-92013380D01*
X108773620Y-92105366D01*
X108881783Y-92177639D01*
X109001969Y-92227421D01*
X109129556Y-92252800D01*
X109259644Y-92252800D01*
X109387231Y-92227421D01*
X109507417Y-92177639D01*
X109615580Y-92105366D01*
X109707566Y-92013380D01*
X109779839Y-91905217D01*
X109829621Y-91785031D01*
X109855000Y-91657444D01*
X109855000Y-91527356D01*
X109829621Y-91399769D01*
X109779839Y-91279583D01*
X109707566Y-91171420D01*
X109615580Y-91079434D01*
X109507417Y-91007161D01*
X109387231Y-90957379D01*
X109259644Y-90932000D01*
X109129556Y-90932000D01*
X109001969Y-90957379D01*
X108881783Y-91007161D01*
X108773620Y-91079434D01*
X108681634Y-91171420D01*
X108609361Y-91279583D01*
X108559579Y-91399769D01*
X108534200Y-91527356D01*
X85445200Y-91527356D01*
X85445200Y-90206556D01*
X156972000Y-90206556D01*
X156972000Y-90336644D01*
X156997379Y-90464231D01*
X157047161Y-90584417D01*
X157119434Y-90692580D01*
X157211420Y-90784566D01*
X157319583Y-90856839D01*
X157439769Y-90906621D01*
X157567356Y-90932000D01*
X157697444Y-90932000D01*
X157825031Y-90906621D01*
X157945217Y-90856839D01*
X158053380Y-90784566D01*
X158145366Y-90692580D01*
X158217639Y-90584417D01*
X158267421Y-90464231D01*
X158292800Y-90336644D01*
X158292800Y-90206556D01*
X158267421Y-90078969D01*
X158217639Y-89958783D01*
X158145366Y-89850620D01*
X158053380Y-89758634D01*
X157945217Y-89686361D01*
X157825031Y-89636579D01*
X157697444Y-89611200D01*
X157567356Y-89611200D01*
X157439769Y-89636579D01*
X157319583Y-89686361D01*
X157211420Y-89758634D01*
X157119434Y-89850620D01*
X157047161Y-89958783D01*
X156997379Y-90078969D01*
X156972000Y-90206556D01*
X85445200Y-90206556D01*
X85445200Y-87269583D01*
X87013400Y-87269583D01*
X87013400Y-87541617D01*
X87066471Y-87808423D01*
X87170574Y-88059749D01*
X87321707Y-88285936D01*
X87514064Y-88478293D01*
X87740251Y-88629426D01*
X87991577Y-88733529D01*
X88258383Y-88786600D01*
X88530417Y-88786600D01*
X88797223Y-88733529D01*
X89048549Y-88629426D01*
X89274736Y-88478293D01*
X89467093Y-88285936D01*
X89618226Y-88059749D01*
X89722329Y-87808423D01*
X89775400Y-87541617D01*
X89775400Y-87269583D01*
X93513400Y-87269583D01*
X93513400Y-87541617D01*
X93566471Y-87808423D01*
X93670574Y-88059749D01*
X93821707Y-88285936D01*
X94014064Y-88478293D01*
X94240251Y-88629426D01*
X94491577Y-88733529D01*
X94758383Y-88786600D01*
X95030417Y-88786600D01*
X95170398Y-88758756D01*
X146941600Y-88758756D01*
X146941600Y-88888844D01*
X146966979Y-89016431D01*
X147016761Y-89136617D01*
X147089034Y-89244780D01*
X147181020Y-89336766D01*
X147289183Y-89409039D01*
X147409369Y-89458821D01*
X147536956Y-89484200D01*
X147667044Y-89484200D01*
X147794631Y-89458821D01*
X147914817Y-89409039D01*
X148022980Y-89336766D01*
X148114966Y-89244780D01*
X148187239Y-89136617D01*
X148237021Y-89016431D01*
X148262400Y-88888844D01*
X148262400Y-88758756D01*
X148237021Y-88631169D01*
X148187239Y-88510983D01*
X148114966Y-88402820D01*
X148022980Y-88310834D01*
X147914817Y-88238561D01*
X147794631Y-88188779D01*
X147667044Y-88163400D01*
X147536956Y-88163400D01*
X147409369Y-88188779D01*
X147289183Y-88238561D01*
X147181020Y-88310834D01*
X147089034Y-88402820D01*
X147016761Y-88510983D01*
X146966979Y-88631169D01*
X146941600Y-88758756D01*
X95170398Y-88758756D01*
X95297223Y-88733529D01*
X95548549Y-88629426D01*
X95774736Y-88478293D01*
X95967093Y-88285936D01*
X96118226Y-88059749D01*
X96222329Y-87808423D01*
X96275400Y-87541617D01*
X96275400Y-87269583D01*
X96222329Y-87002777D01*
X96172840Y-86883300D01*
X174124857Y-86883300D01*
X174124857Y-90383300D01*
X174132213Y-90457989D01*
X174153999Y-90529808D01*
X174189378Y-90595996D01*
X174236989Y-90654011D01*
X174295004Y-90701622D01*
X174361192Y-90737001D01*
X174433011Y-90758787D01*
X174507700Y-90766143D01*
X178007700Y-90766143D01*
X178082389Y-90758787D01*
X178154208Y-90737001D01*
X178220396Y-90701622D01*
X178278411Y-90654011D01*
X178326022Y-90595996D01*
X178361401Y-90529808D01*
X178383187Y-90457989D01*
X178390543Y-90383300D01*
X178390543Y-86883300D01*
X178383187Y-86808611D01*
X178361401Y-86736792D01*
X178326022Y-86670604D01*
X178278411Y-86612589D01*
X178220396Y-86564978D01*
X178154208Y-86529599D01*
X178082389Y-86507813D01*
X178007700Y-86500457D01*
X174507700Y-86500457D01*
X174433011Y-86507813D01*
X174361192Y-86529599D01*
X174295004Y-86564978D01*
X174236989Y-86612589D01*
X174189378Y-86670604D01*
X174153999Y-86736792D01*
X174132213Y-86808611D01*
X174124857Y-86883300D01*
X96172840Y-86883300D01*
X96118226Y-86751451D01*
X95967093Y-86525264D01*
X95774736Y-86332907D01*
X95548549Y-86181774D01*
X95297223Y-86077671D01*
X95030417Y-86024600D01*
X94758383Y-86024600D01*
X94491577Y-86077671D01*
X94240251Y-86181774D01*
X94014064Y-86332907D01*
X93821707Y-86525264D01*
X93670574Y-86751451D01*
X93566471Y-87002777D01*
X93513400Y-87269583D01*
X89775400Y-87269583D01*
X89722329Y-87002777D01*
X89618226Y-86751451D01*
X89467093Y-86525264D01*
X89274736Y-86332907D01*
X89048549Y-86181774D01*
X88797223Y-86077671D01*
X88530417Y-86024600D01*
X88258383Y-86024600D01*
X87991577Y-86077671D01*
X87740251Y-86181774D01*
X87514064Y-86332907D01*
X87321707Y-86525264D01*
X87170574Y-86751451D01*
X87066471Y-87002777D01*
X87013400Y-87269583D01*
X85445200Y-87269583D01*
X85445200Y-85391956D01*
X101625400Y-85391956D01*
X101625400Y-85522044D01*
X101650779Y-85649631D01*
X101700561Y-85769817D01*
X101772834Y-85877980D01*
X101864820Y-85969966D01*
X101972983Y-86042239D01*
X102093169Y-86092021D01*
X102220756Y-86117400D01*
X102350844Y-86117400D01*
X102478431Y-86092021D01*
X102598617Y-86042239D01*
X102706780Y-85969966D01*
X102798766Y-85877980D01*
X102871039Y-85769817D01*
X102920821Y-85649631D01*
X102946200Y-85522044D01*
X102946200Y-85391956D01*
X102920821Y-85264369D01*
X102871039Y-85144183D01*
X102798766Y-85036020D01*
X102706780Y-84944034D01*
X102598617Y-84871761D01*
X102478431Y-84821979D01*
X102350844Y-84796600D01*
X102220756Y-84796600D01*
X102093169Y-84821979D01*
X101972983Y-84871761D01*
X101864820Y-84944034D01*
X101772834Y-85036020D01*
X101700561Y-85144183D01*
X101650779Y-85264369D01*
X101625400Y-85391956D01*
X85445200Y-85391956D01*
X85445200Y-82769583D01*
X87013400Y-82769583D01*
X87013400Y-83041617D01*
X87066471Y-83308423D01*
X87170574Y-83559749D01*
X87321707Y-83785936D01*
X87514064Y-83978293D01*
X87740251Y-84129426D01*
X87991577Y-84233529D01*
X88258383Y-84286600D01*
X88530417Y-84286600D01*
X88797223Y-84233529D01*
X89048549Y-84129426D01*
X89274736Y-83978293D01*
X89467093Y-83785936D01*
X89618226Y-83559749D01*
X89722329Y-83308423D01*
X89775400Y-83041617D01*
X89775400Y-82769583D01*
X93513400Y-82769583D01*
X93513400Y-83041617D01*
X93566471Y-83308423D01*
X93670574Y-83559749D01*
X93821707Y-83785936D01*
X94014064Y-83978293D01*
X94240251Y-84129426D01*
X94491577Y-84233529D01*
X94758383Y-84286600D01*
X95030417Y-84286600D01*
X95297223Y-84233529D01*
X95548549Y-84129426D01*
X95774736Y-83978293D01*
X95967093Y-83785936D01*
X96118226Y-83559749D01*
X96222329Y-83308423D01*
X96275400Y-83041617D01*
X96275400Y-82769583D01*
X96222329Y-82502777D01*
X96118226Y-82251451D01*
X95967093Y-82025264D01*
X95791785Y-81849956D01*
X170053000Y-81849956D01*
X170053000Y-81980044D01*
X170078379Y-82107631D01*
X170128161Y-82227817D01*
X170200434Y-82335980D01*
X170292420Y-82427966D01*
X170400583Y-82500239D01*
X170520769Y-82550021D01*
X170648356Y-82575400D01*
X170778444Y-82575400D01*
X170906031Y-82550021D01*
X171026217Y-82500239D01*
X171134380Y-82427966D01*
X171226366Y-82335980D01*
X171298639Y-82227817D01*
X171348421Y-82107631D01*
X171373800Y-81980044D01*
X171373800Y-81849956D01*
X171348421Y-81722369D01*
X171298639Y-81602183D01*
X171226366Y-81494020D01*
X171134380Y-81402034D01*
X171026217Y-81329761D01*
X170906031Y-81279979D01*
X170778444Y-81254600D01*
X170648356Y-81254600D01*
X170520769Y-81279979D01*
X170400583Y-81329761D01*
X170292420Y-81402034D01*
X170200434Y-81494020D01*
X170128161Y-81602183D01*
X170078379Y-81722369D01*
X170053000Y-81849956D01*
X95791785Y-81849956D01*
X95774736Y-81832907D01*
X95548549Y-81681774D01*
X95297223Y-81577671D01*
X95030417Y-81524600D01*
X94758383Y-81524600D01*
X94491577Y-81577671D01*
X94240251Y-81681774D01*
X94014064Y-81832907D01*
X93821707Y-82025264D01*
X93670574Y-82251451D01*
X93566471Y-82502777D01*
X93513400Y-82769583D01*
X89775400Y-82769583D01*
X89722329Y-82502777D01*
X89618226Y-82251451D01*
X89467093Y-82025264D01*
X89274736Y-81832907D01*
X89048549Y-81681774D01*
X88797223Y-81577671D01*
X88530417Y-81524600D01*
X88258383Y-81524600D01*
X87991577Y-81577671D01*
X87740251Y-81681774D01*
X87514064Y-81832907D01*
X87321707Y-82025264D01*
X87170574Y-82251451D01*
X87066471Y-82502777D01*
X87013400Y-82769583D01*
X85445200Y-82769583D01*
X85445200Y-77479801D01*
X86738200Y-77479801D01*
X86738200Y-78145799D01*
X86868130Y-78799001D01*
X87122997Y-79414304D01*
X87493006Y-79968062D01*
X87963938Y-80438994D01*
X88517696Y-80809003D01*
X89132999Y-81063870D01*
X89786201Y-81193800D01*
X90452199Y-81193800D01*
X91105401Y-81063870D01*
X91720704Y-80809003D01*
X92274462Y-80438994D01*
X92745394Y-79968062D01*
X93115403Y-79414304D01*
X93370270Y-78799001D01*
X93410101Y-78598756D01*
X105246200Y-78598756D01*
X105246200Y-78728844D01*
X105271579Y-78856431D01*
X105321361Y-78976617D01*
X105393634Y-79084780D01*
X105485620Y-79176766D01*
X105593783Y-79249039D01*
X105713969Y-79298821D01*
X105841556Y-79324200D01*
X105971644Y-79324200D01*
X106099231Y-79298821D01*
X106219417Y-79249039D01*
X106327580Y-79176766D01*
X106419566Y-79084780D01*
X106491839Y-78976617D01*
X106541621Y-78856431D01*
X106567000Y-78728844D01*
X106567000Y-78598756D01*
X106541621Y-78471169D01*
X106491839Y-78350983D01*
X106419566Y-78242820D01*
X106327580Y-78150834D01*
X106219417Y-78078561D01*
X106099231Y-78028779D01*
X105971644Y-78003400D01*
X105841556Y-78003400D01*
X105713969Y-78028779D01*
X105593783Y-78078561D01*
X105485620Y-78150834D01*
X105393634Y-78242820D01*
X105321361Y-78350983D01*
X105271579Y-78471169D01*
X105246200Y-78598756D01*
X93410101Y-78598756D01*
X93500200Y-78145799D01*
X93500200Y-77479801D01*
X93370270Y-76826599D01*
X93211378Y-76443000D01*
X109765957Y-76443000D01*
X109765957Y-78243000D01*
X109773313Y-78317689D01*
X109795099Y-78389508D01*
X109830478Y-78455696D01*
X109878089Y-78513711D01*
X109936104Y-78561322D01*
X110002292Y-78596701D01*
X110074111Y-78618487D01*
X110148800Y-78625843D01*
X111948800Y-78625843D01*
X112023489Y-78618487D01*
X112042381Y-78612756D01*
X122478800Y-78612756D01*
X122478800Y-78742844D01*
X122504179Y-78870431D01*
X122553961Y-78990617D01*
X122626234Y-79098780D01*
X122718220Y-79190766D01*
X122826383Y-79263039D01*
X122946569Y-79312821D01*
X123074156Y-79338200D01*
X123204244Y-79338200D01*
X123331831Y-79312821D01*
X123452017Y-79263039D01*
X123560180Y-79190766D01*
X123652166Y-79098780D01*
X123724439Y-78990617D01*
X123774221Y-78870431D01*
X123799600Y-78742844D01*
X123799600Y-78612756D01*
X123774221Y-78485169D01*
X123724439Y-78364983D01*
X123652166Y-78256820D01*
X123560180Y-78164834D01*
X123452017Y-78092561D01*
X123331831Y-78042779D01*
X123204244Y-78017400D01*
X123074156Y-78017400D01*
X122946569Y-78042779D01*
X122826383Y-78092561D01*
X122718220Y-78164834D01*
X122626234Y-78256820D01*
X122553961Y-78364983D01*
X122504179Y-78485169D01*
X122478800Y-78612756D01*
X112042381Y-78612756D01*
X112095308Y-78596701D01*
X112161496Y-78561322D01*
X112219511Y-78513711D01*
X112267122Y-78455696D01*
X112302501Y-78389508D01*
X112324287Y-78317689D01*
X112331643Y-78243000D01*
X112331643Y-76443000D01*
X112324287Y-76368311D01*
X112302501Y-76296492D01*
X112267122Y-76230304D01*
X112219511Y-76172289D01*
X112161496Y-76124678D01*
X112095308Y-76089299D01*
X112023489Y-76067513D01*
X111948800Y-76060157D01*
X110148800Y-76060157D01*
X110074111Y-76067513D01*
X110002292Y-76089299D01*
X109936104Y-76124678D01*
X109878089Y-76172289D01*
X109830478Y-76230304D01*
X109795099Y-76296492D01*
X109773313Y-76368311D01*
X109765957Y-76443000D01*
X93211378Y-76443000D01*
X93115403Y-76211296D01*
X92760537Y-75680200D01*
X128942157Y-75680200D01*
X128942157Y-77380200D01*
X128949513Y-77454889D01*
X128971299Y-77526708D01*
X129006678Y-77592896D01*
X129054289Y-77650911D01*
X129112304Y-77698522D01*
X129178492Y-77733901D01*
X129250311Y-77755687D01*
X129325000Y-77763043D01*
X131025000Y-77763043D01*
X131099689Y-77755687D01*
X131171508Y-77733901D01*
X131237696Y-77698522D01*
X131295711Y-77650911D01*
X131343322Y-77592896D01*
X131378701Y-77526708D01*
X131400487Y-77454889D01*
X131407843Y-77380200D01*
X131407843Y-76530200D01*
X131478044Y-76530200D01*
X131501812Y-76771518D01*
X131572202Y-77003563D01*
X131686509Y-77217416D01*
X131840340Y-77404860D01*
X132027784Y-77558691D01*
X132241637Y-77672998D01*
X132473682Y-77743388D01*
X132654528Y-77761200D01*
X132775472Y-77761200D01*
X132956318Y-77743388D01*
X133188363Y-77672998D01*
X133402216Y-77558691D01*
X133498343Y-77479801D01*
X176578200Y-77479801D01*
X176578200Y-78145799D01*
X176708130Y-78799001D01*
X176962997Y-79414304D01*
X177333006Y-79968062D01*
X177803938Y-80438994D01*
X178357696Y-80809003D01*
X178972999Y-81063870D01*
X179626201Y-81193800D01*
X180292199Y-81193800D01*
X180945401Y-81063870D01*
X181560704Y-80809003D01*
X182114462Y-80438994D01*
X182585394Y-79968062D01*
X182955403Y-79414304D01*
X183210270Y-78799001D01*
X183340200Y-78145799D01*
X183340200Y-77479801D01*
X183210270Y-76826599D01*
X182955403Y-76211296D01*
X182585394Y-75657538D01*
X182114462Y-75186606D01*
X181560704Y-74816597D01*
X180945401Y-74561730D01*
X180292199Y-74431800D01*
X179626201Y-74431800D01*
X178972999Y-74561730D01*
X178357696Y-74816597D01*
X177803938Y-75186606D01*
X177333006Y-75657538D01*
X176962997Y-76211296D01*
X176708130Y-76826599D01*
X176578200Y-77479801D01*
X133498343Y-77479801D01*
X133589660Y-77404860D01*
X133743491Y-77217416D01*
X133857798Y-77003563D01*
X133928188Y-76771518D01*
X133951956Y-76530200D01*
X133928188Y-76288882D01*
X133857798Y-76056837D01*
X133743491Y-75842984D01*
X133589660Y-75655540D01*
X133402216Y-75501709D01*
X133188363Y-75387402D01*
X132956318Y-75317012D01*
X132775472Y-75299200D01*
X132654528Y-75299200D01*
X132473682Y-75317012D01*
X132241637Y-75387402D01*
X132027784Y-75501709D01*
X131840340Y-75655540D01*
X131686509Y-75842984D01*
X131572202Y-76056837D01*
X131501812Y-76288882D01*
X131478044Y-76530200D01*
X131407843Y-76530200D01*
X131407843Y-75680200D01*
X131400487Y-75605511D01*
X131378701Y-75533692D01*
X131343322Y-75467504D01*
X131295711Y-75409489D01*
X131237696Y-75361878D01*
X131171508Y-75326499D01*
X131099689Y-75304713D01*
X131025000Y-75297357D01*
X129325000Y-75297357D01*
X129250311Y-75304713D01*
X129178492Y-75326499D01*
X129112304Y-75361878D01*
X129054289Y-75409489D01*
X129006678Y-75467504D01*
X128971299Y-75533692D01*
X128949513Y-75605511D01*
X128942157Y-75680200D01*
X92760537Y-75680200D01*
X92745394Y-75657538D01*
X92274462Y-75186606D01*
X91720704Y-74816597D01*
X91105401Y-74561730D01*
X90452199Y-74431800D01*
X89786201Y-74431800D01*
X89132999Y-74561730D01*
X88517696Y-74816597D01*
X87963938Y-75186606D01*
X87493006Y-75657538D01*
X87122997Y-76211296D01*
X86868130Y-76826599D01*
X86738200Y-77479801D01*
X85445200Y-77479801D01*
X85445200Y-73747356D01*
X153822400Y-73747356D01*
X153822400Y-73877444D01*
X153847779Y-74005031D01*
X153897561Y-74125217D01*
X153900690Y-74129900D01*
X153897561Y-74134583D01*
X153847779Y-74254769D01*
X153822400Y-74382356D01*
X153822400Y-74512444D01*
X153847779Y-74640031D01*
X153897561Y-74760217D01*
X153900690Y-74764900D01*
X153897561Y-74769583D01*
X153847779Y-74889769D01*
X153822400Y-75017356D01*
X153822400Y-75147444D01*
X153847779Y-75275031D01*
X153897561Y-75395217D01*
X153900690Y-75399900D01*
X153897561Y-75404583D01*
X153847779Y-75524769D01*
X153822400Y-75652356D01*
X153822400Y-75782444D01*
X153847779Y-75910031D01*
X153897561Y-76030217D01*
X153900690Y-76034900D01*
X153897561Y-76039583D01*
X153847779Y-76159769D01*
X153822400Y-76287356D01*
X153822400Y-76417444D01*
X153847779Y-76545031D01*
X153897561Y-76665217D01*
X153969834Y-76773380D01*
X154061820Y-76865366D01*
X154169983Y-76937639D01*
X154290169Y-76987421D01*
X154417756Y-77012800D01*
X154547844Y-77012800D01*
X154675431Y-76987421D01*
X154795617Y-76937639D01*
X154800300Y-76934510D01*
X154804983Y-76937639D01*
X154925169Y-76987421D01*
X155052756Y-77012800D01*
X155182844Y-77012800D01*
X155310431Y-76987421D01*
X155430617Y-76937639D01*
X155435300Y-76934510D01*
X155439983Y-76937639D01*
X155560169Y-76987421D01*
X155687756Y-77012800D01*
X155817844Y-77012800D01*
X155945431Y-76987421D01*
X156065617Y-76937639D01*
X156070300Y-76934510D01*
X156074983Y-76937639D01*
X156195169Y-76987421D01*
X156322756Y-77012800D01*
X156452844Y-77012800D01*
X156580431Y-76987421D01*
X156700617Y-76937639D01*
X156705300Y-76934510D01*
X156709983Y-76937639D01*
X156830169Y-76987421D01*
X156957756Y-77012800D01*
X157087844Y-77012800D01*
X157215431Y-76987421D01*
X157335617Y-76937639D01*
X157340300Y-76934510D01*
X157344983Y-76937639D01*
X157465169Y-76987421D01*
X157592756Y-77012800D01*
X157722844Y-77012800D01*
X157850431Y-76987421D01*
X157970617Y-76937639D01*
X157975300Y-76934510D01*
X157979983Y-76937639D01*
X158100169Y-76987421D01*
X158227756Y-77012800D01*
X158357844Y-77012800D01*
X158485431Y-76987421D01*
X158605617Y-76937639D01*
X158610300Y-76934510D01*
X158614983Y-76937639D01*
X158735169Y-76987421D01*
X158862756Y-77012800D01*
X158992844Y-77012800D01*
X159120431Y-76987421D01*
X159240617Y-76937639D01*
X159348780Y-76865366D01*
X159440766Y-76773380D01*
X159513039Y-76665217D01*
X159562821Y-76545031D01*
X159588200Y-76417444D01*
X159588200Y-76287356D01*
X159562821Y-76159769D01*
X159513039Y-76039583D01*
X159509910Y-76034900D01*
X159513039Y-76030217D01*
X159562821Y-75910031D01*
X159588200Y-75782444D01*
X159588200Y-75703156D01*
X174269400Y-75703156D01*
X174269400Y-75833244D01*
X174294779Y-75960831D01*
X174344561Y-76081017D01*
X174416834Y-76189180D01*
X174508820Y-76281166D01*
X174616983Y-76353439D01*
X174737169Y-76403221D01*
X174864756Y-76428600D01*
X174994844Y-76428600D01*
X175122431Y-76403221D01*
X175242617Y-76353439D01*
X175350780Y-76281166D01*
X175442766Y-76189180D01*
X175515039Y-76081017D01*
X175564821Y-75960831D01*
X175590200Y-75833244D01*
X175590200Y-75703156D01*
X175564821Y-75575569D01*
X175515039Y-75455383D01*
X175442766Y-75347220D01*
X175350780Y-75255234D01*
X175242617Y-75182961D01*
X175122431Y-75133179D01*
X174994844Y-75107800D01*
X174864756Y-75107800D01*
X174737169Y-75133179D01*
X174616983Y-75182961D01*
X174508820Y-75255234D01*
X174416834Y-75347220D01*
X174344561Y-75455383D01*
X174294779Y-75575569D01*
X174269400Y-75703156D01*
X159588200Y-75703156D01*
X159588200Y-75652356D01*
X159562821Y-75524769D01*
X159513039Y-75404583D01*
X159509910Y-75399900D01*
X159513039Y-75395217D01*
X159562821Y-75275031D01*
X159588200Y-75147444D01*
X159588200Y-75017356D01*
X159562821Y-74889769D01*
X159513039Y-74769583D01*
X159509910Y-74764900D01*
X159513039Y-74760217D01*
X159562821Y-74640031D01*
X159588200Y-74512444D01*
X159588200Y-74382356D01*
X159562821Y-74254769D01*
X159513039Y-74134583D01*
X159509910Y-74129900D01*
X159513039Y-74125217D01*
X159562821Y-74005031D01*
X159588200Y-73877444D01*
X159588200Y-73747356D01*
X159562821Y-73619769D01*
X159513039Y-73499583D01*
X159440766Y-73391420D01*
X159348780Y-73299434D01*
X159240617Y-73227161D01*
X159120431Y-73177379D01*
X158992844Y-73152000D01*
X158862756Y-73152000D01*
X158735169Y-73177379D01*
X158614983Y-73227161D01*
X158610300Y-73230290D01*
X158605617Y-73227161D01*
X158485431Y-73177379D01*
X158357844Y-73152000D01*
X158227756Y-73152000D01*
X158100169Y-73177379D01*
X157979983Y-73227161D01*
X157975300Y-73230290D01*
X157970617Y-73227161D01*
X157850431Y-73177379D01*
X157722844Y-73152000D01*
X157592756Y-73152000D01*
X157465169Y-73177379D01*
X157344983Y-73227161D01*
X157340300Y-73230290D01*
X157335617Y-73227161D01*
X157215431Y-73177379D01*
X157087844Y-73152000D01*
X156957756Y-73152000D01*
X156830169Y-73177379D01*
X156709983Y-73227161D01*
X156705300Y-73230290D01*
X156700617Y-73227161D01*
X156580431Y-73177379D01*
X156452844Y-73152000D01*
X156322756Y-73152000D01*
X156195169Y-73177379D01*
X156074983Y-73227161D01*
X156070300Y-73230290D01*
X156065617Y-73227161D01*
X155945431Y-73177379D01*
X155817844Y-73152000D01*
X155687756Y-73152000D01*
X155560169Y-73177379D01*
X155439983Y-73227161D01*
X155435300Y-73230290D01*
X155430617Y-73227161D01*
X155310431Y-73177379D01*
X155182844Y-73152000D01*
X155052756Y-73152000D01*
X154925169Y-73177379D01*
X154804983Y-73227161D01*
X154800300Y-73230290D01*
X154795617Y-73227161D01*
X154675431Y-73177379D01*
X154547844Y-73152000D01*
X154417756Y-73152000D01*
X154290169Y-73177379D01*
X154169983Y-73227161D01*
X154061820Y-73299434D01*
X153969834Y-73391420D01*
X153897561Y-73499583D01*
X153847779Y-73619769D01*
X153822400Y-73747356D01*
X85445200Y-73747356D01*
X85445200Y-73138800D01*
X184633201Y-73138800D01*
X184633200Y-122326800D01*
M02*
