M48
; DRILL file {KiCad (5.1.4)-1} date 10/7/2019 12:46:27 PM
; FORMAT={-:-/ absolute / inch / decimal}
; #@! TF.CreationDate,2019-10-07T12:46:27-05:00
; #@! TF.GenerationSoftware,Kicad,Pcbnew,(5.1.4)-1
; #@! TF.FileFunction,Plated,1,4,PTH
FMAT,2
INCH
T1C0.0079
T2C0.0354
T3C0.0394
T4C0.0433
T5C0.1181
%
G90
G05
T1
X3.641Y-4.239
X3.711Y-4.383
X3.711Y-4.4519
X3.712Y-4.193
X3.729Y-4.145
X3.741Y-3.5901
X3.8686Y-3.844
X4.027Y-3.2956
X4.027Y-3.3644
X4.028Y-4.214
X4.062Y-3.883
X4.1325Y-3.8125
X4.1696Y-3.097
X4.1761Y-4.345
X4.286Y-4.091
X4.299Y-3.606
X4.364Y-3.4686
X4.39Y-4.0326
X4.39Y-4.1014
X4.675Y-4.615
X4.675Y-4.64
X4.676Y-4.364
X4.676Y-4.389
X4.7Y-4.615
X4.7Y-4.64
X4.701Y-4.364
X4.701Y-4.389
X4.729Y-4.0516
X4.729Y-4.1204
X4.812Y-4.218
X4.848Y-3.0976
X4.848Y-3.1664
X4.944Y-4.473
X5.014Y-4.428
X5.059Y-4.0596
X5.059Y-4.1284
X5.079Y-4.457
X5.079Y-4.482
X5.079Y-4.507
X5.104Y-4.457
X5.104Y-4.482
X5.104Y-4.507
X5.118Y-4.7
X5.1181Y-4.337
X5.143Y-4.7
X5.168Y-4.7
X5.195Y-4.462
X5.195Y-4.487
X5.195Y-4.512
X5.22Y-4.462
X5.22Y-4.487
X5.22Y-4.512
X5.273Y-3.674
X5.332Y-4.438
X5.332Y-4.463
X5.332Y-4.488
X5.357Y-4.0631
X5.357Y-4.1319
X5.357Y-4.438
X5.357Y-4.463
X5.357Y-4.488
X5.399Y-4.559
X5.399Y-4.584
X5.424Y-4.559
X5.604Y-3.309
X5.6384Y-4.509
X5.6394Y-4.276
X5.6394Y-4.443
X5.64Y-4.312
X5.712Y-4.0306
X5.712Y-4.0994
X5.732Y-4.692
X5.795Y-4.365
X5.795Y-4.39
X5.795Y-4.616
X5.795Y-4.641
X5.8084Y-4.197
X5.8111Y-3.497
X5.82Y-4.365
X5.82Y-4.39
X5.82Y-4.616
X5.82Y-4.641
X5.834Y-3.317
X5.834Y-3.342
X5.834Y-3.367
X5.859Y-3.317
X5.859Y-3.342
X5.859Y-3.367
X5.9516Y-3.528
X5.992Y-3.196
X5.992Y-3.221
X6.017Y-3.196
X6.017Y-3.221
X6.042Y-3.196
X6.042Y-3.221
X6.082Y-2.906
X6.082Y-2.931
X6.082Y-2.956
X6.082Y-2.981
X6.082Y-3.006
X6.1Y-4.0525
X6.107Y-2.906
X6.107Y-2.931
X6.107Y-2.956
X6.107Y-2.981
X6.107Y-3.006
X6.132Y-2.906
X6.132Y-2.931
X6.132Y-2.956
X6.132Y-2.981
X6.132Y-3.006
X6.157Y-2.906
X6.157Y-2.931
X6.157Y-2.956
X6.157Y-2.981
X6.157Y-3.006
X6.182Y-2.906
X6.182Y-2.931
X6.182Y-2.956
X6.182Y-2.981
X6.182Y-3.006
X6.192Y-3.1724
X6.206Y-3.554
X6.207Y-2.906
X6.207Y-2.931
X6.207Y-2.956
X6.207Y-2.981
X6.207Y-3.006
X6.232Y-2.906
X6.232Y-2.931
X6.232Y-2.956
X6.232Y-2.981
X6.232Y-3.006
X6.257Y-2.906
X6.257Y-2.931
X6.257Y-2.956
X6.257Y-2.981
X6.257Y-3.006
X6.2911Y-4.2475
X6.327Y-3.9335
X6.329Y-4.054
X6.353Y-3.646
X6.416Y-3.018
X6.416Y-3.043
X6.441Y-3.018
X6.441Y-3.043
X6.466Y-3.018
X6.466Y-3.043
X6.544Y-4.031
X6.633Y-4.6496
X6.633Y-4.7184
X6.696Y-3.9655
X6.718Y-3.634
X6.721Y-3.225
X6.887Y-2.983
X7.045Y-4.448
X7.122Y-3.65
X7.122Y-3.675
X7.147Y-3.65
X7.147Y-3.675
X7.172Y-3.65
X7.172Y-3.675
T2
X4.372Y-3.045
X4.472Y-3.045
T3
X3.816Y-2.967
X5.125Y-3.013
X5.225Y-3.013
X5.325Y-3.013
X3.5224Y-3.8539
X3.5224Y-3.9539
X3.5224Y-4.0539
X3.5224Y-4.1539
X3.5224Y-4.2539
X3.5224Y-4.3539
T4
X3.4801Y-3.264
X3.4801Y-3.4412
X3.736Y-3.264
X3.736Y-3.4412
T5
X3.548Y-3.0635
X3.548Y-4.632
X7.085Y-3.0635
X7.085Y-4.632
T3
G00X6.9393Y-3.5289
M15
G01X6.9393Y-3.4501
M16
G05
G00X7.0968Y-3.3045
M15
G01X7.018Y-3.3045
M16
G05
G00X7.1755Y-3.5289
M15
G01X7.1755Y-3.4501
M16
G05
T0
M30
