G04 #@! TF.GenerationSoftware,KiCad,Pcbnew,(5.1.4)-1*
G04 #@! TF.CreationDate,2019-10-07T12:46:13-05:00*
G04 #@! TF.ProjectId,nightlight,6e696768-746c-4696-9768-742e6b696361,rev?*
G04 #@! TF.SameCoordinates,Original*
G04 #@! TF.FileFunction,Copper,L2,Inr*
G04 #@! TF.FilePolarity,Positive*
%FSLAX46Y46*%
G04 Gerber Fmt 4.6, Leading zero omitted, Abs format (unit mm)*
G04 Created by KiCad (PCBNEW (5.1.4)-1) date 2019-10-07 12:46:13*
%MOMM*%
%LPD*%
G04 APERTURE LIST*
%ADD10R,1.700000X1.700000*%
%ADD11O,1.700000X1.700000*%
%ADD12C,6.000000*%
%ADD13R,3.500000X3.500000*%
%ADD14C,0.100000*%
%ADD15C,3.000000*%
%ADD16C,3.500000*%
%ADD17R,1.800000X1.800000*%
%ADD18C,1.800000*%
%ADD19C,2.000000*%
%ADD20C,0.558800*%
%ADD21C,0.254000*%
G04 APERTURE END LIST*
D10*
X130175000Y-76530200D03*
D11*
X132715000Y-76530200D03*
X135255000Y-76530200D03*
D10*
X96926400Y-75361800D03*
D12*
X90119200Y-117652800D03*
X90119200Y-77812800D03*
X179959200Y-77812800D03*
X179959200Y-117652800D03*
D11*
X89468499Y-97887801D03*
X89468499Y-100427801D03*
X89468499Y-102967801D03*
X89468499Y-105507801D03*
X89468499Y-108047801D03*
D10*
X89468499Y-110587801D03*
D13*
X176257700Y-88633300D03*
D14*
G36*
X183081213Y-86886911D02*
G01*
X183154018Y-86897711D01*
X183225414Y-86915595D01*
X183294713Y-86940390D01*
X183361248Y-86971859D01*
X183424378Y-87009698D01*
X183483495Y-87053542D01*
X183538030Y-87102970D01*
X183587458Y-87157505D01*
X183631302Y-87216622D01*
X183669141Y-87279752D01*
X183700610Y-87346287D01*
X183725405Y-87415586D01*
X183743289Y-87486982D01*
X183754089Y-87559787D01*
X183757700Y-87633300D01*
X183757700Y-89633300D01*
X183754089Y-89706813D01*
X183743289Y-89779618D01*
X183725405Y-89851014D01*
X183700610Y-89920313D01*
X183669141Y-89986848D01*
X183631302Y-90049978D01*
X183587458Y-90109095D01*
X183538030Y-90163630D01*
X183483495Y-90213058D01*
X183424378Y-90256902D01*
X183361248Y-90294741D01*
X183294713Y-90326210D01*
X183225414Y-90351005D01*
X183154018Y-90368889D01*
X183081213Y-90379689D01*
X183007700Y-90383300D01*
X181507700Y-90383300D01*
X181434187Y-90379689D01*
X181361382Y-90368889D01*
X181289986Y-90351005D01*
X181220687Y-90326210D01*
X181154152Y-90294741D01*
X181091022Y-90256902D01*
X181031905Y-90213058D01*
X180977370Y-90163630D01*
X180927942Y-90109095D01*
X180884098Y-90049978D01*
X180846259Y-89986848D01*
X180814790Y-89920313D01*
X180789995Y-89851014D01*
X180772111Y-89779618D01*
X180761311Y-89706813D01*
X180757700Y-89633300D01*
X180757700Y-87633300D01*
X180761311Y-87559787D01*
X180772111Y-87486982D01*
X180789995Y-87415586D01*
X180814790Y-87346287D01*
X180846259Y-87279752D01*
X180884098Y-87216622D01*
X180927942Y-87157505D01*
X180977370Y-87102970D01*
X181031905Y-87053542D01*
X181091022Y-87009698D01*
X181154152Y-86971859D01*
X181220687Y-86940390D01*
X181289986Y-86915595D01*
X181361382Y-86897711D01*
X181434187Y-86886911D01*
X181507700Y-86883300D01*
X183007700Y-86883300D01*
X183081213Y-86886911D01*
X183081213Y-86886911D01*
G37*
D15*
X182257700Y-88633300D03*
D14*
G36*
X180218465Y-82187513D02*
G01*
X180303404Y-82200113D01*
X180386699Y-82220977D01*
X180467548Y-82249905D01*
X180545172Y-82286619D01*
X180618824Y-82330764D01*
X180687794Y-82381916D01*
X180751418Y-82439582D01*
X180809084Y-82503206D01*
X180860236Y-82572176D01*
X180904381Y-82645828D01*
X180941095Y-82723452D01*
X180970023Y-82804301D01*
X180990887Y-82887596D01*
X181003487Y-82972535D01*
X181007700Y-83058300D01*
X181007700Y-84808300D01*
X181003487Y-84894065D01*
X180990887Y-84979004D01*
X180970023Y-85062299D01*
X180941095Y-85143148D01*
X180904381Y-85220772D01*
X180860236Y-85294424D01*
X180809084Y-85363394D01*
X180751418Y-85427018D01*
X180687794Y-85484684D01*
X180618824Y-85535836D01*
X180545172Y-85579981D01*
X180467548Y-85616695D01*
X180386699Y-85645623D01*
X180303404Y-85666487D01*
X180218465Y-85679087D01*
X180132700Y-85683300D01*
X178382700Y-85683300D01*
X178296935Y-85679087D01*
X178211996Y-85666487D01*
X178128701Y-85645623D01*
X178047852Y-85616695D01*
X177970228Y-85579981D01*
X177896576Y-85535836D01*
X177827606Y-85484684D01*
X177763982Y-85427018D01*
X177706316Y-85363394D01*
X177655164Y-85294424D01*
X177611019Y-85220772D01*
X177574305Y-85143148D01*
X177545377Y-85062299D01*
X177524513Y-84979004D01*
X177511913Y-84894065D01*
X177507700Y-84808300D01*
X177507700Y-83058300D01*
X177511913Y-82972535D01*
X177524513Y-82887596D01*
X177545377Y-82804301D01*
X177574305Y-82723452D01*
X177611019Y-82645828D01*
X177655164Y-82572176D01*
X177706316Y-82503206D01*
X177763982Y-82439582D01*
X177827606Y-82381916D01*
X177896576Y-82330764D01*
X177970228Y-82286619D01*
X178047852Y-82249905D01*
X178128701Y-82220977D01*
X178211996Y-82200113D01*
X178296935Y-82187513D01*
X178382700Y-82183300D01*
X180132700Y-82183300D01*
X180218465Y-82187513D01*
X180218465Y-82187513D01*
G37*
D16*
X179257700Y-83933300D03*
D17*
X111048800Y-77343000D03*
D18*
X113588800Y-77343000D03*
D19*
X94894400Y-87405600D03*
X94894400Y-82905600D03*
X88394400Y-87405600D03*
X88394400Y-82905600D03*
D20*
X102285800Y-85457000D03*
X111506000Y-102426800D03*
X120116600Y-102909400D03*
X154482800Y-73812400D03*
X155117800Y-73812400D03*
X155752800Y-73812400D03*
X156387800Y-73812400D03*
X157022800Y-73812400D03*
X157657800Y-73812400D03*
X158292800Y-73812400D03*
X158927800Y-73812400D03*
X154482800Y-74447400D03*
X155117800Y-74447400D03*
X155752800Y-74447400D03*
X156387800Y-74447400D03*
X157022800Y-74447400D03*
X157657800Y-74447400D03*
X158292800Y-74447400D03*
X158927800Y-74447400D03*
X154482800Y-75082400D03*
X155117800Y-75082400D03*
X155752800Y-75082400D03*
X156387800Y-75082400D03*
X157022800Y-75082400D03*
X157657800Y-75082400D03*
X158292800Y-75082400D03*
X158927800Y-75082400D03*
X154482800Y-75717400D03*
X155117800Y-75717400D03*
X155752800Y-75717400D03*
X156387800Y-75717400D03*
X157022800Y-75717400D03*
X157657800Y-75717400D03*
X158292800Y-75717400D03*
X158927800Y-75717400D03*
X154482800Y-76352400D03*
X155117800Y-76352400D03*
X155752800Y-76352400D03*
X156387800Y-76352400D03*
X157022800Y-76352400D03*
X157657800Y-76352400D03*
X158292800Y-76352400D03*
X158927800Y-76352400D03*
X131953000Y-113969800D03*
X132588000Y-113969800D03*
X132588000Y-114604800D03*
X131953000Y-113334800D03*
X131953000Y-114604800D03*
X132588000Y-113334800D03*
X130632200Y-119380000D03*
X129997200Y-119380000D03*
X131267200Y-119380000D03*
X92481400Y-107670600D03*
X94259400Y-111328200D03*
X168478200Y-119848600D03*
X136067800Y-103201500D03*
X128498600Y-103112600D03*
X147602000Y-88823800D03*
X145084800Y-102376000D03*
X154940000Y-102933500D03*
X174929800Y-75768200D03*
X105906600Y-78663800D03*
X123139200Y-78677800D03*
X98261200Y-97637600D03*
X148183600Y-84251800D03*
X148818600Y-84251800D03*
X148183600Y-84886800D03*
X148818600Y-84886800D03*
X148183600Y-85521800D03*
X148818600Y-85521800D03*
X136067800Y-112725200D03*
X135432800Y-113360200D03*
X135432800Y-113995200D03*
X136067800Y-113995200D03*
X136067800Y-113360200D03*
X135432800Y-112725200D03*
X102285800Y-83707000D03*
X95021400Y-91188600D03*
X111506000Y-104176800D03*
X120116600Y-104659400D03*
X152196800Y-81178400D03*
X152831800Y-81813400D03*
X153466800Y-81813400D03*
X153466800Y-81178400D03*
X152831800Y-81178400D03*
X152196800Y-81813400D03*
X157276800Y-80577800D03*
X164236400Y-76657200D03*
X162966400Y-76657200D03*
X163601400Y-77292200D03*
X163601400Y-76657200D03*
X164236400Y-77292200D03*
X162966400Y-77292200D03*
X182168800Y-93345000D03*
X180898800Y-93345000D03*
X180898800Y-92710000D03*
X181533800Y-92710000D03*
X182168800Y-92710000D03*
X181533800Y-93345000D03*
X129006600Y-113842800D03*
X129641600Y-113842800D03*
X129641600Y-114477800D03*
X129006600Y-113207800D03*
X129006600Y-114477800D03*
X129641600Y-113207800D03*
X137134600Y-115798600D03*
X137769600Y-115798600D03*
X137134600Y-116433600D03*
X106072200Y-110363000D03*
X143216600Y-114528600D03*
X123139200Y-80427800D03*
X168478200Y-118098600D03*
X136067800Y-104951500D03*
X128498600Y-104862600D03*
X151169400Y-89611200D03*
X145084800Y-104126000D03*
X125577600Y-113614200D03*
X129999800Y-110159800D03*
X143242000Y-108610400D03*
X160705800Y-99910900D03*
X159794000Y-107886500D03*
X170078400Y-100723700D03*
X110845600Y-88101200D03*
X94259400Y-113078200D03*
X142341600Y-84048600D03*
X160756600Y-102971600D03*
X161366200Y-92608400D03*
X157632400Y-90271600D03*
X147193000Y-117246400D03*
X147828000Y-117246400D03*
X147828000Y-117881400D03*
X147193000Y-117881400D03*
X147193000Y-110871000D03*
X147193000Y-111506000D03*
X147828000Y-110871000D03*
X147828000Y-111506000D03*
X143256000Y-109524800D03*
X145592800Y-119176800D03*
X109194600Y-91592400D03*
X102311200Y-107035600D03*
X118745000Y-117221000D03*
X118745000Y-117856000D03*
X119380000Y-117221000D03*
X119380000Y-117856000D03*
X118770400Y-111480600D03*
X119405400Y-110845600D03*
X118770400Y-110845600D03*
X119405400Y-111480600D03*
X178943000Y-112979200D03*
X94284800Y-106502200D03*
X143242000Y-112852200D03*
X94716600Y-105283000D03*
X127355600Y-112471200D03*
X166217600Y-102387400D03*
X170637200Y-92303600D03*
X170713400Y-81915000D03*
X103174800Y-98628200D03*
X104965500Y-96837500D03*
X133934200Y-93319600D03*
X147534600Y-106603800D03*
X108864400Y-103911400D03*
X122224800Y-107137200D03*
D21*
G36*
X184633200Y-122326800D02*
G01*
X85445200Y-122326800D01*
X85445200Y-117319801D01*
X86738200Y-117319801D01*
X86738200Y-117985799D01*
X86868130Y-118639001D01*
X87122997Y-119254304D01*
X87493006Y-119808062D01*
X87963938Y-120278994D01*
X88517696Y-120649003D01*
X89132999Y-120903870D01*
X89786201Y-121033800D01*
X90452199Y-121033800D01*
X91105401Y-120903870D01*
X91720704Y-120649003D01*
X92274462Y-120278994D01*
X92745394Y-119808062D01*
X93115403Y-119254304D01*
X93174448Y-119111756D01*
X144932400Y-119111756D01*
X144932400Y-119241844D01*
X144957779Y-119369431D01*
X145007561Y-119489617D01*
X145079834Y-119597780D01*
X145171820Y-119689766D01*
X145279983Y-119762039D01*
X145400169Y-119811821D01*
X145527756Y-119837200D01*
X145657844Y-119837200D01*
X145785431Y-119811821D01*
X145905617Y-119762039D01*
X146013780Y-119689766D01*
X146105766Y-119597780D01*
X146178039Y-119489617D01*
X146227821Y-119369431D01*
X146253200Y-119241844D01*
X146253200Y-119111756D01*
X146227821Y-118984169D01*
X146178039Y-118863983D01*
X146105766Y-118755820D01*
X146013780Y-118663834D01*
X145905617Y-118591561D01*
X145785431Y-118541779D01*
X145657844Y-118516400D01*
X145527756Y-118516400D01*
X145400169Y-118541779D01*
X145279983Y-118591561D01*
X145171820Y-118663834D01*
X145079834Y-118755820D01*
X145007561Y-118863983D01*
X144957779Y-118984169D01*
X144932400Y-119111756D01*
X93174448Y-119111756D01*
X93370270Y-118639001D01*
X93500200Y-117985799D01*
X93500200Y-117319801D01*
X93467610Y-117155956D01*
X118084600Y-117155956D01*
X118084600Y-117286044D01*
X118109979Y-117413631D01*
X118159761Y-117533817D01*
X118162890Y-117538500D01*
X118159761Y-117543183D01*
X118109979Y-117663369D01*
X118084600Y-117790956D01*
X118084600Y-117921044D01*
X118109979Y-118048631D01*
X118159761Y-118168817D01*
X118232034Y-118276980D01*
X118324020Y-118368966D01*
X118432183Y-118441239D01*
X118552369Y-118491021D01*
X118679956Y-118516400D01*
X118810044Y-118516400D01*
X118937631Y-118491021D01*
X119057817Y-118441239D01*
X119062500Y-118438110D01*
X119067183Y-118441239D01*
X119187369Y-118491021D01*
X119314956Y-118516400D01*
X119445044Y-118516400D01*
X119572631Y-118491021D01*
X119692817Y-118441239D01*
X119800980Y-118368966D01*
X119892966Y-118276980D01*
X119965239Y-118168817D01*
X120015021Y-118048631D01*
X120040400Y-117921044D01*
X120040400Y-117790956D01*
X120015021Y-117663369D01*
X119965239Y-117543183D01*
X119962110Y-117538500D01*
X119965239Y-117533817D01*
X120015021Y-117413631D01*
X120040400Y-117286044D01*
X120040400Y-117181356D01*
X146532600Y-117181356D01*
X146532600Y-117311444D01*
X146557979Y-117439031D01*
X146607761Y-117559217D01*
X146610890Y-117563900D01*
X146607761Y-117568583D01*
X146557979Y-117688769D01*
X146532600Y-117816356D01*
X146532600Y-117946444D01*
X146557979Y-118074031D01*
X146607761Y-118194217D01*
X146680034Y-118302380D01*
X146772020Y-118394366D01*
X146880183Y-118466639D01*
X147000369Y-118516421D01*
X147127956Y-118541800D01*
X147258044Y-118541800D01*
X147385631Y-118516421D01*
X147505817Y-118466639D01*
X147510500Y-118463510D01*
X147515183Y-118466639D01*
X147635369Y-118516421D01*
X147762956Y-118541800D01*
X147893044Y-118541800D01*
X148020631Y-118516421D01*
X148140817Y-118466639D01*
X148248980Y-118394366D01*
X148340966Y-118302380D01*
X148413239Y-118194217D01*
X148463021Y-118074031D01*
X148471072Y-118033556D01*
X167817800Y-118033556D01*
X167817800Y-118163644D01*
X167843179Y-118291231D01*
X167892961Y-118411417D01*
X167965234Y-118519580D01*
X168057220Y-118611566D01*
X168165383Y-118683839D01*
X168285569Y-118733621D01*
X168413156Y-118759000D01*
X168543244Y-118759000D01*
X168670831Y-118733621D01*
X168791017Y-118683839D01*
X168899180Y-118611566D01*
X168991166Y-118519580D01*
X169063439Y-118411417D01*
X169113221Y-118291231D01*
X169138600Y-118163644D01*
X169138600Y-118033556D01*
X169113221Y-117905969D01*
X169063439Y-117785783D01*
X168991166Y-117677620D01*
X168899180Y-117585634D01*
X168791017Y-117513361D01*
X168670831Y-117463579D01*
X168543244Y-117438200D01*
X168413156Y-117438200D01*
X168285569Y-117463579D01*
X168165383Y-117513361D01*
X168057220Y-117585634D01*
X167965234Y-117677620D01*
X167892961Y-117785783D01*
X167843179Y-117905969D01*
X167817800Y-118033556D01*
X148471072Y-118033556D01*
X148488400Y-117946444D01*
X148488400Y-117816356D01*
X148463021Y-117688769D01*
X148413239Y-117568583D01*
X148410110Y-117563900D01*
X148413239Y-117559217D01*
X148463021Y-117439031D01*
X148486737Y-117319801D01*
X176578200Y-117319801D01*
X176578200Y-117985799D01*
X176708130Y-118639001D01*
X176962997Y-119254304D01*
X177333006Y-119808062D01*
X177803938Y-120278994D01*
X178357696Y-120649003D01*
X178972999Y-120903870D01*
X179626201Y-121033800D01*
X180292199Y-121033800D01*
X180945401Y-120903870D01*
X181560704Y-120649003D01*
X182114462Y-120278994D01*
X182585394Y-119808062D01*
X182955403Y-119254304D01*
X183210270Y-118639001D01*
X183340200Y-117985799D01*
X183340200Y-117319801D01*
X183210270Y-116666599D01*
X182955403Y-116051296D01*
X182585394Y-115497538D01*
X182114462Y-115026606D01*
X181560704Y-114656597D01*
X180945401Y-114401730D01*
X180292199Y-114271800D01*
X179626201Y-114271800D01*
X178972999Y-114401730D01*
X178357696Y-114656597D01*
X177803938Y-115026606D01*
X177333006Y-115497538D01*
X176962997Y-116051296D01*
X176708130Y-116666599D01*
X176578200Y-117319801D01*
X148486737Y-117319801D01*
X148488400Y-117311444D01*
X148488400Y-117181356D01*
X148463021Y-117053769D01*
X148413239Y-116933583D01*
X148340966Y-116825420D01*
X148248980Y-116733434D01*
X148140817Y-116661161D01*
X148020631Y-116611379D01*
X147893044Y-116586000D01*
X147762956Y-116586000D01*
X147635369Y-116611379D01*
X147515183Y-116661161D01*
X147510500Y-116664290D01*
X147505817Y-116661161D01*
X147385631Y-116611379D01*
X147258044Y-116586000D01*
X147127956Y-116586000D01*
X147000369Y-116611379D01*
X146880183Y-116661161D01*
X146772020Y-116733434D01*
X146680034Y-116825420D01*
X146607761Y-116933583D01*
X146557979Y-117053769D01*
X146532600Y-117181356D01*
X120040400Y-117181356D01*
X120040400Y-117155956D01*
X120015021Y-117028369D01*
X119965239Y-116908183D01*
X119892966Y-116800020D01*
X119800980Y-116708034D01*
X119692817Y-116635761D01*
X119572631Y-116585979D01*
X119445044Y-116560600D01*
X119314956Y-116560600D01*
X119187369Y-116585979D01*
X119067183Y-116635761D01*
X119062500Y-116638890D01*
X119057817Y-116635761D01*
X118937631Y-116585979D01*
X118810044Y-116560600D01*
X118679956Y-116560600D01*
X118552369Y-116585979D01*
X118432183Y-116635761D01*
X118324020Y-116708034D01*
X118232034Y-116800020D01*
X118159761Y-116908183D01*
X118109979Y-117028369D01*
X118084600Y-117155956D01*
X93467610Y-117155956D01*
X93370270Y-116666599D01*
X93115403Y-116051296D01*
X92903097Y-115733556D01*
X136474200Y-115733556D01*
X136474200Y-115863644D01*
X136499579Y-115991231D01*
X136549361Y-116111417D01*
X136552490Y-116116100D01*
X136549361Y-116120783D01*
X136499579Y-116240969D01*
X136474200Y-116368556D01*
X136474200Y-116498644D01*
X136499579Y-116626231D01*
X136549361Y-116746417D01*
X136621634Y-116854580D01*
X136713620Y-116946566D01*
X136821783Y-117018839D01*
X136941969Y-117068621D01*
X137069556Y-117094000D01*
X137199644Y-117094000D01*
X137327231Y-117068621D01*
X137447417Y-117018839D01*
X137555580Y-116946566D01*
X137647566Y-116854580D01*
X137719839Y-116746417D01*
X137769621Y-116626231D01*
X137795000Y-116498644D01*
X137795000Y-116459000D01*
X137834644Y-116459000D01*
X137962231Y-116433621D01*
X138082417Y-116383839D01*
X138190580Y-116311566D01*
X138282566Y-116219580D01*
X138354839Y-116111417D01*
X138404621Y-115991231D01*
X138430000Y-115863644D01*
X138430000Y-115733556D01*
X138404621Y-115605969D01*
X138354839Y-115485783D01*
X138282566Y-115377620D01*
X138190580Y-115285634D01*
X138082417Y-115213361D01*
X137962231Y-115163579D01*
X137834644Y-115138200D01*
X137704556Y-115138200D01*
X137576969Y-115163579D01*
X137456783Y-115213361D01*
X137452100Y-115216490D01*
X137447417Y-115213361D01*
X137327231Y-115163579D01*
X137199644Y-115138200D01*
X137069556Y-115138200D01*
X136941969Y-115163579D01*
X136821783Y-115213361D01*
X136713620Y-115285634D01*
X136621634Y-115377620D01*
X136549361Y-115485783D01*
X136499579Y-115605969D01*
X136474200Y-115733556D01*
X92903097Y-115733556D01*
X92745394Y-115497538D01*
X92274462Y-115026606D01*
X91720704Y-114656597D01*
X91105401Y-114401730D01*
X90452199Y-114271800D01*
X89786201Y-114271800D01*
X89132999Y-114401730D01*
X88517696Y-114656597D01*
X87963938Y-115026606D01*
X87493006Y-115497538D01*
X87122997Y-116051296D01*
X86868130Y-116666599D01*
X86738200Y-117319801D01*
X85445200Y-117319801D01*
X85445200Y-113013156D01*
X93599000Y-113013156D01*
X93599000Y-113143244D01*
X93624379Y-113270831D01*
X93674161Y-113391017D01*
X93746434Y-113499180D01*
X93838420Y-113591166D01*
X93946583Y-113663439D01*
X94066769Y-113713221D01*
X94194356Y-113738600D01*
X94324444Y-113738600D01*
X94452031Y-113713221D01*
X94572217Y-113663439D01*
X94680380Y-113591166D01*
X94722390Y-113549156D01*
X124917200Y-113549156D01*
X124917200Y-113679244D01*
X124942579Y-113806831D01*
X124992361Y-113927017D01*
X125064634Y-114035180D01*
X125156620Y-114127166D01*
X125264783Y-114199439D01*
X125384969Y-114249221D01*
X125512556Y-114274600D01*
X125642644Y-114274600D01*
X125770231Y-114249221D01*
X125890417Y-114199439D01*
X125998580Y-114127166D01*
X126090566Y-114035180D01*
X126162839Y-113927017D01*
X126212621Y-113806831D01*
X126238000Y-113679244D01*
X126238000Y-113549156D01*
X126212621Y-113421569D01*
X126162839Y-113301383D01*
X126090566Y-113193220D01*
X126040102Y-113142756D01*
X128346200Y-113142756D01*
X128346200Y-113272844D01*
X128371579Y-113400431D01*
X128421361Y-113520617D01*
X128424490Y-113525300D01*
X128421361Y-113529983D01*
X128371579Y-113650169D01*
X128346200Y-113777756D01*
X128346200Y-113907844D01*
X128371579Y-114035431D01*
X128421361Y-114155617D01*
X128424490Y-114160300D01*
X128421361Y-114164983D01*
X128371579Y-114285169D01*
X128346200Y-114412756D01*
X128346200Y-114542844D01*
X128371579Y-114670431D01*
X128421361Y-114790617D01*
X128493634Y-114898780D01*
X128585620Y-114990766D01*
X128693783Y-115063039D01*
X128813969Y-115112821D01*
X128941556Y-115138200D01*
X129071644Y-115138200D01*
X129199231Y-115112821D01*
X129319417Y-115063039D01*
X129324100Y-115059910D01*
X129328783Y-115063039D01*
X129448969Y-115112821D01*
X129576556Y-115138200D01*
X129706644Y-115138200D01*
X129834231Y-115112821D01*
X129954417Y-115063039D01*
X130062580Y-114990766D01*
X130154566Y-114898780D01*
X130226839Y-114790617D01*
X130276621Y-114670431D01*
X130302000Y-114542844D01*
X130302000Y-114412756D01*
X130276621Y-114285169D01*
X130226839Y-114164983D01*
X130223710Y-114160300D01*
X130226839Y-114155617D01*
X130276621Y-114035431D01*
X130302000Y-113907844D01*
X130302000Y-113777756D01*
X130276621Y-113650169D01*
X130226839Y-113529983D01*
X130223710Y-113525300D01*
X130226839Y-113520617D01*
X130276621Y-113400431D01*
X130302000Y-113272844D01*
X130302000Y-113142756D01*
X130276621Y-113015169D01*
X130226839Y-112894983D01*
X130154566Y-112786820D01*
X130062580Y-112694834D01*
X130010682Y-112660156D01*
X134772400Y-112660156D01*
X134772400Y-112790244D01*
X134797779Y-112917831D01*
X134847561Y-113038017D01*
X134850690Y-113042700D01*
X134847561Y-113047383D01*
X134797779Y-113167569D01*
X134772400Y-113295156D01*
X134772400Y-113425244D01*
X134797779Y-113552831D01*
X134847561Y-113673017D01*
X134850690Y-113677700D01*
X134847561Y-113682383D01*
X134797779Y-113802569D01*
X134772400Y-113930156D01*
X134772400Y-114060244D01*
X134797779Y-114187831D01*
X134847561Y-114308017D01*
X134919834Y-114416180D01*
X135011820Y-114508166D01*
X135119983Y-114580439D01*
X135240169Y-114630221D01*
X135367756Y-114655600D01*
X135497844Y-114655600D01*
X135625431Y-114630221D01*
X135745617Y-114580439D01*
X135750300Y-114577310D01*
X135754983Y-114580439D01*
X135875169Y-114630221D01*
X136002756Y-114655600D01*
X136132844Y-114655600D01*
X136260431Y-114630221D01*
X136380617Y-114580439D01*
X136488780Y-114508166D01*
X136533390Y-114463556D01*
X142556200Y-114463556D01*
X142556200Y-114593644D01*
X142581579Y-114721231D01*
X142631361Y-114841417D01*
X142703634Y-114949580D01*
X142795620Y-115041566D01*
X142903783Y-115113839D01*
X143023969Y-115163621D01*
X143151556Y-115189000D01*
X143281644Y-115189000D01*
X143409231Y-115163621D01*
X143529417Y-115113839D01*
X143637580Y-115041566D01*
X143729566Y-114949580D01*
X143801839Y-114841417D01*
X143851621Y-114721231D01*
X143877000Y-114593644D01*
X143877000Y-114463556D01*
X143851621Y-114335969D01*
X143801839Y-114215783D01*
X143729566Y-114107620D01*
X143637580Y-114015634D01*
X143529417Y-113943361D01*
X143409231Y-113893579D01*
X143281644Y-113868200D01*
X143151556Y-113868200D01*
X143023969Y-113893579D01*
X142903783Y-113943361D01*
X142795620Y-114015634D01*
X142703634Y-114107620D01*
X142631361Y-114215783D01*
X142581579Y-114335969D01*
X142556200Y-114463556D01*
X136533390Y-114463556D01*
X136580766Y-114416180D01*
X136653039Y-114308017D01*
X136702821Y-114187831D01*
X136728200Y-114060244D01*
X136728200Y-113930156D01*
X136702821Y-113802569D01*
X136653039Y-113682383D01*
X136649910Y-113677700D01*
X136653039Y-113673017D01*
X136702821Y-113552831D01*
X136728200Y-113425244D01*
X136728200Y-113295156D01*
X136702821Y-113167569D01*
X136653039Y-113047383D01*
X136649910Y-113042700D01*
X136653039Y-113038017D01*
X136702821Y-112917831D01*
X136728200Y-112790244D01*
X136728200Y-112787156D01*
X142581600Y-112787156D01*
X142581600Y-112917244D01*
X142606979Y-113044831D01*
X142656761Y-113165017D01*
X142729034Y-113273180D01*
X142821020Y-113365166D01*
X142929183Y-113437439D01*
X143049369Y-113487221D01*
X143176956Y-113512600D01*
X143307044Y-113512600D01*
X143434631Y-113487221D01*
X143554817Y-113437439D01*
X143662980Y-113365166D01*
X143754966Y-113273180D01*
X143827239Y-113165017D01*
X143877021Y-113044831D01*
X143902400Y-112917244D01*
X143902400Y-112914156D01*
X178282600Y-112914156D01*
X178282600Y-113044244D01*
X178307979Y-113171831D01*
X178357761Y-113292017D01*
X178430034Y-113400180D01*
X178522020Y-113492166D01*
X178630183Y-113564439D01*
X178750369Y-113614221D01*
X178877956Y-113639600D01*
X179008044Y-113639600D01*
X179135631Y-113614221D01*
X179255817Y-113564439D01*
X179363980Y-113492166D01*
X179455966Y-113400180D01*
X179528239Y-113292017D01*
X179578021Y-113171831D01*
X179603400Y-113044244D01*
X179603400Y-112914156D01*
X179578021Y-112786569D01*
X179528239Y-112666383D01*
X179455966Y-112558220D01*
X179363980Y-112466234D01*
X179255817Y-112393961D01*
X179135631Y-112344179D01*
X179008044Y-112318800D01*
X178877956Y-112318800D01*
X178750369Y-112344179D01*
X178630183Y-112393961D01*
X178522020Y-112466234D01*
X178430034Y-112558220D01*
X178357761Y-112666383D01*
X178307979Y-112786569D01*
X178282600Y-112914156D01*
X143902400Y-112914156D01*
X143902400Y-112787156D01*
X143877021Y-112659569D01*
X143827239Y-112539383D01*
X143754966Y-112431220D01*
X143662980Y-112339234D01*
X143554817Y-112266961D01*
X143434631Y-112217179D01*
X143307044Y-112191800D01*
X143176956Y-112191800D01*
X143049369Y-112217179D01*
X142929183Y-112266961D01*
X142821020Y-112339234D01*
X142729034Y-112431220D01*
X142656761Y-112539383D01*
X142606979Y-112659569D01*
X142581600Y-112787156D01*
X136728200Y-112787156D01*
X136728200Y-112660156D01*
X136702821Y-112532569D01*
X136653039Y-112412383D01*
X136580766Y-112304220D01*
X136488780Y-112212234D01*
X136380617Y-112139961D01*
X136260431Y-112090179D01*
X136132844Y-112064800D01*
X136002756Y-112064800D01*
X135875169Y-112090179D01*
X135754983Y-112139961D01*
X135750300Y-112143090D01*
X135745617Y-112139961D01*
X135625431Y-112090179D01*
X135497844Y-112064800D01*
X135367756Y-112064800D01*
X135240169Y-112090179D01*
X135119983Y-112139961D01*
X135011820Y-112212234D01*
X134919834Y-112304220D01*
X134847561Y-112412383D01*
X134797779Y-112532569D01*
X134772400Y-112660156D01*
X130010682Y-112660156D01*
X129954417Y-112622561D01*
X129834231Y-112572779D01*
X129706644Y-112547400D01*
X129576556Y-112547400D01*
X129448969Y-112572779D01*
X129328783Y-112622561D01*
X129324100Y-112625690D01*
X129319417Y-112622561D01*
X129199231Y-112572779D01*
X129071644Y-112547400D01*
X128941556Y-112547400D01*
X128813969Y-112572779D01*
X128693783Y-112622561D01*
X128585620Y-112694834D01*
X128493634Y-112786820D01*
X128421361Y-112894983D01*
X128371579Y-113015169D01*
X128346200Y-113142756D01*
X126040102Y-113142756D01*
X125998580Y-113101234D01*
X125890417Y-113028961D01*
X125770231Y-112979179D01*
X125642644Y-112953800D01*
X125512556Y-112953800D01*
X125384969Y-112979179D01*
X125264783Y-113028961D01*
X125156620Y-113101234D01*
X125064634Y-113193220D01*
X124992361Y-113301383D01*
X124942579Y-113421569D01*
X124917200Y-113549156D01*
X94722390Y-113549156D01*
X94772366Y-113499180D01*
X94844639Y-113391017D01*
X94894421Y-113270831D01*
X94919800Y-113143244D01*
X94919800Y-113013156D01*
X94894421Y-112885569D01*
X94844639Y-112765383D01*
X94772366Y-112657220D01*
X94680380Y-112565234D01*
X94572217Y-112492961D01*
X94452031Y-112443179D01*
X94324444Y-112417800D01*
X94194356Y-112417800D01*
X94066769Y-112443179D01*
X93946583Y-112492961D01*
X93838420Y-112565234D01*
X93746434Y-112657220D01*
X93674161Y-112765383D01*
X93624379Y-112885569D01*
X93599000Y-113013156D01*
X85445200Y-113013156D01*
X85445200Y-112406156D01*
X126695200Y-112406156D01*
X126695200Y-112536244D01*
X126720579Y-112663831D01*
X126770361Y-112784017D01*
X126842634Y-112892180D01*
X126934620Y-112984166D01*
X127042783Y-113056439D01*
X127162969Y-113106221D01*
X127290556Y-113131600D01*
X127420644Y-113131600D01*
X127548231Y-113106221D01*
X127668417Y-113056439D01*
X127776580Y-112984166D01*
X127868566Y-112892180D01*
X127940839Y-112784017D01*
X127990621Y-112663831D01*
X128016000Y-112536244D01*
X128016000Y-112406156D01*
X127990621Y-112278569D01*
X127940839Y-112158383D01*
X127868566Y-112050220D01*
X127776580Y-111958234D01*
X127668417Y-111885961D01*
X127548231Y-111836179D01*
X127420644Y-111810800D01*
X127290556Y-111810800D01*
X127162969Y-111836179D01*
X127042783Y-111885961D01*
X126934620Y-111958234D01*
X126842634Y-112050220D01*
X126770361Y-112158383D01*
X126720579Y-112278569D01*
X126695200Y-112406156D01*
X85445200Y-112406156D01*
X85445200Y-109737801D01*
X88235656Y-109737801D01*
X88235656Y-111437801D01*
X88243012Y-111512490D01*
X88264798Y-111584309D01*
X88300177Y-111650497D01*
X88347788Y-111708512D01*
X88405803Y-111756123D01*
X88471991Y-111791502D01*
X88543810Y-111813288D01*
X88618499Y-111820644D01*
X90318499Y-111820644D01*
X90393188Y-111813288D01*
X90465007Y-111791502D01*
X90531195Y-111756123D01*
X90589210Y-111708512D01*
X90636821Y-111650497D01*
X90672200Y-111584309D01*
X90693986Y-111512490D01*
X90701342Y-111437801D01*
X90701342Y-110297956D01*
X105411800Y-110297956D01*
X105411800Y-110428044D01*
X105437179Y-110555631D01*
X105486961Y-110675817D01*
X105559234Y-110783980D01*
X105651220Y-110875966D01*
X105759383Y-110948239D01*
X105879569Y-110998021D01*
X106007156Y-111023400D01*
X106137244Y-111023400D01*
X106264831Y-110998021D01*
X106385017Y-110948239D01*
X106493180Y-110875966D01*
X106585166Y-110783980D01*
X106587453Y-110780556D01*
X118110000Y-110780556D01*
X118110000Y-110910644D01*
X118135379Y-111038231D01*
X118185161Y-111158417D01*
X118188290Y-111163100D01*
X118185161Y-111167783D01*
X118135379Y-111287969D01*
X118110000Y-111415556D01*
X118110000Y-111545644D01*
X118135379Y-111673231D01*
X118185161Y-111793417D01*
X118257434Y-111901580D01*
X118349420Y-111993566D01*
X118457583Y-112065839D01*
X118577769Y-112115621D01*
X118705356Y-112141000D01*
X118835444Y-112141000D01*
X118963031Y-112115621D01*
X119083217Y-112065839D01*
X119087900Y-112062710D01*
X119092583Y-112065839D01*
X119212769Y-112115621D01*
X119340356Y-112141000D01*
X119470444Y-112141000D01*
X119598031Y-112115621D01*
X119718217Y-112065839D01*
X119826380Y-111993566D01*
X119918366Y-111901580D01*
X119990639Y-111793417D01*
X120040421Y-111673231D01*
X120065800Y-111545644D01*
X120065800Y-111415556D01*
X120040421Y-111287969D01*
X119990639Y-111167783D01*
X119987510Y-111163100D01*
X119990639Y-111158417D01*
X120040421Y-111038231D01*
X120065800Y-110910644D01*
X120065800Y-110780556D01*
X120040421Y-110652969D01*
X119990639Y-110532783D01*
X119918366Y-110424620D01*
X119826380Y-110332634D01*
X119718217Y-110260361D01*
X119598031Y-110210579D01*
X119470444Y-110185200D01*
X119340356Y-110185200D01*
X119212769Y-110210579D01*
X119092583Y-110260361D01*
X119087900Y-110263490D01*
X119083217Y-110260361D01*
X118963031Y-110210579D01*
X118835444Y-110185200D01*
X118705356Y-110185200D01*
X118577769Y-110210579D01*
X118457583Y-110260361D01*
X118349420Y-110332634D01*
X118257434Y-110424620D01*
X118185161Y-110532783D01*
X118135379Y-110652969D01*
X118110000Y-110780556D01*
X106587453Y-110780556D01*
X106657439Y-110675817D01*
X106707221Y-110555631D01*
X106732600Y-110428044D01*
X106732600Y-110297956D01*
X106707221Y-110170369D01*
X106675902Y-110094756D01*
X129339400Y-110094756D01*
X129339400Y-110224844D01*
X129364779Y-110352431D01*
X129414561Y-110472617D01*
X129486834Y-110580780D01*
X129578820Y-110672766D01*
X129686983Y-110745039D01*
X129807169Y-110794821D01*
X129934756Y-110820200D01*
X130064844Y-110820200D01*
X130136452Y-110805956D01*
X146532600Y-110805956D01*
X146532600Y-110936044D01*
X146557979Y-111063631D01*
X146607761Y-111183817D01*
X146610890Y-111188500D01*
X146607761Y-111193183D01*
X146557979Y-111313369D01*
X146532600Y-111440956D01*
X146532600Y-111571044D01*
X146557979Y-111698631D01*
X146607761Y-111818817D01*
X146680034Y-111926980D01*
X146772020Y-112018966D01*
X146880183Y-112091239D01*
X147000369Y-112141021D01*
X147127956Y-112166400D01*
X147258044Y-112166400D01*
X147385631Y-112141021D01*
X147505817Y-112091239D01*
X147510500Y-112088110D01*
X147515183Y-112091239D01*
X147635369Y-112141021D01*
X147762956Y-112166400D01*
X147893044Y-112166400D01*
X148020631Y-112141021D01*
X148140817Y-112091239D01*
X148248980Y-112018966D01*
X148340966Y-111926980D01*
X148413239Y-111818817D01*
X148463021Y-111698631D01*
X148488400Y-111571044D01*
X148488400Y-111440956D01*
X148463021Y-111313369D01*
X148413239Y-111193183D01*
X148410110Y-111188500D01*
X148413239Y-111183817D01*
X148463021Y-111063631D01*
X148488400Y-110936044D01*
X148488400Y-110805956D01*
X148463021Y-110678369D01*
X148413239Y-110558183D01*
X148340966Y-110450020D01*
X148248980Y-110358034D01*
X148140817Y-110285761D01*
X148020631Y-110235979D01*
X147893044Y-110210600D01*
X147762956Y-110210600D01*
X147635369Y-110235979D01*
X147515183Y-110285761D01*
X147510500Y-110288890D01*
X147505817Y-110285761D01*
X147385631Y-110235979D01*
X147258044Y-110210600D01*
X147127956Y-110210600D01*
X147000369Y-110235979D01*
X146880183Y-110285761D01*
X146772020Y-110358034D01*
X146680034Y-110450020D01*
X146607761Y-110558183D01*
X146557979Y-110678369D01*
X146532600Y-110805956D01*
X130136452Y-110805956D01*
X130192431Y-110794821D01*
X130312617Y-110745039D01*
X130420780Y-110672766D01*
X130512766Y-110580780D01*
X130585039Y-110472617D01*
X130634821Y-110352431D01*
X130660200Y-110224844D01*
X130660200Y-110094756D01*
X130634821Y-109967169D01*
X130585039Y-109846983D01*
X130512766Y-109738820D01*
X130420780Y-109646834D01*
X130312617Y-109574561D01*
X130192431Y-109524779D01*
X130064844Y-109499400D01*
X129934756Y-109499400D01*
X129807169Y-109524779D01*
X129686983Y-109574561D01*
X129578820Y-109646834D01*
X129486834Y-109738820D01*
X129414561Y-109846983D01*
X129364779Y-109967169D01*
X129339400Y-110094756D01*
X106675902Y-110094756D01*
X106657439Y-110050183D01*
X106585166Y-109942020D01*
X106493180Y-109850034D01*
X106385017Y-109777761D01*
X106264831Y-109727979D01*
X106137244Y-109702600D01*
X106007156Y-109702600D01*
X105879569Y-109727979D01*
X105759383Y-109777761D01*
X105651220Y-109850034D01*
X105559234Y-109942020D01*
X105486961Y-110050183D01*
X105437179Y-110170369D01*
X105411800Y-110297956D01*
X90701342Y-110297956D01*
X90701342Y-109737801D01*
X90693986Y-109663112D01*
X90672200Y-109591293D01*
X90636821Y-109525105D01*
X90589210Y-109467090D01*
X90531195Y-109419479D01*
X90465007Y-109384100D01*
X90393188Y-109362314D01*
X90318499Y-109354958D01*
X88618499Y-109354958D01*
X88543810Y-109362314D01*
X88471991Y-109384100D01*
X88405803Y-109419479D01*
X88347788Y-109467090D01*
X88300177Y-109525105D01*
X88264798Y-109591293D01*
X88243012Y-109663112D01*
X88235656Y-109737801D01*
X85445200Y-109737801D01*
X85445200Y-108545356D01*
X142581600Y-108545356D01*
X142581600Y-108675444D01*
X142606979Y-108803031D01*
X142656761Y-108923217D01*
X142729034Y-109031380D01*
X142772254Y-109074600D01*
X142743034Y-109103820D01*
X142670761Y-109211983D01*
X142620979Y-109332169D01*
X142595600Y-109459756D01*
X142595600Y-109589844D01*
X142620979Y-109717431D01*
X142670761Y-109837617D01*
X142743034Y-109945780D01*
X142835020Y-110037766D01*
X142943183Y-110110039D01*
X143063369Y-110159821D01*
X143190956Y-110185200D01*
X143321044Y-110185200D01*
X143448631Y-110159821D01*
X143568817Y-110110039D01*
X143676980Y-110037766D01*
X143768966Y-109945780D01*
X143841239Y-109837617D01*
X143891021Y-109717431D01*
X143916400Y-109589844D01*
X143916400Y-109459756D01*
X143891021Y-109332169D01*
X143841239Y-109211983D01*
X143768966Y-109103820D01*
X143725746Y-109060600D01*
X143754966Y-109031380D01*
X143827239Y-108923217D01*
X143877021Y-108803031D01*
X143902400Y-108675444D01*
X143902400Y-108545356D01*
X143877021Y-108417769D01*
X143827239Y-108297583D01*
X143754966Y-108189420D01*
X143662980Y-108097434D01*
X143554817Y-108025161D01*
X143434631Y-107975379D01*
X143307044Y-107950000D01*
X143176956Y-107950000D01*
X143049369Y-107975379D01*
X142929183Y-108025161D01*
X142821020Y-108097434D01*
X142729034Y-108189420D01*
X142656761Y-108297583D01*
X142606979Y-108417769D01*
X142581600Y-108545356D01*
X85445200Y-108545356D01*
X85445200Y-107821456D01*
X159133600Y-107821456D01*
X159133600Y-107951544D01*
X159158979Y-108079131D01*
X159208761Y-108199317D01*
X159281034Y-108307480D01*
X159373020Y-108399466D01*
X159481183Y-108471739D01*
X159601369Y-108521521D01*
X159728956Y-108546900D01*
X159859044Y-108546900D01*
X159986631Y-108521521D01*
X160106817Y-108471739D01*
X160214980Y-108399466D01*
X160306966Y-108307480D01*
X160379239Y-108199317D01*
X160429021Y-108079131D01*
X160454400Y-107951544D01*
X160454400Y-107821456D01*
X160429021Y-107693869D01*
X160379239Y-107573683D01*
X160306966Y-107465520D01*
X160214980Y-107373534D01*
X160106817Y-107301261D01*
X159986631Y-107251479D01*
X159859044Y-107226100D01*
X159728956Y-107226100D01*
X159601369Y-107251479D01*
X159481183Y-107301261D01*
X159373020Y-107373534D01*
X159281034Y-107465520D01*
X159208761Y-107573683D01*
X159158979Y-107693869D01*
X159133600Y-107821456D01*
X85445200Y-107821456D01*
X85445200Y-105507801D01*
X88231543Y-105507801D01*
X88255311Y-105749119D01*
X88325701Y-105981164D01*
X88440008Y-106195017D01*
X88593839Y-106382461D01*
X88781283Y-106536292D01*
X88995136Y-106650599D01*
X89227181Y-106720989D01*
X89408027Y-106738801D01*
X89528971Y-106738801D01*
X89709817Y-106720989D01*
X89941862Y-106650599D01*
X90155715Y-106536292D01*
X90276512Y-106437156D01*
X93624400Y-106437156D01*
X93624400Y-106567244D01*
X93649779Y-106694831D01*
X93699561Y-106815017D01*
X93771834Y-106923180D01*
X93863820Y-107015166D01*
X93971983Y-107087439D01*
X94092169Y-107137221D01*
X94219756Y-107162600D01*
X94349844Y-107162600D01*
X94477431Y-107137221D01*
X94597617Y-107087439D01*
X94705780Y-107015166D01*
X94750390Y-106970556D01*
X101650800Y-106970556D01*
X101650800Y-107100644D01*
X101676179Y-107228231D01*
X101725961Y-107348417D01*
X101798234Y-107456580D01*
X101890220Y-107548566D01*
X101998383Y-107620839D01*
X102118569Y-107670621D01*
X102246156Y-107696000D01*
X102376244Y-107696000D01*
X102503831Y-107670621D01*
X102624017Y-107620839D01*
X102732180Y-107548566D01*
X102824166Y-107456580D01*
X102896439Y-107348417D01*
X102946221Y-107228231D01*
X102971600Y-107100644D01*
X102971600Y-107072156D01*
X121564400Y-107072156D01*
X121564400Y-107202244D01*
X121589779Y-107329831D01*
X121639561Y-107450017D01*
X121711834Y-107558180D01*
X121803820Y-107650166D01*
X121911983Y-107722439D01*
X122032169Y-107772221D01*
X122159756Y-107797600D01*
X122289844Y-107797600D01*
X122417431Y-107772221D01*
X122537617Y-107722439D01*
X122645780Y-107650166D01*
X122737766Y-107558180D01*
X122810039Y-107450017D01*
X122859821Y-107329831D01*
X122885200Y-107202244D01*
X122885200Y-107072156D01*
X122859821Y-106944569D01*
X122810039Y-106824383D01*
X122737766Y-106716220D01*
X122645780Y-106624234D01*
X122537617Y-106551961D01*
X122505737Y-106538756D01*
X146874200Y-106538756D01*
X146874200Y-106668844D01*
X146899579Y-106796431D01*
X146949361Y-106916617D01*
X147021634Y-107024780D01*
X147113620Y-107116766D01*
X147221783Y-107189039D01*
X147341969Y-107238821D01*
X147469556Y-107264200D01*
X147599644Y-107264200D01*
X147727231Y-107238821D01*
X147847417Y-107189039D01*
X147955580Y-107116766D01*
X148047566Y-107024780D01*
X148119839Y-106916617D01*
X148169621Y-106796431D01*
X148195000Y-106668844D01*
X148195000Y-106538756D01*
X148169621Y-106411169D01*
X148119839Y-106290983D01*
X148047566Y-106182820D01*
X147955580Y-106090834D01*
X147847417Y-106018561D01*
X147727231Y-105968779D01*
X147599644Y-105943400D01*
X147469556Y-105943400D01*
X147341969Y-105968779D01*
X147221783Y-106018561D01*
X147113620Y-106090834D01*
X147021634Y-106182820D01*
X146949361Y-106290983D01*
X146899579Y-106411169D01*
X146874200Y-106538756D01*
X122505737Y-106538756D01*
X122417431Y-106502179D01*
X122289844Y-106476800D01*
X122159756Y-106476800D01*
X122032169Y-106502179D01*
X121911983Y-106551961D01*
X121803820Y-106624234D01*
X121711834Y-106716220D01*
X121639561Y-106824383D01*
X121589779Y-106944569D01*
X121564400Y-107072156D01*
X102971600Y-107072156D01*
X102971600Y-106970556D01*
X102946221Y-106842969D01*
X102896439Y-106722783D01*
X102824166Y-106614620D01*
X102732180Y-106522634D01*
X102624017Y-106450361D01*
X102503831Y-106400579D01*
X102376244Y-106375200D01*
X102246156Y-106375200D01*
X102118569Y-106400579D01*
X101998383Y-106450361D01*
X101890220Y-106522634D01*
X101798234Y-106614620D01*
X101725961Y-106722783D01*
X101676179Y-106842969D01*
X101650800Y-106970556D01*
X94750390Y-106970556D01*
X94797766Y-106923180D01*
X94870039Y-106815017D01*
X94919821Y-106694831D01*
X94945200Y-106567244D01*
X94945200Y-106437156D01*
X94919821Y-106309569D01*
X94870039Y-106189383D01*
X94797766Y-106081220D01*
X94705780Y-105989234D01*
X94631094Y-105939330D01*
X94651556Y-105943400D01*
X94781644Y-105943400D01*
X94909231Y-105918021D01*
X95029417Y-105868239D01*
X95137580Y-105795966D01*
X95229566Y-105703980D01*
X95301839Y-105595817D01*
X95351621Y-105475631D01*
X95377000Y-105348044D01*
X95377000Y-105217956D01*
X95351621Y-105090369D01*
X95301839Y-104970183D01*
X95229566Y-104862020D01*
X95137580Y-104770034D01*
X95029417Y-104697761D01*
X94909231Y-104647979D01*
X94781644Y-104622600D01*
X94651556Y-104622600D01*
X94523969Y-104647979D01*
X94403783Y-104697761D01*
X94295620Y-104770034D01*
X94203634Y-104862020D01*
X94131361Y-104970183D01*
X94081579Y-105090369D01*
X94056200Y-105217956D01*
X94056200Y-105348044D01*
X94081579Y-105475631D01*
X94131361Y-105595817D01*
X94203634Y-105703980D01*
X94295620Y-105795966D01*
X94370306Y-105845870D01*
X94349844Y-105841800D01*
X94219756Y-105841800D01*
X94092169Y-105867179D01*
X93971983Y-105916961D01*
X93863820Y-105989234D01*
X93771834Y-106081220D01*
X93699561Y-106189383D01*
X93649779Y-106309569D01*
X93624400Y-106437156D01*
X90276512Y-106437156D01*
X90343159Y-106382461D01*
X90496990Y-106195017D01*
X90611297Y-105981164D01*
X90681687Y-105749119D01*
X90705455Y-105507801D01*
X90681687Y-105266483D01*
X90611297Y-105034438D01*
X90496990Y-104820585D01*
X90343159Y-104633141D01*
X90155715Y-104479310D01*
X89941862Y-104365003D01*
X89709817Y-104294613D01*
X89528971Y-104276801D01*
X89408027Y-104276801D01*
X89227181Y-104294613D01*
X88995136Y-104365003D01*
X88781283Y-104479310D01*
X88593839Y-104633141D01*
X88440008Y-104820585D01*
X88325701Y-105034438D01*
X88255311Y-105266483D01*
X88231543Y-105507801D01*
X85445200Y-105507801D01*
X85445200Y-102967801D01*
X88231543Y-102967801D01*
X88255311Y-103209119D01*
X88325701Y-103441164D01*
X88440008Y-103655017D01*
X88593839Y-103842461D01*
X88781283Y-103996292D01*
X88995136Y-104110599D01*
X89227181Y-104180989D01*
X89408027Y-104198801D01*
X89528971Y-104198801D01*
X89709817Y-104180989D01*
X89941862Y-104110599D01*
X90155715Y-103996292D01*
X90338412Y-103846356D01*
X108204000Y-103846356D01*
X108204000Y-103976444D01*
X108229379Y-104104031D01*
X108279161Y-104224217D01*
X108351434Y-104332380D01*
X108443420Y-104424366D01*
X108551583Y-104496639D01*
X108671769Y-104546421D01*
X108799356Y-104571800D01*
X108929444Y-104571800D01*
X109057031Y-104546421D01*
X109177217Y-104496639D01*
X109285380Y-104424366D01*
X109377366Y-104332380D01*
X109449639Y-104224217D01*
X109496221Y-104111756D01*
X110845600Y-104111756D01*
X110845600Y-104241844D01*
X110870979Y-104369431D01*
X110920761Y-104489617D01*
X110993034Y-104597780D01*
X111085020Y-104689766D01*
X111193183Y-104762039D01*
X111313369Y-104811821D01*
X111440956Y-104837200D01*
X111571044Y-104837200D01*
X111698631Y-104811821D01*
X111818817Y-104762039D01*
X111926980Y-104689766D01*
X112018966Y-104597780D01*
X112021253Y-104594356D01*
X119456200Y-104594356D01*
X119456200Y-104724444D01*
X119481579Y-104852031D01*
X119531361Y-104972217D01*
X119603634Y-105080380D01*
X119695620Y-105172366D01*
X119803783Y-105244639D01*
X119923969Y-105294421D01*
X120051556Y-105319800D01*
X120181644Y-105319800D01*
X120309231Y-105294421D01*
X120429417Y-105244639D01*
X120537580Y-105172366D01*
X120629566Y-105080380D01*
X120701839Y-104972217D01*
X120751621Y-104852031D01*
X120762456Y-104797556D01*
X127838200Y-104797556D01*
X127838200Y-104927644D01*
X127863579Y-105055231D01*
X127913361Y-105175417D01*
X127985634Y-105283580D01*
X128077620Y-105375566D01*
X128185783Y-105447839D01*
X128305969Y-105497621D01*
X128433556Y-105523000D01*
X128563644Y-105523000D01*
X128691231Y-105497621D01*
X128811417Y-105447839D01*
X128919580Y-105375566D01*
X129011566Y-105283580D01*
X129083839Y-105175417D01*
X129133621Y-105055231D01*
X129159000Y-104927644D01*
X129159000Y-104886456D01*
X135407400Y-104886456D01*
X135407400Y-105016544D01*
X135432779Y-105144131D01*
X135482561Y-105264317D01*
X135554834Y-105372480D01*
X135646820Y-105464466D01*
X135754983Y-105536739D01*
X135875169Y-105586521D01*
X136002756Y-105611900D01*
X136132844Y-105611900D01*
X136260431Y-105586521D01*
X136380617Y-105536739D01*
X136488780Y-105464466D01*
X136580766Y-105372480D01*
X136653039Y-105264317D01*
X136702821Y-105144131D01*
X136728200Y-105016544D01*
X136728200Y-104886456D01*
X136702821Y-104758869D01*
X136653039Y-104638683D01*
X136580766Y-104530520D01*
X136488780Y-104438534D01*
X136380617Y-104366261D01*
X136260431Y-104316479D01*
X136132844Y-104291100D01*
X136002756Y-104291100D01*
X135875169Y-104316479D01*
X135754983Y-104366261D01*
X135646820Y-104438534D01*
X135554834Y-104530520D01*
X135482561Y-104638683D01*
X135432779Y-104758869D01*
X135407400Y-104886456D01*
X129159000Y-104886456D01*
X129159000Y-104797556D01*
X129133621Y-104669969D01*
X129083839Y-104549783D01*
X129011566Y-104441620D01*
X128919580Y-104349634D01*
X128811417Y-104277361D01*
X128691231Y-104227579D01*
X128563644Y-104202200D01*
X128433556Y-104202200D01*
X128305969Y-104227579D01*
X128185783Y-104277361D01*
X128077620Y-104349634D01*
X127985634Y-104441620D01*
X127913361Y-104549783D01*
X127863579Y-104669969D01*
X127838200Y-104797556D01*
X120762456Y-104797556D01*
X120777000Y-104724444D01*
X120777000Y-104594356D01*
X120751621Y-104466769D01*
X120701839Y-104346583D01*
X120629566Y-104238420D01*
X120537580Y-104146434D01*
X120429417Y-104074161D01*
X120397537Y-104060956D01*
X144424400Y-104060956D01*
X144424400Y-104191044D01*
X144449779Y-104318631D01*
X144499561Y-104438817D01*
X144571834Y-104546980D01*
X144663820Y-104638966D01*
X144771983Y-104711239D01*
X144892169Y-104761021D01*
X145019756Y-104786400D01*
X145149844Y-104786400D01*
X145277431Y-104761021D01*
X145397617Y-104711239D01*
X145505780Y-104638966D01*
X145597766Y-104546980D01*
X145670039Y-104438817D01*
X145719821Y-104318631D01*
X145745200Y-104191044D01*
X145745200Y-104060956D01*
X145719821Y-103933369D01*
X145670039Y-103813183D01*
X145597766Y-103705020D01*
X145505780Y-103613034D01*
X145397617Y-103540761D01*
X145277431Y-103490979D01*
X145149844Y-103465600D01*
X145019756Y-103465600D01*
X144892169Y-103490979D01*
X144771983Y-103540761D01*
X144663820Y-103613034D01*
X144571834Y-103705020D01*
X144499561Y-103813183D01*
X144449779Y-103933369D01*
X144424400Y-104060956D01*
X120397537Y-104060956D01*
X120309231Y-104024379D01*
X120181644Y-103999000D01*
X120051556Y-103999000D01*
X119923969Y-104024379D01*
X119803783Y-104074161D01*
X119695620Y-104146434D01*
X119603634Y-104238420D01*
X119531361Y-104346583D01*
X119481579Y-104466769D01*
X119456200Y-104594356D01*
X112021253Y-104594356D01*
X112091239Y-104489617D01*
X112141021Y-104369431D01*
X112166400Y-104241844D01*
X112166400Y-104111756D01*
X112141021Y-103984169D01*
X112091239Y-103863983D01*
X112018966Y-103755820D01*
X111926980Y-103663834D01*
X111818817Y-103591561D01*
X111698631Y-103541779D01*
X111571044Y-103516400D01*
X111440956Y-103516400D01*
X111313369Y-103541779D01*
X111193183Y-103591561D01*
X111085020Y-103663834D01*
X110993034Y-103755820D01*
X110920761Y-103863983D01*
X110870979Y-103984169D01*
X110845600Y-104111756D01*
X109496221Y-104111756D01*
X109499421Y-104104031D01*
X109524800Y-103976444D01*
X109524800Y-103846356D01*
X109499421Y-103718769D01*
X109449639Y-103598583D01*
X109377366Y-103490420D01*
X109285380Y-103398434D01*
X109177217Y-103326161D01*
X109057031Y-103276379D01*
X108929444Y-103251000D01*
X108799356Y-103251000D01*
X108671769Y-103276379D01*
X108551583Y-103326161D01*
X108443420Y-103398434D01*
X108351434Y-103490420D01*
X108279161Y-103598583D01*
X108229379Y-103718769D01*
X108204000Y-103846356D01*
X90338412Y-103846356D01*
X90343159Y-103842461D01*
X90496990Y-103655017D01*
X90611297Y-103441164D01*
X90681687Y-103209119D01*
X90705455Y-102967801D01*
X90699423Y-102906556D01*
X160096200Y-102906556D01*
X160096200Y-103036644D01*
X160121579Y-103164231D01*
X160171361Y-103284417D01*
X160243634Y-103392580D01*
X160335620Y-103484566D01*
X160443783Y-103556839D01*
X160563969Y-103606621D01*
X160691556Y-103632000D01*
X160821644Y-103632000D01*
X160949231Y-103606621D01*
X161069417Y-103556839D01*
X161177580Y-103484566D01*
X161269566Y-103392580D01*
X161341839Y-103284417D01*
X161391621Y-103164231D01*
X161417000Y-103036644D01*
X161417000Y-102906556D01*
X161391621Y-102778969D01*
X161341839Y-102658783D01*
X161269566Y-102550620D01*
X161177580Y-102458634D01*
X161069417Y-102386361D01*
X160949231Y-102336579D01*
X160877729Y-102322356D01*
X165557200Y-102322356D01*
X165557200Y-102452444D01*
X165582579Y-102580031D01*
X165632361Y-102700217D01*
X165704634Y-102808380D01*
X165796620Y-102900366D01*
X165904783Y-102972639D01*
X166024969Y-103022421D01*
X166152556Y-103047800D01*
X166282644Y-103047800D01*
X166410231Y-103022421D01*
X166530417Y-102972639D01*
X166638580Y-102900366D01*
X166730566Y-102808380D01*
X166802839Y-102700217D01*
X166852621Y-102580031D01*
X166878000Y-102452444D01*
X166878000Y-102322356D01*
X166852621Y-102194769D01*
X166802839Y-102074583D01*
X166730566Y-101966420D01*
X166638580Y-101874434D01*
X166530417Y-101802161D01*
X166410231Y-101752379D01*
X166282644Y-101727000D01*
X166152556Y-101727000D01*
X166024969Y-101752379D01*
X165904783Y-101802161D01*
X165796620Y-101874434D01*
X165704634Y-101966420D01*
X165632361Y-102074583D01*
X165582579Y-102194769D01*
X165557200Y-102322356D01*
X160877729Y-102322356D01*
X160821644Y-102311200D01*
X160691556Y-102311200D01*
X160563969Y-102336579D01*
X160443783Y-102386361D01*
X160335620Y-102458634D01*
X160243634Y-102550620D01*
X160171361Y-102658783D01*
X160121579Y-102778969D01*
X160096200Y-102906556D01*
X90699423Y-102906556D01*
X90681687Y-102726483D01*
X90611297Y-102494438D01*
X90496990Y-102280585D01*
X90343159Y-102093141D01*
X90155715Y-101939310D01*
X89941862Y-101825003D01*
X89709817Y-101754613D01*
X89528971Y-101736801D01*
X89408027Y-101736801D01*
X89227181Y-101754613D01*
X88995136Y-101825003D01*
X88781283Y-101939310D01*
X88593839Y-102093141D01*
X88440008Y-102280585D01*
X88325701Y-102494438D01*
X88255311Y-102726483D01*
X88231543Y-102967801D01*
X85445200Y-102967801D01*
X85445200Y-100427801D01*
X88231543Y-100427801D01*
X88255311Y-100669119D01*
X88325701Y-100901164D01*
X88440008Y-101115017D01*
X88593839Y-101302461D01*
X88781283Y-101456292D01*
X88995136Y-101570599D01*
X89227181Y-101640989D01*
X89408027Y-101658801D01*
X89528971Y-101658801D01*
X89709817Y-101640989D01*
X89941862Y-101570599D01*
X90155715Y-101456292D01*
X90343159Y-101302461D01*
X90496990Y-101115017D01*
X90611297Y-100901164D01*
X90681687Y-100669119D01*
X90682717Y-100658656D01*
X169418000Y-100658656D01*
X169418000Y-100788744D01*
X169443379Y-100916331D01*
X169493161Y-101036517D01*
X169565434Y-101144680D01*
X169657420Y-101236666D01*
X169765583Y-101308939D01*
X169885769Y-101358721D01*
X170013356Y-101384100D01*
X170143444Y-101384100D01*
X170271031Y-101358721D01*
X170391217Y-101308939D01*
X170499380Y-101236666D01*
X170591366Y-101144680D01*
X170663639Y-101036517D01*
X170713421Y-100916331D01*
X170738800Y-100788744D01*
X170738800Y-100658656D01*
X170713421Y-100531069D01*
X170663639Y-100410883D01*
X170591366Y-100302720D01*
X170499380Y-100210734D01*
X170391217Y-100138461D01*
X170271031Y-100088679D01*
X170143444Y-100063300D01*
X170013356Y-100063300D01*
X169885769Y-100088679D01*
X169765583Y-100138461D01*
X169657420Y-100210734D01*
X169565434Y-100302720D01*
X169493161Y-100410883D01*
X169443379Y-100531069D01*
X169418000Y-100658656D01*
X90682717Y-100658656D01*
X90705455Y-100427801D01*
X90681687Y-100186483D01*
X90611297Y-99954438D01*
X90553259Y-99845856D01*
X160045400Y-99845856D01*
X160045400Y-99975944D01*
X160070779Y-100103531D01*
X160120561Y-100223717D01*
X160192834Y-100331880D01*
X160284820Y-100423866D01*
X160392983Y-100496139D01*
X160513169Y-100545921D01*
X160640756Y-100571300D01*
X160770844Y-100571300D01*
X160898431Y-100545921D01*
X161018617Y-100496139D01*
X161126780Y-100423866D01*
X161218766Y-100331880D01*
X161291039Y-100223717D01*
X161340821Y-100103531D01*
X161366200Y-99975944D01*
X161366200Y-99845856D01*
X161340821Y-99718269D01*
X161291039Y-99598083D01*
X161218766Y-99489920D01*
X161126780Y-99397934D01*
X161018617Y-99325661D01*
X160898431Y-99275879D01*
X160770844Y-99250500D01*
X160640756Y-99250500D01*
X160513169Y-99275879D01*
X160392983Y-99325661D01*
X160284820Y-99397934D01*
X160192834Y-99489920D01*
X160120561Y-99598083D01*
X160070779Y-99718269D01*
X160045400Y-99845856D01*
X90553259Y-99845856D01*
X90496990Y-99740585D01*
X90343159Y-99553141D01*
X90155715Y-99399310D01*
X89941862Y-99285003D01*
X89709817Y-99214613D01*
X89528971Y-99196801D01*
X89408027Y-99196801D01*
X89227181Y-99214613D01*
X88995136Y-99285003D01*
X88781283Y-99399310D01*
X88593839Y-99553141D01*
X88440008Y-99740585D01*
X88325701Y-99954438D01*
X88255311Y-100186483D01*
X88231543Y-100427801D01*
X85445200Y-100427801D01*
X85445200Y-97887801D01*
X88231543Y-97887801D01*
X88255311Y-98129119D01*
X88325701Y-98361164D01*
X88440008Y-98575017D01*
X88593839Y-98762461D01*
X88781283Y-98916292D01*
X88995136Y-99030599D01*
X89227181Y-99100989D01*
X89408027Y-99118801D01*
X89528971Y-99118801D01*
X89709817Y-99100989D01*
X89941862Y-99030599D01*
X90155715Y-98916292D01*
X90343159Y-98762461D01*
X90496990Y-98575017D01*
X90503329Y-98563156D01*
X102514400Y-98563156D01*
X102514400Y-98693244D01*
X102539779Y-98820831D01*
X102589561Y-98941017D01*
X102661834Y-99049180D01*
X102753820Y-99141166D01*
X102861983Y-99213439D01*
X102982169Y-99263221D01*
X103109756Y-99288600D01*
X103239844Y-99288600D01*
X103367431Y-99263221D01*
X103487617Y-99213439D01*
X103595780Y-99141166D01*
X103687766Y-99049180D01*
X103760039Y-98941017D01*
X103809821Y-98820831D01*
X103835200Y-98693244D01*
X103835200Y-98563156D01*
X103809821Y-98435569D01*
X103760039Y-98315383D01*
X103687766Y-98207220D01*
X103595780Y-98115234D01*
X103487617Y-98042961D01*
X103367431Y-97993179D01*
X103239844Y-97967800D01*
X103109756Y-97967800D01*
X102982169Y-97993179D01*
X102861983Y-98042961D01*
X102753820Y-98115234D01*
X102661834Y-98207220D01*
X102589561Y-98315383D01*
X102539779Y-98435569D01*
X102514400Y-98563156D01*
X90503329Y-98563156D01*
X90611297Y-98361164D01*
X90681687Y-98129119D01*
X90705455Y-97887801D01*
X90681687Y-97646483D01*
X90611297Y-97414438D01*
X90496990Y-97200585D01*
X90343159Y-97013141D01*
X90155715Y-96859310D01*
X89993223Y-96772456D01*
X104305100Y-96772456D01*
X104305100Y-96902544D01*
X104330479Y-97030131D01*
X104380261Y-97150317D01*
X104452534Y-97258480D01*
X104544520Y-97350466D01*
X104652683Y-97422739D01*
X104772869Y-97472521D01*
X104900456Y-97497900D01*
X105030544Y-97497900D01*
X105158131Y-97472521D01*
X105278317Y-97422739D01*
X105386480Y-97350466D01*
X105478466Y-97258480D01*
X105550739Y-97150317D01*
X105600521Y-97030131D01*
X105625900Y-96902544D01*
X105625900Y-96772456D01*
X105600521Y-96644869D01*
X105550739Y-96524683D01*
X105478466Y-96416520D01*
X105386480Y-96324534D01*
X105278317Y-96252261D01*
X105158131Y-96202479D01*
X105030544Y-96177100D01*
X104900456Y-96177100D01*
X104772869Y-96202479D01*
X104652683Y-96252261D01*
X104544520Y-96324534D01*
X104452534Y-96416520D01*
X104380261Y-96524683D01*
X104330479Y-96644869D01*
X104305100Y-96772456D01*
X89993223Y-96772456D01*
X89941862Y-96745003D01*
X89709817Y-96674613D01*
X89528971Y-96656801D01*
X89408027Y-96656801D01*
X89227181Y-96674613D01*
X88995136Y-96745003D01*
X88781283Y-96859310D01*
X88593839Y-97013141D01*
X88440008Y-97200585D01*
X88325701Y-97414438D01*
X88255311Y-97646483D01*
X88231543Y-97887801D01*
X85445200Y-97887801D01*
X85445200Y-93254556D01*
X133273800Y-93254556D01*
X133273800Y-93384644D01*
X133299179Y-93512231D01*
X133348961Y-93632417D01*
X133421234Y-93740580D01*
X133513220Y-93832566D01*
X133621383Y-93904839D01*
X133741569Y-93954621D01*
X133869156Y-93980000D01*
X133999244Y-93980000D01*
X134126831Y-93954621D01*
X134247017Y-93904839D01*
X134355180Y-93832566D01*
X134447166Y-93740580D01*
X134519439Y-93632417D01*
X134569221Y-93512231D01*
X134594600Y-93384644D01*
X134594600Y-93254556D01*
X134569221Y-93126969D01*
X134519439Y-93006783D01*
X134447166Y-92898620D01*
X134355180Y-92806634D01*
X134247017Y-92734361D01*
X134126831Y-92684579D01*
X133999244Y-92659200D01*
X133869156Y-92659200D01*
X133741569Y-92684579D01*
X133621383Y-92734361D01*
X133513220Y-92806634D01*
X133421234Y-92898620D01*
X133348961Y-93006783D01*
X133299179Y-93126969D01*
X133273800Y-93254556D01*
X85445200Y-93254556D01*
X85445200Y-92543356D01*
X160705800Y-92543356D01*
X160705800Y-92673444D01*
X160731179Y-92801031D01*
X160780961Y-92921217D01*
X160853234Y-93029380D01*
X160945220Y-93121366D01*
X161053383Y-93193639D01*
X161173569Y-93243421D01*
X161301156Y-93268800D01*
X161431244Y-93268800D01*
X161558831Y-93243421D01*
X161679017Y-93193639D01*
X161787180Y-93121366D01*
X161879166Y-93029380D01*
X161951439Y-92921217D01*
X162001221Y-92801031D01*
X162026600Y-92673444D01*
X162026600Y-92543356D01*
X162001221Y-92415769D01*
X161951439Y-92295583D01*
X161913335Y-92238556D01*
X169976800Y-92238556D01*
X169976800Y-92368644D01*
X170002179Y-92496231D01*
X170051961Y-92616417D01*
X170124234Y-92724580D01*
X170216220Y-92816566D01*
X170324383Y-92888839D01*
X170444569Y-92938621D01*
X170572156Y-92964000D01*
X170702244Y-92964000D01*
X170829831Y-92938621D01*
X170950017Y-92888839D01*
X171058180Y-92816566D01*
X171150166Y-92724580D01*
X171203369Y-92644956D01*
X180238400Y-92644956D01*
X180238400Y-92775044D01*
X180263779Y-92902631D01*
X180313561Y-93022817D01*
X180316690Y-93027500D01*
X180313561Y-93032183D01*
X180263779Y-93152369D01*
X180238400Y-93279956D01*
X180238400Y-93410044D01*
X180263779Y-93537631D01*
X180313561Y-93657817D01*
X180385834Y-93765980D01*
X180477820Y-93857966D01*
X180585983Y-93930239D01*
X180706169Y-93980021D01*
X180833756Y-94005400D01*
X180963844Y-94005400D01*
X181091431Y-93980021D01*
X181211617Y-93930239D01*
X181216300Y-93927110D01*
X181220983Y-93930239D01*
X181341169Y-93980021D01*
X181468756Y-94005400D01*
X181598844Y-94005400D01*
X181726431Y-93980021D01*
X181846617Y-93930239D01*
X181851300Y-93927110D01*
X181855983Y-93930239D01*
X181976169Y-93980021D01*
X182103756Y-94005400D01*
X182233844Y-94005400D01*
X182361431Y-93980021D01*
X182481617Y-93930239D01*
X182589780Y-93857966D01*
X182681766Y-93765980D01*
X182754039Y-93657817D01*
X182803821Y-93537631D01*
X182829200Y-93410044D01*
X182829200Y-93279956D01*
X182803821Y-93152369D01*
X182754039Y-93032183D01*
X182750910Y-93027500D01*
X182754039Y-93022817D01*
X182803821Y-92902631D01*
X182829200Y-92775044D01*
X182829200Y-92644956D01*
X182803821Y-92517369D01*
X182754039Y-92397183D01*
X182681766Y-92289020D01*
X182589780Y-92197034D01*
X182481617Y-92124761D01*
X182361431Y-92074979D01*
X182233844Y-92049600D01*
X182103756Y-92049600D01*
X181976169Y-92074979D01*
X181855983Y-92124761D01*
X181851300Y-92127890D01*
X181846617Y-92124761D01*
X181726431Y-92074979D01*
X181598844Y-92049600D01*
X181468756Y-92049600D01*
X181341169Y-92074979D01*
X181220983Y-92124761D01*
X181216300Y-92127890D01*
X181211617Y-92124761D01*
X181091431Y-92074979D01*
X180963844Y-92049600D01*
X180833756Y-92049600D01*
X180706169Y-92074979D01*
X180585983Y-92124761D01*
X180477820Y-92197034D01*
X180385834Y-92289020D01*
X180313561Y-92397183D01*
X180263779Y-92517369D01*
X180238400Y-92644956D01*
X171203369Y-92644956D01*
X171222439Y-92616417D01*
X171272221Y-92496231D01*
X171297600Y-92368644D01*
X171297600Y-92238556D01*
X171272221Y-92110969D01*
X171222439Y-91990783D01*
X171150166Y-91882620D01*
X171058180Y-91790634D01*
X170950017Y-91718361D01*
X170829831Y-91668579D01*
X170702244Y-91643200D01*
X170572156Y-91643200D01*
X170444569Y-91668579D01*
X170324383Y-91718361D01*
X170216220Y-91790634D01*
X170124234Y-91882620D01*
X170051961Y-91990783D01*
X170002179Y-92110969D01*
X169976800Y-92238556D01*
X161913335Y-92238556D01*
X161879166Y-92187420D01*
X161787180Y-92095434D01*
X161679017Y-92023161D01*
X161558831Y-91973379D01*
X161431244Y-91948000D01*
X161301156Y-91948000D01*
X161173569Y-91973379D01*
X161053383Y-92023161D01*
X160945220Y-92095434D01*
X160853234Y-92187420D01*
X160780961Y-92295583D01*
X160731179Y-92415769D01*
X160705800Y-92543356D01*
X85445200Y-92543356D01*
X85445200Y-91123556D01*
X94361000Y-91123556D01*
X94361000Y-91253644D01*
X94386379Y-91381231D01*
X94436161Y-91501417D01*
X94508434Y-91609580D01*
X94600420Y-91701566D01*
X94708583Y-91773839D01*
X94828769Y-91823621D01*
X94956356Y-91849000D01*
X95086444Y-91849000D01*
X95214031Y-91823621D01*
X95334217Y-91773839D01*
X95442380Y-91701566D01*
X95534366Y-91609580D01*
X95589306Y-91527356D01*
X108534200Y-91527356D01*
X108534200Y-91657444D01*
X108559579Y-91785031D01*
X108609361Y-91905217D01*
X108681634Y-92013380D01*
X108773620Y-92105366D01*
X108881783Y-92177639D01*
X109001969Y-92227421D01*
X109129556Y-92252800D01*
X109259644Y-92252800D01*
X109387231Y-92227421D01*
X109507417Y-92177639D01*
X109615580Y-92105366D01*
X109707566Y-92013380D01*
X109779839Y-91905217D01*
X109829621Y-91785031D01*
X109855000Y-91657444D01*
X109855000Y-91527356D01*
X109829621Y-91399769D01*
X109779839Y-91279583D01*
X109707566Y-91171420D01*
X109615580Y-91079434D01*
X109507417Y-91007161D01*
X109387231Y-90957379D01*
X109259644Y-90932000D01*
X109129556Y-90932000D01*
X109001969Y-90957379D01*
X108881783Y-91007161D01*
X108773620Y-91079434D01*
X108681634Y-91171420D01*
X108609361Y-91279583D01*
X108559579Y-91399769D01*
X108534200Y-91527356D01*
X95589306Y-91527356D01*
X95606639Y-91501417D01*
X95656421Y-91381231D01*
X95681800Y-91253644D01*
X95681800Y-91123556D01*
X95656421Y-90995969D01*
X95606639Y-90875783D01*
X95534366Y-90767620D01*
X95442380Y-90675634D01*
X95334217Y-90603361D01*
X95214031Y-90553579D01*
X95086444Y-90528200D01*
X94956356Y-90528200D01*
X94828769Y-90553579D01*
X94708583Y-90603361D01*
X94600420Y-90675634D01*
X94508434Y-90767620D01*
X94436161Y-90875783D01*
X94386379Y-90995969D01*
X94361000Y-91123556D01*
X85445200Y-91123556D01*
X85445200Y-89546156D01*
X150509000Y-89546156D01*
X150509000Y-89676244D01*
X150534379Y-89803831D01*
X150584161Y-89924017D01*
X150656434Y-90032180D01*
X150748420Y-90124166D01*
X150856583Y-90196439D01*
X150976769Y-90246221D01*
X151104356Y-90271600D01*
X151234444Y-90271600D01*
X151362031Y-90246221D01*
X151457792Y-90206556D01*
X156972000Y-90206556D01*
X156972000Y-90336644D01*
X156997379Y-90464231D01*
X157047161Y-90584417D01*
X157119434Y-90692580D01*
X157211420Y-90784566D01*
X157319583Y-90856839D01*
X157439769Y-90906621D01*
X157567356Y-90932000D01*
X157697444Y-90932000D01*
X157825031Y-90906621D01*
X157945217Y-90856839D01*
X158053380Y-90784566D01*
X158145366Y-90692580D01*
X158217639Y-90584417D01*
X158267421Y-90464231D01*
X158292800Y-90336644D01*
X158292800Y-90206556D01*
X158267421Y-90078969D01*
X158217639Y-89958783D01*
X158145366Y-89850620D01*
X158053380Y-89758634D01*
X157945217Y-89686361D01*
X157825031Y-89636579D01*
X157697444Y-89611200D01*
X157567356Y-89611200D01*
X157439769Y-89636579D01*
X157319583Y-89686361D01*
X157211420Y-89758634D01*
X157119434Y-89850620D01*
X157047161Y-89958783D01*
X156997379Y-90078969D01*
X156972000Y-90206556D01*
X151457792Y-90206556D01*
X151482217Y-90196439D01*
X151590380Y-90124166D01*
X151682366Y-90032180D01*
X151754639Y-89924017D01*
X151804421Y-89803831D01*
X151829800Y-89676244D01*
X151829800Y-89546156D01*
X151804421Y-89418569D01*
X151754639Y-89298383D01*
X151682366Y-89190220D01*
X151590380Y-89098234D01*
X151482217Y-89025961D01*
X151362031Y-88976179D01*
X151234444Y-88950800D01*
X151104356Y-88950800D01*
X150976769Y-88976179D01*
X150856583Y-89025961D01*
X150748420Y-89098234D01*
X150656434Y-89190220D01*
X150584161Y-89298383D01*
X150534379Y-89418569D01*
X150509000Y-89546156D01*
X85445200Y-89546156D01*
X85445200Y-87269583D01*
X87013400Y-87269583D01*
X87013400Y-87541617D01*
X87066471Y-87808423D01*
X87170574Y-88059749D01*
X87321707Y-88285936D01*
X87514064Y-88478293D01*
X87740251Y-88629426D01*
X87991577Y-88733529D01*
X88258383Y-88786600D01*
X88530417Y-88786600D01*
X88797223Y-88733529D01*
X89048549Y-88629426D01*
X89274736Y-88478293D01*
X89467093Y-88285936D01*
X89618226Y-88059749D01*
X89722329Y-87808423D01*
X89775400Y-87541617D01*
X89775400Y-87269583D01*
X93513400Y-87269583D01*
X93513400Y-87541617D01*
X93566471Y-87808423D01*
X93670574Y-88059749D01*
X93821707Y-88285936D01*
X94014064Y-88478293D01*
X94240251Y-88629426D01*
X94491577Y-88733529D01*
X94758383Y-88786600D01*
X95030417Y-88786600D01*
X95297223Y-88733529D01*
X95548549Y-88629426D01*
X95774736Y-88478293D01*
X95967093Y-88285936D01*
X96118226Y-88059749D01*
X96127998Y-88036156D01*
X110185200Y-88036156D01*
X110185200Y-88166244D01*
X110210579Y-88293831D01*
X110260361Y-88414017D01*
X110332634Y-88522180D01*
X110424620Y-88614166D01*
X110532783Y-88686439D01*
X110652969Y-88736221D01*
X110780556Y-88761600D01*
X110910644Y-88761600D01*
X111038231Y-88736221D01*
X111158417Y-88686439D01*
X111266580Y-88614166D01*
X111358566Y-88522180D01*
X111430839Y-88414017D01*
X111480621Y-88293831D01*
X111506000Y-88166244D01*
X111506000Y-88036156D01*
X111480621Y-87908569D01*
X111430839Y-87788383D01*
X111358566Y-87680220D01*
X111266580Y-87588234D01*
X111158417Y-87515961D01*
X111038231Y-87466179D01*
X110910644Y-87440800D01*
X110780556Y-87440800D01*
X110652969Y-87466179D01*
X110532783Y-87515961D01*
X110424620Y-87588234D01*
X110332634Y-87680220D01*
X110260361Y-87788383D01*
X110210579Y-87908569D01*
X110185200Y-88036156D01*
X96127998Y-88036156D01*
X96222329Y-87808423D01*
X96275400Y-87541617D01*
X96275400Y-87269583D01*
X96222329Y-87002777D01*
X96172840Y-86883300D01*
X174124857Y-86883300D01*
X174124857Y-90383300D01*
X174132213Y-90457989D01*
X174153999Y-90529808D01*
X174189378Y-90595996D01*
X174236989Y-90654011D01*
X174295004Y-90701622D01*
X174361192Y-90737001D01*
X174433011Y-90758787D01*
X174507700Y-90766143D01*
X178007700Y-90766143D01*
X178082389Y-90758787D01*
X178154208Y-90737001D01*
X178220396Y-90701622D01*
X178278411Y-90654011D01*
X178326022Y-90595996D01*
X178361401Y-90529808D01*
X178383187Y-90457989D01*
X178390543Y-90383300D01*
X178390543Y-87633300D01*
X180374857Y-87633300D01*
X180374857Y-89633300D01*
X180396624Y-89854307D01*
X180461090Y-90066820D01*
X180565775Y-90262674D01*
X180706659Y-90434341D01*
X180878326Y-90575225D01*
X181074180Y-90679910D01*
X181286693Y-90744376D01*
X181507700Y-90766143D01*
X183007700Y-90766143D01*
X183228707Y-90744376D01*
X183441220Y-90679910D01*
X183637074Y-90575225D01*
X183808741Y-90434341D01*
X183949625Y-90262674D01*
X184054310Y-90066820D01*
X184118776Y-89854307D01*
X184140543Y-89633300D01*
X184140543Y-87633300D01*
X184118776Y-87412293D01*
X184054310Y-87199780D01*
X183949625Y-87003926D01*
X183808741Y-86832259D01*
X183637074Y-86691375D01*
X183441220Y-86586690D01*
X183228707Y-86522224D01*
X183007700Y-86500457D01*
X181507700Y-86500457D01*
X181286693Y-86522224D01*
X181074180Y-86586690D01*
X180878326Y-86691375D01*
X180706659Y-86832259D01*
X180565775Y-87003926D01*
X180461090Y-87199780D01*
X180396624Y-87412293D01*
X180374857Y-87633300D01*
X178390543Y-87633300D01*
X178390543Y-86883300D01*
X178383187Y-86808611D01*
X178361401Y-86736792D01*
X178326022Y-86670604D01*
X178278411Y-86612589D01*
X178220396Y-86564978D01*
X178154208Y-86529599D01*
X178082389Y-86507813D01*
X178007700Y-86500457D01*
X174507700Y-86500457D01*
X174433011Y-86507813D01*
X174361192Y-86529599D01*
X174295004Y-86564978D01*
X174236989Y-86612589D01*
X174189378Y-86670604D01*
X174153999Y-86736792D01*
X174132213Y-86808611D01*
X174124857Y-86883300D01*
X96172840Y-86883300D01*
X96118226Y-86751451D01*
X95967093Y-86525264D01*
X95774736Y-86332907D01*
X95548549Y-86181774D01*
X95297223Y-86077671D01*
X95030417Y-86024600D01*
X94758383Y-86024600D01*
X94491577Y-86077671D01*
X94240251Y-86181774D01*
X94014064Y-86332907D01*
X93821707Y-86525264D01*
X93670574Y-86751451D01*
X93566471Y-87002777D01*
X93513400Y-87269583D01*
X89775400Y-87269583D01*
X89722329Y-87002777D01*
X89618226Y-86751451D01*
X89467093Y-86525264D01*
X89274736Y-86332907D01*
X89048549Y-86181774D01*
X88797223Y-86077671D01*
X88530417Y-86024600D01*
X88258383Y-86024600D01*
X87991577Y-86077671D01*
X87740251Y-86181774D01*
X87514064Y-86332907D01*
X87321707Y-86525264D01*
X87170574Y-86751451D01*
X87066471Y-87002777D01*
X87013400Y-87269583D01*
X85445200Y-87269583D01*
X85445200Y-83641956D01*
X101625400Y-83641956D01*
X101625400Y-83772044D01*
X101650779Y-83899631D01*
X101700561Y-84019817D01*
X101772834Y-84127980D01*
X101864820Y-84219966D01*
X101972983Y-84292239D01*
X102093169Y-84342021D01*
X102220756Y-84367400D01*
X102350844Y-84367400D01*
X102478431Y-84342021D01*
X102598617Y-84292239D01*
X102706780Y-84219966D01*
X102798766Y-84127980D01*
X102871039Y-84019817D01*
X102886058Y-83983556D01*
X141681200Y-83983556D01*
X141681200Y-84113644D01*
X141706579Y-84241231D01*
X141756361Y-84361417D01*
X141828634Y-84469580D01*
X141920620Y-84561566D01*
X142028783Y-84633839D01*
X142148969Y-84683621D01*
X142276556Y-84709000D01*
X142406644Y-84709000D01*
X142534231Y-84683621D01*
X142654417Y-84633839D01*
X142762580Y-84561566D01*
X142854566Y-84469580D01*
X142926839Y-84361417D01*
X142976621Y-84241231D01*
X142987456Y-84186756D01*
X147523200Y-84186756D01*
X147523200Y-84316844D01*
X147548579Y-84444431D01*
X147598361Y-84564617D01*
X147601490Y-84569300D01*
X147598361Y-84573983D01*
X147548579Y-84694169D01*
X147523200Y-84821756D01*
X147523200Y-84951844D01*
X147548579Y-85079431D01*
X147598361Y-85199617D01*
X147601490Y-85204300D01*
X147598361Y-85208983D01*
X147548579Y-85329169D01*
X147523200Y-85456756D01*
X147523200Y-85586844D01*
X147548579Y-85714431D01*
X147598361Y-85834617D01*
X147670634Y-85942780D01*
X147762620Y-86034766D01*
X147870783Y-86107039D01*
X147990969Y-86156821D01*
X148118556Y-86182200D01*
X148248644Y-86182200D01*
X148376231Y-86156821D01*
X148496417Y-86107039D01*
X148501100Y-86103910D01*
X148505783Y-86107039D01*
X148625969Y-86156821D01*
X148753556Y-86182200D01*
X148883644Y-86182200D01*
X149011231Y-86156821D01*
X149131417Y-86107039D01*
X149239580Y-86034766D01*
X149331566Y-85942780D01*
X149403839Y-85834617D01*
X149453621Y-85714431D01*
X149479000Y-85586844D01*
X149479000Y-85456756D01*
X149453621Y-85329169D01*
X149403839Y-85208983D01*
X149400710Y-85204300D01*
X149403839Y-85199617D01*
X149453621Y-85079431D01*
X149479000Y-84951844D01*
X149479000Y-84821756D01*
X149453621Y-84694169D01*
X149403839Y-84573983D01*
X149400710Y-84569300D01*
X149403839Y-84564617D01*
X149453621Y-84444431D01*
X149479000Y-84316844D01*
X149479000Y-84186756D01*
X149453621Y-84059169D01*
X149403839Y-83938983D01*
X149331566Y-83830820D01*
X149239580Y-83738834D01*
X149131417Y-83666561D01*
X149011231Y-83616779D01*
X148883644Y-83591400D01*
X148753556Y-83591400D01*
X148625969Y-83616779D01*
X148505783Y-83666561D01*
X148501100Y-83669690D01*
X148496417Y-83666561D01*
X148376231Y-83616779D01*
X148248644Y-83591400D01*
X148118556Y-83591400D01*
X147990969Y-83616779D01*
X147870783Y-83666561D01*
X147762620Y-83738834D01*
X147670634Y-83830820D01*
X147598361Y-83938983D01*
X147548579Y-84059169D01*
X147523200Y-84186756D01*
X142987456Y-84186756D01*
X143002000Y-84113644D01*
X143002000Y-83983556D01*
X142976621Y-83855969D01*
X142926839Y-83735783D01*
X142854566Y-83627620D01*
X142762580Y-83535634D01*
X142654417Y-83463361D01*
X142534231Y-83413579D01*
X142406644Y-83388200D01*
X142276556Y-83388200D01*
X142148969Y-83413579D01*
X142028783Y-83463361D01*
X141920620Y-83535634D01*
X141828634Y-83627620D01*
X141756361Y-83735783D01*
X141706579Y-83855969D01*
X141681200Y-83983556D01*
X102886058Y-83983556D01*
X102920821Y-83899631D01*
X102946200Y-83772044D01*
X102946200Y-83641956D01*
X102920821Y-83514369D01*
X102871039Y-83394183D01*
X102798766Y-83286020D01*
X102706780Y-83194034D01*
X102598617Y-83121761D01*
X102478431Y-83071979D01*
X102409664Y-83058300D01*
X177124857Y-83058300D01*
X177124857Y-84808300D01*
X177149026Y-85053693D01*
X177220605Y-85289656D01*
X177336842Y-85507120D01*
X177493271Y-85697729D01*
X177683880Y-85854158D01*
X177901344Y-85970395D01*
X178137307Y-86041974D01*
X178382700Y-86066143D01*
X180132700Y-86066143D01*
X180378093Y-86041974D01*
X180614056Y-85970395D01*
X180831520Y-85854158D01*
X181022129Y-85697729D01*
X181178558Y-85507120D01*
X181294795Y-85289656D01*
X181366374Y-85053693D01*
X181390543Y-84808300D01*
X181390543Y-83058300D01*
X181366374Y-82812907D01*
X181294795Y-82576944D01*
X181178558Y-82359480D01*
X181022129Y-82168871D01*
X180831520Y-82012442D01*
X180614056Y-81896205D01*
X180378093Y-81824626D01*
X180132700Y-81800457D01*
X178382700Y-81800457D01*
X178137307Y-81824626D01*
X177901344Y-81896205D01*
X177683880Y-82012442D01*
X177493271Y-82168871D01*
X177336842Y-82359480D01*
X177220605Y-82576944D01*
X177149026Y-82812907D01*
X177124857Y-83058300D01*
X102409664Y-83058300D01*
X102350844Y-83046600D01*
X102220756Y-83046600D01*
X102093169Y-83071979D01*
X101972983Y-83121761D01*
X101864820Y-83194034D01*
X101772834Y-83286020D01*
X101700561Y-83394183D01*
X101650779Y-83514369D01*
X101625400Y-83641956D01*
X85445200Y-83641956D01*
X85445200Y-77479801D01*
X86738200Y-77479801D01*
X86738200Y-78145799D01*
X86868130Y-78799001D01*
X87122997Y-79414304D01*
X87493006Y-79968062D01*
X87963938Y-80438994D01*
X88517696Y-80809003D01*
X89132999Y-81063870D01*
X89786201Y-81193800D01*
X90452199Y-81193800D01*
X90856618Y-81113356D01*
X151536400Y-81113356D01*
X151536400Y-81243444D01*
X151561779Y-81371031D01*
X151611561Y-81491217D01*
X151614690Y-81495900D01*
X151611561Y-81500583D01*
X151561779Y-81620769D01*
X151536400Y-81748356D01*
X151536400Y-81878444D01*
X151561779Y-82006031D01*
X151611561Y-82126217D01*
X151683834Y-82234380D01*
X151775820Y-82326366D01*
X151883983Y-82398639D01*
X152004169Y-82448421D01*
X152131756Y-82473800D01*
X152261844Y-82473800D01*
X152389431Y-82448421D01*
X152509617Y-82398639D01*
X152514300Y-82395510D01*
X152518983Y-82398639D01*
X152639169Y-82448421D01*
X152766756Y-82473800D01*
X152896844Y-82473800D01*
X153024431Y-82448421D01*
X153144617Y-82398639D01*
X153149300Y-82395510D01*
X153153983Y-82398639D01*
X153274169Y-82448421D01*
X153401756Y-82473800D01*
X153531844Y-82473800D01*
X153659431Y-82448421D01*
X153779617Y-82398639D01*
X153887780Y-82326366D01*
X153979766Y-82234380D01*
X154052039Y-82126217D01*
X154101821Y-82006031D01*
X154127200Y-81878444D01*
X154127200Y-81849956D01*
X170053000Y-81849956D01*
X170053000Y-81980044D01*
X170078379Y-82107631D01*
X170128161Y-82227817D01*
X170200434Y-82335980D01*
X170292420Y-82427966D01*
X170400583Y-82500239D01*
X170520769Y-82550021D01*
X170648356Y-82575400D01*
X170778444Y-82575400D01*
X170906031Y-82550021D01*
X171026217Y-82500239D01*
X171134380Y-82427966D01*
X171226366Y-82335980D01*
X171298639Y-82227817D01*
X171348421Y-82107631D01*
X171373800Y-81980044D01*
X171373800Y-81849956D01*
X171348421Y-81722369D01*
X171298639Y-81602183D01*
X171226366Y-81494020D01*
X171134380Y-81402034D01*
X171026217Y-81329761D01*
X170906031Y-81279979D01*
X170778444Y-81254600D01*
X170648356Y-81254600D01*
X170520769Y-81279979D01*
X170400583Y-81329761D01*
X170292420Y-81402034D01*
X170200434Y-81494020D01*
X170128161Y-81602183D01*
X170078379Y-81722369D01*
X170053000Y-81849956D01*
X154127200Y-81849956D01*
X154127200Y-81748356D01*
X154101821Y-81620769D01*
X154052039Y-81500583D01*
X154048910Y-81495900D01*
X154052039Y-81491217D01*
X154101821Y-81371031D01*
X154127200Y-81243444D01*
X154127200Y-81113356D01*
X154101821Y-80985769D01*
X154052039Y-80865583D01*
X153979766Y-80757420D01*
X153887780Y-80665434D01*
X153779617Y-80593161D01*
X153659431Y-80543379D01*
X153531844Y-80518000D01*
X153401756Y-80518000D01*
X153274169Y-80543379D01*
X153153983Y-80593161D01*
X153149300Y-80596290D01*
X153144617Y-80593161D01*
X153024431Y-80543379D01*
X152896844Y-80518000D01*
X152766756Y-80518000D01*
X152639169Y-80543379D01*
X152518983Y-80593161D01*
X152514300Y-80596290D01*
X152509617Y-80593161D01*
X152389431Y-80543379D01*
X152261844Y-80518000D01*
X152131756Y-80518000D01*
X152004169Y-80543379D01*
X151883983Y-80593161D01*
X151775820Y-80665434D01*
X151683834Y-80757420D01*
X151611561Y-80865583D01*
X151561779Y-80985769D01*
X151536400Y-81113356D01*
X90856618Y-81113356D01*
X91105401Y-81063870D01*
X91720704Y-80809003D01*
X92274462Y-80438994D01*
X92350700Y-80362756D01*
X122478800Y-80362756D01*
X122478800Y-80492844D01*
X122504179Y-80620431D01*
X122553961Y-80740617D01*
X122626234Y-80848780D01*
X122718220Y-80940766D01*
X122826383Y-81013039D01*
X122946569Y-81062821D01*
X123074156Y-81088200D01*
X123204244Y-81088200D01*
X123331831Y-81062821D01*
X123452017Y-81013039D01*
X123560180Y-80940766D01*
X123652166Y-80848780D01*
X123724439Y-80740617D01*
X123774221Y-80620431D01*
X123795639Y-80512756D01*
X156616400Y-80512756D01*
X156616400Y-80642844D01*
X156641779Y-80770431D01*
X156691561Y-80890617D01*
X156763834Y-80998780D01*
X156855820Y-81090766D01*
X156963983Y-81163039D01*
X157084169Y-81212821D01*
X157211756Y-81238200D01*
X157341844Y-81238200D01*
X157469431Y-81212821D01*
X157589617Y-81163039D01*
X157697780Y-81090766D01*
X157789766Y-80998780D01*
X157862039Y-80890617D01*
X157911821Y-80770431D01*
X157937200Y-80642844D01*
X157937200Y-80512756D01*
X157911821Y-80385169D01*
X157862039Y-80264983D01*
X157789766Y-80156820D01*
X157697780Y-80064834D01*
X157589617Y-79992561D01*
X157469431Y-79942779D01*
X157341844Y-79917400D01*
X157211756Y-79917400D01*
X157084169Y-79942779D01*
X156963983Y-79992561D01*
X156855820Y-80064834D01*
X156763834Y-80156820D01*
X156691561Y-80264983D01*
X156641779Y-80385169D01*
X156616400Y-80512756D01*
X123795639Y-80512756D01*
X123799600Y-80492844D01*
X123799600Y-80362756D01*
X123774221Y-80235169D01*
X123724439Y-80114983D01*
X123652166Y-80006820D01*
X123560180Y-79914834D01*
X123452017Y-79842561D01*
X123331831Y-79792779D01*
X123204244Y-79767400D01*
X123074156Y-79767400D01*
X122946569Y-79792779D01*
X122826383Y-79842561D01*
X122718220Y-79914834D01*
X122626234Y-80006820D01*
X122553961Y-80114983D01*
X122504179Y-80235169D01*
X122478800Y-80362756D01*
X92350700Y-80362756D01*
X92745394Y-79968062D01*
X93115403Y-79414304D01*
X93370270Y-78799001D01*
X93500200Y-78145799D01*
X93500200Y-77479801D01*
X93370270Y-76826599D01*
X93115403Y-76211296D01*
X92745394Y-75657538D01*
X92274462Y-75186606D01*
X91720704Y-74816597D01*
X91105401Y-74561730D01*
X90854387Y-74511800D01*
X95693557Y-74511800D01*
X95693557Y-76211800D01*
X95700913Y-76286489D01*
X95722699Y-76358308D01*
X95758078Y-76424496D01*
X95805689Y-76482511D01*
X95863704Y-76530122D01*
X95929892Y-76565501D01*
X96001711Y-76587287D01*
X96076400Y-76594643D01*
X97776400Y-76594643D01*
X97851089Y-76587287D01*
X97922908Y-76565501D01*
X97989096Y-76530122D01*
X98047111Y-76482511D01*
X98079536Y-76443000D01*
X109765957Y-76443000D01*
X109765957Y-78243000D01*
X109773313Y-78317689D01*
X109795099Y-78389508D01*
X109830478Y-78455696D01*
X109878089Y-78513711D01*
X109936104Y-78561322D01*
X110002292Y-78596701D01*
X110074111Y-78618487D01*
X110148800Y-78625843D01*
X111948800Y-78625843D01*
X112023489Y-78618487D01*
X112095308Y-78596701D01*
X112161496Y-78561322D01*
X112219511Y-78513711D01*
X112267122Y-78455696D01*
X112302501Y-78389508D01*
X112324287Y-78317689D01*
X112331643Y-78243000D01*
X112331643Y-77589034D01*
X112357028Y-77716654D01*
X112453593Y-77949781D01*
X112593782Y-78159590D01*
X112772210Y-78338018D01*
X112982019Y-78478207D01*
X113215146Y-78574772D01*
X113462633Y-78624000D01*
X113714967Y-78624000D01*
X113962454Y-78574772D01*
X114195581Y-78478207D01*
X114405390Y-78338018D01*
X114583818Y-78159590D01*
X114724007Y-77949781D01*
X114820572Y-77716654D01*
X114869800Y-77469167D01*
X114869800Y-77216833D01*
X114820572Y-76969346D01*
X114724007Y-76736219D01*
X114583818Y-76526410D01*
X114405390Y-76347982D01*
X114195581Y-76207793D01*
X113962454Y-76111228D01*
X113714967Y-76062000D01*
X113462633Y-76062000D01*
X113215146Y-76111228D01*
X112982019Y-76207793D01*
X112772210Y-76347982D01*
X112593782Y-76526410D01*
X112453593Y-76736219D01*
X112357028Y-76969346D01*
X112331643Y-77096966D01*
X112331643Y-76443000D01*
X112324287Y-76368311D01*
X112302501Y-76296492D01*
X112267122Y-76230304D01*
X112219511Y-76172289D01*
X112161496Y-76124678D01*
X112095308Y-76089299D01*
X112023489Y-76067513D01*
X111948800Y-76060157D01*
X110148800Y-76060157D01*
X110074111Y-76067513D01*
X110002292Y-76089299D01*
X109936104Y-76124678D01*
X109878089Y-76172289D01*
X109830478Y-76230304D01*
X109795099Y-76296492D01*
X109773313Y-76368311D01*
X109765957Y-76443000D01*
X98079536Y-76443000D01*
X98094722Y-76424496D01*
X98130101Y-76358308D01*
X98151887Y-76286489D01*
X98159243Y-76211800D01*
X98159243Y-75680200D01*
X128942157Y-75680200D01*
X128942157Y-77380200D01*
X128949513Y-77454889D01*
X128971299Y-77526708D01*
X129006678Y-77592896D01*
X129054289Y-77650911D01*
X129112304Y-77698522D01*
X129178492Y-77733901D01*
X129250311Y-77755687D01*
X129325000Y-77763043D01*
X131025000Y-77763043D01*
X131099689Y-77755687D01*
X131171508Y-77733901D01*
X131237696Y-77698522D01*
X131295711Y-77650911D01*
X131343322Y-77592896D01*
X131378701Y-77526708D01*
X131400487Y-77454889D01*
X131407843Y-77380200D01*
X131407843Y-76530200D01*
X131478044Y-76530200D01*
X131501812Y-76771518D01*
X131572202Y-77003563D01*
X131686509Y-77217416D01*
X131840340Y-77404860D01*
X132027784Y-77558691D01*
X132241637Y-77672998D01*
X132473682Y-77743388D01*
X132654528Y-77761200D01*
X132775472Y-77761200D01*
X132956318Y-77743388D01*
X133188363Y-77672998D01*
X133402216Y-77558691D01*
X133589660Y-77404860D01*
X133743491Y-77217416D01*
X133857798Y-77003563D01*
X133928188Y-76771518D01*
X133951956Y-76530200D01*
X134018044Y-76530200D01*
X134041812Y-76771518D01*
X134112202Y-77003563D01*
X134226509Y-77217416D01*
X134380340Y-77404860D01*
X134567784Y-77558691D01*
X134781637Y-77672998D01*
X135013682Y-77743388D01*
X135194528Y-77761200D01*
X135315472Y-77761200D01*
X135496318Y-77743388D01*
X135728363Y-77672998D01*
X135942216Y-77558691D01*
X136129660Y-77404860D01*
X136283491Y-77217416D01*
X136397798Y-77003563D01*
X136468188Y-76771518D01*
X136485853Y-76592156D01*
X162306000Y-76592156D01*
X162306000Y-76722244D01*
X162331379Y-76849831D01*
X162381161Y-76970017D01*
X162384290Y-76974700D01*
X162381161Y-76979383D01*
X162331379Y-77099569D01*
X162306000Y-77227156D01*
X162306000Y-77357244D01*
X162331379Y-77484831D01*
X162381161Y-77605017D01*
X162453434Y-77713180D01*
X162545420Y-77805166D01*
X162653583Y-77877439D01*
X162773769Y-77927221D01*
X162901356Y-77952600D01*
X163031444Y-77952600D01*
X163159031Y-77927221D01*
X163279217Y-77877439D01*
X163283900Y-77874310D01*
X163288583Y-77877439D01*
X163408769Y-77927221D01*
X163536356Y-77952600D01*
X163666444Y-77952600D01*
X163794031Y-77927221D01*
X163914217Y-77877439D01*
X163918900Y-77874310D01*
X163923583Y-77877439D01*
X164043769Y-77927221D01*
X164171356Y-77952600D01*
X164301444Y-77952600D01*
X164429031Y-77927221D01*
X164549217Y-77877439D01*
X164657380Y-77805166D01*
X164749366Y-77713180D01*
X164821639Y-77605017D01*
X164871421Y-77484831D01*
X164872421Y-77479801D01*
X176578200Y-77479801D01*
X176578200Y-78145799D01*
X176708130Y-78799001D01*
X176962997Y-79414304D01*
X177333006Y-79968062D01*
X177803938Y-80438994D01*
X178357696Y-80809003D01*
X178972999Y-81063870D01*
X179626201Y-81193800D01*
X180292199Y-81193800D01*
X180945401Y-81063870D01*
X181560704Y-80809003D01*
X182114462Y-80438994D01*
X182585394Y-79968062D01*
X182955403Y-79414304D01*
X183210270Y-78799001D01*
X183340200Y-78145799D01*
X183340200Y-77479801D01*
X183210270Y-76826599D01*
X182955403Y-76211296D01*
X182585394Y-75657538D01*
X182114462Y-75186606D01*
X181560704Y-74816597D01*
X180945401Y-74561730D01*
X180292199Y-74431800D01*
X179626201Y-74431800D01*
X178972999Y-74561730D01*
X178357696Y-74816597D01*
X177803938Y-75186606D01*
X177333006Y-75657538D01*
X176962997Y-76211296D01*
X176708130Y-76826599D01*
X176578200Y-77479801D01*
X164872421Y-77479801D01*
X164896800Y-77357244D01*
X164896800Y-77227156D01*
X164871421Y-77099569D01*
X164821639Y-76979383D01*
X164818510Y-76974700D01*
X164821639Y-76970017D01*
X164871421Y-76849831D01*
X164896800Y-76722244D01*
X164896800Y-76592156D01*
X164871421Y-76464569D01*
X164821639Y-76344383D01*
X164749366Y-76236220D01*
X164657380Y-76144234D01*
X164549217Y-76071961D01*
X164429031Y-76022179D01*
X164301444Y-75996800D01*
X164171356Y-75996800D01*
X164043769Y-76022179D01*
X163923583Y-76071961D01*
X163918900Y-76075090D01*
X163914217Y-76071961D01*
X163794031Y-76022179D01*
X163666444Y-75996800D01*
X163536356Y-75996800D01*
X163408769Y-76022179D01*
X163288583Y-76071961D01*
X163283900Y-76075090D01*
X163279217Y-76071961D01*
X163159031Y-76022179D01*
X163031444Y-75996800D01*
X162901356Y-75996800D01*
X162773769Y-76022179D01*
X162653583Y-76071961D01*
X162545420Y-76144234D01*
X162453434Y-76236220D01*
X162381161Y-76344383D01*
X162331379Y-76464569D01*
X162306000Y-76592156D01*
X136485853Y-76592156D01*
X136491956Y-76530200D01*
X136468188Y-76288882D01*
X136397798Y-76056837D01*
X136283491Y-75842984D01*
X136129660Y-75655540D01*
X135942216Y-75501709D01*
X135728363Y-75387402D01*
X135496318Y-75317012D01*
X135315472Y-75299200D01*
X135194528Y-75299200D01*
X135013682Y-75317012D01*
X134781637Y-75387402D01*
X134567784Y-75501709D01*
X134380340Y-75655540D01*
X134226509Y-75842984D01*
X134112202Y-76056837D01*
X134041812Y-76288882D01*
X134018044Y-76530200D01*
X133951956Y-76530200D01*
X133928188Y-76288882D01*
X133857798Y-76056837D01*
X133743491Y-75842984D01*
X133589660Y-75655540D01*
X133402216Y-75501709D01*
X133188363Y-75387402D01*
X132956318Y-75317012D01*
X132775472Y-75299200D01*
X132654528Y-75299200D01*
X132473682Y-75317012D01*
X132241637Y-75387402D01*
X132027784Y-75501709D01*
X131840340Y-75655540D01*
X131686509Y-75842984D01*
X131572202Y-76056837D01*
X131501812Y-76288882D01*
X131478044Y-76530200D01*
X131407843Y-76530200D01*
X131407843Y-75680200D01*
X131400487Y-75605511D01*
X131378701Y-75533692D01*
X131343322Y-75467504D01*
X131295711Y-75409489D01*
X131237696Y-75361878D01*
X131171508Y-75326499D01*
X131099689Y-75304713D01*
X131025000Y-75297357D01*
X129325000Y-75297357D01*
X129250311Y-75304713D01*
X129178492Y-75326499D01*
X129112304Y-75361878D01*
X129054289Y-75409489D01*
X129006678Y-75467504D01*
X128971299Y-75533692D01*
X128949513Y-75605511D01*
X128942157Y-75680200D01*
X98159243Y-75680200D01*
X98159243Y-74511800D01*
X98151887Y-74437111D01*
X98130101Y-74365292D01*
X98094722Y-74299104D01*
X98047111Y-74241089D01*
X97989096Y-74193478D01*
X97922908Y-74158099D01*
X97851089Y-74136313D01*
X97776400Y-74128957D01*
X96076400Y-74128957D01*
X96001711Y-74136313D01*
X95929892Y-74158099D01*
X95863704Y-74193478D01*
X95805689Y-74241089D01*
X95758078Y-74299104D01*
X95722699Y-74365292D01*
X95700913Y-74437111D01*
X95693557Y-74511800D01*
X90854387Y-74511800D01*
X90452199Y-74431800D01*
X89786201Y-74431800D01*
X89132999Y-74561730D01*
X88517696Y-74816597D01*
X87963938Y-75186606D01*
X87493006Y-75657538D01*
X87122997Y-76211296D01*
X86868130Y-76826599D01*
X86738200Y-77479801D01*
X85445200Y-77479801D01*
X85445200Y-73138800D01*
X184633201Y-73138800D01*
X184633200Y-122326800D01*
X184633200Y-122326800D01*
G37*
X184633200Y-122326800D02*
X85445200Y-122326800D01*
X85445200Y-117319801D01*
X86738200Y-117319801D01*
X86738200Y-117985799D01*
X86868130Y-118639001D01*
X87122997Y-119254304D01*
X87493006Y-119808062D01*
X87963938Y-120278994D01*
X88517696Y-120649003D01*
X89132999Y-120903870D01*
X89786201Y-121033800D01*
X90452199Y-121033800D01*
X91105401Y-120903870D01*
X91720704Y-120649003D01*
X92274462Y-120278994D01*
X92745394Y-119808062D01*
X93115403Y-119254304D01*
X93174448Y-119111756D01*
X144932400Y-119111756D01*
X144932400Y-119241844D01*
X144957779Y-119369431D01*
X145007561Y-119489617D01*
X145079834Y-119597780D01*
X145171820Y-119689766D01*
X145279983Y-119762039D01*
X145400169Y-119811821D01*
X145527756Y-119837200D01*
X145657844Y-119837200D01*
X145785431Y-119811821D01*
X145905617Y-119762039D01*
X146013780Y-119689766D01*
X146105766Y-119597780D01*
X146178039Y-119489617D01*
X146227821Y-119369431D01*
X146253200Y-119241844D01*
X146253200Y-119111756D01*
X146227821Y-118984169D01*
X146178039Y-118863983D01*
X146105766Y-118755820D01*
X146013780Y-118663834D01*
X145905617Y-118591561D01*
X145785431Y-118541779D01*
X145657844Y-118516400D01*
X145527756Y-118516400D01*
X145400169Y-118541779D01*
X145279983Y-118591561D01*
X145171820Y-118663834D01*
X145079834Y-118755820D01*
X145007561Y-118863983D01*
X144957779Y-118984169D01*
X144932400Y-119111756D01*
X93174448Y-119111756D01*
X93370270Y-118639001D01*
X93500200Y-117985799D01*
X93500200Y-117319801D01*
X93467610Y-117155956D01*
X118084600Y-117155956D01*
X118084600Y-117286044D01*
X118109979Y-117413631D01*
X118159761Y-117533817D01*
X118162890Y-117538500D01*
X118159761Y-117543183D01*
X118109979Y-117663369D01*
X118084600Y-117790956D01*
X118084600Y-117921044D01*
X118109979Y-118048631D01*
X118159761Y-118168817D01*
X118232034Y-118276980D01*
X118324020Y-118368966D01*
X118432183Y-118441239D01*
X118552369Y-118491021D01*
X118679956Y-118516400D01*
X118810044Y-118516400D01*
X118937631Y-118491021D01*
X119057817Y-118441239D01*
X119062500Y-118438110D01*
X119067183Y-118441239D01*
X119187369Y-118491021D01*
X119314956Y-118516400D01*
X119445044Y-118516400D01*
X119572631Y-118491021D01*
X119692817Y-118441239D01*
X119800980Y-118368966D01*
X119892966Y-118276980D01*
X119965239Y-118168817D01*
X120015021Y-118048631D01*
X120040400Y-117921044D01*
X120040400Y-117790956D01*
X120015021Y-117663369D01*
X119965239Y-117543183D01*
X119962110Y-117538500D01*
X119965239Y-117533817D01*
X120015021Y-117413631D01*
X120040400Y-117286044D01*
X120040400Y-117181356D01*
X146532600Y-117181356D01*
X146532600Y-117311444D01*
X146557979Y-117439031D01*
X146607761Y-117559217D01*
X146610890Y-117563900D01*
X146607761Y-117568583D01*
X146557979Y-117688769D01*
X146532600Y-117816356D01*
X146532600Y-117946444D01*
X146557979Y-118074031D01*
X146607761Y-118194217D01*
X146680034Y-118302380D01*
X146772020Y-118394366D01*
X146880183Y-118466639D01*
X147000369Y-118516421D01*
X147127956Y-118541800D01*
X147258044Y-118541800D01*
X147385631Y-118516421D01*
X147505817Y-118466639D01*
X147510500Y-118463510D01*
X147515183Y-118466639D01*
X147635369Y-118516421D01*
X147762956Y-118541800D01*
X147893044Y-118541800D01*
X148020631Y-118516421D01*
X148140817Y-118466639D01*
X148248980Y-118394366D01*
X148340966Y-118302380D01*
X148413239Y-118194217D01*
X148463021Y-118074031D01*
X148471072Y-118033556D01*
X167817800Y-118033556D01*
X167817800Y-118163644D01*
X167843179Y-118291231D01*
X167892961Y-118411417D01*
X167965234Y-118519580D01*
X168057220Y-118611566D01*
X168165383Y-118683839D01*
X168285569Y-118733621D01*
X168413156Y-118759000D01*
X168543244Y-118759000D01*
X168670831Y-118733621D01*
X168791017Y-118683839D01*
X168899180Y-118611566D01*
X168991166Y-118519580D01*
X169063439Y-118411417D01*
X169113221Y-118291231D01*
X169138600Y-118163644D01*
X169138600Y-118033556D01*
X169113221Y-117905969D01*
X169063439Y-117785783D01*
X168991166Y-117677620D01*
X168899180Y-117585634D01*
X168791017Y-117513361D01*
X168670831Y-117463579D01*
X168543244Y-117438200D01*
X168413156Y-117438200D01*
X168285569Y-117463579D01*
X168165383Y-117513361D01*
X168057220Y-117585634D01*
X167965234Y-117677620D01*
X167892961Y-117785783D01*
X167843179Y-117905969D01*
X167817800Y-118033556D01*
X148471072Y-118033556D01*
X148488400Y-117946444D01*
X148488400Y-117816356D01*
X148463021Y-117688769D01*
X148413239Y-117568583D01*
X148410110Y-117563900D01*
X148413239Y-117559217D01*
X148463021Y-117439031D01*
X148486737Y-117319801D01*
X176578200Y-117319801D01*
X176578200Y-117985799D01*
X176708130Y-118639001D01*
X176962997Y-119254304D01*
X177333006Y-119808062D01*
X177803938Y-120278994D01*
X178357696Y-120649003D01*
X178972999Y-120903870D01*
X179626201Y-121033800D01*
X180292199Y-121033800D01*
X180945401Y-120903870D01*
X181560704Y-120649003D01*
X182114462Y-120278994D01*
X182585394Y-119808062D01*
X182955403Y-119254304D01*
X183210270Y-118639001D01*
X183340200Y-117985799D01*
X183340200Y-117319801D01*
X183210270Y-116666599D01*
X182955403Y-116051296D01*
X182585394Y-115497538D01*
X182114462Y-115026606D01*
X181560704Y-114656597D01*
X180945401Y-114401730D01*
X180292199Y-114271800D01*
X179626201Y-114271800D01*
X178972999Y-114401730D01*
X178357696Y-114656597D01*
X177803938Y-115026606D01*
X177333006Y-115497538D01*
X176962997Y-116051296D01*
X176708130Y-116666599D01*
X176578200Y-117319801D01*
X148486737Y-117319801D01*
X148488400Y-117311444D01*
X148488400Y-117181356D01*
X148463021Y-117053769D01*
X148413239Y-116933583D01*
X148340966Y-116825420D01*
X148248980Y-116733434D01*
X148140817Y-116661161D01*
X148020631Y-116611379D01*
X147893044Y-116586000D01*
X147762956Y-116586000D01*
X147635369Y-116611379D01*
X147515183Y-116661161D01*
X147510500Y-116664290D01*
X147505817Y-116661161D01*
X147385631Y-116611379D01*
X147258044Y-116586000D01*
X147127956Y-116586000D01*
X147000369Y-116611379D01*
X146880183Y-116661161D01*
X146772020Y-116733434D01*
X146680034Y-116825420D01*
X146607761Y-116933583D01*
X146557979Y-117053769D01*
X146532600Y-117181356D01*
X120040400Y-117181356D01*
X120040400Y-117155956D01*
X120015021Y-117028369D01*
X119965239Y-116908183D01*
X119892966Y-116800020D01*
X119800980Y-116708034D01*
X119692817Y-116635761D01*
X119572631Y-116585979D01*
X119445044Y-116560600D01*
X119314956Y-116560600D01*
X119187369Y-116585979D01*
X119067183Y-116635761D01*
X119062500Y-116638890D01*
X119057817Y-116635761D01*
X118937631Y-116585979D01*
X118810044Y-116560600D01*
X118679956Y-116560600D01*
X118552369Y-116585979D01*
X118432183Y-116635761D01*
X118324020Y-116708034D01*
X118232034Y-116800020D01*
X118159761Y-116908183D01*
X118109979Y-117028369D01*
X118084600Y-117155956D01*
X93467610Y-117155956D01*
X93370270Y-116666599D01*
X93115403Y-116051296D01*
X92903097Y-115733556D01*
X136474200Y-115733556D01*
X136474200Y-115863644D01*
X136499579Y-115991231D01*
X136549361Y-116111417D01*
X136552490Y-116116100D01*
X136549361Y-116120783D01*
X136499579Y-116240969D01*
X136474200Y-116368556D01*
X136474200Y-116498644D01*
X136499579Y-116626231D01*
X136549361Y-116746417D01*
X136621634Y-116854580D01*
X136713620Y-116946566D01*
X136821783Y-117018839D01*
X136941969Y-117068621D01*
X137069556Y-117094000D01*
X137199644Y-117094000D01*
X137327231Y-117068621D01*
X137447417Y-117018839D01*
X137555580Y-116946566D01*
X137647566Y-116854580D01*
X137719839Y-116746417D01*
X137769621Y-116626231D01*
X137795000Y-116498644D01*
X137795000Y-116459000D01*
X137834644Y-116459000D01*
X137962231Y-116433621D01*
X138082417Y-116383839D01*
X138190580Y-116311566D01*
X138282566Y-116219580D01*
X138354839Y-116111417D01*
X138404621Y-115991231D01*
X138430000Y-115863644D01*
X138430000Y-115733556D01*
X138404621Y-115605969D01*
X138354839Y-115485783D01*
X138282566Y-115377620D01*
X138190580Y-115285634D01*
X138082417Y-115213361D01*
X137962231Y-115163579D01*
X137834644Y-115138200D01*
X137704556Y-115138200D01*
X137576969Y-115163579D01*
X137456783Y-115213361D01*
X137452100Y-115216490D01*
X137447417Y-115213361D01*
X137327231Y-115163579D01*
X137199644Y-115138200D01*
X137069556Y-115138200D01*
X136941969Y-115163579D01*
X136821783Y-115213361D01*
X136713620Y-115285634D01*
X136621634Y-115377620D01*
X136549361Y-115485783D01*
X136499579Y-115605969D01*
X136474200Y-115733556D01*
X92903097Y-115733556D01*
X92745394Y-115497538D01*
X92274462Y-115026606D01*
X91720704Y-114656597D01*
X91105401Y-114401730D01*
X90452199Y-114271800D01*
X89786201Y-114271800D01*
X89132999Y-114401730D01*
X88517696Y-114656597D01*
X87963938Y-115026606D01*
X87493006Y-115497538D01*
X87122997Y-116051296D01*
X86868130Y-116666599D01*
X86738200Y-117319801D01*
X85445200Y-117319801D01*
X85445200Y-113013156D01*
X93599000Y-113013156D01*
X93599000Y-113143244D01*
X93624379Y-113270831D01*
X93674161Y-113391017D01*
X93746434Y-113499180D01*
X93838420Y-113591166D01*
X93946583Y-113663439D01*
X94066769Y-113713221D01*
X94194356Y-113738600D01*
X94324444Y-113738600D01*
X94452031Y-113713221D01*
X94572217Y-113663439D01*
X94680380Y-113591166D01*
X94722390Y-113549156D01*
X124917200Y-113549156D01*
X124917200Y-113679244D01*
X124942579Y-113806831D01*
X124992361Y-113927017D01*
X125064634Y-114035180D01*
X125156620Y-114127166D01*
X125264783Y-114199439D01*
X125384969Y-114249221D01*
X125512556Y-114274600D01*
X125642644Y-114274600D01*
X125770231Y-114249221D01*
X125890417Y-114199439D01*
X125998580Y-114127166D01*
X126090566Y-114035180D01*
X126162839Y-113927017D01*
X126212621Y-113806831D01*
X126238000Y-113679244D01*
X126238000Y-113549156D01*
X126212621Y-113421569D01*
X126162839Y-113301383D01*
X126090566Y-113193220D01*
X126040102Y-113142756D01*
X128346200Y-113142756D01*
X128346200Y-113272844D01*
X128371579Y-113400431D01*
X128421361Y-113520617D01*
X128424490Y-113525300D01*
X128421361Y-113529983D01*
X128371579Y-113650169D01*
X128346200Y-113777756D01*
X128346200Y-113907844D01*
X128371579Y-114035431D01*
X128421361Y-114155617D01*
X128424490Y-114160300D01*
X128421361Y-114164983D01*
X128371579Y-114285169D01*
X128346200Y-114412756D01*
X128346200Y-114542844D01*
X128371579Y-114670431D01*
X128421361Y-114790617D01*
X128493634Y-114898780D01*
X128585620Y-114990766D01*
X128693783Y-115063039D01*
X128813969Y-115112821D01*
X128941556Y-115138200D01*
X129071644Y-115138200D01*
X129199231Y-115112821D01*
X129319417Y-115063039D01*
X129324100Y-115059910D01*
X129328783Y-115063039D01*
X129448969Y-115112821D01*
X129576556Y-115138200D01*
X129706644Y-115138200D01*
X129834231Y-115112821D01*
X129954417Y-115063039D01*
X130062580Y-114990766D01*
X130154566Y-114898780D01*
X130226839Y-114790617D01*
X130276621Y-114670431D01*
X130302000Y-114542844D01*
X130302000Y-114412756D01*
X130276621Y-114285169D01*
X130226839Y-114164983D01*
X130223710Y-114160300D01*
X130226839Y-114155617D01*
X130276621Y-114035431D01*
X130302000Y-113907844D01*
X130302000Y-113777756D01*
X130276621Y-113650169D01*
X130226839Y-113529983D01*
X130223710Y-113525300D01*
X130226839Y-113520617D01*
X130276621Y-113400431D01*
X130302000Y-113272844D01*
X130302000Y-113142756D01*
X130276621Y-113015169D01*
X130226839Y-112894983D01*
X130154566Y-112786820D01*
X130062580Y-112694834D01*
X130010682Y-112660156D01*
X134772400Y-112660156D01*
X134772400Y-112790244D01*
X134797779Y-112917831D01*
X134847561Y-113038017D01*
X134850690Y-113042700D01*
X134847561Y-113047383D01*
X134797779Y-113167569D01*
X134772400Y-113295156D01*
X134772400Y-113425244D01*
X134797779Y-113552831D01*
X134847561Y-113673017D01*
X134850690Y-113677700D01*
X134847561Y-113682383D01*
X134797779Y-113802569D01*
X134772400Y-113930156D01*
X134772400Y-114060244D01*
X134797779Y-114187831D01*
X134847561Y-114308017D01*
X134919834Y-114416180D01*
X135011820Y-114508166D01*
X135119983Y-114580439D01*
X135240169Y-114630221D01*
X135367756Y-114655600D01*
X135497844Y-114655600D01*
X135625431Y-114630221D01*
X135745617Y-114580439D01*
X135750300Y-114577310D01*
X135754983Y-114580439D01*
X135875169Y-114630221D01*
X136002756Y-114655600D01*
X136132844Y-114655600D01*
X136260431Y-114630221D01*
X136380617Y-114580439D01*
X136488780Y-114508166D01*
X136533390Y-114463556D01*
X142556200Y-114463556D01*
X142556200Y-114593644D01*
X142581579Y-114721231D01*
X142631361Y-114841417D01*
X142703634Y-114949580D01*
X142795620Y-115041566D01*
X142903783Y-115113839D01*
X143023969Y-115163621D01*
X143151556Y-115189000D01*
X143281644Y-115189000D01*
X143409231Y-115163621D01*
X143529417Y-115113839D01*
X143637580Y-115041566D01*
X143729566Y-114949580D01*
X143801839Y-114841417D01*
X143851621Y-114721231D01*
X143877000Y-114593644D01*
X143877000Y-114463556D01*
X143851621Y-114335969D01*
X143801839Y-114215783D01*
X143729566Y-114107620D01*
X143637580Y-114015634D01*
X143529417Y-113943361D01*
X143409231Y-113893579D01*
X143281644Y-113868200D01*
X143151556Y-113868200D01*
X143023969Y-113893579D01*
X142903783Y-113943361D01*
X142795620Y-114015634D01*
X142703634Y-114107620D01*
X142631361Y-114215783D01*
X142581579Y-114335969D01*
X142556200Y-114463556D01*
X136533390Y-114463556D01*
X136580766Y-114416180D01*
X136653039Y-114308017D01*
X136702821Y-114187831D01*
X136728200Y-114060244D01*
X136728200Y-113930156D01*
X136702821Y-113802569D01*
X136653039Y-113682383D01*
X136649910Y-113677700D01*
X136653039Y-113673017D01*
X136702821Y-113552831D01*
X136728200Y-113425244D01*
X136728200Y-113295156D01*
X136702821Y-113167569D01*
X136653039Y-113047383D01*
X136649910Y-113042700D01*
X136653039Y-113038017D01*
X136702821Y-112917831D01*
X136728200Y-112790244D01*
X136728200Y-112787156D01*
X142581600Y-112787156D01*
X142581600Y-112917244D01*
X142606979Y-113044831D01*
X142656761Y-113165017D01*
X142729034Y-113273180D01*
X142821020Y-113365166D01*
X142929183Y-113437439D01*
X143049369Y-113487221D01*
X143176956Y-113512600D01*
X143307044Y-113512600D01*
X143434631Y-113487221D01*
X143554817Y-113437439D01*
X143662980Y-113365166D01*
X143754966Y-113273180D01*
X143827239Y-113165017D01*
X143877021Y-113044831D01*
X143902400Y-112917244D01*
X143902400Y-112914156D01*
X178282600Y-112914156D01*
X178282600Y-113044244D01*
X178307979Y-113171831D01*
X178357761Y-113292017D01*
X178430034Y-113400180D01*
X178522020Y-113492166D01*
X178630183Y-113564439D01*
X178750369Y-113614221D01*
X178877956Y-113639600D01*
X179008044Y-113639600D01*
X179135631Y-113614221D01*
X179255817Y-113564439D01*
X179363980Y-113492166D01*
X179455966Y-113400180D01*
X179528239Y-113292017D01*
X179578021Y-113171831D01*
X179603400Y-113044244D01*
X179603400Y-112914156D01*
X179578021Y-112786569D01*
X179528239Y-112666383D01*
X179455966Y-112558220D01*
X179363980Y-112466234D01*
X179255817Y-112393961D01*
X179135631Y-112344179D01*
X179008044Y-112318800D01*
X178877956Y-112318800D01*
X178750369Y-112344179D01*
X178630183Y-112393961D01*
X178522020Y-112466234D01*
X178430034Y-112558220D01*
X178357761Y-112666383D01*
X178307979Y-112786569D01*
X178282600Y-112914156D01*
X143902400Y-112914156D01*
X143902400Y-112787156D01*
X143877021Y-112659569D01*
X143827239Y-112539383D01*
X143754966Y-112431220D01*
X143662980Y-112339234D01*
X143554817Y-112266961D01*
X143434631Y-112217179D01*
X143307044Y-112191800D01*
X143176956Y-112191800D01*
X143049369Y-112217179D01*
X142929183Y-112266961D01*
X142821020Y-112339234D01*
X142729034Y-112431220D01*
X142656761Y-112539383D01*
X142606979Y-112659569D01*
X142581600Y-112787156D01*
X136728200Y-112787156D01*
X136728200Y-112660156D01*
X136702821Y-112532569D01*
X136653039Y-112412383D01*
X136580766Y-112304220D01*
X136488780Y-112212234D01*
X136380617Y-112139961D01*
X136260431Y-112090179D01*
X136132844Y-112064800D01*
X136002756Y-112064800D01*
X135875169Y-112090179D01*
X135754983Y-112139961D01*
X135750300Y-112143090D01*
X135745617Y-112139961D01*
X135625431Y-112090179D01*
X135497844Y-112064800D01*
X135367756Y-112064800D01*
X135240169Y-112090179D01*
X135119983Y-112139961D01*
X135011820Y-112212234D01*
X134919834Y-112304220D01*
X134847561Y-112412383D01*
X134797779Y-112532569D01*
X134772400Y-112660156D01*
X130010682Y-112660156D01*
X129954417Y-112622561D01*
X129834231Y-112572779D01*
X129706644Y-112547400D01*
X129576556Y-112547400D01*
X129448969Y-112572779D01*
X129328783Y-112622561D01*
X129324100Y-112625690D01*
X129319417Y-112622561D01*
X129199231Y-112572779D01*
X129071644Y-112547400D01*
X128941556Y-112547400D01*
X128813969Y-112572779D01*
X128693783Y-112622561D01*
X128585620Y-112694834D01*
X128493634Y-112786820D01*
X128421361Y-112894983D01*
X128371579Y-113015169D01*
X128346200Y-113142756D01*
X126040102Y-113142756D01*
X125998580Y-113101234D01*
X125890417Y-113028961D01*
X125770231Y-112979179D01*
X125642644Y-112953800D01*
X125512556Y-112953800D01*
X125384969Y-112979179D01*
X125264783Y-113028961D01*
X125156620Y-113101234D01*
X125064634Y-113193220D01*
X124992361Y-113301383D01*
X124942579Y-113421569D01*
X124917200Y-113549156D01*
X94722390Y-113549156D01*
X94772366Y-113499180D01*
X94844639Y-113391017D01*
X94894421Y-113270831D01*
X94919800Y-113143244D01*
X94919800Y-113013156D01*
X94894421Y-112885569D01*
X94844639Y-112765383D01*
X94772366Y-112657220D01*
X94680380Y-112565234D01*
X94572217Y-112492961D01*
X94452031Y-112443179D01*
X94324444Y-112417800D01*
X94194356Y-112417800D01*
X94066769Y-112443179D01*
X93946583Y-112492961D01*
X93838420Y-112565234D01*
X93746434Y-112657220D01*
X93674161Y-112765383D01*
X93624379Y-112885569D01*
X93599000Y-113013156D01*
X85445200Y-113013156D01*
X85445200Y-112406156D01*
X126695200Y-112406156D01*
X126695200Y-112536244D01*
X126720579Y-112663831D01*
X126770361Y-112784017D01*
X126842634Y-112892180D01*
X126934620Y-112984166D01*
X127042783Y-113056439D01*
X127162969Y-113106221D01*
X127290556Y-113131600D01*
X127420644Y-113131600D01*
X127548231Y-113106221D01*
X127668417Y-113056439D01*
X127776580Y-112984166D01*
X127868566Y-112892180D01*
X127940839Y-112784017D01*
X127990621Y-112663831D01*
X128016000Y-112536244D01*
X128016000Y-112406156D01*
X127990621Y-112278569D01*
X127940839Y-112158383D01*
X127868566Y-112050220D01*
X127776580Y-111958234D01*
X127668417Y-111885961D01*
X127548231Y-111836179D01*
X127420644Y-111810800D01*
X127290556Y-111810800D01*
X127162969Y-111836179D01*
X127042783Y-111885961D01*
X126934620Y-111958234D01*
X126842634Y-112050220D01*
X126770361Y-112158383D01*
X126720579Y-112278569D01*
X126695200Y-112406156D01*
X85445200Y-112406156D01*
X85445200Y-109737801D01*
X88235656Y-109737801D01*
X88235656Y-111437801D01*
X88243012Y-111512490D01*
X88264798Y-111584309D01*
X88300177Y-111650497D01*
X88347788Y-111708512D01*
X88405803Y-111756123D01*
X88471991Y-111791502D01*
X88543810Y-111813288D01*
X88618499Y-111820644D01*
X90318499Y-111820644D01*
X90393188Y-111813288D01*
X90465007Y-111791502D01*
X90531195Y-111756123D01*
X90589210Y-111708512D01*
X90636821Y-111650497D01*
X90672200Y-111584309D01*
X90693986Y-111512490D01*
X90701342Y-111437801D01*
X90701342Y-110297956D01*
X105411800Y-110297956D01*
X105411800Y-110428044D01*
X105437179Y-110555631D01*
X105486961Y-110675817D01*
X105559234Y-110783980D01*
X105651220Y-110875966D01*
X105759383Y-110948239D01*
X105879569Y-110998021D01*
X106007156Y-111023400D01*
X106137244Y-111023400D01*
X106264831Y-110998021D01*
X106385017Y-110948239D01*
X106493180Y-110875966D01*
X106585166Y-110783980D01*
X106587453Y-110780556D01*
X118110000Y-110780556D01*
X118110000Y-110910644D01*
X118135379Y-111038231D01*
X118185161Y-111158417D01*
X118188290Y-111163100D01*
X118185161Y-111167783D01*
X118135379Y-111287969D01*
X118110000Y-111415556D01*
X118110000Y-111545644D01*
X118135379Y-111673231D01*
X118185161Y-111793417D01*
X118257434Y-111901580D01*
X118349420Y-111993566D01*
X118457583Y-112065839D01*
X118577769Y-112115621D01*
X118705356Y-112141000D01*
X118835444Y-112141000D01*
X118963031Y-112115621D01*
X119083217Y-112065839D01*
X119087900Y-112062710D01*
X119092583Y-112065839D01*
X119212769Y-112115621D01*
X119340356Y-112141000D01*
X119470444Y-112141000D01*
X119598031Y-112115621D01*
X119718217Y-112065839D01*
X119826380Y-111993566D01*
X119918366Y-111901580D01*
X119990639Y-111793417D01*
X120040421Y-111673231D01*
X120065800Y-111545644D01*
X120065800Y-111415556D01*
X120040421Y-111287969D01*
X119990639Y-111167783D01*
X119987510Y-111163100D01*
X119990639Y-111158417D01*
X120040421Y-111038231D01*
X120065800Y-110910644D01*
X120065800Y-110780556D01*
X120040421Y-110652969D01*
X119990639Y-110532783D01*
X119918366Y-110424620D01*
X119826380Y-110332634D01*
X119718217Y-110260361D01*
X119598031Y-110210579D01*
X119470444Y-110185200D01*
X119340356Y-110185200D01*
X119212769Y-110210579D01*
X119092583Y-110260361D01*
X119087900Y-110263490D01*
X119083217Y-110260361D01*
X118963031Y-110210579D01*
X118835444Y-110185200D01*
X118705356Y-110185200D01*
X118577769Y-110210579D01*
X118457583Y-110260361D01*
X118349420Y-110332634D01*
X118257434Y-110424620D01*
X118185161Y-110532783D01*
X118135379Y-110652969D01*
X118110000Y-110780556D01*
X106587453Y-110780556D01*
X106657439Y-110675817D01*
X106707221Y-110555631D01*
X106732600Y-110428044D01*
X106732600Y-110297956D01*
X106707221Y-110170369D01*
X106675902Y-110094756D01*
X129339400Y-110094756D01*
X129339400Y-110224844D01*
X129364779Y-110352431D01*
X129414561Y-110472617D01*
X129486834Y-110580780D01*
X129578820Y-110672766D01*
X129686983Y-110745039D01*
X129807169Y-110794821D01*
X129934756Y-110820200D01*
X130064844Y-110820200D01*
X130136452Y-110805956D01*
X146532600Y-110805956D01*
X146532600Y-110936044D01*
X146557979Y-111063631D01*
X146607761Y-111183817D01*
X146610890Y-111188500D01*
X146607761Y-111193183D01*
X146557979Y-111313369D01*
X146532600Y-111440956D01*
X146532600Y-111571044D01*
X146557979Y-111698631D01*
X146607761Y-111818817D01*
X146680034Y-111926980D01*
X146772020Y-112018966D01*
X146880183Y-112091239D01*
X147000369Y-112141021D01*
X147127956Y-112166400D01*
X147258044Y-112166400D01*
X147385631Y-112141021D01*
X147505817Y-112091239D01*
X147510500Y-112088110D01*
X147515183Y-112091239D01*
X147635369Y-112141021D01*
X147762956Y-112166400D01*
X147893044Y-112166400D01*
X148020631Y-112141021D01*
X148140817Y-112091239D01*
X148248980Y-112018966D01*
X148340966Y-111926980D01*
X148413239Y-111818817D01*
X148463021Y-111698631D01*
X148488400Y-111571044D01*
X148488400Y-111440956D01*
X148463021Y-111313369D01*
X148413239Y-111193183D01*
X148410110Y-111188500D01*
X148413239Y-111183817D01*
X148463021Y-111063631D01*
X148488400Y-110936044D01*
X148488400Y-110805956D01*
X148463021Y-110678369D01*
X148413239Y-110558183D01*
X148340966Y-110450020D01*
X148248980Y-110358034D01*
X148140817Y-110285761D01*
X148020631Y-110235979D01*
X147893044Y-110210600D01*
X147762956Y-110210600D01*
X147635369Y-110235979D01*
X147515183Y-110285761D01*
X147510500Y-110288890D01*
X147505817Y-110285761D01*
X147385631Y-110235979D01*
X147258044Y-110210600D01*
X147127956Y-110210600D01*
X147000369Y-110235979D01*
X146880183Y-110285761D01*
X146772020Y-110358034D01*
X146680034Y-110450020D01*
X146607761Y-110558183D01*
X146557979Y-110678369D01*
X146532600Y-110805956D01*
X130136452Y-110805956D01*
X130192431Y-110794821D01*
X130312617Y-110745039D01*
X130420780Y-110672766D01*
X130512766Y-110580780D01*
X130585039Y-110472617D01*
X130634821Y-110352431D01*
X130660200Y-110224844D01*
X130660200Y-110094756D01*
X130634821Y-109967169D01*
X130585039Y-109846983D01*
X130512766Y-109738820D01*
X130420780Y-109646834D01*
X130312617Y-109574561D01*
X130192431Y-109524779D01*
X130064844Y-109499400D01*
X129934756Y-109499400D01*
X129807169Y-109524779D01*
X129686983Y-109574561D01*
X129578820Y-109646834D01*
X129486834Y-109738820D01*
X129414561Y-109846983D01*
X129364779Y-109967169D01*
X129339400Y-110094756D01*
X106675902Y-110094756D01*
X106657439Y-110050183D01*
X106585166Y-109942020D01*
X106493180Y-109850034D01*
X106385017Y-109777761D01*
X106264831Y-109727979D01*
X106137244Y-109702600D01*
X106007156Y-109702600D01*
X105879569Y-109727979D01*
X105759383Y-109777761D01*
X105651220Y-109850034D01*
X105559234Y-109942020D01*
X105486961Y-110050183D01*
X105437179Y-110170369D01*
X105411800Y-110297956D01*
X90701342Y-110297956D01*
X90701342Y-109737801D01*
X90693986Y-109663112D01*
X90672200Y-109591293D01*
X90636821Y-109525105D01*
X90589210Y-109467090D01*
X90531195Y-109419479D01*
X90465007Y-109384100D01*
X90393188Y-109362314D01*
X90318499Y-109354958D01*
X88618499Y-109354958D01*
X88543810Y-109362314D01*
X88471991Y-109384100D01*
X88405803Y-109419479D01*
X88347788Y-109467090D01*
X88300177Y-109525105D01*
X88264798Y-109591293D01*
X88243012Y-109663112D01*
X88235656Y-109737801D01*
X85445200Y-109737801D01*
X85445200Y-108545356D01*
X142581600Y-108545356D01*
X142581600Y-108675444D01*
X142606979Y-108803031D01*
X142656761Y-108923217D01*
X142729034Y-109031380D01*
X142772254Y-109074600D01*
X142743034Y-109103820D01*
X142670761Y-109211983D01*
X142620979Y-109332169D01*
X142595600Y-109459756D01*
X142595600Y-109589844D01*
X142620979Y-109717431D01*
X142670761Y-109837617D01*
X142743034Y-109945780D01*
X142835020Y-110037766D01*
X142943183Y-110110039D01*
X143063369Y-110159821D01*
X143190956Y-110185200D01*
X143321044Y-110185200D01*
X143448631Y-110159821D01*
X143568817Y-110110039D01*
X143676980Y-110037766D01*
X143768966Y-109945780D01*
X143841239Y-109837617D01*
X143891021Y-109717431D01*
X143916400Y-109589844D01*
X143916400Y-109459756D01*
X143891021Y-109332169D01*
X143841239Y-109211983D01*
X143768966Y-109103820D01*
X143725746Y-109060600D01*
X143754966Y-109031380D01*
X143827239Y-108923217D01*
X143877021Y-108803031D01*
X143902400Y-108675444D01*
X143902400Y-108545356D01*
X143877021Y-108417769D01*
X143827239Y-108297583D01*
X143754966Y-108189420D01*
X143662980Y-108097434D01*
X143554817Y-108025161D01*
X143434631Y-107975379D01*
X143307044Y-107950000D01*
X143176956Y-107950000D01*
X143049369Y-107975379D01*
X142929183Y-108025161D01*
X142821020Y-108097434D01*
X142729034Y-108189420D01*
X142656761Y-108297583D01*
X142606979Y-108417769D01*
X142581600Y-108545356D01*
X85445200Y-108545356D01*
X85445200Y-107821456D01*
X159133600Y-107821456D01*
X159133600Y-107951544D01*
X159158979Y-108079131D01*
X159208761Y-108199317D01*
X159281034Y-108307480D01*
X159373020Y-108399466D01*
X159481183Y-108471739D01*
X159601369Y-108521521D01*
X159728956Y-108546900D01*
X159859044Y-108546900D01*
X159986631Y-108521521D01*
X160106817Y-108471739D01*
X160214980Y-108399466D01*
X160306966Y-108307480D01*
X160379239Y-108199317D01*
X160429021Y-108079131D01*
X160454400Y-107951544D01*
X160454400Y-107821456D01*
X160429021Y-107693869D01*
X160379239Y-107573683D01*
X160306966Y-107465520D01*
X160214980Y-107373534D01*
X160106817Y-107301261D01*
X159986631Y-107251479D01*
X159859044Y-107226100D01*
X159728956Y-107226100D01*
X159601369Y-107251479D01*
X159481183Y-107301261D01*
X159373020Y-107373534D01*
X159281034Y-107465520D01*
X159208761Y-107573683D01*
X159158979Y-107693869D01*
X159133600Y-107821456D01*
X85445200Y-107821456D01*
X85445200Y-105507801D01*
X88231543Y-105507801D01*
X88255311Y-105749119D01*
X88325701Y-105981164D01*
X88440008Y-106195017D01*
X88593839Y-106382461D01*
X88781283Y-106536292D01*
X88995136Y-106650599D01*
X89227181Y-106720989D01*
X89408027Y-106738801D01*
X89528971Y-106738801D01*
X89709817Y-106720989D01*
X89941862Y-106650599D01*
X90155715Y-106536292D01*
X90276512Y-106437156D01*
X93624400Y-106437156D01*
X93624400Y-106567244D01*
X93649779Y-106694831D01*
X93699561Y-106815017D01*
X93771834Y-106923180D01*
X93863820Y-107015166D01*
X93971983Y-107087439D01*
X94092169Y-107137221D01*
X94219756Y-107162600D01*
X94349844Y-107162600D01*
X94477431Y-107137221D01*
X94597617Y-107087439D01*
X94705780Y-107015166D01*
X94750390Y-106970556D01*
X101650800Y-106970556D01*
X101650800Y-107100644D01*
X101676179Y-107228231D01*
X101725961Y-107348417D01*
X101798234Y-107456580D01*
X101890220Y-107548566D01*
X101998383Y-107620839D01*
X102118569Y-107670621D01*
X102246156Y-107696000D01*
X102376244Y-107696000D01*
X102503831Y-107670621D01*
X102624017Y-107620839D01*
X102732180Y-107548566D01*
X102824166Y-107456580D01*
X102896439Y-107348417D01*
X102946221Y-107228231D01*
X102971600Y-107100644D01*
X102971600Y-107072156D01*
X121564400Y-107072156D01*
X121564400Y-107202244D01*
X121589779Y-107329831D01*
X121639561Y-107450017D01*
X121711834Y-107558180D01*
X121803820Y-107650166D01*
X121911983Y-107722439D01*
X122032169Y-107772221D01*
X122159756Y-107797600D01*
X122289844Y-107797600D01*
X122417431Y-107772221D01*
X122537617Y-107722439D01*
X122645780Y-107650166D01*
X122737766Y-107558180D01*
X122810039Y-107450017D01*
X122859821Y-107329831D01*
X122885200Y-107202244D01*
X122885200Y-107072156D01*
X122859821Y-106944569D01*
X122810039Y-106824383D01*
X122737766Y-106716220D01*
X122645780Y-106624234D01*
X122537617Y-106551961D01*
X122505737Y-106538756D01*
X146874200Y-106538756D01*
X146874200Y-106668844D01*
X146899579Y-106796431D01*
X146949361Y-106916617D01*
X147021634Y-107024780D01*
X147113620Y-107116766D01*
X147221783Y-107189039D01*
X147341969Y-107238821D01*
X147469556Y-107264200D01*
X147599644Y-107264200D01*
X147727231Y-107238821D01*
X147847417Y-107189039D01*
X147955580Y-107116766D01*
X148047566Y-107024780D01*
X148119839Y-106916617D01*
X148169621Y-106796431D01*
X148195000Y-106668844D01*
X148195000Y-106538756D01*
X148169621Y-106411169D01*
X148119839Y-106290983D01*
X148047566Y-106182820D01*
X147955580Y-106090834D01*
X147847417Y-106018561D01*
X147727231Y-105968779D01*
X147599644Y-105943400D01*
X147469556Y-105943400D01*
X147341969Y-105968779D01*
X147221783Y-106018561D01*
X147113620Y-106090834D01*
X147021634Y-106182820D01*
X146949361Y-106290983D01*
X146899579Y-106411169D01*
X146874200Y-106538756D01*
X122505737Y-106538756D01*
X122417431Y-106502179D01*
X122289844Y-106476800D01*
X122159756Y-106476800D01*
X122032169Y-106502179D01*
X121911983Y-106551961D01*
X121803820Y-106624234D01*
X121711834Y-106716220D01*
X121639561Y-106824383D01*
X121589779Y-106944569D01*
X121564400Y-107072156D01*
X102971600Y-107072156D01*
X102971600Y-106970556D01*
X102946221Y-106842969D01*
X102896439Y-106722783D01*
X102824166Y-106614620D01*
X102732180Y-106522634D01*
X102624017Y-106450361D01*
X102503831Y-106400579D01*
X102376244Y-106375200D01*
X102246156Y-106375200D01*
X102118569Y-106400579D01*
X101998383Y-106450361D01*
X101890220Y-106522634D01*
X101798234Y-106614620D01*
X101725961Y-106722783D01*
X101676179Y-106842969D01*
X101650800Y-106970556D01*
X94750390Y-106970556D01*
X94797766Y-106923180D01*
X94870039Y-106815017D01*
X94919821Y-106694831D01*
X94945200Y-106567244D01*
X94945200Y-106437156D01*
X94919821Y-106309569D01*
X94870039Y-106189383D01*
X94797766Y-106081220D01*
X94705780Y-105989234D01*
X94631094Y-105939330D01*
X94651556Y-105943400D01*
X94781644Y-105943400D01*
X94909231Y-105918021D01*
X95029417Y-105868239D01*
X95137580Y-105795966D01*
X95229566Y-105703980D01*
X95301839Y-105595817D01*
X95351621Y-105475631D01*
X95377000Y-105348044D01*
X95377000Y-105217956D01*
X95351621Y-105090369D01*
X95301839Y-104970183D01*
X95229566Y-104862020D01*
X95137580Y-104770034D01*
X95029417Y-104697761D01*
X94909231Y-104647979D01*
X94781644Y-104622600D01*
X94651556Y-104622600D01*
X94523969Y-104647979D01*
X94403783Y-104697761D01*
X94295620Y-104770034D01*
X94203634Y-104862020D01*
X94131361Y-104970183D01*
X94081579Y-105090369D01*
X94056200Y-105217956D01*
X94056200Y-105348044D01*
X94081579Y-105475631D01*
X94131361Y-105595817D01*
X94203634Y-105703980D01*
X94295620Y-105795966D01*
X94370306Y-105845870D01*
X94349844Y-105841800D01*
X94219756Y-105841800D01*
X94092169Y-105867179D01*
X93971983Y-105916961D01*
X93863820Y-105989234D01*
X93771834Y-106081220D01*
X93699561Y-106189383D01*
X93649779Y-106309569D01*
X93624400Y-106437156D01*
X90276512Y-106437156D01*
X90343159Y-106382461D01*
X90496990Y-106195017D01*
X90611297Y-105981164D01*
X90681687Y-105749119D01*
X90705455Y-105507801D01*
X90681687Y-105266483D01*
X90611297Y-105034438D01*
X90496990Y-104820585D01*
X90343159Y-104633141D01*
X90155715Y-104479310D01*
X89941862Y-104365003D01*
X89709817Y-104294613D01*
X89528971Y-104276801D01*
X89408027Y-104276801D01*
X89227181Y-104294613D01*
X88995136Y-104365003D01*
X88781283Y-104479310D01*
X88593839Y-104633141D01*
X88440008Y-104820585D01*
X88325701Y-105034438D01*
X88255311Y-105266483D01*
X88231543Y-105507801D01*
X85445200Y-105507801D01*
X85445200Y-102967801D01*
X88231543Y-102967801D01*
X88255311Y-103209119D01*
X88325701Y-103441164D01*
X88440008Y-103655017D01*
X88593839Y-103842461D01*
X88781283Y-103996292D01*
X88995136Y-104110599D01*
X89227181Y-104180989D01*
X89408027Y-104198801D01*
X89528971Y-104198801D01*
X89709817Y-104180989D01*
X89941862Y-104110599D01*
X90155715Y-103996292D01*
X90338412Y-103846356D01*
X108204000Y-103846356D01*
X108204000Y-103976444D01*
X108229379Y-104104031D01*
X108279161Y-104224217D01*
X108351434Y-104332380D01*
X108443420Y-104424366D01*
X108551583Y-104496639D01*
X108671769Y-104546421D01*
X108799356Y-104571800D01*
X108929444Y-104571800D01*
X109057031Y-104546421D01*
X109177217Y-104496639D01*
X109285380Y-104424366D01*
X109377366Y-104332380D01*
X109449639Y-104224217D01*
X109496221Y-104111756D01*
X110845600Y-104111756D01*
X110845600Y-104241844D01*
X110870979Y-104369431D01*
X110920761Y-104489617D01*
X110993034Y-104597780D01*
X111085020Y-104689766D01*
X111193183Y-104762039D01*
X111313369Y-104811821D01*
X111440956Y-104837200D01*
X111571044Y-104837200D01*
X111698631Y-104811821D01*
X111818817Y-104762039D01*
X111926980Y-104689766D01*
X112018966Y-104597780D01*
X112021253Y-104594356D01*
X119456200Y-104594356D01*
X119456200Y-104724444D01*
X119481579Y-104852031D01*
X119531361Y-104972217D01*
X119603634Y-105080380D01*
X119695620Y-105172366D01*
X119803783Y-105244639D01*
X119923969Y-105294421D01*
X120051556Y-105319800D01*
X120181644Y-105319800D01*
X120309231Y-105294421D01*
X120429417Y-105244639D01*
X120537580Y-105172366D01*
X120629566Y-105080380D01*
X120701839Y-104972217D01*
X120751621Y-104852031D01*
X120762456Y-104797556D01*
X127838200Y-104797556D01*
X127838200Y-104927644D01*
X127863579Y-105055231D01*
X127913361Y-105175417D01*
X127985634Y-105283580D01*
X128077620Y-105375566D01*
X128185783Y-105447839D01*
X128305969Y-105497621D01*
X128433556Y-105523000D01*
X128563644Y-105523000D01*
X128691231Y-105497621D01*
X128811417Y-105447839D01*
X128919580Y-105375566D01*
X129011566Y-105283580D01*
X129083839Y-105175417D01*
X129133621Y-105055231D01*
X129159000Y-104927644D01*
X129159000Y-104886456D01*
X135407400Y-104886456D01*
X135407400Y-105016544D01*
X135432779Y-105144131D01*
X135482561Y-105264317D01*
X135554834Y-105372480D01*
X135646820Y-105464466D01*
X135754983Y-105536739D01*
X135875169Y-105586521D01*
X136002756Y-105611900D01*
X136132844Y-105611900D01*
X136260431Y-105586521D01*
X136380617Y-105536739D01*
X136488780Y-105464466D01*
X136580766Y-105372480D01*
X136653039Y-105264317D01*
X136702821Y-105144131D01*
X136728200Y-105016544D01*
X136728200Y-104886456D01*
X136702821Y-104758869D01*
X136653039Y-104638683D01*
X136580766Y-104530520D01*
X136488780Y-104438534D01*
X136380617Y-104366261D01*
X136260431Y-104316479D01*
X136132844Y-104291100D01*
X136002756Y-104291100D01*
X135875169Y-104316479D01*
X135754983Y-104366261D01*
X135646820Y-104438534D01*
X135554834Y-104530520D01*
X135482561Y-104638683D01*
X135432779Y-104758869D01*
X135407400Y-104886456D01*
X129159000Y-104886456D01*
X129159000Y-104797556D01*
X129133621Y-104669969D01*
X129083839Y-104549783D01*
X129011566Y-104441620D01*
X128919580Y-104349634D01*
X128811417Y-104277361D01*
X128691231Y-104227579D01*
X128563644Y-104202200D01*
X128433556Y-104202200D01*
X128305969Y-104227579D01*
X128185783Y-104277361D01*
X128077620Y-104349634D01*
X127985634Y-104441620D01*
X127913361Y-104549783D01*
X127863579Y-104669969D01*
X127838200Y-104797556D01*
X120762456Y-104797556D01*
X120777000Y-104724444D01*
X120777000Y-104594356D01*
X120751621Y-104466769D01*
X120701839Y-104346583D01*
X120629566Y-104238420D01*
X120537580Y-104146434D01*
X120429417Y-104074161D01*
X120397537Y-104060956D01*
X144424400Y-104060956D01*
X144424400Y-104191044D01*
X144449779Y-104318631D01*
X144499561Y-104438817D01*
X144571834Y-104546980D01*
X144663820Y-104638966D01*
X144771983Y-104711239D01*
X144892169Y-104761021D01*
X145019756Y-104786400D01*
X145149844Y-104786400D01*
X145277431Y-104761021D01*
X145397617Y-104711239D01*
X145505780Y-104638966D01*
X145597766Y-104546980D01*
X145670039Y-104438817D01*
X145719821Y-104318631D01*
X145745200Y-104191044D01*
X145745200Y-104060956D01*
X145719821Y-103933369D01*
X145670039Y-103813183D01*
X145597766Y-103705020D01*
X145505780Y-103613034D01*
X145397617Y-103540761D01*
X145277431Y-103490979D01*
X145149844Y-103465600D01*
X145019756Y-103465600D01*
X144892169Y-103490979D01*
X144771983Y-103540761D01*
X144663820Y-103613034D01*
X144571834Y-103705020D01*
X144499561Y-103813183D01*
X144449779Y-103933369D01*
X144424400Y-104060956D01*
X120397537Y-104060956D01*
X120309231Y-104024379D01*
X120181644Y-103999000D01*
X120051556Y-103999000D01*
X119923969Y-104024379D01*
X119803783Y-104074161D01*
X119695620Y-104146434D01*
X119603634Y-104238420D01*
X119531361Y-104346583D01*
X119481579Y-104466769D01*
X119456200Y-104594356D01*
X112021253Y-104594356D01*
X112091239Y-104489617D01*
X112141021Y-104369431D01*
X112166400Y-104241844D01*
X112166400Y-104111756D01*
X112141021Y-103984169D01*
X112091239Y-103863983D01*
X112018966Y-103755820D01*
X111926980Y-103663834D01*
X111818817Y-103591561D01*
X111698631Y-103541779D01*
X111571044Y-103516400D01*
X111440956Y-103516400D01*
X111313369Y-103541779D01*
X111193183Y-103591561D01*
X111085020Y-103663834D01*
X110993034Y-103755820D01*
X110920761Y-103863983D01*
X110870979Y-103984169D01*
X110845600Y-104111756D01*
X109496221Y-104111756D01*
X109499421Y-104104031D01*
X109524800Y-103976444D01*
X109524800Y-103846356D01*
X109499421Y-103718769D01*
X109449639Y-103598583D01*
X109377366Y-103490420D01*
X109285380Y-103398434D01*
X109177217Y-103326161D01*
X109057031Y-103276379D01*
X108929444Y-103251000D01*
X108799356Y-103251000D01*
X108671769Y-103276379D01*
X108551583Y-103326161D01*
X108443420Y-103398434D01*
X108351434Y-103490420D01*
X108279161Y-103598583D01*
X108229379Y-103718769D01*
X108204000Y-103846356D01*
X90338412Y-103846356D01*
X90343159Y-103842461D01*
X90496990Y-103655017D01*
X90611297Y-103441164D01*
X90681687Y-103209119D01*
X90705455Y-102967801D01*
X90699423Y-102906556D01*
X160096200Y-102906556D01*
X160096200Y-103036644D01*
X160121579Y-103164231D01*
X160171361Y-103284417D01*
X160243634Y-103392580D01*
X160335620Y-103484566D01*
X160443783Y-103556839D01*
X160563969Y-103606621D01*
X160691556Y-103632000D01*
X160821644Y-103632000D01*
X160949231Y-103606621D01*
X161069417Y-103556839D01*
X161177580Y-103484566D01*
X161269566Y-103392580D01*
X161341839Y-103284417D01*
X161391621Y-103164231D01*
X161417000Y-103036644D01*
X161417000Y-102906556D01*
X161391621Y-102778969D01*
X161341839Y-102658783D01*
X161269566Y-102550620D01*
X161177580Y-102458634D01*
X161069417Y-102386361D01*
X160949231Y-102336579D01*
X160877729Y-102322356D01*
X165557200Y-102322356D01*
X165557200Y-102452444D01*
X165582579Y-102580031D01*
X165632361Y-102700217D01*
X165704634Y-102808380D01*
X165796620Y-102900366D01*
X165904783Y-102972639D01*
X166024969Y-103022421D01*
X166152556Y-103047800D01*
X166282644Y-103047800D01*
X166410231Y-103022421D01*
X166530417Y-102972639D01*
X166638580Y-102900366D01*
X166730566Y-102808380D01*
X166802839Y-102700217D01*
X166852621Y-102580031D01*
X166878000Y-102452444D01*
X166878000Y-102322356D01*
X166852621Y-102194769D01*
X166802839Y-102074583D01*
X166730566Y-101966420D01*
X166638580Y-101874434D01*
X166530417Y-101802161D01*
X166410231Y-101752379D01*
X166282644Y-101727000D01*
X166152556Y-101727000D01*
X166024969Y-101752379D01*
X165904783Y-101802161D01*
X165796620Y-101874434D01*
X165704634Y-101966420D01*
X165632361Y-102074583D01*
X165582579Y-102194769D01*
X165557200Y-102322356D01*
X160877729Y-102322356D01*
X160821644Y-102311200D01*
X160691556Y-102311200D01*
X160563969Y-102336579D01*
X160443783Y-102386361D01*
X160335620Y-102458634D01*
X160243634Y-102550620D01*
X160171361Y-102658783D01*
X160121579Y-102778969D01*
X160096200Y-102906556D01*
X90699423Y-102906556D01*
X90681687Y-102726483D01*
X90611297Y-102494438D01*
X90496990Y-102280585D01*
X90343159Y-102093141D01*
X90155715Y-101939310D01*
X89941862Y-101825003D01*
X89709817Y-101754613D01*
X89528971Y-101736801D01*
X89408027Y-101736801D01*
X89227181Y-101754613D01*
X88995136Y-101825003D01*
X88781283Y-101939310D01*
X88593839Y-102093141D01*
X88440008Y-102280585D01*
X88325701Y-102494438D01*
X88255311Y-102726483D01*
X88231543Y-102967801D01*
X85445200Y-102967801D01*
X85445200Y-100427801D01*
X88231543Y-100427801D01*
X88255311Y-100669119D01*
X88325701Y-100901164D01*
X88440008Y-101115017D01*
X88593839Y-101302461D01*
X88781283Y-101456292D01*
X88995136Y-101570599D01*
X89227181Y-101640989D01*
X89408027Y-101658801D01*
X89528971Y-101658801D01*
X89709817Y-101640989D01*
X89941862Y-101570599D01*
X90155715Y-101456292D01*
X90343159Y-101302461D01*
X90496990Y-101115017D01*
X90611297Y-100901164D01*
X90681687Y-100669119D01*
X90682717Y-100658656D01*
X169418000Y-100658656D01*
X169418000Y-100788744D01*
X169443379Y-100916331D01*
X169493161Y-101036517D01*
X169565434Y-101144680D01*
X169657420Y-101236666D01*
X169765583Y-101308939D01*
X169885769Y-101358721D01*
X170013356Y-101384100D01*
X170143444Y-101384100D01*
X170271031Y-101358721D01*
X170391217Y-101308939D01*
X170499380Y-101236666D01*
X170591366Y-101144680D01*
X170663639Y-101036517D01*
X170713421Y-100916331D01*
X170738800Y-100788744D01*
X170738800Y-100658656D01*
X170713421Y-100531069D01*
X170663639Y-100410883D01*
X170591366Y-100302720D01*
X170499380Y-100210734D01*
X170391217Y-100138461D01*
X170271031Y-100088679D01*
X170143444Y-100063300D01*
X170013356Y-100063300D01*
X169885769Y-100088679D01*
X169765583Y-100138461D01*
X169657420Y-100210734D01*
X169565434Y-100302720D01*
X169493161Y-100410883D01*
X169443379Y-100531069D01*
X169418000Y-100658656D01*
X90682717Y-100658656D01*
X90705455Y-100427801D01*
X90681687Y-100186483D01*
X90611297Y-99954438D01*
X90553259Y-99845856D01*
X160045400Y-99845856D01*
X160045400Y-99975944D01*
X160070779Y-100103531D01*
X160120561Y-100223717D01*
X160192834Y-100331880D01*
X160284820Y-100423866D01*
X160392983Y-100496139D01*
X160513169Y-100545921D01*
X160640756Y-100571300D01*
X160770844Y-100571300D01*
X160898431Y-100545921D01*
X161018617Y-100496139D01*
X161126780Y-100423866D01*
X161218766Y-100331880D01*
X161291039Y-100223717D01*
X161340821Y-100103531D01*
X161366200Y-99975944D01*
X161366200Y-99845856D01*
X161340821Y-99718269D01*
X161291039Y-99598083D01*
X161218766Y-99489920D01*
X161126780Y-99397934D01*
X161018617Y-99325661D01*
X160898431Y-99275879D01*
X160770844Y-99250500D01*
X160640756Y-99250500D01*
X160513169Y-99275879D01*
X160392983Y-99325661D01*
X160284820Y-99397934D01*
X160192834Y-99489920D01*
X160120561Y-99598083D01*
X160070779Y-99718269D01*
X160045400Y-99845856D01*
X90553259Y-99845856D01*
X90496990Y-99740585D01*
X90343159Y-99553141D01*
X90155715Y-99399310D01*
X89941862Y-99285003D01*
X89709817Y-99214613D01*
X89528971Y-99196801D01*
X89408027Y-99196801D01*
X89227181Y-99214613D01*
X88995136Y-99285003D01*
X88781283Y-99399310D01*
X88593839Y-99553141D01*
X88440008Y-99740585D01*
X88325701Y-99954438D01*
X88255311Y-100186483D01*
X88231543Y-100427801D01*
X85445200Y-100427801D01*
X85445200Y-97887801D01*
X88231543Y-97887801D01*
X88255311Y-98129119D01*
X88325701Y-98361164D01*
X88440008Y-98575017D01*
X88593839Y-98762461D01*
X88781283Y-98916292D01*
X88995136Y-99030599D01*
X89227181Y-99100989D01*
X89408027Y-99118801D01*
X89528971Y-99118801D01*
X89709817Y-99100989D01*
X89941862Y-99030599D01*
X90155715Y-98916292D01*
X90343159Y-98762461D01*
X90496990Y-98575017D01*
X90503329Y-98563156D01*
X102514400Y-98563156D01*
X102514400Y-98693244D01*
X102539779Y-98820831D01*
X102589561Y-98941017D01*
X102661834Y-99049180D01*
X102753820Y-99141166D01*
X102861983Y-99213439D01*
X102982169Y-99263221D01*
X103109756Y-99288600D01*
X103239844Y-99288600D01*
X103367431Y-99263221D01*
X103487617Y-99213439D01*
X103595780Y-99141166D01*
X103687766Y-99049180D01*
X103760039Y-98941017D01*
X103809821Y-98820831D01*
X103835200Y-98693244D01*
X103835200Y-98563156D01*
X103809821Y-98435569D01*
X103760039Y-98315383D01*
X103687766Y-98207220D01*
X103595780Y-98115234D01*
X103487617Y-98042961D01*
X103367431Y-97993179D01*
X103239844Y-97967800D01*
X103109756Y-97967800D01*
X102982169Y-97993179D01*
X102861983Y-98042961D01*
X102753820Y-98115234D01*
X102661834Y-98207220D01*
X102589561Y-98315383D01*
X102539779Y-98435569D01*
X102514400Y-98563156D01*
X90503329Y-98563156D01*
X90611297Y-98361164D01*
X90681687Y-98129119D01*
X90705455Y-97887801D01*
X90681687Y-97646483D01*
X90611297Y-97414438D01*
X90496990Y-97200585D01*
X90343159Y-97013141D01*
X90155715Y-96859310D01*
X89993223Y-96772456D01*
X104305100Y-96772456D01*
X104305100Y-96902544D01*
X104330479Y-97030131D01*
X104380261Y-97150317D01*
X104452534Y-97258480D01*
X104544520Y-97350466D01*
X104652683Y-97422739D01*
X104772869Y-97472521D01*
X104900456Y-97497900D01*
X105030544Y-97497900D01*
X105158131Y-97472521D01*
X105278317Y-97422739D01*
X105386480Y-97350466D01*
X105478466Y-97258480D01*
X105550739Y-97150317D01*
X105600521Y-97030131D01*
X105625900Y-96902544D01*
X105625900Y-96772456D01*
X105600521Y-96644869D01*
X105550739Y-96524683D01*
X105478466Y-96416520D01*
X105386480Y-96324534D01*
X105278317Y-96252261D01*
X105158131Y-96202479D01*
X105030544Y-96177100D01*
X104900456Y-96177100D01*
X104772869Y-96202479D01*
X104652683Y-96252261D01*
X104544520Y-96324534D01*
X104452534Y-96416520D01*
X104380261Y-96524683D01*
X104330479Y-96644869D01*
X104305100Y-96772456D01*
X89993223Y-96772456D01*
X89941862Y-96745003D01*
X89709817Y-96674613D01*
X89528971Y-96656801D01*
X89408027Y-96656801D01*
X89227181Y-96674613D01*
X88995136Y-96745003D01*
X88781283Y-96859310D01*
X88593839Y-97013141D01*
X88440008Y-97200585D01*
X88325701Y-97414438D01*
X88255311Y-97646483D01*
X88231543Y-97887801D01*
X85445200Y-97887801D01*
X85445200Y-93254556D01*
X133273800Y-93254556D01*
X133273800Y-93384644D01*
X133299179Y-93512231D01*
X133348961Y-93632417D01*
X133421234Y-93740580D01*
X133513220Y-93832566D01*
X133621383Y-93904839D01*
X133741569Y-93954621D01*
X133869156Y-93980000D01*
X133999244Y-93980000D01*
X134126831Y-93954621D01*
X134247017Y-93904839D01*
X134355180Y-93832566D01*
X134447166Y-93740580D01*
X134519439Y-93632417D01*
X134569221Y-93512231D01*
X134594600Y-93384644D01*
X134594600Y-93254556D01*
X134569221Y-93126969D01*
X134519439Y-93006783D01*
X134447166Y-92898620D01*
X134355180Y-92806634D01*
X134247017Y-92734361D01*
X134126831Y-92684579D01*
X133999244Y-92659200D01*
X133869156Y-92659200D01*
X133741569Y-92684579D01*
X133621383Y-92734361D01*
X133513220Y-92806634D01*
X133421234Y-92898620D01*
X133348961Y-93006783D01*
X133299179Y-93126969D01*
X133273800Y-93254556D01*
X85445200Y-93254556D01*
X85445200Y-92543356D01*
X160705800Y-92543356D01*
X160705800Y-92673444D01*
X160731179Y-92801031D01*
X160780961Y-92921217D01*
X160853234Y-93029380D01*
X160945220Y-93121366D01*
X161053383Y-93193639D01*
X161173569Y-93243421D01*
X161301156Y-93268800D01*
X161431244Y-93268800D01*
X161558831Y-93243421D01*
X161679017Y-93193639D01*
X161787180Y-93121366D01*
X161879166Y-93029380D01*
X161951439Y-92921217D01*
X162001221Y-92801031D01*
X162026600Y-92673444D01*
X162026600Y-92543356D01*
X162001221Y-92415769D01*
X161951439Y-92295583D01*
X161913335Y-92238556D01*
X169976800Y-92238556D01*
X169976800Y-92368644D01*
X170002179Y-92496231D01*
X170051961Y-92616417D01*
X170124234Y-92724580D01*
X170216220Y-92816566D01*
X170324383Y-92888839D01*
X170444569Y-92938621D01*
X170572156Y-92964000D01*
X170702244Y-92964000D01*
X170829831Y-92938621D01*
X170950017Y-92888839D01*
X171058180Y-92816566D01*
X171150166Y-92724580D01*
X171203369Y-92644956D01*
X180238400Y-92644956D01*
X180238400Y-92775044D01*
X180263779Y-92902631D01*
X180313561Y-93022817D01*
X180316690Y-93027500D01*
X180313561Y-93032183D01*
X180263779Y-93152369D01*
X180238400Y-93279956D01*
X180238400Y-93410044D01*
X180263779Y-93537631D01*
X180313561Y-93657817D01*
X180385834Y-93765980D01*
X180477820Y-93857966D01*
X180585983Y-93930239D01*
X180706169Y-93980021D01*
X180833756Y-94005400D01*
X180963844Y-94005400D01*
X181091431Y-93980021D01*
X181211617Y-93930239D01*
X181216300Y-93927110D01*
X181220983Y-93930239D01*
X181341169Y-93980021D01*
X181468756Y-94005400D01*
X181598844Y-94005400D01*
X181726431Y-93980021D01*
X181846617Y-93930239D01*
X181851300Y-93927110D01*
X181855983Y-93930239D01*
X181976169Y-93980021D01*
X182103756Y-94005400D01*
X182233844Y-94005400D01*
X182361431Y-93980021D01*
X182481617Y-93930239D01*
X182589780Y-93857966D01*
X182681766Y-93765980D01*
X182754039Y-93657817D01*
X182803821Y-93537631D01*
X182829200Y-93410044D01*
X182829200Y-93279956D01*
X182803821Y-93152369D01*
X182754039Y-93032183D01*
X182750910Y-93027500D01*
X182754039Y-93022817D01*
X182803821Y-92902631D01*
X182829200Y-92775044D01*
X182829200Y-92644956D01*
X182803821Y-92517369D01*
X182754039Y-92397183D01*
X182681766Y-92289020D01*
X182589780Y-92197034D01*
X182481617Y-92124761D01*
X182361431Y-92074979D01*
X182233844Y-92049600D01*
X182103756Y-92049600D01*
X181976169Y-92074979D01*
X181855983Y-92124761D01*
X181851300Y-92127890D01*
X181846617Y-92124761D01*
X181726431Y-92074979D01*
X181598844Y-92049600D01*
X181468756Y-92049600D01*
X181341169Y-92074979D01*
X181220983Y-92124761D01*
X181216300Y-92127890D01*
X181211617Y-92124761D01*
X181091431Y-92074979D01*
X180963844Y-92049600D01*
X180833756Y-92049600D01*
X180706169Y-92074979D01*
X180585983Y-92124761D01*
X180477820Y-92197034D01*
X180385834Y-92289020D01*
X180313561Y-92397183D01*
X180263779Y-92517369D01*
X180238400Y-92644956D01*
X171203369Y-92644956D01*
X171222439Y-92616417D01*
X171272221Y-92496231D01*
X171297600Y-92368644D01*
X171297600Y-92238556D01*
X171272221Y-92110969D01*
X171222439Y-91990783D01*
X171150166Y-91882620D01*
X171058180Y-91790634D01*
X170950017Y-91718361D01*
X170829831Y-91668579D01*
X170702244Y-91643200D01*
X170572156Y-91643200D01*
X170444569Y-91668579D01*
X170324383Y-91718361D01*
X170216220Y-91790634D01*
X170124234Y-91882620D01*
X170051961Y-91990783D01*
X170002179Y-92110969D01*
X169976800Y-92238556D01*
X161913335Y-92238556D01*
X161879166Y-92187420D01*
X161787180Y-92095434D01*
X161679017Y-92023161D01*
X161558831Y-91973379D01*
X161431244Y-91948000D01*
X161301156Y-91948000D01*
X161173569Y-91973379D01*
X161053383Y-92023161D01*
X160945220Y-92095434D01*
X160853234Y-92187420D01*
X160780961Y-92295583D01*
X160731179Y-92415769D01*
X160705800Y-92543356D01*
X85445200Y-92543356D01*
X85445200Y-91123556D01*
X94361000Y-91123556D01*
X94361000Y-91253644D01*
X94386379Y-91381231D01*
X94436161Y-91501417D01*
X94508434Y-91609580D01*
X94600420Y-91701566D01*
X94708583Y-91773839D01*
X94828769Y-91823621D01*
X94956356Y-91849000D01*
X95086444Y-91849000D01*
X95214031Y-91823621D01*
X95334217Y-91773839D01*
X95442380Y-91701566D01*
X95534366Y-91609580D01*
X95589306Y-91527356D01*
X108534200Y-91527356D01*
X108534200Y-91657444D01*
X108559579Y-91785031D01*
X108609361Y-91905217D01*
X108681634Y-92013380D01*
X108773620Y-92105366D01*
X108881783Y-92177639D01*
X109001969Y-92227421D01*
X109129556Y-92252800D01*
X109259644Y-92252800D01*
X109387231Y-92227421D01*
X109507417Y-92177639D01*
X109615580Y-92105366D01*
X109707566Y-92013380D01*
X109779839Y-91905217D01*
X109829621Y-91785031D01*
X109855000Y-91657444D01*
X109855000Y-91527356D01*
X109829621Y-91399769D01*
X109779839Y-91279583D01*
X109707566Y-91171420D01*
X109615580Y-91079434D01*
X109507417Y-91007161D01*
X109387231Y-90957379D01*
X109259644Y-90932000D01*
X109129556Y-90932000D01*
X109001969Y-90957379D01*
X108881783Y-91007161D01*
X108773620Y-91079434D01*
X108681634Y-91171420D01*
X108609361Y-91279583D01*
X108559579Y-91399769D01*
X108534200Y-91527356D01*
X95589306Y-91527356D01*
X95606639Y-91501417D01*
X95656421Y-91381231D01*
X95681800Y-91253644D01*
X95681800Y-91123556D01*
X95656421Y-90995969D01*
X95606639Y-90875783D01*
X95534366Y-90767620D01*
X95442380Y-90675634D01*
X95334217Y-90603361D01*
X95214031Y-90553579D01*
X95086444Y-90528200D01*
X94956356Y-90528200D01*
X94828769Y-90553579D01*
X94708583Y-90603361D01*
X94600420Y-90675634D01*
X94508434Y-90767620D01*
X94436161Y-90875783D01*
X94386379Y-90995969D01*
X94361000Y-91123556D01*
X85445200Y-91123556D01*
X85445200Y-89546156D01*
X150509000Y-89546156D01*
X150509000Y-89676244D01*
X150534379Y-89803831D01*
X150584161Y-89924017D01*
X150656434Y-90032180D01*
X150748420Y-90124166D01*
X150856583Y-90196439D01*
X150976769Y-90246221D01*
X151104356Y-90271600D01*
X151234444Y-90271600D01*
X151362031Y-90246221D01*
X151457792Y-90206556D01*
X156972000Y-90206556D01*
X156972000Y-90336644D01*
X156997379Y-90464231D01*
X157047161Y-90584417D01*
X157119434Y-90692580D01*
X157211420Y-90784566D01*
X157319583Y-90856839D01*
X157439769Y-90906621D01*
X157567356Y-90932000D01*
X157697444Y-90932000D01*
X157825031Y-90906621D01*
X157945217Y-90856839D01*
X158053380Y-90784566D01*
X158145366Y-90692580D01*
X158217639Y-90584417D01*
X158267421Y-90464231D01*
X158292800Y-90336644D01*
X158292800Y-90206556D01*
X158267421Y-90078969D01*
X158217639Y-89958783D01*
X158145366Y-89850620D01*
X158053380Y-89758634D01*
X157945217Y-89686361D01*
X157825031Y-89636579D01*
X157697444Y-89611200D01*
X157567356Y-89611200D01*
X157439769Y-89636579D01*
X157319583Y-89686361D01*
X157211420Y-89758634D01*
X157119434Y-89850620D01*
X157047161Y-89958783D01*
X156997379Y-90078969D01*
X156972000Y-90206556D01*
X151457792Y-90206556D01*
X151482217Y-90196439D01*
X151590380Y-90124166D01*
X151682366Y-90032180D01*
X151754639Y-89924017D01*
X151804421Y-89803831D01*
X151829800Y-89676244D01*
X151829800Y-89546156D01*
X151804421Y-89418569D01*
X151754639Y-89298383D01*
X151682366Y-89190220D01*
X151590380Y-89098234D01*
X151482217Y-89025961D01*
X151362031Y-88976179D01*
X151234444Y-88950800D01*
X151104356Y-88950800D01*
X150976769Y-88976179D01*
X150856583Y-89025961D01*
X150748420Y-89098234D01*
X150656434Y-89190220D01*
X150584161Y-89298383D01*
X150534379Y-89418569D01*
X150509000Y-89546156D01*
X85445200Y-89546156D01*
X85445200Y-87269583D01*
X87013400Y-87269583D01*
X87013400Y-87541617D01*
X87066471Y-87808423D01*
X87170574Y-88059749D01*
X87321707Y-88285936D01*
X87514064Y-88478293D01*
X87740251Y-88629426D01*
X87991577Y-88733529D01*
X88258383Y-88786600D01*
X88530417Y-88786600D01*
X88797223Y-88733529D01*
X89048549Y-88629426D01*
X89274736Y-88478293D01*
X89467093Y-88285936D01*
X89618226Y-88059749D01*
X89722329Y-87808423D01*
X89775400Y-87541617D01*
X89775400Y-87269583D01*
X93513400Y-87269583D01*
X93513400Y-87541617D01*
X93566471Y-87808423D01*
X93670574Y-88059749D01*
X93821707Y-88285936D01*
X94014064Y-88478293D01*
X94240251Y-88629426D01*
X94491577Y-88733529D01*
X94758383Y-88786600D01*
X95030417Y-88786600D01*
X95297223Y-88733529D01*
X95548549Y-88629426D01*
X95774736Y-88478293D01*
X95967093Y-88285936D01*
X96118226Y-88059749D01*
X96127998Y-88036156D01*
X110185200Y-88036156D01*
X110185200Y-88166244D01*
X110210579Y-88293831D01*
X110260361Y-88414017D01*
X110332634Y-88522180D01*
X110424620Y-88614166D01*
X110532783Y-88686439D01*
X110652969Y-88736221D01*
X110780556Y-88761600D01*
X110910644Y-88761600D01*
X111038231Y-88736221D01*
X111158417Y-88686439D01*
X111266580Y-88614166D01*
X111358566Y-88522180D01*
X111430839Y-88414017D01*
X111480621Y-88293831D01*
X111506000Y-88166244D01*
X111506000Y-88036156D01*
X111480621Y-87908569D01*
X111430839Y-87788383D01*
X111358566Y-87680220D01*
X111266580Y-87588234D01*
X111158417Y-87515961D01*
X111038231Y-87466179D01*
X110910644Y-87440800D01*
X110780556Y-87440800D01*
X110652969Y-87466179D01*
X110532783Y-87515961D01*
X110424620Y-87588234D01*
X110332634Y-87680220D01*
X110260361Y-87788383D01*
X110210579Y-87908569D01*
X110185200Y-88036156D01*
X96127998Y-88036156D01*
X96222329Y-87808423D01*
X96275400Y-87541617D01*
X96275400Y-87269583D01*
X96222329Y-87002777D01*
X96172840Y-86883300D01*
X174124857Y-86883300D01*
X174124857Y-90383300D01*
X174132213Y-90457989D01*
X174153999Y-90529808D01*
X174189378Y-90595996D01*
X174236989Y-90654011D01*
X174295004Y-90701622D01*
X174361192Y-90737001D01*
X174433011Y-90758787D01*
X174507700Y-90766143D01*
X178007700Y-90766143D01*
X178082389Y-90758787D01*
X178154208Y-90737001D01*
X178220396Y-90701622D01*
X178278411Y-90654011D01*
X178326022Y-90595996D01*
X178361401Y-90529808D01*
X178383187Y-90457989D01*
X178390543Y-90383300D01*
X178390543Y-87633300D01*
X180374857Y-87633300D01*
X180374857Y-89633300D01*
X180396624Y-89854307D01*
X180461090Y-90066820D01*
X180565775Y-90262674D01*
X180706659Y-90434341D01*
X180878326Y-90575225D01*
X181074180Y-90679910D01*
X181286693Y-90744376D01*
X181507700Y-90766143D01*
X183007700Y-90766143D01*
X183228707Y-90744376D01*
X183441220Y-90679910D01*
X183637074Y-90575225D01*
X183808741Y-90434341D01*
X183949625Y-90262674D01*
X184054310Y-90066820D01*
X184118776Y-89854307D01*
X184140543Y-89633300D01*
X184140543Y-87633300D01*
X184118776Y-87412293D01*
X184054310Y-87199780D01*
X183949625Y-87003926D01*
X183808741Y-86832259D01*
X183637074Y-86691375D01*
X183441220Y-86586690D01*
X183228707Y-86522224D01*
X183007700Y-86500457D01*
X181507700Y-86500457D01*
X181286693Y-86522224D01*
X181074180Y-86586690D01*
X180878326Y-86691375D01*
X180706659Y-86832259D01*
X180565775Y-87003926D01*
X180461090Y-87199780D01*
X180396624Y-87412293D01*
X180374857Y-87633300D01*
X178390543Y-87633300D01*
X178390543Y-86883300D01*
X178383187Y-86808611D01*
X178361401Y-86736792D01*
X178326022Y-86670604D01*
X178278411Y-86612589D01*
X178220396Y-86564978D01*
X178154208Y-86529599D01*
X178082389Y-86507813D01*
X178007700Y-86500457D01*
X174507700Y-86500457D01*
X174433011Y-86507813D01*
X174361192Y-86529599D01*
X174295004Y-86564978D01*
X174236989Y-86612589D01*
X174189378Y-86670604D01*
X174153999Y-86736792D01*
X174132213Y-86808611D01*
X174124857Y-86883300D01*
X96172840Y-86883300D01*
X96118226Y-86751451D01*
X95967093Y-86525264D01*
X95774736Y-86332907D01*
X95548549Y-86181774D01*
X95297223Y-86077671D01*
X95030417Y-86024600D01*
X94758383Y-86024600D01*
X94491577Y-86077671D01*
X94240251Y-86181774D01*
X94014064Y-86332907D01*
X93821707Y-86525264D01*
X93670574Y-86751451D01*
X93566471Y-87002777D01*
X93513400Y-87269583D01*
X89775400Y-87269583D01*
X89722329Y-87002777D01*
X89618226Y-86751451D01*
X89467093Y-86525264D01*
X89274736Y-86332907D01*
X89048549Y-86181774D01*
X88797223Y-86077671D01*
X88530417Y-86024600D01*
X88258383Y-86024600D01*
X87991577Y-86077671D01*
X87740251Y-86181774D01*
X87514064Y-86332907D01*
X87321707Y-86525264D01*
X87170574Y-86751451D01*
X87066471Y-87002777D01*
X87013400Y-87269583D01*
X85445200Y-87269583D01*
X85445200Y-83641956D01*
X101625400Y-83641956D01*
X101625400Y-83772044D01*
X101650779Y-83899631D01*
X101700561Y-84019817D01*
X101772834Y-84127980D01*
X101864820Y-84219966D01*
X101972983Y-84292239D01*
X102093169Y-84342021D01*
X102220756Y-84367400D01*
X102350844Y-84367400D01*
X102478431Y-84342021D01*
X102598617Y-84292239D01*
X102706780Y-84219966D01*
X102798766Y-84127980D01*
X102871039Y-84019817D01*
X102886058Y-83983556D01*
X141681200Y-83983556D01*
X141681200Y-84113644D01*
X141706579Y-84241231D01*
X141756361Y-84361417D01*
X141828634Y-84469580D01*
X141920620Y-84561566D01*
X142028783Y-84633839D01*
X142148969Y-84683621D01*
X142276556Y-84709000D01*
X142406644Y-84709000D01*
X142534231Y-84683621D01*
X142654417Y-84633839D01*
X142762580Y-84561566D01*
X142854566Y-84469580D01*
X142926839Y-84361417D01*
X142976621Y-84241231D01*
X142987456Y-84186756D01*
X147523200Y-84186756D01*
X147523200Y-84316844D01*
X147548579Y-84444431D01*
X147598361Y-84564617D01*
X147601490Y-84569300D01*
X147598361Y-84573983D01*
X147548579Y-84694169D01*
X147523200Y-84821756D01*
X147523200Y-84951844D01*
X147548579Y-85079431D01*
X147598361Y-85199617D01*
X147601490Y-85204300D01*
X147598361Y-85208983D01*
X147548579Y-85329169D01*
X147523200Y-85456756D01*
X147523200Y-85586844D01*
X147548579Y-85714431D01*
X147598361Y-85834617D01*
X147670634Y-85942780D01*
X147762620Y-86034766D01*
X147870783Y-86107039D01*
X147990969Y-86156821D01*
X148118556Y-86182200D01*
X148248644Y-86182200D01*
X148376231Y-86156821D01*
X148496417Y-86107039D01*
X148501100Y-86103910D01*
X148505783Y-86107039D01*
X148625969Y-86156821D01*
X148753556Y-86182200D01*
X148883644Y-86182200D01*
X149011231Y-86156821D01*
X149131417Y-86107039D01*
X149239580Y-86034766D01*
X149331566Y-85942780D01*
X149403839Y-85834617D01*
X149453621Y-85714431D01*
X149479000Y-85586844D01*
X149479000Y-85456756D01*
X149453621Y-85329169D01*
X149403839Y-85208983D01*
X149400710Y-85204300D01*
X149403839Y-85199617D01*
X149453621Y-85079431D01*
X149479000Y-84951844D01*
X149479000Y-84821756D01*
X149453621Y-84694169D01*
X149403839Y-84573983D01*
X149400710Y-84569300D01*
X149403839Y-84564617D01*
X149453621Y-84444431D01*
X149479000Y-84316844D01*
X149479000Y-84186756D01*
X149453621Y-84059169D01*
X149403839Y-83938983D01*
X149331566Y-83830820D01*
X149239580Y-83738834D01*
X149131417Y-83666561D01*
X149011231Y-83616779D01*
X148883644Y-83591400D01*
X148753556Y-83591400D01*
X148625969Y-83616779D01*
X148505783Y-83666561D01*
X148501100Y-83669690D01*
X148496417Y-83666561D01*
X148376231Y-83616779D01*
X148248644Y-83591400D01*
X148118556Y-83591400D01*
X147990969Y-83616779D01*
X147870783Y-83666561D01*
X147762620Y-83738834D01*
X147670634Y-83830820D01*
X147598361Y-83938983D01*
X147548579Y-84059169D01*
X147523200Y-84186756D01*
X142987456Y-84186756D01*
X143002000Y-84113644D01*
X143002000Y-83983556D01*
X142976621Y-83855969D01*
X142926839Y-83735783D01*
X142854566Y-83627620D01*
X142762580Y-83535634D01*
X142654417Y-83463361D01*
X142534231Y-83413579D01*
X142406644Y-83388200D01*
X142276556Y-83388200D01*
X142148969Y-83413579D01*
X142028783Y-83463361D01*
X141920620Y-83535634D01*
X141828634Y-83627620D01*
X141756361Y-83735783D01*
X141706579Y-83855969D01*
X141681200Y-83983556D01*
X102886058Y-83983556D01*
X102920821Y-83899631D01*
X102946200Y-83772044D01*
X102946200Y-83641956D01*
X102920821Y-83514369D01*
X102871039Y-83394183D01*
X102798766Y-83286020D01*
X102706780Y-83194034D01*
X102598617Y-83121761D01*
X102478431Y-83071979D01*
X102409664Y-83058300D01*
X177124857Y-83058300D01*
X177124857Y-84808300D01*
X177149026Y-85053693D01*
X177220605Y-85289656D01*
X177336842Y-85507120D01*
X177493271Y-85697729D01*
X177683880Y-85854158D01*
X177901344Y-85970395D01*
X178137307Y-86041974D01*
X178382700Y-86066143D01*
X180132700Y-86066143D01*
X180378093Y-86041974D01*
X180614056Y-85970395D01*
X180831520Y-85854158D01*
X181022129Y-85697729D01*
X181178558Y-85507120D01*
X181294795Y-85289656D01*
X181366374Y-85053693D01*
X181390543Y-84808300D01*
X181390543Y-83058300D01*
X181366374Y-82812907D01*
X181294795Y-82576944D01*
X181178558Y-82359480D01*
X181022129Y-82168871D01*
X180831520Y-82012442D01*
X180614056Y-81896205D01*
X180378093Y-81824626D01*
X180132700Y-81800457D01*
X178382700Y-81800457D01*
X178137307Y-81824626D01*
X177901344Y-81896205D01*
X177683880Y-82012442D01*
X177493271Y-82168871D01*
X177336842Y-82359480D01*
X177220605Y-82576944D01*
X177149026Y-82812907D01*
X177124857Y-83058300D01*
X102409664Y-83058300D01*
X102350844Y-83046600D01*
X102220756Y-83046600D01*
X102093169Y-83071979D01*
X101972983Y-83121761D01*
X101864820Y-83194034D01*
X101772834Y-83286020D01*
X101700561Y-83394183D01*
X101650779Y-83514369D01*
X101625400Y-83641956D01*
X85445200Y-83641956D01*
X85445200Y-77479801D01*
X86738200Y-77479801D01*
X86738200Y-78145799D01*
X86868130Y-78799001D01*
X87122997Y-79414304D01*
X87493006Y-79968062D01*
X87963938Y-80438994D01*
X88517696Y-80809003D01*
X89132999Y-81063870D01*
X89786201Y-81193800D01*
X90452199Y-81193800D01*
X90856618Y-81113356D01*
X151536400Y-81113356D01*
X151536400Y-81243444D01*
X151561779Y-81371031D01*
X151611561Y-81491217D01*
X151614690Y-81495900D01*
X151611561Y-81500583D01*
X151561779Y-81620769D01*
X151536400Y-81748356D01*
X151536400Y-81878444D01*
X151561779Y-82006031D01*
X151611561Y-82126217D01*
X151683834Y-82234380D01*
X151775820Y-82326366D01*
X151883983Y-82398639D01*
X152004169Y-82448421D01*
X152131756Y-82473800D01*
X152261844Y-82473800D01*
X152389431Y-82448421D01*
X152509617Y-82398639D01*
X152514300Y-82395510D01*
X152518983Y-82398639D01*
X152639169Y-82448421D01*
X152766756Y-82473800D01*
X152896844Y-82473800D01*
X153024431Y-82448421D01*
X153144617Y-82398639D01*
X153149300Y-82395510D01*
X153153983Y-82398639D01*
X153274169Y-82448421D01*
X153401756Y-82473800D01*
X153531844Y-82473800D01*
X153659431Y-82448421D01*
X153779617Y-82398639D01*
X153887780Y-82326366D01*
X153979766Y-82234380D01*
X154052039Y-82126217D01*
X154101821Y-82006031D01*
X154127200Y-81878444D01*
X154127200Y-81849956D01*
X170053000Y-81849956D01*
X170053000Y-81980044D01*
X170078379Y-82107631D01*
X170128161Y-82227817D01*
X170200434Y-82335980D01*
X170292420Y-82427966D01*
X170400583Y-82500239D01*
X170520769Y-82550021D01*
X170648356Y-82575400D01*
X170778444Y-82575400D01*
X170906031Y-82550021D01*
X171026217Y-82500239D01*
X171134380Y-82427966D01*
X171226366Y-82335980D01*
X171298639Y-82227817D01*
X171348421Y-82107631D01*
X171373800Y-81980044D01*
X171373800Y-81849956D01*
X171348421Y-81722369D01*
X171298639Y-81602183D01*
X171226366Y-81494020D01*
X171134380Y-81402034D01*
X171026217Y-81329761D01*
X170906031Y-81279979D01*
X170778444Y-81254600D01*
X170648356Y-81254600D01*
X170520769Y-81279979D01*
X170400583Y-81329761D01*
X170292420Y-81402034D01*
X170200434Y-81494020D01*
X170128161Y-81602183D01*
X170078379Y-81722369D01*
X170053000Y-81849956D01*
X154127200Y-81849956D01*
X154127200Y-81748356D01*
X154101821Y-81620769D01*
X154052039Y-81500583D01*
X154048910Y-81495900D01*
X154052039Y-81491217D01*
X154101821Y-81371031D01*
X154127200Y-81243444D01*
X154127200Y-81113356D01*
X154101821Y-80985769D01*
X154052039Y-80865583D01*
X153979766Y-80757420D01*
X153887780Y-80665434D01*
X153779617Y-80593161D01*
X153659431Y-80543379D01*
X153531844Y-80518000D01*
X153401756Y-80518000D01*
X153274169Y-80543379D01*
X153153983Y-80593161D01*
X153149300Y-80596290D01*
X153144617Y-80593161D01*
X153024431Y-80543379D01*
X152896844Y-80518000D01*
X152766756Y-80518000D01*
X152639169Y-80543379D01*
X152518983Y-80593161D01*
X152514300Y-80596290D01*
X152509617Y-80593161D01*
X152389431Y-80543379D01*
X152261844Y-80518000D01*
X152131756Y-80518000D01*
X152004169Y-80543379D01*
X151883983Y-80593161D01*
X151775820Y-80665434D01*
X151683834Y-80757420D01*
X151611561Y-80865583D01*
X151561779Y-80985769D01*
X151536400Y-81113356D01*
X90856618Y-81113356D01*
X91105401Y-81063870D01*
X91720704Y-80809003D01*
X92274462Y-80438994D01*
X92350700Y-80362756D01*
X122478800Y-80362756D01*
X122478800Y-80492844D01*
X122504179Y-80620431D01*
X122553961Y-80740617D01*
X122626234Y-80848780D01*
X122718220Y-80940766D01*
X122826383Y-81013039D01*
X122946569Y-81062821D01*
X123074156Y-81088200D01*
X123204244Y-81088200D01*
X123331831Y-81062821D01*
X123452017Y-81013039D01*
X123560180Y-80940766D01*
X123652166Y-80848780D01*
X123724439Y-80740617D01*
X123774221Y-80620431D01*
X123795639Y-80512756D01*
X156616400Y-80512756D01*
X156616400Y-80642844D01*
X156641779Y-80770431D01*
X156691561Y-80890617D01*
X156763834Y-80998780D01*
X156855820Y-81090766D01*
X156963983Y-81163039D01*
X157084169Y-81212821D01*
X157211756Y-81238200D01*
X157341844Y-81238200D01*
X157469431Y-81212821D01*
X157589617Y-81163039D01*
X157697780Y-81090766D01*
X157789766Y-80998780D01*
X157862039Y-80890617D01*
X157911821Y-80770431D01*
X157937200Y-80642844D01*
X157937200Y-80512756D01*
X157911821Y-80385169D01*
X157862039Y-80264983D01*
X157789766Y-80156820D01*
X157697780Y-80064834D01*
X157589617Y-79992561D01*
X157469431Y-79942779D01*
X157341844Y-79917400D01*
X157211756Y-79917400D01*
X157084169Y-79942779D01*
X156963983Y-79992561D01*
X156855820Y-80064834D01*
X156763834Y-80156820D01*
X156691561Y-80264983D01*
X156641779Y-80385169D01*
X156616400Y-80512756D01*
X123795639Y-80512756D01*
X123799600Y-80492844D01*
X123799600Y-80362756D01*
X123774221Y-80235169D01*
X123724439Y-80114983D01*
X123652166Y-80006820D01*
X123560180Y-79914834D01*
X123452017Y-79842561D01*
X123331831Y-79792779D01*
X123204244Y-79767400D01*
X123074156Y-79767400D01*
X122946569Y-79792779D01*
X122826383Y-79842561D01*
X122718220Y-79914834D01*
X122626234Y-80006820D01*
X122553961Y-80114983D01*
X122504179Y-80235169D01*
X122478800Y-80362756D01*
X92350700Y-80362756D01*
X92745394Y-79968062D01*
X93115403Y-79414304D01*
X93370270Y-78799001D01*
X93500200Y-78145799D01*
X93500200Y-77479801D01*
X93370270Y-76826599D01*
X93115403Y-76211296D01*
X92745394Y-75657538D01*
X92274462Y-75186606D01*
X91720704Y-74816597D01*
X91105401Y-74561730D01*
X90854387Y-74511800D01*
X95693557Y-74511800D01*
X95693557Y-76211800D01*
X95700913Y-76286489D01*
X95722699Y-76358308D01*
X95758078Y-76424496D01*
X95805689Y-76482511D01*
X95863704Y-76530122D01*
X95929892Y-76565501D01*
X96001711Y-76587287D01*
X96076400Y-76594643D01*
X97776400Y-76594643D01*
X97851089Y-76587287D01*
X97922908Y-76565501D01*
X97989096Y-76530122D01*
X98047111Y-76482511D01*
X98079536Y-76443000D01*
X109765957Y-76443000D01*
X109765957Y-78243000D01*
X109773313Y-78317689D01*
X109795099Y-78389508D01*
X109830478Y-78455696D01*
X109878089Y-78513711D01*
X109936104Y-78561322D01*
X110002292Y-78596701D01*
X110074111Y-78618487D01*
X110148800Y-78625843D01*
X111948800Y-78625843D01*
X112023489Y-78618487D01*
X112095308Y-78596701D01*
X112161496Y-78561322D01*
X112219511Y-78513711D01*
X112267122Y-78455696D01*
X112302501Y-78389508D01*
X112324287Y-78317689D01*
X112331643Y-78243000D01*
X112331643Y-77589034D01*
X112357028Y-77716654D01*
X112453593Y-77949781D01*
X112593782Y-78159590D01*
X112772210Y-78338018D01*
X112982019Y-78478207D01*
X113215146Y-78574772D01*
X113462633Y-78624000D01*
X113714967Y-78624000D01*
X113962454Y-78574772D01*
X114195581Y-78478207D01*
X114405390Y-78338018D01*
X114583818Y-78159590D01*
X114724007Y-77949781D01*
X114820572Y-77716654D01*
X114869800Y-77469167D01*
X114869800Y-77216833D01*
X114820572Y-76969346D01*
X114724007Y-76736219D01*
X114583818Y-76526410D01*
X114405390Y-76347982D01*
X114195581Y-76207793D01*
X113962454Y-76111228D01*
X113714967Y-76062000D01*
X113462633Y-76062000D01*
X113215146Y-76111228D01*
X112982019Y-76207793D01*
X112772210Y-76347982D01*
X112593782Y-76526410D01*
X112453593Y-76736219D01*
X112357028Y-76969346D01*
X112331643Y-77096966D01*
X112331643Y-76443000D01*
X112324287Y-76368311D01*
X112302501Y-76296492D01*
X112267122Y-76230304D01*
X112219511Y-76172289D01*
X112161496Y-76124678D01*
X112095308Y-76089299D01*
X112023489Y-76067513D01*
X111948800Y-76060157D01*
X110148800Y-76060157D01*
X110074111Y-76067513D01*
X110002292Y-76089299D01*
X109936104Y-76124678D01*
X109878089Y-76172289D01*
X109830478Y-76230304D01*
X109795099Y-76296492D01*
X109773313Y-76368311D01*
X109765957Y-76443000D01*
X98079536Y-76443000D01*
X98094722Y-76424496D01*
X98130101Y-76358308D01*
X98151887Y-76286489D01*
X98159243Y-76211800D01*
X98159243Y-75680200D01*
X128942157Y-75680200D01*
X128942157Y-77380200D01*
X128949513Y-77454889D01*
X128971299Y-77526708D01*
X129006678Y-77592896D01*
X129054289Y-77650911D01*
X129112304Y-77698522D01*
X129178492Y-77733901D01*
X129250311Y-77755687D01*
X129325000Y-77763043D01*
X131025000Y-77763043D01*
X131099689Y-77755687D01*
X131171508Y-77733901D01*
X131237696Y-77698522D01*
X131295711Y-77650911D01*
X131343322Y-77592896D01*
X131378701Y-77526708D01*
X131400487Y-77454889D01*
X131407843Y-77380200D01*
X131407843Y-76530200D01*
X131478044Y-76530200D01*
X131501812Y-76771518D01*
X131572202Y-77003563D01*
X131686509Y-77217416D01*
X131840340Y-77404860D01*
X132027784Y-77558691D01*
X132241637Y-77672998D01*
X132473682Y-77743388D01*
X132654528Y-77761200D01*
X132775472Y-77761200D01*
X132956318Y-77743388D01*
X133188363Y-77672998D01*
X133402216Y-77558691D01*
X133589660Y-77404860D01*
X133743491Y-77217416D01*
X133857798Y-77003563D01*
X133928188Y-76771518D01*
X133951956Y-76530200D01*
X134018044Y-76530200D01*
X134041812Y-76771518D01*
X134112202Y-77003563D01*
X134226509Y-77217416D01*
X134380340Y-77404860D01*
X134567784Y-77558691D01*
X134781637Y-77672998D01*
X135013682Y-77743388D01*
X135194528Y-77761200D01*
X135315472Y-77761200D01*
X135496318Y-77743388D01*
X135728363Y-77672998D01*
X135942216Y-77558691D01*
X136129660Y-77404860D01*
X136283491Y-77217416D01*
X136397798Y-77003563D01*
X136468188Y-76771518D01*
X136485853Y-76592156D01*
X162306000Y-76592156D01*
X162306000Y-76722244D01*
X162331379Y-76849831D01*
X162381161Y-76970017D01*
X162384290Y-76974700D01*
X162381161Y-76979383D01*
X162331379Y-77099569D01*
X162306000Y-77227156D01*
X162306000Y-77357244D01*
X162331379Y-77484831D01*
X162381161Y-77605017D01*
X162453434Y-77713180D01*
X162545420Y-77805166D01*
X162653583Y-77877439D01*
X162773769Y-77927221D01*
X162901356Y-77952600D01*
X163031444Y-77952600D01*
X163159031Y-77927221D01*
X163279217Y-77877439D01*
X163283900Y-77874310D01*
X163288583Y-77877439D01*
X163408769Y-77927221D01*
X163536356Y-77952600D01*
X163666444Y-77952600D01*
X163794031Y-77927221D01*
X163914217Y-77877439D01*
X163918900Y-77874310D01*
X163923583Y-77877439D01*
X164043769Y-77927221D01*
X164171356Y-77952600D01*
X164301444Y-77952600D01*
X164429031Y-77927221D01*
X164549217Y-77877439D01*
X164657380Y-77805166D01*
X164749366Y-77713180D01*
X164821639Y-77605017D01*
X164871421Y-77484831D01*
X164872421Y-77479801D01*
X176578200Y-77479801D01*
X176578200Y-78145799D01*
X176708130Y-78799001D01*
X176962997Y-79414304D01*
X177333006Y-79968062D01*
X177803938Y-80438994D01*
X178357696Y-80809003D01*
X178972999Y-81063870D01*
X179626201Y-81193800D01*
X180292199Y-81193800D01*
X180945401Y-81063870D01*
X181560704Y-80809003D01*
X182114462Y-80438994D01*
X182585394Y-79968062D01*
X182955403Y-79414304D01*
X183210270Y-78799001D01*
X183340200Y-78145799D01*
X183340200Y-77479801D01*
X183210270Y-76826599D01*
X182955403Y-76211296D01*
X182585394Y-75657538D01*
X182114462Y-75186606D01*
X181560704Y-74816597D01*
X180945401Y-74561730D01*
X180292199Y-74431800D01*
X179626201Y-74431800D01*
X178972999Y-74561730D01*
X178357696Y-74816597D01*
X177803938Y-75186606D01*
X177333006Y-75657538D01*
X176962997Y-76211296D01*
X176708130Y-76826599D01*
X176578200Y-77479801D01*
X164872421Y-77479801D01*
X164896800Y-77357244D01*
X164896800Y-77227156D01*
X164871421Y-77099569D01*
X164821639Y-76979383D01*
X164818510Y-76974700D01*
X164821639Y-76970017D01*
X164871421Y-76849831D01*
X164896800Y-76722244D01*
X164896800Y-76592156D01*
X164871421Y-76464569D01*
X164821639Y-76344383D01*
X164749366Y-76236220D01*
X164657380Y-76144234D01*
X164549217Y-76071961D01*
X164429031Y-76022179D01*
X164301444Y-75996800D01*
X164171356Y-75996800D01*
X164043769Y-76022179D01*
X163923583Y-76071961D01*
X163918900Y-76075090D01*
X163914217Y-76071961D01*
X163794031Y-76022179D01*
X163666444Y-75996800D01*
X163536356Y-75996800D01*
X163408769Y-76022179D01*
X163288583Y-76071961D01*
X163283900Y-76075090D01*
X163279217Y-76071961D01*
X163159031Y-76022179D01*
X163031444Y-75996800D01*
X162901356Y-75996800D01*
X162773769Y-76022179D01*
X162653583Y-76071961D01*
X162545420Y-76144234D01*
X162453434Y-76236220D01*
X162381161Y-76344383D01*
X162331379Y-76464569D01*
X162306000Y-76592156D01*
X136485853Y-76592156D01*
X136491956Y-76530200D01*
X136468188Y-76288882D01*
X136397798Y-76056837D01*
X136283491Y-75842984D01*
X136129660Y-75655540D01*
X135942216Y-75501709D01*
X135728363Y-75387402D01*
X135496318Y-75317012D01*
X135315472Y-75299200D01*
X135194528Y-75299200D01*
X135013682Y-75317012D01*
X134781637Y-75387402D01*
X134567784Y-75501709D01*
X134380340Y-75655540D01*
X134226509Y-75842984D01*
X134112202Y-76056837D01*
X134041812Y-76288882D01*
X134018044Y-76530200D01*
X133951956Y-76530200D01*
X133928188Y-76288882D01*
X133857798Y-76056837D01*
X133743491Y-75842984D01*
X133589660Y-75655540D01*
X133402216Y-75501709D01*
X133188363Y-75387402D01*
X132956318Y-75317012D01*
X132775472Y-75299200D01*
X132654528Y-75299200D01*
X132473682Y-75317012D01*
X132241637Y-75387402D01*
X132027784Y-75501709D01*
X131840340Y-75655540D01*
X131686509Y-75842984D01*
X131572202Y-76056837D01*
X131501812Y-76288882D01*
X131478044Y-76530200D01*
X131407843Y-76530200D01*
X131407843Y-75680200D01*
X131400487Y-75605511D01*
X131378701Y-75533692D01*
X131343322Y-75467504D01*
X131295711Y-75409489D01*
X131237696Y-75361878D01*
X131171508Y-75326499D01*
X131099689Y-75304713D01*
X131025000Y-75297357D01*
X129325000Y-75297357D01*
X129250311Y-75304713D01*
X129178492Y-75326499D01*
X129112304Y-75361878D01*
X129054289Y-75409489D01*
X129006678Y-75467504D01*
X128971299Y-75533692D01*
X128949513Y-75605511D01*
X128942157Y-75680200D01*
X98159243Y-75680200D01*
X98159243Y-74511800D01*
X98151887Y-74437111D01*
X98130101Y-74365292D01*
X98094722Y-74299104D01*
X98047111Y-74241089D01*
X97989096Y-74193478D01*
X97922908Y-74158099D01*
X97851089Y-74136313D01*
X97776400Y-74128957D01*
X96076400Y-74128957D01*
X96001711Y-74136313D01*
X95929892Y-74158099D01*
X95863704Y-74193478D01*
X95805689Y-74241089D01*
X95758078Y-74299104D01*
X95722699Y-74365292D01*
X95700913Y-74437111D01*
X95693557Y-74511800D01*
X90854387Y-74511800D01*
X90452199Y-74431800D01*
X89786201Y-74431800D01*
X89132999Y-74561730D01*
X88517696Y-74816597D01*
X87963938Y-75186606D01*
X87493006Y-75657538D01*
X87122997Y-76211296D01*
X86868130Y-76826599D01*
X86738200Y-77479801D01*
X85445200Y-77479801D01*
X85445200Y-73138800D01*
X184633201Y-73138800D01*
X184633200Y-122326800D01*
M02*
