G04 #@! TF.GenerationSoftware,KiCad,Pcbnew,(5.1.4)-1*
G04 #@! TF.CreationDate,2019-10-07T12:46:14-05:00*
G04 #@! TF.ProjectId,nightlight,6e696768-746c-4696-9768-742e6b696361,rev?*
G04 #@! TF.SameCoordinates,Original*
G04 #@! TF.FileFunction,Legend,Bot*
G04 #@! TF.FilePolarity,Positive*
%FSLAX46Y46*%
G04 Gerber Fmt 4.6, Leading zero omitted, Abs format (unit mm)*
G04 Created by KiCad (PCBNEW (5.1.4)-1) date 2019-10-07 12:46:14*
%MOMM*%
%LPD*%
G04 APERTURE LIST*
%ADD10C,0.150000*%
%ADD11C,0.120000*%
G04 APERTURE END LIST*
D10*
X91952819Y-104373038D02*
X92952819Y-104373038D01*
X92952819Y-103992085D01*
X92905200Y-103896847D01*
X92857580Y-103849228D01*
X92762342Y-103801609D01*
X92619485Y-103801609D01*
X92524247Y-103849228D01*
X92476628Y-103896847D01*
X92429009Y-103992085D01*
X92429009Y-104373038D01*
X91952819Y-103373038D02*
X92952819Y-103373038D01*
X92048057Y-102325419D02*
X92000438Y-102373038D01*
X91952819Y-102515895D01*
X91952819Y-102611133D01*
X92000438Y-102753990D01*
X92095676Y-102849228D01*
X92190914Y-102896847D01*
X92381390Y-102944466D01*
X92524247Y-102944466D01*
X92714723Y-102896847D01*
X92809961Y-102849228D01*
X92905200Y-102753990D01*
X92952819Y-102611133D01*
X92952819Y-102515895D01*
X92905200Y-102373038D01*
X92857580Y-102325419D01*
X91952819Y-101896847D02*
X92952819Y-101896847D01*
X91952819Y-101325419D02*
X92524247Y-101753990D01*
X92952819Y-101325419D02*
X92381390Y-101896847D01*
X91952819Y-100896847D02*
X92952819Y-100896847D01*
X92952819Y-100563514D02*
X92952819Y-99992085D01*
X91952819Y-100277800D02*
X92952819Y-100277800D01*
X92952819Y-99753990D02*
X92952819Y-99134942D01*
X92571866Y-99468276D01*
X92571866Y-99325419D01*
X92524247Y-99230180D01*
X92476628Y-99182561D01*
X92381390Y-99134942D01*
X92143295Y-99134942D01*
X92048057Y-99182561D01*
X92000438Y-99230180D01*
X91952819Y-99325419D01*
X91952819Y-99611133D01*
X92000438Y-99706371D01*
X92048057Y-99753990D01*
X147029514Y-91468866D02*
X148029514Y-91468866D01*
X147077133Y-91468866D02*
X147029514Y-91564104D01*
X147029514Y-91754580D01*
X147077133Y-91849819D01*
X147124752Y-91897438D01*
X147219990Y-91945057D01*
X147505704Y-91945057D01*
X147600942Y-91897438D01*
X147648561Y-91849819D01*
X147696180Y-91754580D01*
X147696180Y-91564104D01*
X147648561Y-91468866D01*
X147696180Y-92373628D02*
X147029514Y-92373628D01*
X146696180Y-92373628D02*
X146743800Y-92326009D01*
X146791419Y-92373628D01*
X146743800Y-92421247D01*
X146696180Y-92373628D01*
X146791419Y-92373628D01*
X147696180Y-92849819D02*
X147029514Y-92849819D01*
X147219990Y-92849819D02*
X147124752Y-92897438D01*
X147077133Y-92945057D01*
X147029514Y-93040295D01*
X147029514Y-93135533D01*
X147791419Y-93230771D02*
X147791419Y-93992676D01*
X147696180Y-94373628D02*
X147648561Y-94278390D01*
X147600942Y-94230771D01*
X147505704Y-94183152D01*
X147219990Y-94183152D01*
X147124752Y-94230771D01*
X147077133Y-94278390D01*
X147029514Y-94373628D01*
X147029514Y-94516485D01*
X147077133Y-94611723D01*
X147124752Y-94659342D01*
X147219990Y-94706961D01*
X147505704Y-94706961D01*
X147600942Y-94659342D01*
X147648561Y-94611723D01*
X147696180Y-94516485D01*
X147696180Y-94373628D01*
X147029514Y-95564104D02*
X147696180Y-95564104D01*
X147029514Y-95135533D02*
X147553323Y-95135533D01*
X147648561Y-95183152D01*
X147696180Y-95278390D01*
X147696180Y-95421247D01*
X147648561Y-95516485D01*
X147600942Y-95564104D01*
X147029514Y-95897438D02*
X147029514Y-96278390D01*
X146696180Y-96040295D02*
X147553323Y-96040295D01*
X147648561Y-96087914D01*
X147696180Y-96183152D01*
X147696180Y-96278390D01*
X114498380Y-92589552D02*
X113831714Y-92589552D01*
X114022190Y-92589552D02*
X113926952Y-92637171D01*
X113879333Y-92684790D01*
X113831714Y-92780028D01*
X113831714Y-92875266D01*
X114450761Y-93589552D02*
X114498380Y-93494314D01*
X114498380Y-93303838D01*
X114450761Y-93208600D01*
X114355523Y-93160980D01*
X113974571Y-93160980D01*
X113879333Y-93208600D01*
X113831714Y-93303838D01*
X113831714Y-93494314D01*
X113879333Y-93589552D01*
X113974571Y-93637171D01*
X114069809Y-93637171D01*
X114165047Y-93160980D01*
X114450761Y-94018123D02*
X114498380Y-94113361D01*
X114498380Y-94303838D01*
X114450761Y-94399076D01*
X114355523Y-94446695D01*
X114307904Y-94446695D01*
X114212666Y-94399076D01*
X114165047Y-94303838D01*
X114165047Y-94160980D01*
X114117428Y-94065742D01*
X114022190Y-94018123D01*
X113974571Y-94018123D01*
X113879333Y-94065742D01*
X113831714Y-94160980D01*
X113831714Y-94303838D01*
X113879333Y-94399076D01*
X114450761Y-95256219D02*
X114498380Y-95160980D01*
X114498380Y-94970504D01*
X114450761Y-94875266D01*
X114355523Y-94827647D01*
X113974571Y-94827647D01*
X113879333Y-94875266D01*
X113831714Y-94970504D01*
X113831714Y-95160980D01*
X113879333Y-95256219D01*
X113974571Y-95303838D01*
X114069809Y-95303838D01*
X114165047Y-94827647D01*
X113831714Y-95589552D02*
X113831714Y-95970504D01*
X113498380Y-95732409D02*
X114355523Y-95732409D01*
X114450761Y-95780028D01*
X114498380Y-95875266D01*
X114498380Y-95970504D01*
X122512580Y-92199057D02*
X121988771Y-92199057D01*
X121893533Y-92151438D01*
X121845914Y-92056200D01*
X121845914Y-91865723D01*
X121893533Y-91770485D01*
X122464961Y-92199057D02*
X122512580Y-92103819D01*
X122512580Y-91865723D01*
X122464961Y-91770485D01*
X122369723Y-91722866D01*
X122274485Y-91722866D01*
X122179247Y-91770485D01*
X122131628Y-91865723D01*
X122131628Y-92103819D01*
X122084009Y-92199057D01*
X121845914Y-92675247D02*
X122512580Y-92675247D01*
X121941152Y-92675247D02*
X121893533Y-92722866D01*
X121845914Y-92818104D01*
X121845914Y-92960961D01*
X121893533Y-93056200D01*
X121988771Y-93103819D01*
X122512580Y-93103819D01*
X122512580Y-94008580D02*
X121988771Y-94008580D01*
X121893533Y-93960961D01*
X121845914Y-93865723D01*
X121845914Y-93675247D01*
X121893533Y-93580009D01*
X122464961Y-94008580D02*
X122512580Y-93913342D01*
X122512580Y-93675247D01*
X122464961Y-93580009D01*
X122369723Y-93532390D01*
X122274485Y-93532390D01*
X122179247Y-93580009D01*
X122131628Y-93675247D01*
X122131628Y-93913342D01*
X122084009Y-94008580D01*
X122512580Y-94627628D02*
X122464961Y-94532390D01*
X122369723Y-94484771D01*
X121512580Y-94484771D01*
X122512580Y-95151438D02*
X122464961Y-95056200D01*
X122417342Y-95008580D01*
X122322104Y-94960961D01*
X122036390Y-94960961D01*
X121941152Y-95008580D01*
X121893533Y-95056200D01*
X121845914Y-95151438D01*
X121845914Y-95294295D01*
X121893533Y-95389533D01*
X121941152Y-95437152D01*
X122036390Y-95484771D01*
X122322104Y-95484771D01*
X122417342Y-95437152D01*
X122464961Y-95389533D01*
X122512580Y-95294295D01*
X122512580Y-95151438D01*
X121845914Y-96341914D02*
X122655438Y-96341914D01*
X122750676Y-96294295D01*
X122798295Y-96246676D01*
X122845914Y-96151438D01*
X122845914Y-96008580D01*
X122798295Y-95913342D01*
X122464961Y-96341914D02*
X122512580Y-96246676D01*
X122512580Y-96056200D01*
X122464961Y-95960961D01*
X122417342Y-95913342D01*
X122322104Y-95865723D01*
X122036390Y-95865723D01*
X121941152Y-95913342D01*
X121893533Y-95960961D01*
X121845914Y-96056200D01*
X121845914Y-96246676D01*
X121893533Y-96341914D01*
X124114961Y-92865723D02*
X124162580Y-92770485D01*
X124162580Y-92580009D01*
X124114961Y-92484771D01*
X124019723Y-92437152D01*
X123638771Y-92437152D01*
X123543533Y-92484771D01*
X123495914Y-92580009D01*
X123495914Y-92770485D01*
X123543533Y-92865723D01*
X123638771Y-92913342D01*
X123734009Y-92913342D01*
X123829247Y-92437152D01*
X124162580Y-93341914D02*
X123495914Y-93341914D01*
X123686390Y-93341914D02*
X123591152Y-93389533D01*
X123543533Y-93437152D01*
X123495914Y-93532390D01*
X123495914Y-93627628D01*
X124162580Y-93960961D02*
X123495914Y-93960961D01*
X123686390Y-93960961D02*
X123591152Y-94008580D01*
X123543533Y-94056200D01*
X123495914Y-94151438D01*
X123495914Y-94246676D01*
X124162580Y-94722866D02*
X124114961Y-94627628D01*
X124067342Y-94580009D01*
X123972104Y-94532390D01*
X123686390Y-94532390D01*
X123591152Y-94580009D01*
X123543533Y-94627628D01*
X123495914Y-94722866D01*
X123495914Y-94865723D01*
X123543533Y-94960961D01*
X123591152Y-95008580D01*
X123686390Y-95056200D01*
X123972104Y-95056200D01*
X124067342Y-95008580D01*
X124114961Y-94960961D01*
X124162580Y-94865723D01*
X124162580Y-94722866D01*
X124162580Y-95484771D02*
X123495914Y-95484771D01*
X123686390Y-95484771D02*
X123591152Y-95532390D01*
X123543533Y-95580009D01*
X123495914Y-95675247D01*
X123495914Y-95770485D01*
X130005628Y-92234000D02*
X130005628Y-92995904D01*
X130386580Y-92614952D02*
X129624676Y-92614952D01*
X129386580Y-93376857D02*
X129386580Y-93995904D01*
X129767533Y-93662571D01*
X129767533Y-93805428D01*
X129815152Y-93900666D01*
X129862771Y-93948285D01*
X129958009Y-93995904D01*
X130196104Y-93995904D01*
X130291342Y-93948285D01*
X130338961Y-93900666D01*
X130386580Y-93805428D01*
X130386580Y-93519714D01*
X130338961Y-93424476D01*
X130291342Y-93376857D01*
X130291342Y-94424476D02*
X130338961Y-94472095D01*
X130386580Y-94424476D01*
X130338961Y-94376857D01*
X130291342Y-94424476D01*
X130386580Y-94424476D01*
X129386580Y-94805428D02*
X129386580Y-95424476D01*
X129767533Y-95091142D01*
X129767533Y-95234000D01*
X129815152Y-95329238D01*
X129862771Y-95376857D01*
X129958009Y-95424476D01*
X130196104Y-95424476D01*
X130291342Y-95376857D01*
X130338961Y-95329238D01*
X130386580Y-95234000D01*
X130386580Y-94948285D01*
X130338961Y-94853047D01*
X130291342Y-94805428D01*
X129386580Y-95710190D02*
X130386580Y-96043523D01*
X129386580Y-96376857D01*
X132036580Y-91924476D02*
X131036580Y-91924476D01*
X131036580Y-92305428D01*
X131084200Y-92400666D01*
X131131819Y-92448285D01*
X131227057Y-92495904D01*
X131369914Y-92495904D01*
X131465152Y-92448285D01*
X131512771Y-92400666D01*
X131560390Y-92305428D01*
X131560390Y-91924476D01*
X131084200Y-93448285D02*
X131036580Y-93353047D01*
X131036580Y-93210190D01*
X131084200Y-93067333D01*
X131179438Y-92972095D01*
X131274676Y-92924476D01*
X131465152Y-92876857D01*
X131608009Y-92876857D01*
X131798485Y-92924476D01*
X131893723Y-92972095D01*
X131988961Y-93067333D01*
X132036580Y-93210190D01*
X132036580Y-93305428D01*
X131988961Y-93448285D01*
X131941342Y-93495904D01*
X131608009Y-93495904D01*
X131608009Y-93305428D01*
X131036580Y-94114952D02*
X131036580Y-94305428D01*
X131084200Y-94400666D01*
X131179438Y-94495904D01*
X131369914Y-94543523D01*
X131703247Y-94543523D01*
X131893723Y-94495904D01*
X131988961Y-94400666D01*
X132036580Y-94305428D01*
X132036580Y-94114952D01*
X131988961Y-94019714D01*
X131893723Y-93924476D01*
X131703247Y-93876857D01*
X131369914Y-93876857D01*
X131179438Y-93924476D01*
X131084200Y-94019714D01*
X131036580Y-94114952D01*
X131036580Y-95162571D02*
X131036580Y-95353047D01*
X131084200Y-95448285D01*
X131179438Y-95543523D01*
X131369914Y-95591142D01*
X131703247Y-95591142D01*
X131893723Y-95543523D01*
X131988961Y-95448285D01*
X132036580Y-95353047D01*
X132036580Y-95162571D01*
X131988961Y-95067333D01*
X131893723Y-94972095D01*
X131703247Y-94924476D01*
X131369914Y-94924476D01*
X131179438Y-94972095D01*
X131084200Y-95067333D01*
X131036580Y-95162571D01*
X132036580Y-96019714D02*
X131036580Y-96019714D01*
X131036580Y-96257809D01*
X131084200Y-96400666D01*
X131179438Y-96495904D01*
X131274676Y-96543523D01*
X131465152Y-96591142D01*
X131608009Y-96591142D01*
X131798485Y-96543523D01*
X131893723Y-96495904D01*
X131988961Y-96400666D01*
X132036580Y-96257809D01*
X132036580Y-96019714D01*
X137803428Y-92446695D02*
X137803428Y-93208600D01*
X138184380Y-92827647D02*
X137422476Y-92827647D01*
X138184380Y-94208600D02*
X138184380Y-93637171D01*
X138184380Y-93922885D02*
X137184380Y-93922885D01*
X137327238Y-93827647D01*
X137422476Y-93732409D01*
X137470095Y-93637171D01*
X137279619Y-94589552D02*
X137232000Y-94637171D01*
X137184380Y-94732409D01*
X137184380Y-94970504D01*
X137232000Y-95065742D01*
X137279619Y-95113361D01*
X137374857Y-95160980D01*
X137470095Y-95160980D01*
X137612952Y-95113361D01*
X138184380Y-94541933D01*
X138184380Y-95160980D01*
X137184380Y-95446695D02*
X138184380Y-95780028D01*
X137184380Y-96113361D01*
X139834380Y-91899076D02*
X138834380Y-91899076D01*
X138834380Y-92280028D01*
X138882000Y-92375266D01*
X138929619Y-92422885D01*
X139024857Y-92470504D01*
X139167714Y-92470504D01*
X139262952Y-92422885D01*
X139310571Y-92375266D01*
X139358190Y-92280028D01*
X139358190Y-91899076D01*
X138882000Y-93422885D02*
X138834380Y-93327647D01*
X138834380Y-93184790D01*
X138882000Y-93041933D01*
X138977238Y-92946695D01*
X139072476Y-92899076D01*
X139262952Y-92851457D01*
X139405809Y-92851457D01*
X139596285Y-92899076D01*
X139691523Y-92946695D01*
X139786761Y-93041933D01*
X139834380Y-93184790D01*
X139834380Y-93280028D01*
X139786761Y-93422885D01*
X139739142Y-93470504D01*
X139405809Y-93470504D01*
X139405809Y-93280028D01*
X138834380Y-94089552D02*
X138834380Y-94280028D01*
X138882000Y-94375266D01*
X138977238Y-94470504D01*
X139167714Y-94518123D01*
X139501047Y-94518123D01*
X139691523Y-94470504D01*
X139786761Y-94375266D01*
X139834380Y-94280028D01*
X139834380Y-94089552D01*
X139786761Y-93994314D01*
X139691523Y-93899076D01*
X139501047Y-93851457D01*
X139167714Y-93851457D01*
X138977238Y-93899076D01*
X138882000Y-93994314D01*
X138834380Y-94089552D01*
X138834380Y-95137171D02*
X138834380Y-95327647D01*
X138882000Y-95422885D01*
X138977238Y-95518123D01*
X139167714Y-95565742D01*
X139501047Y-95565742D01*
X139691523Y-95518123D01*
X139786761Y-95422885D01*
X139834380Y-95327647D01*
X139834380Y-95137171D01*
X139786761Y-95041933D01*
X139691523Y-94946695D01*
X139501047Y-94899076D01*
X139167714Y-94899076D01*
X138977238Y-94946695D01*
X138882000Y-95041933D01*
X138834380Y-95137171D01*
X139834380Y-95994314D02*
X138834380Y-95994314D01*
X138834380Y-96232409D01*
X138882000Y-96375266D01*
X138977238Y-96470504D01*
X139072476Y-96518123D01*
X139262952Y-96565742D01*
X139405809Y-96565742D01*
X139596285Y-96518123D01*
X139691523Y-96470504D01*
X139786761Y-96375266D01*
X139834380Y-96232409D01*
X139834380Y-95994314D01*
X102387304Y-77147800D02*
X102482542Y-77100180D01*
X102625400Y-77100180D01*
X102768257Y-77147800D01*
X102863495Y-77243038D01*
X102911114Y-77338276D01*
X102958733Y-77528752D01*
X102958733Y-77671609D01*
X102911114Y-77862085D01*
X102863495Y-77957323D01*
X102768257Y-78052561D01*
X102625400Y-78100180D01*
X102530161Y-78100180D01*
X102387304Y-78052561D01*
X102339685Y-78004942D01*
X102339685Y-77671609D01*
X102530161Y-77671609D01*
X101911114Y-78100180D02*
X101911114Y-77100180D01*
X101339685Y-78100180D01*
X101339685Y-77100180D01*
X100863495Y-78100180D02*
X100863495Y-77100180D01*
X100625400Y-77100180D01*
X100482542Y-77147800D01*
X100387304Y-77243038D01*
X100339685Y-77338276D01*
X100292066Y-77528752D01*
X100292066Y-77671609D01*
X100339685Y-77862085D01*
X100387304Y-77957323D01*
X100482542Y-78052561D01*
X100625400Y-78100180D01*
X100863495Y-78100180D01*
X93989209Y-89784180D02*
X93989209Y-89117514D01*
X93989209Y-89212752D02*
X93941590Y-89165133D01*
X93846352Y-89117514D01*
X93703495Y-89117514D01*
X93608257Y-89165133D01*
X93560638Y-89260371D01*
X93560638Y-89784180D01*
X93560638Y-89260371D02*
X93513019Y-89165133D01*
X93417780Y-89117514D01*
X93274923Y-89117514D01*
X93179685Y-89165133D01*
X93132066Y-89260371D01*
X93132066Y-89784180D01*
X92655876Y-89117514D02*
X92655876Y-89784180D01*
X92655876Y-89212752D02*
X92608257Y-89165133D01*
X92513019Y-89117514D01*
X92370161Y-89117514D01*
X92274923Y-89165133D01*
X92227304Y-89260371D01*
X92227304Y-89784180D01*
X91608257Y-89784180D02*
X91703495Y-89736561D01*
X91751114Y-89641323D01*
X91751114Y-88784180D01*
X91465400Y-89879419D02*
X90703495Y-89879419D01*
X90465400Y-89784180D02*
X90465400Y-89117514D01*
X90465400Y-89307990D02*
X90417780Y-89212752D01*
X90370161Y-89165133D01*
X90274923Y-89117514D01*
X90179685Y-89117514D01*
X89893971Y-89736561D02*
X89798733Y-89784180D01*
X89608257Y-89784180D01*
X89513019Y-89736561D01*
X89465400Y-89641323D01*
X89465400Y-89593704D01*
X89513019Y-89498466D01*
X89608257Y-89450847D01*
X89751114Y-89450847D01*
X89846352Y-89403228D01*
X89893971Y-89307990D01*
X89893971Y-89260371D01*
X89846352Y-89165133D01*
X89751114Y-89117514D01*
X89608257Y-89117514D01*
X89513019Y-89165133D01*
X89179685Y-89117514D02*
X88798733Y-89117514D01*
X89036828Y-88784180D02*
X89036828Y-89641323D01*
X88989209Y-89736561D01*
X88893971Y-89784180D01*
X88798733Y-89784180D01*
X174847000Y-77871628D02*
X174085095Y-77871628D01*
X174466047Y-78252580D02*
X174466047Y-77490676D01*
X173704142Y-77252580D02*
X173085095Y-77252580D01*
X173418428Y-77633533D01*
X173275571Y-77633533D01*
X173180333Y-77681152D01*
X173132714Y-77728771D01*
X173085095Y-77824009D01*
X173085095Y-78062104D01*
X173132714Y-78157342D01*
X173180333Y-78204961D01*
X173275571Y-78252580D01*
X173561285Y-78252580D01*
X173656523Y-78204961D01*
X173704142Y-78157342D01*
X172656523Y-78157342D02*
X172608904Y-78204961D01*
X172656523Y-78252580D01*
X172704142Y-78204961D01*
X172656523Y-78157342D01*
X172656523Y-78252580D01*
X172275571Y-77252580D02*
X171656523Y-77252580D01*
X171989857Y-77633533D01*
X171847000Y-77633533D01*
X171751761Y-77681152D01*
X171704142Y-77728771D01*
X171656523Y-77824009D01*
X171656523Y-78062104D01*
X171704142Y-78157342D01*
X171751761Y-78204961D01*
X171847000Y-78252580D01*
X172132714Y-78252580D01*
X172227952Y-78204961D01*
X172275571Y-78157342D01*
X171370809Y-77252580D02*
X171037476Y-78252580D01*
X170704142Y-77252580D01*
X159064104Y-93060828D02*
X158302200Y-93060828D01*
X158683152Y-93441780D02*
X158683152Y-92679876D01*
X157302200Y-93441780D02*
X157873628Y-93441780D01*
X157587914Y-93441780D02*
X157587914Y-92441780D01*
X157683152Y-92584638D01*
X157778390Y-92679876D01*
X157873628Y-92727495D01*
X156921247Y-92537019D02*
X156873628Y-92489400D01*
X156778390Y-92441780D01*
X156540295Y-92441780D01*
X156445057Y-92489400D01*
X156397438Y-92537019D01*
X156349819Y-92632257D01*
X156349819Y-92727495D01*
X156397438Y-92870352D01*
X156968866Y-93441780D01*
X156349819Y-93441780D01*
X156064104Y-92441780D02*
X155730771Y-93441780D01*
X155397438Y-92441780D01*
X174931080Y-97086728D02*
X174169176Y-97086728D01*
X174550128Y-97467680D02*
X174550128Y-96705776D01*
X173169176Y-97467680D02*
X173740604Y-97467680D01*
X173454890Y-97467680D02*
X173454890Y-96467680D01*
X173550128Y-96610538D01*
X173645366Y-96705776D01*
X173740604Y-96753395D01*
X172788223Y-96562919D02*
X172740604Y-96515300D01*
X172645366Y-96467680D01*
X172407271Y-96467680D01*
X172312033Y-96515300D01*
X172264414Y-96562919D01*
X172216795Y-96658157D01*
X172216795Y-96753395D01*
X172264414Y-96896252D01*
X172835842Y-97467680D01*
X172216795Y-97467680D01*
X171931080Y-96467680D02*
X171597747Y-97467680D01*
X171264414Y-96467680D01*
X170931080Y-97467680D02*
X170931080Y-96801014D01*
X170931080Y-96467680D02*
X170978700Y-96515300D01*
X170931080Y-96562919D01*
X170883461Y-96515300D01*
X170931080Y-96467680D01*
X170931080Y-96562919D01*
X170454890Y-96801014D02*
X170454890Y-97467680D01*
X170454890Y-96896252D02*
X170407271Y-96848633D01*
X170312033Y-96801014D01*
X170169176Y-96801014D01*
X170073938Y-96848633D01*
X170026319Y-96943871D01*
X170026319Y-97467680D01*
X154559000Y-92900500D02*
G75*
G03X154559000Y-92900500I-1016000J0D01*
G01*
X173240700Y-95046800D02*
G75*
G03X173240700Y-95046800I-1016000J0D01*
G01*
D11*
X95656400Y-76631800D02*
X96926400Y-76631800D01*
X95656400Y-75361800D02*
X95656400Y-76631800D01*
X98036400Y-74981800D02*
X98366400Y-74981800D01*
X98036400Y-75741800D02*
X98366400Y-75741800D01*
X101026400Y-75081800D02*
X107026400Y-75081800D01*
X101026400Y-75201800D02*
X107026400Y-75201800D01*
X101026400Y-75321800D02*
X107026400Y-75321800D01*
X101026400Y-75441800D02*
X107026400Y-75441800D01*
X101026400Y-75561800D02*
X107026400Y-75561800D01*
X101026400Y-75681800D02*
X107026400Y-75681800D01*
X107026400Y-74981800D02*
X101026400Y-74981800D01*
X107026400Y-75741800D02*
X107026400Y-74981800D01*
X101026400Y-75741800D02*
X107026400Y-75741800D01*
X101026400Y-76691800D02*
X98366400Y-76691800D01*
X101026400Y-74031800D02*
X101026400Y-76691800D01*
X98366400Y-74031800D02*
X101026400Y-74031800D01*
X98366400Y-76691800D02*
X98366400Y-74031800D01*
D10*
X173913800Y-75793600D02*
G75*
G03X173913800Y-75793600I-1016000J0D01*
G01*
D11*
X92991400Y-106966867D02*
X92991400Y-106624333D01*
X91971400Y-106966867D02*
X91971400Y-106624333D01*
X93749400Y-112031933D02*
X93749400Y-112374467D01*
X94769400Y-112031933D02*
X94769400Y-112374467D01*
X144274000Y-85072067D02*
X144274000Y-84729533D01*
X143254000Y-85072067D02*
X143254000Y-84729533D01*
X154405400Y-83598652D02*
X154405400Y-83076148D01*
X152985400Y-83598652D02*
X152985400Y-83076148D01*
X151255000Y-83469267D02*
X151255000Y-83126733D01*
X152275000Y-83469267D02*
X152275000Y-83126733D01*
X157986800Y-79291548D02*
X157986800Y-79814052D01*
X156566800Y-79291548D02*
X156566800Y-79814052D01*
X173403800Y-117811733D02*
X173403800Y-118154267D01*
X174423800Y-117811733D02*
X174423800Y-118154267D01*
X167968200Y-119144867D02*
X167968200Y-118802333D01*
X168988200Y-119144867D02*
X168988200Y-118802333D01*
X131423164Y-114752800D02*
X130219036Y-114752800D01*
X131423164Y-112932800D02*
X130219036Y-112932800D01*
X142170333Y-115038600D02*
X142512867Y-115038600D01*
X142170333Y-114018600D02*
X142512867Y-114018600D01*
X131046067Y-111025400D02*
X130703533Y-111025400D01*
X131046067Y-110005400D02*
X130703533Y-110005400D01*
X139525764Y-115549000D02*
X138321636Y-115549000D01*
X139525764Y-117369000D02*
X138321636Y-117369000D01*
X102795800Y-84753267D02*
X102795800Y-84410733D01*
X101775800Y-84753267D02*
X101775800Y-84410733D01*
X104421400Y-84753267D02*
X104421400Y-84410733D01*
X103401400Y-84753267D02*
X103401400Y-84410733D01*
X106047000Y-84753267D02*
X106047000Y-84410733D01*
X105027000Y-84753267D02*
X105027000Y-84410733D01*
X110335600Y-89147467D02*
X110335600Y-88804933D01*
X111355600Y-89147467D02*
X111355600Y-88804933D01*
X169568400Y-99677433D02*
X169568400Y-100019967D01*
X170588400Y-99677433D02*
X170588400Y-100019967D01*
X167667400Y-99612633D02*
X167667400Y-99955167D01*
X166647400Y-99612633D02*
X166647400Y-99955167D01*
X163777200Y-99652033D02*
X163777200Y-99994567D01*
X164797200Y-99652033D02*
X164797200Y-99994567D01*
X160840267Y-108396500D02*
X160497733Y-108396500D01*
X160840267Y-107376500D02*
X160497733Y-107376500D01*
X165810600Y-76512400D02*
X165810600Y-84747400D01*
X165810600Y-84747400D02*
X161290600Y-84747400D01*
X161290600Y-84747400D02*
X161290600Y-76512400D01*
X132937433Y-73315100D02*
X133279967Y-73315100D01*
X132937433Y-74335100D02*
X133279967Y-74335100D01*
X122629200Y-79381533D02*
X122629200Y-79724067D01*
X123649200Y-79381533D02*
X123649200Y-79724067D01*
X135557800Y-103905233D02*
X135557800Y-104247767D01*
X136577800Y-103905233D02*
X136577800Y-104247767D01*
X120626600Y-103613133D02*
X120626600Y-103955667D01*
X119606600Y-103613133D02*
X119606600Y-103955667D01*
X129008600Y-103816333D02*
X129008600Y-104158867D01*
X127988600Y-103816333D02*
X127988600Y-104158867D01*
X110996000Y-103130533D02*
X110996000Y-103473067D01*
X112016000Y-103130533D02*
X112016000Y-103473067D01*
X145594800Y-103079733D02*
X145594800Y-103422267D01*
X144574800Y-103079733D02*
X144574800Y-103422267D01*
X141112800Y-118354600D02*
X141112800Y-120354600D01*
X141112800Y-120354600D02*
X137212800Y-120354600D01*
X141112800Y-118354600D02*
X137212800Y-118354600D01*
X176190700Y-94728300D02*
X176190700Y-91428300D01*
X176190700Y-91428300D02*
X181590700Y-91428300D01*
X176190700Y-94728300D02*
X181590700Y-94728300D01*
X138390300Y-98196500D02*
X138390300Y-100656500D01*
X138390300Y-100656500D02*
X136920300Y-100656500D01*
X136920300Y-100656500D02*
X136920300Y-98196500D01*
X121540600Y-100669200D02*
X121540600Y-98209200D01*
X123010600Y-100669200D02*
X121540600Y-100669200D01*
X123010600Y-98209200D02*
X123010600Y-100669200D01*
X129262200Y-100694600D02*
X129262200Y-98234600D01*
X130732200Y-100694600D02*
X129262200Y-100694600D01*
X130732200Y-98234600D02*
X130732200Y-100694600D01*
X113968200Y-98296800D02*
X113968200Y-100756800D01*
X113968200Y-100756800D02*
X112498200Y-100756800D01*
X112498200Y-100756800D02*
X112498200Y-98296800D01*
X147293000Y-98082200D02*
X147293000Y-100542200D01*
X147293000Y-100542200D02*
X145823000Y-100542200D01*
X145823000Y-100542200D02*
X145823000Y-98082200D01*
X88028499Y-96557801D02*
X88028499Y-111917801D01*
X88028499Y-111917801D02*
X85368499Y-111917801D01*
X85368499Y-111917801D02*
X85368499Y-96557801D01*
X85368499Y-96557801D02*
X88028499Y-96557801D01*
X85368499Y-97507801D02*
X79368499Y-97507801D01*
X79368499Y-97507801D02*
X79368499Y-98267801D01*
X79368499Y-98267801D02*
X85368499Y-98267801D01*
X85368499Y-110293201D02*
X79368499Y-110293201D01*
X85368499Y-110413201D02*
X79368499Y-110413201D01*
X85368499Y-110533201D02*
X79368499Y-110533201D01*
X85368499Y-110653201D02*
X79368499Y-110653201D01*
X85368499Y-110773201D02*
X79368499Y-110773201D01*
X85368499Y-110893201D02*
X79368499Y-110893201D01*
X88358499Y-97507801D02*
X88028499Y-97507801D01*
X88358499Y-98267801D02*
X88028499Y-98267801D01*
X88028499Y-99157801D02*
X85368499Y-99157801D01*
X85368499Y-100047801D02*
X79368499Y-100047801D01*
X79368499Y-100047801D02*
X79368499Y-100807801D01*
X79368499Y-100807801D02*
X85368499Y-100807801D01*
X88425570Y-100047801D02*
X88028499Y-100047801D01*
X88425570Y-100807801D02*
X88028499Y-100807801D01*
X88028499Y-101697801D02*
X85368499Y-101697801D01*
X85368499Y-102587801D02*
X79368499Y-102587801D01*
X79368499Y-102587801D02*
X79368499Y-103347801D01*
X79368499Y-103347801D02*
X85368499Y-103347801D01*
X88425570Y-102587801D02*
X88028499Y-102587801D01*
X88425570Y-103347801D02*
X88028499Y-103347801D01*
X88028499Y-104237801D02*
X85368499Y-104237801D01*
X85368499Y-105127801D02*
X79368499Y-105127801D01*
X79368499Y-105127801D02*
X79368499Y-105887801D01*
X79368499Y-105887801D02*
X85368499Y-105887801D01*
X88425570Y-105127801D02*
X88028499Y-105127801D01*
X88425570Y-105887801D02*
X88028499Y-105887801D01*
X88028499Y-106777801D02*
X85368499Y-106777801D01*
X85368499Y-107667801D02*
X79368499Y-107667801D01*
X79368499Y-107667801D02*
X79368499Y-108427801D01*
X79368499Y-108427801D02*
X85368499Y-108427801D01*
X88425570Y-107667801D02*
X88028499Y-107667801D01*
X88425570Y-108427801D02*
X88028499Y-108427801D01*
X88028499Y-109317801D02*
X85368499Y-109317801D01*
X85368499Y-110207801D02*
X79368499Y-110207801D01*
X79368499Y-110207801D02*
X79368499Y-110967801D01*
X79368499Y-110967801D02*
X85368499Y-110967801D01*
X88425570Y-110207801D02*
X88028499Y-110207801D01*
X88425570Y-110967801D02*
X88028499Y-110967801D01*
X89519299Y-111883201D02*
X90789299Y-111883201D01*
X90789299Y-111883201D02*
X90789299Y-110613201D01*
X149798900Y-80206400D02*
X149798900Y-81151400D01*
X149798900Y-81151400D02*
X155078900Y-81151400D01*
X155078900Y-81151400D02*
X155078900Y-80206400D01*
X149798900Y-76816400D02*
X149798900Y-75871400D01*
X149798900Y-75871400D02*
X155078900Y-75871400D01*
X155078900Y-75871400D02*
X155078900Y-76816400D01*
X135304200Y-115597000D02*
X135304200Y-116542000D01*
X130024200Y-115597000D02*
X135304200Y-115597000D01*
X130024200Y-116542000D02*
X130024200Y-115597000D01*
X135304200Y-120877000D02*
X135304200Y-119932000D01*
X130024200Y-120877000D02*
X135304200Y-120877000D01*
X130024200Y-119932000D02*
X130024200Y-120877000D01*
X98753200Y-90571200D02*
X98753200Y-91501200D01*
X98753200Y-93731200D02*
X98753200Y-92801200D01*
X98753200Y-93731200D02*
X96593200Y-93731200D01*
X98753200Y-90571200D02*
X97293200Y-90571200D01*
X172661000Y-84715700D02*
X167461000Y-84715700D01*
X173061000Y-90315700D02*
X166461000Y-90315700D01*
X166461000Y-90315700D02*
X166461000Y-89915700D01*
X165740900Y-85985700D02*
X165740900Y-86385700D01*
X159140900Y-85985700D02*
X165740900Y-85985700D01*
X159540900Y-91585700D02*
X164740900Y-91585700D01*
X89415467Y-92504800D02*
X89072933Y-92504800D01*
X89415467Y-93524800D02*
X89072933Y-93524800D01*
X94511400Y-91892333D02*
X94511400Y-92234867D01*
X95531400Y-91892333D02*
X95531400Y-92234867D01*
X101064600Y-93897267D02*
X101064600Y-93554733D01*
X102084600Y-93897267D02*
X102084600Y-93554733D01*
X99307467Y-97127600D02*
X98964933Y-97127600D01*
X99307467Y-98147600D02*
X98964933Y-98147600D01*
X153265600Y-86874533D02*
X153265600Y-87217067D01*
X152245600Y-86874533D02*
X152245600Y-87217067D01*
X152215667Y-89101200D02*
X151873133Y-89101200D01*
X152215667Y-90121200D02*
X151873133Y-90121200D01*
X146001200Y-85021267D02*
X146001200Y-84678733D01*
X144981200Y-85021267D02*
X144981200Y-84678733D01*
X146234333Y-81557400D02*
X146576867Y-81557400D01*
X146234333Y-82577400D02*
X146576867Y-82577400D01*
X148305733Y-88313800D02*
X148648267Y-88313800D01*
X148305733Y-89333800D02*
X148648267Y-89333800D01*
X174423800Y-114090267D02*
X174423800Y-113747733D01*
X173403800Y-114090267D02*
X173403800Y-113747733D01*
X171050133Y-115343400D02*
X171392667Y-115343400D01*
X171050133Y-114323400D02*
X171392667Y-114323400D01*
X142195733Y-113362200D02*
X142538267Y-113362200D01*
X142195733Y-112342200D02*
X142538267Y-112342200D01*
X126688667Y-111427800D02*
X126346133Y-111427800D01*
X126688667Y-112447800D02*
X126346133Y-112447800D01*
X127329000Y-117228252D02*
X127329000Y-116705748D01*
X125909000Y-117228252D02*
X125909000Y-116705748D01*
X142538267Y-110771400D02*
X142195733Y-110771400D01*
X142538267Y-109751400D02*
X142195733Y-109751400D01*
X142195733Y-109120400D02*
X142538267Y-109120400D01*
X142195733Y-108100400D02*
X142538267Y-108100400D01*
X106610333Y-79173800D02*
X106952867Y-79173800D01*
X106610333Y-78153800D02*
X106952867Y-78153800D01*
X108659200Y-89147467D02*
X108659200Y-88804933D01*
X109679200Y-89147467D02*
X109679200Y-88804933D01*
X164941067Y-96966500D02*
X164598533Y-96966500D01*
X164941067Y-95946500D02*
X164598533Y-95946500D01*
X160826267Y-95971900D02*
X160483733Y-95971900D01*
X160826267Y-96991900D02*
X160483733Y-96991900D01*
X156649267Y-96966500D02*
X156306733Y-96966500D01*
X156649267Y-95946500D02*
X156306733Y-95946500D01*
X153955933Y-99172300D02*
X154298467Y-99172300D01*
X153955933Y-100192300D02*
X154298467Y-100192300D01*
X168751067Y-82475800D02*
X168408533Y-82475800D01*
X168751067Y-81455800D02*
X168408533Y-81455800D01*
X167911933Y-92699300D02*
X168254467Y-92699300D01*
X167911933Y-91679300D02*
X168254467Y-91679300D01*
X154236267Y-102423500D02*
X153893733Y-102423500D01*
X154236267Y-103443500D02*
X153893733Y-103443500D01*
X160840267Y-105272300D02*
X160497733Y-105272300D01*
X160840267Y-104252300D02*
X160497733Y-104252300D01*
X129461800Y-80346733D02*
X129461800Y-80689267D01*
X130481800Y-80346733D02*
X130481800Y-80689267D01*
X126396933Y-81379600D02*
X126739467Y-81379600D01*
X126396933Y-82399600D02*
X126739467Y-82399600D01*
X138796300Y-99167767D02*
X138796300Y-98825233D01*
X139816300Y-99167767D02*
X139816300Y-98825233D01*
X121557867Y-107647200D02*
X121215333Y-107647200D01*
X121557867Y-106627200D02*
X121215333Y-106627200D01*
X124411200Y-99231267D02*
X124411200Y-98888733D01*
X123391200Y-99231267D02*
X123391200Y-98888733D01*
X132234400Y-99256667D02*
X132234400Y-98914133D01*
X131214400Y-99256667D02*
X131214400Y-98914133D01*
X115334867Y-107164600D02*
X114992333Y-107164600D01*
X115334867Y-106144600D02*
X114992333Y-106144600D01*
X146830867Y-106093800D02*
X146488333Y-106093800D01*
X146830867Y-107113800D02*
X146488333Y-107113800D01*
X114348800Y-99307467D02*
X114348800Y-98964933D01*
X115368800Y-99307467D02*
X115368800Y-98964933D01*
X147775200Y-99053467D02*
X147775200Y-98710933D01*
X148795200Y-99053467D02*
X148795200Y-98710933D01*
X93894400Y-88405600D02*
X89394400Y-88405600D01*
X95144400Y-84405600D02*
X95144400Y-85905600D01*
X89394400Y-81905600D02*
X93894400Y-81905600D01*
X88144400Y-85905600D02*
X88144400Y-84405600D01*
X105282200Y-100913000D02*
X107097200Y-100913000D01*
X105282200Y-100668000D02*
X105282200Y-100913000D01*
X101422200Y-100668000D02*
X105282200Y-100668000D01*
X97562200Y-100668000D02*
X97562200Y-100913000D01*
X101422200Y-100668000D02*
X97562200Y-100668000D01*
X105282200Y-118788000D02*
X105282200Y-118543000D01*
X101422200Y-118788000D02*
X105282200Y-118788000D01*
X97562200Y-118788000D02*
X97562200Y-118543000D01*
X101422200Y-118788000D02*
X97562200Y-118788000D01*
D10*
X149589200Y-86537200D02*
X147489200Y-86537200D01*
X150364200Y-83287200D02*
X147489200Y-83287200D01*
D11*
X172831400Y-117133800D02*
X172831400Y-118933800D01*
X169611400Y-118933800D02*
X169611400Y-116483800D01*
X135763000Y-111775600D02*
X134263000Y-111775600D01*
X137263000Y-114995600D02*
X134263000Y-114995600D01*
X109814000Y-83707400D02*
X109814000Y-85507400D01*
X106594000Y-85507400D02*
X106594000Y-83057400D01*
D10*
X162330800Y-99335900D02*
X162330800Y-100485900D01*
X159080800Y-98560900D02*
X159080800Y-100485900D01*
D11*
X126010200Y-78342000D02*
X127910200Y-78342000D01*
X127410200Y-80662000D02*
X126010200Y-80662000D01*
X139513800Y-103376500D02*
X139513800Y-105276500D01*
X137193800Y-104776500D02*
X137193800Y-103376500D01*
X123549900Y-103135200D02*
X123549900Y-105035200D01*
X121229900Y-104535200D02*
X121229900Y-103135200D01*
X129726200Y-104738400D02*
X129726200Y-103338400D01*
X132046200Y-103338400D02*
X132046200Y-105238400D01*
X112682800Y-104052600D02*
X112682800Y-102652600D01*
X115002800Y-102652600D02*
X115002800Y-104552600D01*
X146414000Y-103951000D02*
X146414000Y-102551000D01*
X148734000Y-102551000D02*
X148734000Y-104451000D01*
D10*
X94268542Y-105676552D02*
X94316161Y-105628933D01*
X94363780Y-105486076D01*
X94363780Y-105390838D01*
X94316161Y-105247980D01*
X94220923Y-105152742D01*
X94125685Y-105105123D01*
X93935209Y-105057504D01*
X93792352Y-105057504D01*
X93601876Y-105105123D01*
X93506638Y-105152742D01*
X93411400Y-105247980D01*
X93363780Y-105390838D01*
X93363780Y-105486076D01*
X93411400Y-105628933D01*
X93459019Y-105676552D01*
X93459019Y-106057504D02*
X93411400Y-106105123D01*
X93363780Y-106200361D01*
X93363780Y-106438457D01*
X93411400Y-106533695D01*
X93459019Y-106581314D01*
X93554257Y-106628933D01*
X93649495Y-106628933D01*
X93792352Y-106581314D01*
X94363780Y-106009885D01*
X94363780Y-106628933D01*
X93363780Y-107247980D02*
X93363780Y-107343219D01*
X93411400Y-107438457D01*
X93459019Y-107486076D01*
X93554257Y-107533695D01*
X93744733Y-107581314D01*
X93982828Y-107581314D01*
X94173304Y-107533695D01*
X94268542Y-107486076D01*
X94316161Y-107438457D01*
X94363780Y-107343219D01*
X94363780Y-107247980D01*
X94316161Y-107152742D01*
X94268542Y-107105123D01*
X94173304Y-107057504D01*
X93982828Y-107009885D01*
X93744733Y-107009885D01*
X93554257Y-107057504D01*
X93459019Y-107105123D01*
X93411400Y-107152742D01*
X93363780Y-107247980D01*
X94363780Y-108533695D02*
X94363780Y-107962266D01*
X94363780Y-108247980D02*
X93363780Y-108247980D01*
X93506638Y-108152742D01*
X93601876Y-108057504D01*
X93649495Y-107962266D01*
X93186542Y-111084152D02*
X93234161Y-111036533D01*
X93281780Y-110893676D01*
X93281780Y-110798438D01*
X93234161Y-110655580D01*
X93138923Y-110560342D01*
X93043685Y-110512723D01*
X92853209Y-110465104D01*
X92710352Y-110465104D01*
X92519876Y-110512723D01*
X92424638Y-110560342D01*
X92329400Y-110655580D01*
X92281780Y-110798438D01*
X92281780Y-110893676D01*
X92329400Y-111036533D01*
X92377019Y-111084152D01*
X92377019Y-111465104D02*
X92329400Y-111512723D01*
X92281780Y-111607961D01*
X92281780Y-111846057D01*
X92329400Y-111941295D01*
X92377019Y-111988914D01*
X92472257Y-112036533D01*
X92567495Y-112036533D01*
X92710352Y-111988914D01*
X93281780Y-111417485D01*
X93281780Y-112036533D01*
X92281780Y-112655580D02*
X92281780Y-112750819D01*
X92329400Y-112846057D01*
X92377019Y-112893676D01*
X92472257Y-112941295D01*
X92662733Y-112988914D01*
X92900828Y-112988914D01*
X93091304Y-112941295D01*
X93186542Y-112893676D01*
X93234161Y-112846057D01*
X93281780Y-112750819D01*
X93281780Y-112655580D01*
X93234161Y-112560342D01*
X93186542Y-112512723D01*
X93091304Y-112465104D01*
X92900828Y-112417485D01*
X92662733Y-112417485D01*
X92472257Y-112465104D01*
X92377019Y-112512723D01*
X92329400Y-112560342D01*
X92281780Y-112655580D01*
X92377019Y-113369866D02*
X92329400Y-113417485D01*
X92281780Y-113512723D01*
X92281780Y-113750819D01*
X92329400Y-113846057D01*
X92377019Y-113893676D01*
X92472257Y-113941295D01*
X92567495Y-113941295D01*
X92710352Y-113893676D01*
X93281780Y-113322247D01*
X93281780Y-113941295D01*
X144070342Y-87337752D02*
X144117961Y-87290133D01*
X144165580Y-87147276D01*
X144165580Y-87052038D01*
X144117961Y-86909180D01*
X144022723Y-86813942D01*
X143927485Y-86766323D01*
X143737009Y-86718704D01*
X143594152Y-86718704D01*
X143403676Y-86766323D01*
X143308438Y-86813942D01*
X143213200Y-86909180D01*
X143165580Y-87052038D01*
X143165580Y-87147276D01*
X143213200Y-87290133D01*
X143260819Y-87337752D01*
X143165580Y-87671085D02*
X143165580Y-88290133D01*
X143546533Y-87956800D01*
X143546533Y-88099657D01*
X143594152Y-88194895D01*
X143641771Y-88242514D01*
X143737009Y-88290133D01*
X143975104Y-88290133D01*
X144070342Y-88242514D01*
X144117961Y-88194895D01*
X144165580Y-88099657D01*
X144165580Y-87813942D01*
X144117961Y-87718704D01*
X144070342Y-87671085D01*
X143165580Y-88909180D02*
X143165580Y-89004419D01*
X143213200Y-89099657D01*
X143260819Y-89147276D01*
X143356057Y-89194895D01*
X143546533Y-89242514D01*
X143784628Y-89242514D01*
X143975104Y-89194895D01*
X144070342Y-89147276D01*
X144117961Y-89099657D01*
X144165580Y-89004419D01*
X144165580Y-88909180D01*
X144117961Y-88813942D01*
X144070342Y-88766323D01*
X143975104Y-88718704D01*
X143784628Y-88671085D01*
X143546533Y-88671085D01*
X143356057Y-88718704D01*
X143260819Y-88766323D01*
X143213200Y-88813942D01*
X143165580Y-88909180D01*
X144165580Y-90194895D02*
X144165580Y-89623466D01*
X144165580Y-89909180D02*
X143165580Y-89909180D01*
X143308438Y-89813942D01*
X143403676Y-89718704D01*
X143451295Y-89623466D01*
X157532342Y-82234752D02*
X157579961Y-82187133D01*
X157627580Y-82044276D01*
X157627580Y-81949038D01*
X157579961Y-81806180D01*
X157484723Y-81710942D01*
X157389485Y-81663323D01*
X157199009Y-81615704D01*
X157056152Y-81615704D01*
X156865676Y-81663323D01*
X156770438Y-81710942D01*
X156675200Y-81806180D01*
X156627580Y-81949038D01*
X156627580Y-82044276D01*
X156675200Y-82187133D01*
X156722819Y-82234752D01*
X156627580Y-82568085D02*
X156627580Y-83187133D01*
X157008533Y-82853800D01*
X157008533Y-82996657D01*
X157056152Y-83091895D01*
X157103771Y-83139514D01*
X157199009Y-83187133D01*
X157437104Y-83187133D01*
X157532342Y-83139514D01*
X157579961Y-83091895D01*
X157627580Y-82996657D01*
X157627580Y-82710942D01*
X157579961Y-82615704D01*
X157532342Y-82568085D01*
X156627580Y-83806180D02*
X156627580Y-83901419D01*
X156675200Y-83996657D01*
X156722819Y-84044276D01*
X156818057Y-84091895D01*
X157008533Y-84139514D01*
X157246628Y-84139514D01*
X157437104Y-84091895D01*
X157532342Y-84044276D01*
X157579961Y-83996657D01*
X157627580Y-83901419D01*
X157627580Y-83806180D01*
X157579961Y-83710942D01*
X157532342Y-83663323D01*
X157437104Y-83615704D01*
X157246628Y-83568085D01*
X157008533Y-83568085D01*
X156818057Y-83615704D01*
X156722819Y-83663323D01*
X156675200Y-83710942D01*
X156627580Y-83806180D01*
X156722819Y-84520466D02*
X156675200Y-84568085D01*
X156627580Y-84663323D01*
X156627580Y-84901419D01*
X156675200Y-84996657D01*
X156722819Y-85044276D01*
X156818057Y-85091895D01*
X156913295Y-85091895D01*
X157056152Y-85044276D01*
X157627580Y-84472847D01*
X157627580Y-85091895D01*
X155932142Y-82178952D02*
X155979761Y-82131333D01*
X156027380Y-81988476D01*
X156027380Y-81893238D01*
X155979761Y-81750380D01*
X155884523Y-81655142D01*
X155789285Y-81607523D01*
X155598809Y-81559904D01*
X155455952Y-81559904D01*
X155265476Y-81607523D01*
X155170238Y-81655142D01*
X155075000Y-81750380D01*
X155027380Y-81893238D01*
X155027380Y-81988476D01*
X155075000Y-82131333D01*
X155122619Y-82178952D01*
X155027380Y-82512285D02*
X155027380Y-83131333D01*
X155408333Y-82798000D01*
X155408333Y-82940857D01*
X155455952Y-83036095D01*
X155503571Y-83083714D01*
X155598809Y-83131333D01*
X155836904Y-83131333D01*
X155932142Y-83083714D01*
X155979761Y-83036095D01*
X156027380Y-82940857D01*
X156027380Y-82655142D01*
X155979761Y-82559904D01*
X155932142Y-82512285D01*
X155027380Y-83750380D02*
X155027380Y-83845619D01*
X155075000Y-83940857D01*
X155122619Y-83988476D01*
X155217857Y-84036095D01*
X155408333Y-84083714D01*
X155646428Y-84083714D01*
X155836904Y-84036095D01*
X155932142Y-83988476D01*
X155979761Y-83940857D01*
X156027380Y-83845619D01*
X156027380Y-83750380D01*
X155979761Y-83655142D01*
X155932142Y-83607523D01*
X155836904Y-83559904D01*
X155646428Y-83512285D01*
X155408333Y-83512285D01*
X155217857Y-83559904D01*
X155122619Y-83607523D01*
X155075000Y-83655142D01*
X155027380Y-83750380D01*
X155027380Y-84417047D02*
X155027380Y-85036095D01*
X155408333Y-84702761D01*
X155408333Y-84845619D01*
X155455952Y-84940857D01*
X155503571Y-84988476D01*
X155598809Y-85036095D01*
X155836904Y-85036095D01*
X155932142Y-84988476D01*
X155979761Y-84940857D01*
X156027380Y-84845619D01*
X156027380Y-84559904D01*
X155979761Y-84464666D01*
X155932142Y-84417047D01*
X159386542Y-78433752D02*
X159434161Y-78386133D01*
X159481780Y-78243276D01*
X159481780Y-78148038D01*
X159434161Y-78005180D01*
X159338923Y-77909942D01*
X159243685Y-77862323D01*
X159053209Y-77814704D01*
X158910352Y-77814704D01*
X158719876Y-77862323D01*
X158624638Y-77909942D01*
X158529400Y-78005180D01*
X158481780Y-78148038D01*
X158481780Y-78243276D01*
X158529400Y-78386133D01*
X158577019Y-78433752D01*
X158481780Y-78767085D02*
X158481780Y-79386133D01*
X158862733Y-79052800D01*
X158862733Y-79195657D01*
X158910352Y-79290895D01*
X158957971Y-79338514D01*
X159053209Y-79386133D01*
X159291304Y-79386133D01*
X159386542Y-79338514D01*
X159434161Y-79290895D01*
X159481780Y-79195657D01*
X159481780Y-78909942D01*
X159434161Y-78814704D01*
X159386542Y-78767085D01*
X158481780Y-80005180D02*
X158481780Y-80100419D01*
X158529400Y-80195657D01*
X158577019Y-80243276D01*
X158672257Y-80290895D01*
X158862733Y-80338514D01*
X159100828Y-80338514D01*
X159291304Y-80290895D01*
X159386542Y-80243276D01*
X159434161Y-80195657D01*
X159481780Y-80100419D01*
X159481780Y-80005180D01*
X159434161Y-79909942D01*
X159386542Y-79862323D01*
X159291304Y-79814704D01*
X159100828Y-79767085D01*
X158862733Y-79767085D01*
X158672257Y-79814704D01*
X158577019Y-79862323D01*
X158529400Y-79909942D01*
X158481780Y-80005180D01*
X158815114Y-81195657D02*
X159481780Y-81195657D01*
X158434161Y-80957561D02*
X159148447Y-80719466D01*
X159148447Y-81338514D01*
X175744142Y-116852552D02*
X175791761Y-116804933D01*
X175839380Y-116662076D01*
X175839380Y-116566838D01*
X175791761Y-116423980D01*
X175696523Y-116328742D01*
X175601285Y-116281123D01*
X175410809Y-116233504D01*
X175267952Y-116233504D01*
X175077476Y-116281123D01*
X174982238Y-116328742D01*
X174887000Y-116423980D01*
X174839380Y-116566838D01*
X174839380Y-116662076D01*
X174887000Y-116804933D01*
X174934619Y-116852552D01*
X175172714Y-117709695D02*
X175839380Y-117709695D01*
X174791761Y-117471600D02*
X175506047Y-117233504D01*
X175506047Y-117852552D01*
X174839380Y-118423980D02*
X174839380Y-118519219D01*
X174887000Y-118614457D01*
X174934619Y-118662076D01*
X175029857Y-118709695D01*
X175220333Y-118757314D01*
X175458428Y-118757314D01*
X175648904Y-118709695D01*
X175744142Y-118662076D01*
X175791761Y-118614457D01*
X175839380Y-118519219D01*
X175839380Y-118423980D01*
X175791761Y-118328742D01*
X175744142Y-118281123D01*
X175648904Y-118233504D01*
X175458428Y-118185885D01*
X175220333Y-118185885D01*
X175029857Y-118233504D01*
X174934619Y-118281123D01*
X174887000Y-118328742D01*
X174839380Y-118423980D01*
X175839380Y-119709695D02*
X175839380Y-119138266D01*
X175839380Y-119423980D02*
X174839380Y-119423980D01*
X174982238Y-119328742D01*
X175077476Y-119233504D01*
X175125095Y-119138266D01*
X167209742Y-117854552D02*
X167257361Y-117806933D01*
X167304980Y-117664076D01*
X167304980Y-117568838D01*
X167257361Y-117425980D01*
X167162123Y-117330742D01*
X167066885Y-117283123D01*
X166876409Y-117235504D01*
X166733552Y-117235504D01*
X166543076Y-117283123D01*
X166447838Y-117330742D01*
X166352600Y-117425980D01*
X166304980Y-117568838D01*
X166304980Y-117664076D01*
X166352600Y-117806933D01*
X166400219Y-117854552D01*
X166638314Y-118711695D02*
X167304980Y-118711695D01*
X166257361Y-118473600D02*
X166971647Y-118235504D01*
X166971647Y-118854552D01*
X166304980Y-119425980D02*
X166304980Y-119521219D01*
X166352600Y-119616457D01*
X166400219Y-119664076D01*
X166495457Y-119711695D01*
X166685933Y-119759314D01*
X166924028Y-119759314D01*
X167114504Y-119711695D01*
X167209742Y-119664076D01*
X167257361Y-119616457D01*
X167304980Y-119521219D01*
X167304980Y-119425980D01*
X167257361Y-119330742D01*
X167209742Y-119283123D01*
X167114504Y-119235504D01*
X166924028Y-119187885D01*
X166685933Y-119187885D01*
X166495457Y-119235504D01*
X166400219Y-119283123D01*
X166352600Y-119330742D01*
X166304980Y-119425980D01*
X166400219Y-120140266D02*
X166352600Y-120187885D01*
X166304980Y-120283123D01*
X166304980Y-120521219D01*
X166352600Y-120616457D01*
X166400219Y-120664076D01*
X166495457Y-120711695D01*
X166590695Y-120711695D01*
X166733552Y-120664076D01*
X167304980Y-120092647D01*
X167304980Y-120711695D01*
X131940147Y-112379942D02*
X131987766Y-112427561D01*
X132130623Y-112475180D01*
X132225861Y-112475180D01*
X132368719Y-112427561D01*
X132463957Y-112332323D01*
X132511576Y-112237085D01*
X132559195Y-112046609D01*
X132559195Y-111903752D01*
X132511576Y-111713276D01*
X132463957Y-111618038D01*
X132368719Y-111522800D01*
X132225861Y-111475180D01*
X132130623Y-111475180D01*
X131987766Y-111522800D01*
X131940147Y-111570419D01*
X131035385Y-111475180D02*
X131511576Y-111475180D01*
X131559195Y-111951371D01*
X131511576Y-111903752D01*
X131416338Y-111856133D01*
X131178242Y-111856133D01*
X131083004Y-111903752D01*
X131035385Y-111951371D01*
X130987766Y-112046609D01*
X130987766Y-112284704D01*
X131035385Y-112379942D01*
X131083004Y-112427561D01*
X131178242Y-112475180D01*
X131416338Y-112475180D01*
X131511576Y-112427561D01*
X131559195Y-112379942D01*
X130368719Y-111475180D02*
X130273480Y-111475180D01*
X130178242Y-111522800D01*
X130130623Y-111570419D01*
X130083004Y-111665657D01*
X130035385Y-111856133D01*
X130035385Y-112094228D01*
X130083004Y-112284704D01*
X130130623Y-112379942D01*
X130178242Y-112427561D01*
X130273480Y-112475180D01*
X130368719Y-112475180D01*
X130463957Y-112427561D01*
X130511576Y-112379942D01*
X130559195Y-112284704D01*
X130606814Y-112094228D01*
X130606814Y-111856133D01*
X130559195Y-111665657D01*
X130511576Y-111570419D01*
X130463957Y-111522800D01*
X130368719Y-111475180D01*
X129083004Y-112475180D02*
X129654433Y-112475180D01*
X129368719Y-112475180D02*
X129368719Y-111475180D01*
X129463957Y-111618038D01*
X129559195Y-111713276D01*
X129654433Y-111760895D01*
X147219847Y-114893342D02*
X147267466Y-114940961D01*
X147410323Y-114988580D01*
X147505561Y-114988580D01*
X147648419Y-114940961D01*
X147743657Y-114845723D01*
X147791276Y-114750485D01*
X147838895Y-114560009D01*
X147838895Y-114417152D01*
X147791276Y-114226676D01*
X147743657Y-114131438D01*
X147648419Y-114036200D01*
X147505561Y-113988580D01*
X147410323Y-113988580D01*
X147267466Y-114036200D01*
X147219847Y-114083819D01*
X146315085Y-113988580D02*
X146791276Y-113988580D01*
X146838895Y-114464771D01*
X146791276Y-114417152D01*
X146696038Y-114369533D01*
X146457942Y-114369533D01*
X146362704Y-114417152D01*
X146315085Y-114464771D01*
X146267466Y-114560009D01*
X146267466Y-114798104D01*
X146315085Y-114893342D01*
X146362704Y-114940961D01*
X146457942Y-114988580D01*
X146696038Y-114988580D01*
X146791276Y-114940961D01*
X146838895Y-114893342D01*
X145648419Y-113988580D02*
X145553180Y-113988580D01*
X145457942Y-114036200D01*
X145410323Y-114083819D01*
X145362704Y-114179057D01*
X145315085Y-114369533D01*
X145315085Y-114607628D01*
X145362704Y-114798104D01*
X145410323Y-114893342D01*
X145457942Y-114940961D01*
X145553180Y-114988580D01*
X145648419Y-114988580D01*
X145743657Y-114940961D01*
X145791276Y-114893342D01*
X145838895Y-114798104D01*
X145886514Y-114607628D01*
X145886514Y-114369533D01*
X145838895Y-114179057D01*
X145791276Y-114083819D01*
X145743657Y-114036200D01*
X145648419Y-113988580D01*
X144934133Y-114083819D02*
X144886514Y-114036200D01*
X144791276Y-113988580D01*
X144553180Y-113988580D01*
X144457942Y-114036200D01*
X144410323Y-114083819D01*
X144362704Y-114179057D01*
X144362704Y-114274295D01*
X144410323Y-114417152D01*
X144981752Y-114988580D01*
X144362704Y-114988580D01*
X131993847Y-109442542D02*
X132041466Y-109490161D01*
X132184323Y-109537780D01*
X132279561Y-109537780D01*
X132422419Y-109490161D01*
X132517657Y-109394923D01*
X132565276Y-109299685D01*
X132612895Y-109109209D01*
X132612895Y-108966352D01*
X132565276Y-108775876D01*
X132517657Y-108680638D01*
X132422419Y-108585400D01*
X132279561Y-108537780D01*
X132184323Y-108537780D01*
X132041466Y-108585400D01*
X131993847Y-108633019D01*
X131089085Y-108537780D02*
X131565276Y-108537780D01*
X131612895Y-109013971D01*
X131565276Y-108966352D01*
X131470038Y-108918733D01*
X131231942Y-108918733D01*
X131136704Y-108966352D01*
X131089085Y-109013971D01*
X131041466Y-109109209D01*
X131041466Y-109347304D01*
X131089085Y-109442542D01*
X131136704Y-109490161D01*
X131231942Y-109537780D01*
X131470038Y-109537780D01*
X131565276Y-109490161D01*
X131612895Y-109442542D01*
X130422419Y-108537780D02*
X130327180Y-108537780D01*
X130231942Y-108585400D01*
X130184323Y-108633019D01*
X130136704Y-108728257D01*
X130089085Y-108918733D01*
X130089085Y-109156828D01*
X130136704Y-109347304D01*
X130184323Y-109442542D01*
X130231942Y-109490161D01*
X130327180Y-109537780D01*
X130422419Y-109537780D01*
X130517657Y-109490161D01*
X130565276Y-109442542D01*
X130612895Y-109347304D01*
X130660514Y-109156828D01*
X130660514Y-108918733D01*
X130612895Y-108728257D01*
X130565276Y-108633019D01*
X130517657Y-108585400D01*
X130422419Y-108537780D01*
X129755752Y-108537780D02*
X129136704Y-108537780D01*
X129470038Y-108918733D01*
X129327180Y-108918733D01*
X129231942Y-108966352D01*
X129184323Y-109013971D01*
X129136704Y-109109209D01*
X129136704Y-109347304D01*
X129184323Y-109442542D01*
X129231942Y-109490161D01*
X129327180Y-109537780D01*
X129612895Y-109537780D01*
X129708133Y-109490161D01*
X129755752Y-109442542D01*
X144603647Y-116790742D02*
X144651266Y-116838361D01*
X144794123Y-116885980D01*
X144889361Y-116885980D01*
X145032219Y-116838361D01*
X145127457Y-116743123D01*
X145175076Y-116647885D01*
X145222695Y-116457409D01*
X145222695Y-116314552D01*
X145175076Y-116124076D01*
X145127457Y-116028838D01*
X145032219Y-115933600D01*
X144889361Y-115885980D01*
X144794123Y-115885980D01*
X144651266Y-115933600D01*
X144603647Y-115981219D01*
X143698885Y-115885980D02*
X144175076Y-115885980D01*
X144222695Y-116362171D01*
X144175076Y-116314552D01*
X144079838Y-116266933D01*
X143841742Y-116266933D01*
X143746504Y-116314552D01*
X143698885Y-116362171D01*
X143651266Y-116457409D01*
X143651266Y-116695504D01*
X143698885Y-116790742D01*
X143746504Y-116838361D01*
X143841742Y-116885980D01*
X144079838Y-116885980D01*
X144175076Y-116838361D01*
X144222695Y-116790742D01*
X143032219Y-115885980D02*
X142936980Y-115885980D01*
X142841742Y-115933600D01*
X142794123Y-115981219D01*
X142746504Y-116076457D01*
X142698885Y-116266933D01*
X142698885Y-116505028D01*
X142746504Y-116695504D01*
X142794123Y-116790742D01*
X142841742Y-116838361D01*
X142936980Y-116885980D01*
X143032219Y-116885980D01*
X143127457Y-116838361D01*
X143175076Y-116790742D01*
X143222695Y-116695504D01*
X143270314Y-116505028D01*
X143270314Y-116266933D01*
X143222695Y-116076457D01*
X143175076Y-115981219D01*
X143127457Y-115933600D01*
X143032219Y-115885980D01*
X141841742Y-116219314D02*
X141841742Y-116885980D01*
X142079838Y-115838361D02*
X142317933Y-116552647D01*
X141698885Y-116552647D01*
X102675942Y-86993552D02*
X102723561Y-86945933D01*
X102771180Y-86803076D01*
X102771180Y-86707838D01*
X102723561Y-86564980D01*
X102628323Y-86469742D01*
X102533085Y-86422123D01*
X102342609Y-86374504D01*
X102199752Y-86374504D01*
X102009276Y-86422123D01*
X101914038Y-86469742D01*
X101818800Y-86564980D01*
X101771180Y-86707838D01*
X101771180Y-86803076D01*
X101818800Y-86945933D01*
X101866419Y-86993552D01*
X101771180Y-87850695D02*
X101771180Y-87660219D01*
X101818800Y-87564980D01*
X101866419Y-87517361D01*
X102009276Y-87422123D01*
X102199752Y-87374504D01*
X102580704Y-87374504D01*
X102675942Y-87422123D01*
X102723561Y-87469742D01*
X102771180Y-87564980D01*
X102771180Y-87755457D01*
X102723561Y-87850695D01*
X102675942Y-87898314D01*
X102580704Y-87945933D01*
X102342609Y-87945933D01*
X102247371Y-87898314D01*
X102199752Y-87850695D01*
X102152133Y-87755457D01*
X102152133Y-87564980D01*
X102199752Y-87469742D01*
X102247371Y-87422123D01*
X102342609Y-87374504D01*
X101771180Y-88564980D02*
X101771180Y-88660219D01*
X101818800Y-88755457D01*
X101866419Y-88803076D01*
X101961657Y-88850695D01*
X102152133Y-88898314D01*
X102390228Y-88898314D01*
X102580704Y-88850695D01*
X102675942Y-88803076D01*
X102723561Y-88755457D01*
X102771180Y-88660219D01*
X102771180Y-88564980D01*
X102723561Y-88469742D01*
X102675942Y-88422123D01*
X102580704Y-88374504D01*
X102390228Y-88326885D01*
X102152133Y-88326885D01*
X101961657Y-88374504D01*
X101866419Y-88422123D01*
X101818800Y-88469742D01*
X101771180Y-88564980D01*
X102771180Y-89850695D02*
X102771180Y-89279266D01*
X102771180Y-89564980D02*
X101771180Y-89564980D01*
X101914038Y-89469742D01*
X102009276Y-89374504D01*
X102056895Y-89279266D01*
X104301542Y-86993552D02*
X104349161Y-86945933D01*
X104396780Y-86803076D01*
X104396780Y-86707838D01*
X104349161Y-86564980D01*
X104253923Y-86469742D01*
X104158685Y-86422123D01*
X103968209Y-86374504D01*
X103825352Y-86374504D01*
X103634876Y-86422123D01*
X103539638Y-86469742D01*
X103444400Y-86564980D01*
X103396780Y-86707838D01*
X103396780Y-86803076D01*
X103444400Y-86945933D01*
X103492019Y-86993552D01*
X103396780Y-87850695D02*
X103396780Y-87660219D01*
X103444400Y-87564980D01*
X103492019Y-87517361D01*
X103634876Y-87422123D01*
X103825352Y-87374504D01*
X104206304Y-87374504D01*
X104301542Y-87422123D01*
X104349161Y-87469742D01*
X104396780Y-87564980D01*
X104396780Y-87755457D01*
X104349161Y-87850695D01*
X104301542Y-87898314D01*
X104206304Y-87945933D01*
X103968209Y-87945933D01*
X103872971Y-87898314D01*
X103825352Y-87850695D01*
X103777733Y-87755457D01*
X103777733Y-87564980D01*
X103825352Y-87469742D01*
X103872971Y-87422123D01*
X103968209Y-87374504D01*
X103396780Y-88564980D02*
X103396780Y-88660219D01*
X103444400Y-88755457D01*
X103492019Y-88803076D01*
X103587257Y-88850695D01*
X103777733Y-88898314D01*
X104015828Y-88898314D01*
X104206304Y-88850695D01*
X104301542Y-88803076D01*
X104349161Y-88755457D01*
X104396780Y-88660219D01*
X104396780Y-88564980D01*
X104349161Y-88469742D01*
X104301542Y-88422123D01*
X104206304Y-88374504D01*
X104015828Y-88326885D01*
X103777733Y-88326885D01*
X103587257Y-88374504D01*
X103492019Y-88422123D01*
X103444400Y-88469742D01*
X103396780Y-88564980D01*
X103492019Y-89279266D02*
X103444400Y-89326885D01*
X103396780Y-89422123D01*
X103396780Y-89660219D01*
X103444400Y-89755457D01*
X103492019Y-89803076D01*
X103587257Y-89850695D01*
X103682495Y-89850695D01*
X103825352Y-89803076D01*
X104396780Y-89231647D01*
X104396780Y-89850695D01*
X105927142Y-86993552D02*
X105974761Y-86945933D01*
X106022380Y-86803076D01*
X106022380Y-86707838D01*
X105974761Y-86564980D01*
X105879523Y-86469742D01*
X105784285Y-86422123D01*
X105593809Y-86374504D01*
X105450952Y-86374504D01*
X105260476Y-86422123D01*
X105165238Y-86469742D01*
X105070000Y-86564980D01*
X105022380Y-86707838D01*
X105022380Y-86803076D01*
X105070000Y-86945933D01*
X105117619Y-86993552D01*
X105022380Y-87850695D02*
X105022380Y-87660219D01*
X105070000Y-87564980D01*
X105117619Y-87517361D01*
X105260476Y-87422123D01*
X105450952Y-87374504D01*
X105831904Y-87374504D01*
X105927142Y-87422123D01*
X105974761Y-87469742D01*
X106022380Y-87564980D01*
X106022380Y-87755457D01*
X105974761Y-87850695D01*
X105927142Y-87898314D01*
X105831904Y-87945933D01*
X105593809Y-87945933D01*
X105498571Y-87898314D01*
X105450952Y-87850695D01*
X105403333Y-87755457D01*
X105403333Y-87564980D01*
X105450952Y-87469742D01*
X105498571Y-87422123D01*
X105593809Y-87374504D01*
X105022380Y-88564980D02*
X105022380Y-88660219D01*
X105070000Y-88755457D01*
X105117619Y-88803076D01*
X105212857Y-88850695D01*
X105403333Y-88898314D01*
X105641428Y-88898314D01*
X105831904Y-88850695D01*
X105927142Y-88803076D01*
X105974761Y-88755457D01*
X106022380Y-88660219D01*
X106022380Y-88564980D01*
X105974761Y-88469742D01*
X105927142Y-88422123D01*
X105831904Y-88374504D01*
X105641428Y-88326885D01*
X105403333Y-88326885D01*
X105212857Y-88374504D01*
X105117619Y-88422123D01*
X105070000Y-88469742D01*
X105022380Y-88564980D01*
X105022380Y-89231647D02*
X105022380Y-89850695D01*
X105403333Y-89517361D01*
X105403333Y-89660219D01*
X105450952Y-89755457D01*
X105498571Y-89803076D01*
X105593809Y-89850695D01*
X105831904Y-89850695D01*
X105927142Y-89803076D01*
X105974761Y-89755457D01*
X106022380Y-89660219D01*
X106022380Y-89374504D01*
X105974761Y-89279266D01*
X105927142Y-89231647D01*
X112632742Y-87857152D02*
X112680361Y-87809533D01*
X112727980Y-87666676D01*
X112727980Y-87571438D01*
X112680361Y-87428580D01*
X112585123Y-87333342D01*
X112489885Y-87285723D01*
X112299409Y-87238104D01*
X112156552Y-87238104D01*
X111966076Y-87285723D01*
X111870838Y-87333342D01*
X111775600Y-87428580D01*
X111727980Y-87571438D01*
X111727980Y-87666676D01*
X111775600Y-87809533D01*
X111823219Y-87857152D01*
X111727980Y-88714295D02*
X111727980Y-88523819D01*
X111775600Y-88428580D01*
X111823219Y-88380961D01*
X111966076Y-88285723D01*
X112156552Y-88238104D01*
X112537504Y-88238104D01*
X112632742Y-88285723D01*
X112680361Y-88333342D01*
X112727980Y-88428580D01*
X112727980Y-88619057D01*
X112680361Y-88714295D01*
X112632742Y-88761914D01*
X112537504Y-88809533D01*
X112299409Y-88809533D01*
X112204171Y-88761914D01*
X112156552Y-88714295D01*
X112108933Y-88619057D01*
X112108933Y-88428580D01*
X112156552Y-88333342D01*
X112204171Y-88285723D01*
X112299409Y-88238104D01*
X111727980Y-89428580D02*
X111727980Y-89523819D01*
X111775600Y-89619057D01*
X111823219Y-89666676D01*
X111918457Y-89714295D01*
X112108933Y-89761914D01*
X112347028Y-89761914D01*
X112537504Y-89714295D01*
X112632742Y-89666676D01*
X112680361Y-89619057D01*
X112727980Y-89523819D01*
X112727980Y-89428580D01*
X112680361Y-89333342D01*
X112632742Y-89285723D01*
X112537504Y-89238104D01*
X112347028Y-89190485D01*
X112108933Y-89190485D01*
X111918457Y-89238104D01*
X111823219Y-89285723D01*
X111775600Y-89333342D01*
X111727980Y-89428580D01*
X112061314Y-90619057D02*
X112727980Y-90619057D01*
X111680361Y-90380961D02*
X112394647Y-90142866D01*
X112394647Y-90761914D01*
X169005542Y-98729652D02*
X169053161Y-98682033D01*
X169100780Y-98539176D01*
X169100780Y-98443938D01*
X169053161Y-98301080D01*
X168957923Y-98205842D01*
X168862685Y-98158223D01*
X168672209Y-98110604D01*
X168529352Y-98110604D01*
X168338876Y-98158223D01*
X168243638Y-98205842D01*
X168148400Y-98301080D01*
X168100780Y-98443938D01*
X168100780Y-98539176D01*
X168148400Y-98682033D01*
X168196019Y-98729652D01*
X168100780Y-99062985D02*
X168100780Y-99729652D01*
X169100780Y-99301080D01*
X168100780Y-100301080D02*
X168100780Y-100396319D01*
X168148400Y-100491557D01*
X168196019Y-100539176D01*
X168291257Y-100586795D01*
X168481733Y-100634414D01*
X168719828Y-100634414D01*
X168910304Y-100586795D01*
X169005542Y-100539176D01*
X169053161Y-100491557D01*
X169100780Y-100396319D01*
X169100780Y-100301080D01*
X169053161Y-100205842D01*
X169005542Y-100158223D01*
X168910304Y-100110604D01*
X168719828Y-100062985D01*
X168481733Y-100062985D01*
X168291257Y-100110604D01*
X168196019Y-100158223D01*
X168148400Y-100205842D01*
X168100780Y-100301080D01*
X169100780Y-101586795D02*
X169100780Y-101015366D01*
X169100780Y-101301080D02*
X168100780Y-101301080D01*
X168243638Y-101205842D01*
X168338876Y-101110604D01*
X168386495Y-101015366D01*
X166084542Y-98664852D02*
X166132161Y-98617233D01*
X166179780Y-98474376D01*
X166179780Y-98379138D01*
X166132161Y-98236280D01*
X166036923Y-98141042D01*
X165941685Y-98093423D01*
X165751209Y-98045804D01*
X165608352Y-98045804D01*
X165417876Y-98093423D01*
X165322638Y-98141042D01*
X165227400Y-98236280D01*
X165179780Y-98379138D01*
X165179780Y-98474376D01*
X165227400Y-98617233D01*
X165275019Y-98664852D01*
X165179780Y-98998185D02*
X165179780Y-99664852D01*
X166179780Y-99236280D01*
X165179780Y-100236280D02*
X165179780Y-100331519D01*
X165227400Y-100426757D01*
X165275019Y-100474376D01*
X165370257Y-100521995D01*
X165560733Y-100569614D01*
X165798828Y-100569614D01*
X165989304Y-100521995D01*
X166084542Y-100474376D01*
X166132161Y-100426757D01*
X166179780Y-100331519D01*
X166179780Y-100236280D01*
X166132161Y-100141042D01*
X166084542Y-100093423D01*
X165989304Y-100045804D01*
X165798828Y-99998185D01*
X165560733Y-99998185D01*
X165370257Y-100045804D01*
X165275019Y-100093423D01*
X165227400Y-100141042D01*
X165179780Y-100236280D01*
X165275019Y-100950566D02*
X165227400Y-100998185D01*
X165179780Y-101093423D01*
X165179780Y-101331519D01*
X165227400Y-101426757D01*
X165275019Y-101474376D01*
X165370257Y-101521995D01*
X165465495Y-101521995D01*
X165608352Y-101474376D01*
X166179780Y-100902947D01*
X166179780Y-101521995D01*
X163303341Y-98751951D02*
X163350960Y-98704332D01*
X163398579Y-98561475D01*
X163398579Y-98466237D01*
X163350960Y-98323379D01*
X163255722Y-98228141D01*
X163160484Y-98180522D01*
X162970008Y-98132903D01*
X162827151Y-98132903D01*
X162636675Y-98180522D01*
X162541437Y-98228141D01*
X162446199Y-98323379D01*
X162398579Y-98466237D01*
X162398579Y-98561475D01*
X162446199Y-98704332D01*
X162493818Y-98751951D01*
X162398579Y-99085284D02*
X162398579Y-99751951D01*
X163398579Y-99323379D01*
X162398579Y-100323379D02*
X162398579Y-100418618D01*
X162446199Y-100513856D01*
X162493818Y-100561475D01*
X162589056Y-100609094D01*
X162779532Y-100656713D01*
X163017627Y-100656713D01*
X163208103Y-100609094D01*
X163303341Y-100561475D01*
X163350960Y-100513856D01*
X163398579Y-100418618D01*
X163398579Y-100323379D01*
X163350960Y-100228141D01*
X163303341Y-100180522D01*
X163208103Y-100132903D01*
X163017627Y-100085284D01*
X162779532Y-100085284D01*
X162589056Y-100132903D01*
X162493818Y-100180522D01*
X162446199Y-100228141D01*
X162398579Y-100323379D01*
X162398579Y-100990046D02*
X162398579Y-101609094D01*
X162779532Y-101275760D01*
X162779532Y-101418618D01*
X162827151Y-101513856D01*
X162874770Y-101561475D01*
X162970008Y-101609094D01*
X163208103Y-101609094D01*
X163303341Y-101561475D01*
X163350960Y-101513856D01*
X163398579Y-101418618D01*
X163398579Y-101132903D01*
X163350960Y-101037665D01*
X163303341Y-100990046D01*
X161788047Y-106813642D02*
X161835666Y-106861261D01*
X161978523Y-106908880D01*
X162073761Y-106908880D01*
X162216619Y-106861261D01*
X162311857Y-106766023D01*
X162359476Y-106670785D01*
X162407095Y-106480309D01*
X162407095Y-106337452D01*
X162359476Y-106146976D01*
X162311857Y-106051738D01*
X162216619Y-105956500D01*
X162073761Y-105908880D01*
X161978523Y-105908880D01*
X161835666Y-105956500D01*
X161788047Y-106004119D01*
X161454714Y-105908880D02*
X160788047Y-105908880D01*
X161216619Y-106908880D01*
X160216619Y-105908880D02*
X160121380Y-105908880D01*
X160026142Y-105956500D01*
X159978523Y-106004119D01*
X159930904Y-106099357D01*
X159883285Y-106289833D01*
X159883285Y-106527928D01*
X159930904Y-106718404D01*
X159978523Y-106813642D01*
X160026142Y-106861261D01*
X160121380Y-106908880D01*
X160216619Y-106908880D01*
X160311857Y-106861261D01*
X160359476Y-106813642D01*
X160407095Y-106718404D01*
X160454714Y-106527928D01*
X160454714Y-106289833D01*
X160407095Y-106099357D01*
X160359476Y-106004119D01*
X160311857Y-105956500D01*
X160216619Y-105908880D01*
X159026142Y-106242214D02*
X159026142Y-106908880D01*
X159264238Y-105861261D02*
X159502333Y-106575547D01*
X158883285Y-106575547D01*
X167362142Y-76757752D02*
X167409761Y-76710133D01*
X167457380Y-76567276D01*
X167457380Y-76472038D01*
X167409761Y-76329180D01*
X167314523Y-76233942D01*
X167219285Y-76186323D01*
X167028809Y-76138704D01*
X166885952Y-76138704D01*
X166695476Y-76186323D01*
X166600238Y-76233942D01*
X166505000Y-76329180D01*
X166457380Y-76472038D01*
X166457380Y-76567276D01*
X166505000Y-76710133D01*
X166552619Y-76757752D01*
X166457380Y-77091085D02*
X166457380Y-77757752D01*
X167457380Y-77329180D01*
X166457380Y-78329180D02*
X166457380Y-78424419D01*
X166505000Y-78519657D01*
X166552619Y-78567276D01*
X166647857Y-78614895D01*
X166838333Y-78662514D01*
X167076428Y-78662514D01*
X167266904Y-78614895D01*
X167362142Y-78567276D01*
X167409761Y-78519657D01*
X167457380Y-78424419D01*
X167457380Y-78329180D01*
X167409761Y-78233942D01*
X167362142Y-78186323D01*
X167266904Y-78138704D01*
X167076428Y-78091085D01*
X166838333Y-78091085D01*
X166647857Y-78138704D01*
X166552619Y-78186323D01*
X166505000Y-78233942D01*
X166457380Y-78329180D01*
X166457380Y-79567276D02*
X166457380Y-79091085D01*
X166933571Y-79043466D01*
X166885952Y-79091085D01*
X166838333Y-79186323D01*
X166838333Y-79424419D01*
X166885952Y-79519657D01*
X166933571Y-79567276D01*
X167028809Y-79614895D01*
X167266904Y-79614895D01*
X167362142Y-79567276D01*
X167409761Y-79519657D01*
X167457380Y-79424419D01*
X167457380Y-79186323D01*
X167409761Y-79091085D01*
X167362142Y-79043466D01*
X138037747Y-74182242D02*
X138085366Y-74229861D01*
X138228223Y-74277480D01*
X138323461Y-74277480D01*
X138466319Y-74229861D01*
X138561557Y-74134623D01*
X138609176Y-74039385D01*
X138656795Y-73848909D01*
X138656795Y-73706052D01*
X138609176Y-73515576D01*
X138561557Y-73420338D01*
X138466319Y-73325100D01*
X138323461Y-73277480D01*
X138228223Y-73277480D01*
X138085366Y-73325100D01*
X138037747Y-73372719D01*
X137466319Y-73706052D02*
X137561557Y-73658433D01*
X137609176Y-73610814D01*
X137656795Y-73515576D01*
X137656795Y-73467957D01*
X137609176Y-73372719D01*
X137561557Y-73325100D01*
X137466319Y-73277480D01*
X137275842Y-73277480D01*
X137180604Y-73325100D01*
X137132985Y-73372719D01*
X137085366Y-73467957D01*
X137085366Y-73515576D01*
X137132985Y-73610814D01*
X137180604Y-73658433D01*
X137275842Y-73706052D01*
X137466319Y-73706052D01*
X137561557Y-73753671D01*
X137609176Y-73801290D01*
X137656795Y-73896528D01*
X137656795Y-74087004D01*
X137609176Y-74182242D01*
X137561557Y-74229861D01*
X137466319Y-74277480D01*
X137275842Y-74277480D01*
X137180604Y-74229861D01*
X137132985Y-74182242D01*
X137085366Y-74087004D01*
X137085366Y-73896528D01*
X137132985Y-73801290D01*
X137180604Y-73753671D01*
X137275842Y-73706052D01*
X136466319Y-73277480D02*
X136371080Y-73277480D01*
X136275842Y-73325100D01*
X136228223Y-73372719D01*
X136180604Y-73467957D01*
X136132985Y-73658433D01*
X136132985Y-73896528D01*
X136180604Y-74087004D01*
X136228223Y-74182242D01*
X136275842Y-74229861D01*
X136371080Y-74277480D01*
X136466319Y-74277480D01*
X136561557Y-74229861D01*
X136609176Y-74182242D01*
X136656795Y-74087004D01*
X136704414Y-73896528D01*
X136704414Y-73658433D01*
X136656795Y-73467957D01*
X136609176Y-73372719D01*
X136561557Y-73325100D01*
X136466319Y-73277480D01*
X135180604Y-74277480D02*
X135752033Y-74277480D01*
X135466319Y-74277480D02*
X135466319Y-73277480D01*
X135561557Y-73420338D01*
X135656795Y-73515576D01*
X135752033Y-73563195D01*
X122066342Y-78433752D02*
X122113961Y-78386133D01*
X122161580Y-78243276D01*
X122161580Y-78148038D01*
X122113961Y-78005180D01*
X122018723Y-77909942D01*
X121923485Y-77862323D01*
X121733009Y-77814704D01*
X121590152Y-77814704D01*
X121399676Y-77862323D01*
X121304438Y-77909942D01*
X121209200Y-78005180D01*
X121161580Y-78148038D01*
X121161580Y-78243276D01*
X121209200Y-78386133D01*
X121256819Y-78433752D01*
X121590152Y-79005180D02*
X121542533Y-78909942D01*
X121494914Y-78862323D01*
X121399676Y-78814704D01*
X121352057Y-78814704D01*
X121256819Y-78862323D01*
X121209200Y-78909942D01*
X121161580Y-79005180D01*
X121161580Y-79195657D01*
X121209200Y-79290895D01*
X121256819Y-79338514D01*
X121352057Y-79386133D01*
X121399676Y-79386133D01*
X121494914Y-79338514D01*
X121542533Y-79290895D01*
X121590152Y-79195657D01*
X121590152Y-79005180D01*
X121637771Y-78909942D01*
X121685390Y-78862323D01*
X121780628Y-78814704D01*
X121971104Y-78814704D01*
X122066342Y-78862323D01*
X122113961Y-78909942D01*
X122161580Y-79005180D01*
X122161580Y-79195657D01*
X122113961Y-79290895D01*
X122066342Y-79338514D01*
X121971104Y-79386133D01*
X121780628Y-79386133D01*
X121685390Y-79338514D01*
X121637771Y-79290895D01*
X121590152Y-79195657D01*
X121161580Y-80005180D02*
X121161580Y-80100419D01*
X121209200Y-80195657D01*
X121256819Y-80243276D01*
X121352057Y-80290895D01*
X121542533Y-80338514D01*
X121780628Y-80338514D01*
X121971104Y-80290895D01*
X122066342Y-80243276D01*
X122113961Y-80195657D01*
X122161580Y-80100419D01*
X122161580Y-80005180D01*
X122113961Y-79909942D01*
X122066342Y-79862323D01*
X121971104Y-79814704D01*
X121780628Y-79767085D01*
X121542533Y-79767085D01*
X121352057Y-79814704D01*
X121256819Y-79862323D01*
X121209200Y-79909942D01*
X121161580Y-80005180D01*
X121256819Y-80719466D02*
X121209200Y-80767085D01*
X121161580Y-80862323D01*
X121161580Y-81100419D01*
X121209200Y-81195657D01*
X121256819Y-81243276D01*
X121352057Y-81290895D01*
X121447295Y-81290895D01*
X121590152Y-81243276D01*
X122161580Y-80671847D01*
X122161580Y-81290895D01*
X134994942Y-102957452D02*
X135042561Y-102909833D01*
X135090180Y-102766976D01*
X135090180Y-102671738D01*
X135042561Y-102528880D01*
X134947323Y-102433642D01*
X134852085Y-102386023D01*
X134661609Y-102338404D01*
X134518752Y-102338404D01*
X134328276Y-102386023D01*
X134233038Y-102433642D01*
X134137800Y-102528880D01*
X134090180Y-102671738D01*
X134090180Y-102766976D01*
X134137800Y-102909833D01*
X134185419Y-102957452D01*
X135090180Y-103433642D02*
X135090180Y-103624119D01*
X135042561Y-103719357D01*
X134994942Y-103766976D01*
X134852085Y-103862214D01*
X134661609Y-103909833D01*
X134280657Y-103909833D01*
X134185419Y-103862214D01*
X134137800Y-103814595D01*
X134090180Y-103719357D01*
X134090180Y-103528880D01*
X134137800Y-103433642D01*
X134185419Y-103386023D01*
X134280657Y-103338404D01*
X134518752Y-103338404D01*
X134613990Y-103386023D01*
X134661609Y-103433642D01*
X134709228Y-103528880D01*
X134709228Y-103719357D01*
X134661609Y-103814595D01*
X134613990Y-103862214D01*
X134518752Y-103909833D01*
X134090180Y-104528880D02*
X134090180Y-104624119D01*
X134137800Y-104719357D01*
X134185419Y-104766976D01*
X134280657Y-104814595D01*
X134471133Y-104862214D01*
X134709228Y-104862214D01*
X134899704Y-104814595D01*
X134994942Y-104766976D01*
X135042561Y-104719357D01*
X135090180Y-104624119D01*
X135090180Y-104528880D01*
X135042561Y-104433642D01*
X134994942Y-104386023D01*
X134899704Y-104338404D01*
X134709228Y-104290785D01*
X134471133Y-104290785D01*
X134280657Y-104338404D01*
X134185419Y-104386023D01*
X134137800Y-104433642D01*
X134090180Y-104528880D01*
X135090180Y-105814595D02*
X135090180Y-105243166D01*
X135090180Y-105528880D02*
X134090180Y-105528880D01*
X134233038Y-105433642D01*
X134328276Y-105338404D01*
X134375895Y-105243166D01*
X119043742Y-102665352D02*
X119091361Y-102617733D01*
X119138980Y-102474876D01*
X119138980Y-102379638D01*
X119091361Y-102236780D01*
X118996123Y-102141542D01*
X118900885Y-102093923D01*
X118710409Y-102046304D01*
X118567552Y-102046304D01*
X118377076Y-102093923D01*
X118281838Y-102141542D01*
X118186600Y-102236780D01*
X118138980Y-102379638D01*
X118138980Y-102474876D01*
X118186600Y-102617733D01*
X118234219Y-102665352D01*
X119138980Y-103141542D02*
X119138980Y-103332019D01*
X119091361Y-103427257D01*
X119043742Y-103474876D01*
X118900885Y-103570114D01*
X118710409Y-103617733D01*
X118329457Y-103617733D01*
X118234219Y-103570114D01*
X118186600Y-103522495D01*
X118138980Y-103427257D01*
X118138980Y-103236780D01*
X118186600Y-103141542D01*
X118234219Y-103093923D01*
X118329457Y-103046304D01*
X118567552Y-103046304D01*
X118662790Y-103093923D01*
X118710409Y-103141542D01*
X118758028Y-103236780D01*
X118758028Y-103427257D01*
X118710409Y-103522495D01*
X118662790Y-103570114D01*
X118567552Y-103617733D01*
X118138980Y-104236780D02*
X118138980Y-104332019D01*
X118186600Y-104427257D01*
X118234219Y-104474876D01*
X118329457Y-104522495D01*
X118519933Y-104570114D01*
X118758028Y-104570114D01*
X118948504Y-104522495D01*
X119043742Y-104474876D01*
X119091361Y-104427257D01*
X119138980Y-104332019D01*
X119138980Y-104236780D01*
X119091361Y-104141542D01*
X119043742Y-104093923D01*
X118948504Y-104046304D01*
X118758028Y-103998685D01*
X118519933Y-103998685D01*
X118329457Y-104046304D01*
X118234219Y-104093923D01*
X118186600Y-104141542D01*
X118138980Y-104236780D01*
X118234219Y-104951066D02*
X118186600Y-104998685D01*
X118138980Y-105093923D01*
X118138980Y-105332019D01*
X118186600Y-105427257D01*
X118234219Y-105474876D01*
X118329457Y-105522495D01*
X118424695Y-105522495D01*
X118567552Y-105474876D01*
X119138980Y-104903447D01*
X119138980Y-105522495D01*
X127425742Y-102868552D02*
X127473361Y-102820933D01*
X127520980Y-102678076D01*
X127520980Y-102582838D01*
X127473361Y-102439980D01*
X127378123Y-102344742D01*
X127282885Y-102297123D01*
X127092409Y-102249504D01*
X126949552Y-102249504D01*
X126759076Y-102297123D01*
X126663838Y-102344742D01*
X126568600Y-102439980D01*
X126520980Y-102582838D01*
X126520980Y-102678076D01*
X126568600Y-102820933D01*
X126616219Y-102868552D01*
X127520980Y-103344742D02*
X127520980Y-103535219D01*
X127473361Y-103630457D01*
X127425742Y-103678076D01*
X127282885Y-103773314D01*
X127092409Y-103820933D01*
X126711457Y-103820933D01*
X126616219Y-103773314D01*
X126568600Y-103725695D01*
X126520980Y-103630457D01*
X126520980Y-103439980D01*
X126568600Y-103344742D01*
X126616219Y-103297123D01*
X126711457Y-103249504D01*
X126949552Y-103249504D01*
X127044790Y-103297123D01*
X127092409Y-103344742D01*
X127140028Y-103439980D01*
X127140028Y-103630457D01*
X127092409Y-103725695D01*
X127044790Y-103773314D01*
X126949552Y-103820933D01*
X126520980Y-104439980D02*
X126520980Y-104535219D01*
X126568600Y-104630457D01*
X126616219Y-104678076D01*
X126711457Y-104725695D01*
X126901933Y-104773314D01*
X127140028Y-104773314D01*
X127330504Y-104725695D01*
X127425742Y-104678076D01*
X127473361Y-104630457D01*
X127520980Y-104535219D01*
X127520980Y-104439980D01*
X127473361Y-104344742D01*
X127425742Y-104297123D01*
X127330504Y-104249504D01*
X127140028Y-104201885D01*
X126901933Y-104201885D01*
X126711457Y-104249504D01*
X126616219Y-104297123D01*
X126568600Y-104344742D01*
X126520980Y-104439980D01*
X126520980Y-105106647D02*
X126520980Y-105725695D01*
X126901933Y-105392361D01*
X126901933Y-105535219D01*
X126949552Y-105630457D01*
X126997171Y-105678076D01*
X127092409Y-105725695D01*
X127330504Y-105725695D01*
X127425742Y-105678076D01*
X127473361Y-105630457D01*
X127520980Y-105535219D01*
X127520980Y-105249504D01*
X127473361Y-105154266D01*
X127425742Y-105106647D01*
X110433142Y-102182752D02*
X110480761Y-102135133D01*
X110528380Y-101992276D01*
X110528380Y-101897038D01*
X110480761Y-101754180D01*
X110385523Y-101658942D01*
X110290285Y-101611323D01*
X110099809Y-101563704D01*
X109956952Y-101563704D01*
X109766476Y-101611323D01*
X109671238Y-101658942D01*
X109576000Y-101754180D01*
X109528380Y-101897038D01*
X109528380Y-101992276D01*
X109576000Y-102135133D01*
X109623619Y-102182752D01*
X110528380Y-102658942D02*
X110528380Y-102849419D01*
X110480761Y-102944657D01*
X110433142Y-102992276D01*
X110290285Y-103087514D01*
X110099809Y-103135133D01*
X109718857Y-103135133D01*
X109623619Y-103087514D01*
X109576000Y-103039895D01*
X109528380Y-102944657D01*
X109528380Y-102754180D01*
X109576000Y-102658942D01*
X109623619Y-102611323D01*
X109718857Y-102563704D01*
X109956952Y-102563704D01*
X110052190Y-102611323D01*
X110099809Y-102658942D01*
X110147428Y-102754180D01*
X110147428Y-102944657D01*
X110099809Y-103039895D01*
X110052190Y-103087514D01*
X109956952Y-103135133D01*
X109528380Y-103754180D02*
X109528380Y-103849419D01*
X109576000Y-103944657D01*
X109623619Y-103992276D01*
X109718857Y-104039895D01*
X109909333Y-104087514D01*
X110147428Y-104087514D01*
X110337904Y-104039895D01*
X110433142Y-103992276D01*
X110480761Y-103944657D01*
X110528380Y-103849419D01*
X110528380Y-103754180D01*
X110480761Y-103658942D01*
X110433142Y-103611323D01*
X110337904Y-103563704D01*
X110147428Y-103516085D01*
X109909333Y-103516085D01*
X109718857Y-103563704D01*
X109623619Y-103611323D01*
X109576000Y-103658942D01*
X109528380Y-103754180D01*
X109861714Y-104944657D02*
X110528380Y-104944657D01*
X109480761Y-104706561D02*
X110195047Y-104468466D01*
X110195047Y-105087514D01*
X144011942Y-102131952D02*
X144059561Y-102084333D01*
X144107180Y-101941476D01*
X144107180Y-101846238D01*
X144059561Y-101703380D01*
X143964323Y-101608142D01*
X143869085Y-101560523D01*
X143678609Y-101512904D01*
X143535752Y-101512904D01*
X143345276Y-101560523D01*
X143250038Y-101608142D01*
X143154800Y-101703380D01*
X143107180Y-101846238D01*
X143107180Y-101941476D01*
X143154800Y-102084333D01*
X143202419Y-102131952D01*
X144107180Y-102608142D02*
X144107180Y-102798619D01*
X144059561Y-102893857D01*
X144011942Y-102941476D01*
X143869085Y-103036714D01*
X143678609Y-103084333D01*
X143297657Y-103084333D01*
X143202419Y-103036714D01*
X143154800Y-102989095D01*
X143107180Y-102893857D01*
X143107180Y-102703380D01*
X143154800Y-102608142D01*
X143202419Y-102560523D01*
X143297657Y-102512904D01*
X143535752Y-102512904D01*
X143630990Y-102560523D01*
X143678609Y-102608142D01*
X143726228Y-102703380D01*
X143726228Y-102893857D01*
X143678609Y-102989095D01*
X143630990Y-103036714D01*
X143535752Y-103084333D01*
X143107180Y-103703380D02*
X143107180Y-103798619D01*
X143154800Y-103893857D01*
X143202419Y-103941476D01*
X143297657Y-103989095D01*
X143488133Y-104036714D01*
X143726228Y-104036714D01*
X143916704Y-103989095D01*
X144011942Y-103941476D01*
X144059561Y-103893857D01*
X144107180Y-103798619D01*
X144107180Y-103703380D01*
X144059561Y-103608142D01*
X144011942Y-103560523D01*
X143916704Y-103512904D01*
X143726228Y-103465285D01*
X143488133Y-103465285D01*
X143297657Y-103512904D01*
X143202419Y-103560523D01*
X143154800Y-103608142D01*
X143107180Y-103703380D01*
X143107180Y-104941476D02*
X143107180Y-104465285D01*
X143583371Y-104417666D01*
X143535752Y-104465285D01*
X143488133Y-104560523D01*
X143488133Y-104798619D01*
X143535752Y-104893857D01*
X143583371Y-104941476D01*
X143678609Y-104989095D01*
X143916704Y-104989095D01*
X144011942Y-104941476D01*
X144059561Y-104893857D01*
X144107180Y-104798619D01*
X144107180Y-104560523D01*
X144059561Y-104465285D01*
X144011942Y-104417666D01*
X140603076Y-121915180D02*
X140603076Y-120915180D01*
X140364980Y-120915180D01*
X140222123Y-120962800D01*
X140126885Y-121058038D01*
X140079266Y-121153276D01*
X140031647Y-121343752D01*
X140031647Y-121486609D01*
X140079266Y-121677085D01*
X140126885Y-121772323D01*
X140222123Y-121867561D01*
X140364980Y-121915180D01*
X140603076Y-121915180D01*
X139126885Y-120915180D02*
X139603076Y-120915180D01*
X139650695Y-121391371D01*
X139603076Y-121343752D01*
X139507838Y-121296133D01*
X139269742Y-121296133D01*
X139174504Y-121343752D01*
X139126885Y-121391371D01*
X139079266Y-121486609D01*
X139079266Y-121724704D01*
X139126885Y-121819942D01*
X139174504Y-121867561D01*
X139269742Y-121915180D01*
X139507838Y-121915180D01*
X139603076Y-121867561D01*
X139650695Y-121819942D01*
X138460219Y-120915180D02*
X138364980Y-120915180D01*
X138269742Y-120962800D01*
X138222123Y-121010419D01*
X138174504Y-121105657D01*
X138126885Y-121296133D01*
X138126885Y-121534228D01*
X138174504Y-121724704D01*
X138222123Y-121819942D01*
X138269742Y-121867561D01*
X138364980Y-121915180D01*
X138460219Y-121915180D01*
X138555457Y-121867561D01*
X138603076Y-121819942D01*
X138650695Y-121724704D01*
X138698314Y-121534228D01*
X138698314Y-121296133D01*
X138650695Y-121105657D01*
X138603076Y-121010419D01*
X138555457Y-120962800D01*
X138460219Y-120915180D01*
X137222123Y-120915180D02*
X137698314Y-120915180D01*
X137745933Y-121391371D01*
X137698314Y-121343752D01*
X137603076Y-121296133D01*
X137364980Y-121296133D01*
X137269742Y-121343752D01*
X137222123Y-121391371D01*
X137174504Y-121486609D01*
X137174504Y-121724704D01*
X137222123Y-121819942D01*
X137269742Y-121867561D01*
X137364980Y-121915180D01*
X137603076Y-121915180D01*
X137698314Y-121867561D01*
X137745933Y-121819942D01*
X181281176Y-96030680D02*
X181281176Y-95030680D01*
X181043080Y-95030680D01*
X180900223Y-95078300D01*
X180804985Y-95173538D01*
X180757366Y-95268776D01*
X180709747Y-95459252D01*
X180709747Y-95602109D01*
X180757366Y-95792585D01*
X180804985Y-95887823D01*
X180900223Y-95983061D01*
X181043080Y-96030680D01*
X181281176Y-96030680D01*
X180376414Y-95030680D02*
X179709747Y-95030680D01*
X180138319Y-96030680D01*
X179138319Y-95030680D02*
X179043080Y-95030680D01*
X178947842Y-95078300D01*
X178900223Y-95125919D01*
X178852604Y-95221157D01*
X178804985Y-95411633D01*
X178804985Y-95649728D01*
X178852604Y-95840204D01*
X178900223Y-95935442D01*
X178947842Y-95983061D01*
X179043080Y-96030680D01*
X179138319Y-96030680D01*
X179233557Y-95983061D01*
X179281176Y-95935442D01*
X179328795Y-95840204D01*
X179376414Y-95649728D01*
X179376414Y-95411633D01*
X179328795Y-95221157D01*
X179281176Y-95125919D01*
X179233557Y-95078300D01*
X179138319Y-95030680D01*
X177852604Y-96030680D02*
X178424033Y-96030680D01*
X178138319Y-96030680D02*
X178138319Y-95030680D01*
X178233557Y-95173538D01*
X178328795Y-95268776D01*
X178424033Y-95316395D01*
X136456680Y-97306023D02*
X135456680Y-97306023D01*
X135456680Y-97544119D01*
X135504300Y-97686976D01*
X135599538Y-97782214D01*
X135694776Y-97829833D01*
X135885252Y-97877452D01*
X136028109Y-97877452D01*
X136218585Y-97829833D01*
X136313823Y-97782214D01*
X136409061Y-97686976D01*
X136456680Y-97544119D01*
X136456680Y-97306023D01*
X136456680Y-98353642D02*
X136456680Y-98544119D01*
X136409061Y-98639357D01*
X136361442Y-98686976D01*
X136218585Y-98782214D01*
X136028109Y-98829833D01*
X135647157Y-98829833D01*
X135551919Y-98782214D01*
X135504300Y-98734595D01*
X135456680Y-98639357D01*
X135456680Y-98448880D01*
X135504300Y-98353642D01*
X135551919Y-98306023D01*
X135647157Y-98258404D01*
X135885252Y-98258404D01*
X135980490Y-98306023D01*
X136028109Y-98353642D01*
X136075728Y-98448880D01*
X136075728Y-98639357D01*
X136028109Y-98734595D01*
X135980490Y-98782214D01*
X135885252Y-98829833D01*
X135456680Y-99448880D02*
X135456680Y-99544119D01*
X135504300Y-99639357D01*
X135551919Y-99686976D01*
X135647157Y-99734595D01*
X135837633Y-99782214D01*
X136075728Y-99782214D01*
X136266204Y-99734595D01*
X136361442Y-99686976D01*
X136409061Y-99639357D01*
X136456680Y-99544119D01*
X136456680Y-99448880D01*
X136409061Y-99353642D01*
X136361442Y-99306023D01*
X136266204Y-99258404D01*
X136075728Y-99210785D01*
X135837633Y-99210785D01*
X135647157Y-99258404D01*
X135551919Y-99306023D01*
X135504300Y-99353642D01*
X135456680Y-99448880D01*
X136456680Y-100734595D02*
X136456680Y-100163166D01*
X136456680Y-100448880D02*
X135456680Y-100448880D01*
X135599538Y-100353642D01*
X135694776Y-100258404D01*
X135742395Y-100163166D01*
X121102380Y-97318723D02*
X120102380Y-97318723D01*
X120102380Y-97556819D01*
X120150000Y-97699676D01*
X120245238Y-97794914D01*
X120340476Y-97842533D01*
X120530952Y-97890152D01*
X120673809Y-97890152D01*
X120864285Y-97842533D01*
X120959523Y-97794914D01*
X121054761Y-97699676D01*
X121102380Y-97556819D01*
X121102380Y-97318723D01*
X121102380Y-98366342D02*
X121102380Y-98556819D01*
X121054761Y-98652057D01*
X121007142Y-98699676D01*
X120864285Y-98794914D01*
X120673809Y-98842533D01*
X120292857Y-98842533D01*
X120197619Y-98794914D01*
X120150000Y-98747295D01*
X120102380Y-98652057D01*
X120102380Y-98461580D01*
X120150000Y-98366342D01*
X120197619Y-98318723D01*
X120292857Y-98271104D01*
X120530952Y-98271104D01*
X120626190Y-98318723D01*
X120673809Y-98366342D01*
X120721428Y-98461580D01*
X120721428Y-98652057D01*
X120673809Y-98747295D01*
X120626190Y-98794914D01*
X120530952Y-98842533D01*
X120102380Y-99461580D02*
X120102380Y-99556819D01*
X120150000Y-99652057D01*
X120197619Y-99699676D01*
X120292857Y-99747295D01*
X120483333Y-99794914D01*
X120721428Y-99794914D01*
X120911904Y-99747295D01*
X121007142Y-99699676D01*
X121054761Y-99652057D01*
X121102380Y-99556819D01*
X121102380Y-99461580D01*
X121054761Y-99366342D01*
X121007142Y-99318723D01*
X120911904Y-99271104D01*
X120721428Y-99223485D01*
X120483333Y-99223485D01*
X120292857Y-99271104D01*
X120197619Y-99318723D01*
X120150000Y-99366342D01*
X120102380Y-99461580D01*
X120197619Y-100175866D02*
X120150000Y-100223485D01*
X120102380Y-100318723D01*
X120102380Y-100556819D01*
X120150000Y-100652057D01*
X120197619Y-100699676D01*
X120292857Y-100747295D01*
X120388095Y-100747295D01*
X120530952Y-100699676D01*
X121102380Y-100128247D01*
X121102380Y-100747295D01*
X128976380Y-97344123D02*
X127976380Y-97344123D01*
X127976380Y-97582219D01*
X128024000Y-97725076D01*
X128119238Y-97820314D01*
X128214476Y-97867933D01*
X128404952Y-97915552D01*
X128547809Y-97915552D01*
X128738285Y-97867933D01*
X128833523Y-97820314D01*
X128928761Y-97725076D01*
X128976380Y-97582219D01*
X128976380Y-97344123D01*
X128976380Y-98391742D02*
X128976380Y-98582219D01*
X128928761Y-98677457D01*
X128881142Y-98725076D01*
X128738285Y-98820314D01*
X128547809Y-98867933D01*
X128166857Y-98867933D01*
X128071619Y-98820314D01*
X128024000Y-98772695D01*
X127976380Y-98677457D01*
X127976380Y-98486980D01*
X128024000Y-98391742D01*
X128071619Y-98344123D01*
X128166857Y-98296504D01*
X128404952Y-98296504D01*
X128500190Y-98344123D01*
X128547809Y-98391742D01*
X128595428Y-98486980D01*
X128595428Y-98677457D01*
X128547809Y-98772695D01*
X128500190Y-98820314D01*
X128404952Y-98867933D01*
X127976380Y-99486980D02*
X127976380Y-99582219D01*
X128024000Y-99677457D01*
X128071619Y-99725076D01*
X128166857Y-99772695D01*
X128357333Y-99820314D01*
X128595428Y-99820314D01*
X128785904Y-99772695D01*
X128881142Y-99725076D01*
X128928761Y-99677457D01*
X128976380Y-99582219D01*
X128976380Y-99486980D01*
X128928761Y-99391742D01*
X128881142Y-99344123D01*
X128785904Y-99296504D01*
X128595428Y-99248885D01*
X128357333Y-99248885D01*
X128166857Y-99296504D01*
X128071619Y-99344123D01*
X128024000Y-99391742D01*
X127976380Y-99486980D01*
X127976380Y-100153647D02*
X127976380Y-100772695D01*
X128357333Y-100439361D01*
X128357333Y-100582219D01*
X128404952Y-100677457D01*
X128452571Y-100725076D01*
X128547809Y-100772695D01*
X128785904Y-100772695D01*
X128881142Y-100725076D01*
X128928761Y-100677457D01*
X128976380Y-100582219D01*
X128976380Y-100296504D01*
X128928761Y-100201266D01*
X128881142Y-100153647D01*
X112212380Y-97406323D02*
X111212380Y-97406323D01*
X111212380Y-97644419D01*
X111260000Y-97787276D01*
X111355238Y-97882514D01*
X111450476Y-97930133D01*
X111640952Y-97977752D01*
X111783809Y-97977752D01*
X111974285Y-97930133D01*
X112069523Y-97882514D01*
X112164761Y-97787276D01*
X112212380Y-97644419D01*
X112212380Y-97406323D01*
X112212380Y-98453942D02*
X112212380Y-98644419D01*
X112164761Y-98739657D01*
X112117142Y-98787276D01*
X111974285Y-98882514D01*
X111783809Y-98930133D01*
X111402857Y-98930133D01*
X111307619Y-98882514D01*
X111260000Y-98834895D01*
X111212380Y-98739657D01*
X111212380Y-98549180D01*
X111260000Y-98453942D01*
X111307619Y-98406323D01*
X111402857Y-98358704D01*
X111640952Y-98358704D01*
X111736190Y-98406323D01*
X111783809Y-98453942D01*
X111831428Y-98549180D01*
X111831428Y-98739657D01*
X111783809Y-98834895D01*
X111736190Y-98882514D01*
X111640952Y-98930133D01*
X111212380Y-99549180D02*
X111212380Y-99644419D01*
X111260000Y-99739657D01*
X111307619Y-99787276D01*
X111402857Y-99834895D01*
X111593333Y-99882514D01*
X111831428Y-99882514D01*
X112021904Y-99834895D01*
X112117142Y-99787276D01*
X112164761Y-99739657D01*
X112212380Y-99644419D01*
X112212380Y-99549180D01*
X112164761Y-99453942D01*
X112117142Y-99406323D01*
X112021904Y-99358704D01*
X111831428Y-99311085D01*
X111593333Y-99311085D01*
X111402857Y-99358704D01*
X111307619Y-99406323D01*
X111260000Y-99453942D01*
X111212380Y-99549180D01*
X111545714Y-100739657D02*
X112212380Y-100739657D01*
X111164761Y-100501561D02*
X111879047Y-100263466D01*
X111879047Y-100882514D01*
X145486380Y-97191723D02*
X144486380Y-97191723D01*
X144486380Y-97429819D01*
X144534000Y-97572676D01*
X144629238Y-97667914D01*
X144724476Y-97715533D01*
X144914952Y-97763152D01*
X145057809Y-97763152D01*
X145248285Y-97715533D01*
X145343523Y-97667914D01*
X145438761Y-97572676D01*
X145486380Y-97429819D01*
X145486380Y-97191723D01*
X145486380Y-98239342D02*
X145486380Y-98429819D01*
X145438761Y-98525057D01*
X145391142Y-98572676D01*
X145248285Y-98667914D01*
X145057809Y-98715533D01*
X144676857Y-98715533D01*
X144581619Y-98667914D01*
X144534000Y-98620295D01*
X144486380Y-98525057D01*
X144486380Y-98334580D01*
X144534000Y-98239342D01*
X144581619Y-98191723D01*
X144676857Y-98144104D01*
X144914952Y-98144104D01*
X145010190Y-98191723D01*
X145057809Y-98239342D01*
X145105428Y-98334580D01*
X145105428Y-98525057D01*
X145057809Y-98620295D01*
X145010190Y-98667914D01*
X144914952Y-98715533D01*
X144486380Y-99334580D02*
X144486380Y-99429819D01*
X144534000Y-99525057D01*
X144581619Y-99572676D01*
X144676857Y-99620295D01*
X144867333Y-99667914D01*
X145105428Y-99667914D01*
X145295904Y-99620295D01*
X145391142Y-99572676D01*
X145438761Y-99525057D01*
X145486380Y-99429819D01*
X145486380Y-99334580D01*
X145438761Y-99239342D01*
X145391142Y-99191723D01*
X145295904Y-99144104D01*
X145105428Y-99096485D01*
X144867333Y-99096485D01*
X144676857Y-99144104D01*
X144581619Y-99191723D01*
X144534000Y-99239342D01*
X144486380Y-99334580D01*
X144486380Y-100572676D02*
X144486380Y-100096485D01*
X144962571Y-100048866D01*
X144914952Y-100096485D01*
X144867333Y-100191723D01*
X144867333Y-100429819D01*
X144914952Y-100525057D01*
X144962571Y-100572676D01*
X145057809Y-100620295D01*
X145295904Y-100620295D01*
X145391142Y-100572676D01*
X145438761Y-100525057D01*
X145486380Y-100429819D01*
X145486380Y-100191723D01*
X145438761Y-100096485D01*
X145391142Y-100048866D01*
X89449114Y-94829380D02*
X89449114Y-95543666D01*
X89496733Y-95686523D01*
X89591971Y-95781761D01*
X89734828Y-95829380D01*
X89830066Y-95829380D01*
X89020542Y-94924619D02*
X88972923Y-94877000D01*
X88877685Y-94829380D01*
X88639590Y-94829380D01*
X88544352Y-94877000D01*
X88496733Y-94924619D01*
X88449114Y-95019857D01*
X88449114Y-95115095D01*
X88496733Y-95257952D01*
X89068161Y-95829380D01*
X88449114Y-95829380D01*
X87830066Y-94829380D02*
X87734828Y-94829380D01*
X87639590Y-94877000D01*
X87591971Y-94924619D01*
X87544352Y-95019857D01*
X87496733Y-95210333D01*
X87496733Y-95448428D01*
X87544352Y-95638904D01*
X87591971Y-95734142D01*
X87639590Y-95781761D01*
X87734828Y-95829380D01*
X87830066Y-95829380D01*
X87925304Y-95781761D01*
X87972923Y-95734142D01*
X88020542Y-95638904D01*
X88068161Y-95448428D01*
X88068161Y-95210333D01*
X88020542Y-95019857D01*
X87972923Y-94924619D01*
X87925304Y-94877000D01*
X87830066Y-94829380D01*
X86544352Y-95829380D02*
X87115780Y-95829380D01*
X86830066Y-95829380D02*
X86830066Y-94829380D01*
X86925304Y-94972238D01*
X87020542Y-95067476D01*
X87115780Y-95115095D01*
X153519047Y-75255380D02*
X153995238Y-75255380D01*
X153995238Y-74255380D01*
X153280952Y-74255380D02*
X152661904Y-74255380D01*
X152995238Y-74636333D01*
X152852380Y-74636333D01*
X152757142Y-74683952D01*
X152709523Y-74731571D01*
X152661904Y-74826809D01*
X152661904Y-75064904D01*
X152709523Y-75160142D01*
X152757142Y-75207761D01*
X152852380Y-75255380D01*
X153138095Y-75255380D01*
X153233333Y-75207761D01*
X153280952Y-75160142D01*
X152042857Y-74255380D02*
X151947619Y-74255380D01*
X151852380Y-74303000D01*
X151804761Y-74350619D01*
X151757142Y-74445857D01*
X151709523Y-74636333D01*
X151709523Y-74874428D01*
X151757142Y-75064904D01*
X151804761Y-75160142D01*
X151852380Y-75207761D01*
X151947619Y-75255380D01*
X152042857Y-75255380D01*
X152138095Y-75207761D01*
X152185714Y-75160142D01*
X152233333Y-75064904D01*
X152280952Y-74874428D01*
X152280952Y-74636333D01*
X152233333Y-74445857D01*
X152185714Y-74350619D01*
X152138095Y-74303000D01*
X152042857Y-74255380D01*
X150757142Y-75255380D02*
X151328571Y-75255380D01*
X151042857Y-75255380D02*
X151042857Y-74255380D01*
X151138095Y-74398238D01*
X151233333Y-74493476D01*
X151328571Y-74541095D01*
X133783247Y-122229380D02*
X134259438Y-122229380D01*
X134259438Y-121229380D01*
X132973723Y-121229380D02*
X133449914Y-121229380D01*
X133497533Y-121705571D01*
X133449914Y-121657952D01*
X133354676Y-121610333D01*
X133116580Y-121610333D01*
X133021342Y-121657952D01*
X132973723Y-121705571D01*
X132926104Y-121800809D01*
X132926104Y-122038904D01*
X132973723Y-122134142D01*
X133021342Y-122181761D01*
X133116580Y-122229380D01*
X133354676Y-122229380D01*
X133449914Y-122181761D01*
X133497533Y-122134142D01*
X132307057Y-121229380D02*
X132211819Y-121229380D01*
X132116580Y-121277000D01*
X132068961Y-121324619D01*
X132021342Y-121419857D01*
X131973723Y-121610333D01*
X131973723Y-121848428D01*
X132021342Y-122038904D01*
X132068961Y-122134142D01*
X132116580Y-122181761D01*
X132211819Y-122229380D01*
X132307057Y-122229380D01*
X132402295Y-122181761D01*
X132449914Y-122134142D01*
X132497533Y-122038904D01*
X132545152Y-121848428D01*
X132545152Y-121610333D01*
X132497533Y-121419857D01*
X132449914Y-121324619D01*
X132402295Y-121277000D01*
X132307057Y-121229380D01*
X131021342Y-122229380D02*
X131592771Y-122229380D01*
X131307057Y-122229380D02*
X131307057Y-121229380D01*
X131402295Y-121372238D01*
X131497533Y-121467476D01*
X131592771Y-121515095D01*
X99040819Y-95198819D02*
X99136057Y-95151200D01*
X99231295Y-95055961D01*
X99374152Y-94913104D01*
X99469390Y-94865485D01*
X99564628Y-94865485D01*
X99517009Y-95103580D02*
X99612247Y-95055961D01*
X99707485Y-94960723D01*
X99755104Y-94770247D01*
X99755104Y-94436914D01*
X99707485Y-94246438D01*
X99612247Y-94151200D01*
X99517009Y-94103580D01*
X99326533Y-94103580D01*
X99231295Y-94151200D01*
X99136057Y-94246438D01*
X99088438Y-94436914D01*
X99088438Y-94770247D01*
X99136057Y-94960723D01*
X99231295Y-95055961D01*
X99326533Y-95103580D01*
X99517009Y-95103580D01*
X98707485Y-94198819D02*
X98659866Y-94151200D01*
X98564628Y-94103580D01*
X98326533Y-94103580D01*
X98231295Y-94151200D01*
X98183676Y-94198819D01*
X98136057Y-94294057D01*
X98136057Y-94389295D01*
X98183676Y-94532152D01*
X98755104Y-95103580D01*
X98136057Y-95103580D01*
X97517009Y-94103580D02*
X97421771Y-94103580D01*
X97326533Y-94151200D01*
X97278914Y-94198819D01*
X97231295Y-94294057D01*
X97183676Y-94484533D01*
X97183676Y-94722628D01*
X97231295Y-94913104D01*
X97278914Y-95008342D01*
X97326533Y-95055961D01*
X97421771Y-95103580D01*
X97517009Y-95103580D01*
X97612247Y-95055961D01*
X97659866Y-95008342D01*
X97707485Y-94913104D01*
X97755104Y-94722628D01*
X97755104Y-94484533D01*
X97707485Y-94294057D01*
X97659866Y-94198819D01*
X97612247Y-94151200D01*
X97517009Y-94103580D01*
X96231295Y-95103580D02*
X96802723Y-95103580D01*
X96517009Y-95103580D02*
X96517009Y-94103580D01*
X96612247Y-94246438D01*
X96707485Y-94341676D01*
X96802723Y-94389295D01*
X171108619Y-84063319D02*
X171203857Y-84015700D01*
X171299095Y-83920461D01*
X171441952Y-83777604D01*
X171537190Y-83729985D01*
X171632428Y-83729985D01*
X171584809Y-83968080D02*
X171680047Y-83920461D01*
X171775285Y-83825223D01*
X171822904Y-83634747D01*
X171822904Y-83301414D01*
X171775285Y-83110938D01*
X171680047Y-83015700D01*
X171584809Y-82968080D01*
X171394333Y-82968080D01*
X171299095Y-83015700D01*
X171203857Y-83110938D01*
X171156238Y-83301414D01*
X171156238Y-83634747D01*
X171203857Y-83825223D01*
X171299095Y-83920461D01*
X171394333Y-83968080D01*
X171584809Y-83968080D01*
X170822904Y-82968080D02*
X170156238Y-82968080D01*
X170584809Y-83968080D01*
X169584809Y-82968080D02*
X169489571Y-82968080D01*
X169394333Y-83015700D01*
X169346714Y-83063319D01*
X169299095Y-83158557D01*
X169251476Y-83349033D01*
X169251476Y-83587128D01*
X169299095Y-83777604D01*
X169346714Y-83872842D01*
X169394333Y-83920461D01*
X169489571Y-83968080D01*
X169584809Y-83968080D01*
X169680047Y-83920461D01*
X169727666Y-83872842D01*
X169775285Y-83777604D01*
X169822904Y-83587128D01*
X169822904Y-83349033D01*
X169775285Y-83158557D01*
X169727666Y-83063319D01*
X169680047Y-83015700D01*
X169584809Y-82968080D01*
X168299095Y-83968080D02*
X168870523Y-83968080D01*
X168584809Y-83968080D02*
X168584809Y-82968080D01*
X168680047Y-83110938D01*
X168775285Y-83206176D01*
X168870523Y-83253795D01*
X163188519Y-93333319D02*
X163283757Y-93285700D01*
X163378995Y-93190461D01*
X163521852Y-93047604D01*
X163617090Y-92999985D01*
X163712328Y-92999985D01*
X163664709Y-93238080D02*
X163759947Y-93190461D01*
X163855185Y-93095223D01*
X163902804Y-92904747D01*
X163902804Y-92571414D01*
X163855185Y-92380938D01*
X163759947Y-92285700D01*
X163664709Y-92238080D01*
X163474233Y-92238080D01*
X163378995Y-92285700D01*
X163283757Y-92380938D01*
X163236138Y-92571414D01*
X163236138Y-92904747D01*
X163283757Y-93095223D01*
X163378995Y-93190461D01*
X163474233Y-93238080D01*
X163664709Y-93238080D01*
X162902804Y-92238080D02*
X162236138Y-92238080D01*
X162664709Y-93238080D01*
X161664709Y-92238080D02*
X161569471Y-92238080D01*
X161474233Y-92285700D01*
X161426614Y-92333319D01*
X161378995Y-92428557D01*
X161331376Y-92619033D01*
X161331376Y-92857128D01*
X161378995Y-93047604D01*
X161426614Y-93142842D01*
X161474233Y-93190461D01*
X161569471Y-93238080D01*
X161664709Y-93238080D01*
X161759947Y-93190461D01*
X161807566Y-93142842D01*
X161855185Y-93047604D01*
X161902804Y-92857128D01*
X161902804Y-92619033D01*
X161855185Y-92428557D01*
X161807566Y-92333319D01*
X161759947Y-92285700D01*
X161664709Y-92238080D01*
X160950423Y-92333319D02*
X160902804Y-92285700D01*
X160807566Y-92238080D01*
X160569471Y-92238080D01*
X160474233Y-92285700D01*
X160426614Y-92333319D01*
X160378995Y-92428557D01*
X160378995Y-92523795D01*
X160426614Y-92666652D01*
X160998042Y-93238080D01*
X160378995Y-93238080D01*
X90363247Y-92037180D02*
X90696580Y-91560990D01*
X90934676Y-92037180D02*
X90934676Y-91037180D01*
X90553723Y-91037180D01*
X90458485Y-91084800D01*
X90410866Y-91132419D01*
X90363247Y-91227657D01*
X90363247Y-91370514D01*
X90410866Y-91465752D01*
X90458485Y-91513371D01*
X90553723Y-91560990D01*
X90934676Y-91560990D01*
X89982295Y-91132419D02*
X89934676Y-91084800D01*
X89839438Y-91037180D01*
X89601342Y-91037180D01*
X89506104Y-91084800D01*
X89458485Y-91132419D01*
X89410866Y-91227657D01*
X89410866Y-91322895D01*
X89458485Y-91465752D01*
X90029914Y-92037180D01*
X89410866Y-92037180D01*
X88791819Y-91037180D02*
X88696580Y-91037180D01*
X88601342Y-91084800D01*
X88553723Y-91132419D01*
X88506104Y-91227657D01*
X88458485Y-91418133D01*
X88458485Y-91656228D01*
X88506104Y-91846704D01*
X88553723Y-91941942D01*
X88601342Y-91989561D01*
X88696580Y-92037180D01*
X88791819Y-92037180D01*
X88887057Y-91989561D01*
X88934676Y-91941942D01*
X88982295Y-91846704D01*
X89029914Y-91656228D01*
X89029914Y-91418133D01*
X88982295Y-91227657D01*
X88934676Y-91132419D01*
X88887057Y-91084800D01*
X88791819Y-91037180D01*
X87506104Y-92037180D02*
X88077533Y-92037180D01*
X87791819Y-92037180D02*
X87791819Y-91037180D01*
X87887057Y-91180038D01*
X87982295Y-91275276D01*
X88077533Y-91322895D01*
X94043780Y-90944552D02*
X93567590Y-90611219D01*
X94043780Y-90373123D02*
X93043780Y-90373123D01*
X93043780Y-90754076D01*
X93091400Y-90849314D01*
X93139019Y-90896933D01*
X93234257Y-90944552D01*
X93377114Y-90944552D01*
X93472352Y-90896933D01*
X93519971Y-90849314D01*
X93567590Y-90754076D01*
X93567590Y-90373123D01*
X93139019Y-91325504D02*
X93091400Y-91373123D01*
X93043780Y-91468361D01*
X93043780Y-91706457D01*
X93091400Y-91801695D01*
X93139019Y-91849314D01*
X93234257Y-91896933D01*
X93329495Y-91896933D01*
X93472352Y-91849314D01*
X94043780Y-91277885D01*
X94043780Y-91896933D01*
X93043780Y-92515980D02*
X93043780Y-92611219D01*
X93091400Y-92706457D01*
X93139019Y-92754076D01*
X93234257Y-92801695D01*
X93424733Y-92849314D01*
X93662828Y-92849314D01*
X93853304Y-92801695D01*
X93948542Y-92754076D01*
X93996161Y-92706457D01*
X94043780Y-92611219D01*
X94043780Y-92515980D01*
X93996161Y-92420742D01*
X93948542Y-92373123D01*
X93853304Y-92325504D01*
X93662828Y-92277885D01*
X93424733Y-92277885D01*
X93234257Y-92325504D01*
X93139019Y-92373123D01*
X93091400Y-92420742D01*
X93043780Y-92515980D01*
X93139019Y-93230266D02*
X93091400Y-93277885D01*
X93043780Y-93373123D01*
X93043780Y-93611219D01*
X93091400Y-93706457D01*
X93139019Y-93754076D01*
X93234257Y-93801695D01*
X93329495Y-93801695D01*
X93472352Y-93754076D01*
X94043780Y-93182647D01*
X94043780Y-93801695D01*
X103456980Y-92606952D02*
X102980790Y-92273619D01*
X103456980Y-92035523D02*
X102456980Y-92035523D01*
X102456980Y-92416476D01*
X102504600Y-92511714D01*
X102552219Y-92559333D01*
X102647457Y-92606952D01*
X102790314Y-92606952D01*
X102885552Y-92559333D01*
X102933171Y-92511714D01*
X102980790Y-92416476D01*
X102980790Y-92035523D01*
X102552219Y-92987904D02*
X102504600Y-93035523D01*
X102456980Y-93130761D01*
X102456980Y-93368857D01*
X102504600Y-93464095D01*
X102552219Y-93511714D01*
X102647457Y-93559333D01*
X102742695Y-93559333D01*
X102885552Y-93511714D01*
X103456980Y-92940285D01*
X103456980Y-93559333D01*
X102456980Y-94178380D02*
X102456980Y-94273619D01*
X102504600Y-94368857D01*
X102552219Y-94416476D01*
X102647457Y-94464095D01*
X102837933Y-94511714D01*
X103076028Y-94511714D01*
X103266504Y-94464095D01*
X103361742Y-94416476D01*
X103409361Y-94368857D01*
X103456980Y-94273619D01*
X103456980Y-94178380D01*
X103409361Y-94083142D01*
X103361742Y-94035523D01*
X103266504Y-93987904D01*
X103076028Y-93940285D01*
X102837933Y-93940285D01*
X102647457Y-93987904D01*
X102552219Y-94035523D01*
X102504600Y-94083142D01*
X102456980Y-94178380D01*
X102456980Y-94845047D02*
X102456980Y-95464095D01*
X102837933Y-95130761D01*
X102837933Y-95273619D01*
X102885552Y-95368857D01*
X102933171Y-95416476D01*
X103028409Y-95464095D01*
X103266504Y-95464095D01*
X103361742Y-95416476D01*
X103409361Y-95368857D01*
X103456980Y-95273619D01*
X103456980Y-94987904D01*
X103409361Y-94892666D01*
X103361742Y-94845047D01*
X100255247Y-96659980D02*
X100588580Y-96183790D01*
X100826676Y-96659980D02*
X100826676Y-95659980D01*
X100445723Y-95659980D01*
X100350485Y-95707600D01*
X100302866Y-95755219D01*
X100255247Y-95850457D01*
X100255247Y-95993314D01*
X100302866Y-96088552D01*
X100350485Y-96136171D01*
X100445723Y-96183790D01*
X100826676Y-96183790D01*
X99874295Y-95755219D02*
X99826676Y-95707600D01*
X99731438Y-95659980D01*
X99493342Y-95659980D01*
X99398104Y-95707600D01*
X99350485Y-95755219D01*
X99302866Y-95850457D01*
X99302866Y-95945695D01*
X99350485Y-96088552D01*
X99921914Y-96659980D01*
X99302866Y-96659980D01*
X98683819Y-95659980D02*
X98588580Y-95659980D01*
X98493342Y-95707600D01*
X98445723Y-95755219D01*
X98398104Y-95850457D01*
X98350485Y-96040933D01*
X98350485Y-96279028D01*
X98398104Y-96469504D01*
X98445723Y-96564742D01*
X98493342Y-96612361D01*
X98588580Y-96659980D01*
X98683819Y-96659980D01*
X98779057Y-96612361D01*
X98826676Y-96564742D01*
X98874295Y-96469504D01*
X98921914Y-96279028D01*
X98921914Y-96040933D01*
X98874295Y-95850457D01*
X98826676Y-95755219D01*
X98779057Y-95707600D01*
X98683819Y-95659980D01*
X97493342Y-95993314D02*
X97493342Y-96659980D01*
X97731438Y-95612361D02*
X97969533Y-96326647D01*
X97350485Y-96326647D01*
X151777980Y-85926752D02*
X151301790Y-85593419D01*
X151777980Y-85355323D02*
X150777980Y-85355323D01*
X150777980Y-85736276D01*
X150825600Y-85831514D01*
X150873219Y-85879133D01*
X150968457Y-85926752D01*
X151111314Y-85926752D01*
X151206552Y-85879133D01*
X151254171Y-85831514D01*
X151301790Y-85736276D01*
X151301790Y-85355323D01*
X150777980Y-86260085D02*
X150777980Y-86879133D01*
X151158933Y-86545800D01*
X151158933Y-86688657D01*
X151206552Y-86783895D01*
X151254171Y-86831514D01*
X151349409Y-86879133D01*
X151587504Y-86879133D01*
X151682742Y-86831514D01*
X151730361Y-86783895D01*
X151777980Y-86688657D01*
X151777980Y-86402942D01*
X151730361Y-86307704D01*
X151682742Y-86260085D01*
X150777980Y-87498180D02*
X150777980Y-87593419D01*
X150825600Y-87688657D01*
X150873219Y-87736276D01*
X150968457Y-87783895D01*
X151158933Y-87831514D01*
X151397028Y-87831514D01*
X151587504Y-87783895D01*
X151682742Y-87736276D01*
X151730361Y-87688657D01*
X151777980Y-87593419D01*
X151777980Y-87498180D01*
X151730361Y-87402942D01*
X151682742Y-87355323D01*
X151587504Y-87307704D01*
X151397028Y-87260085D01*
X151158933Y-87260085D01*
X150968457Y-87307704D01*
X150873219Y-87355323D01*
X150825600Y-87402942D01*
X150777980Y-87498180D01*
X151777980Y-88783895D02*
X151777980Y-88212466D01*
X151777980Y-88498180D02*
X150777980Y-88498180D01*
X150920838Y-88402942D01*
X151016076Y-88307704D01*
X151063695Y-88212466D01*
X156897247Y-90063580D02*
X157230580Y-89587390D01*
X157468676Y-90063580D02*
X157468676Y-89063580D01*
X157087723Y-89063580D01*
X156992485Y-89111200D01*
X156944866Y-89158819D01*
X156897247Y-89254057D01*
X156897247Y-89396914D01*
X156944866Y-89492152D01*
X156992485Y-89539771D01*
X157087723Y-89587390D01*
X157468676Y-89587390D01*
X156563914Y-89063580D02*
X155944866Y-89063580D01*
X156278200Y-89444533D01*
X156135342Y-89444533D01*
X156040104Y-89492152D01*
X155992485Y-89539771D01*
X155944866Y-89635009D01*
X155944866Y-89873104D01*
X155992485Y-89968342D01*
X156040104Y-90015961D01*
X156135342Y-90063580D01*
X156421057Y-90063580D01*
X156516295Y-90015961D01*
X156563914Y-89968342D01*
X155325819Y-89063580D02*
X155230580Y-89063580D01*
X155135342Y-89111200D01*
X155087723Y-89158819D01*
X155040104Y-89254057D01*
X154992485Y-89444533D01*
X154992485Y-89682628D01*
X155040104Y-89873104D01*
X155087723Y-89968342D01*
X155135342Y-90015961D01*
X155230580Y-90063580D01*
X155325819Y-90063580D01*
X155421057Y-90015961D01*
X155468676Y-89968342D01*
X155516295Y-89873104D01*
X155563914Y-89682628D01*
X155563914Y-89444533D01*
X155516295Y-89254057D01*
X155468676Y-89158819D01*
X155421057Y-89111200D01*
X155325819Y-89063580D01*
X154611533Y-89158819D02*
X154563914Y-89111200D01*
X154468676Y-89063580D01*
X154230580Y-89063580D01*
X154135342Y-89111200D01*
X154087723Y-89158819D01*
X154040104Y-89254057D01*
X154040104Y-89349295D01*
X154087723Y-89492152D01*
X154659152Y-90063580D01*
X154040104Y-90063580D01*
X145943580Y-87399952D02*
X145467390Y-87066619D01*
X145943580Y-86828523D02*
X144943580Y-86828523D01*
X144943580Y-87209476D01*
X144991200Y-87304714D01*
X145038819Y-87352333D01*
X145134057Y-87399952D01*
X145276914Y-87399952D01*
X145372152Y-87352333D01*
X145419771Y-87304714D01*
X145467390Y-87209476D01*
X145467390Y-86828523D01*
X144943580Y-87733285D02*
X144943580Y-88352333D01*
X145324533Y-88019000D01*
X145324533Y-88161857D01*
X145372152Y-88257095D01*
X145419771Y-88304714D01*
X145515009Y-88352333D01*
X145753104Y-88352333D01*
X145848342Y-88304714D01*
X145895961Y-88257095D01*
X145943580Y-88161857D01*
X145943580Y-87876142D01*
X145895961Y-87780904D01*
X145848342Y-87733285D01*
X144943580Y-88971380D02*
X144943580Y-89066619D01*
X144991200Y-89161857D01*
X145038819Y-89209476D01*
X145134057Y-89257095D01*
X145324533Y-89304714D01*
X145562628Y-89304714D01*
X145753104Y-89257095D01*
X145848342Y-89209476D01*
X145895961Y-89161857D01*
X145943580Y-89066619D01*
X145943580Y-88971380D01*
X145895961Y-88876142D01*
X145848342Y-88828523D01*
X145753104Y-88780904D01*
X145562628Y-88733285D01*
X145324533Y-88733285D01*
X145134057Y-88780904D01*
X145038819Y-88828523D01*
X144991200Y-88876142D01*
X144943580Y-88971380D01*
X144943580Y-89638047D02*
X144943580Y-90257095D01*
X145324533Y-89923761D01*
X145324533Y-90066619D01*
X145372152Y-90161857D01*
X145419771Y-90209476D01*
X145515009Y-90257095D01*
X145753104Y-90257095D01*
X145848342Y-90209476D01*
X145895961Y-90161857D01*
X145943580Y-90066619D01*
X145943580Y-89780904D01*
X145895961Y-89685666D01*
X145848342Y-89638047D01*
X147513247Y-80995780D02*
X147846580Y-80519590D01*
X148084676Y-80995780D02*
X148084676Y-79995780D01*
X147703723Y-79995780D01*
X147608485Y-80043400D01*
X147560866Y-80091019D01*
X147513247Y-80186257D01*
X147513247Y-80329114D01*
X147560866Y-80424352D01*
X147608485Y-80471971D01*
X147703723Y-80519590D01*
X148084676Y-80519590D01*
X147179914Y-79995780D02*
X146560866Y-79995780D01*
X146894200Y-80376733D01*
X146751342Y-80376733D01*
X146656104Y-80424352D01*
X146608485Y-80471971D01*
X146560866Y-80567209D01*
X146560866Y-80805304D01*
X146608485Y-80900542D01*
X146656104Y-80948161D01*
X146751342Y-80995780D01*
X147037057Y-80995780D01*
X147132295Y-80948161D01*
X147179914Y-80900542D01*
X145941819Y-79995780D02*
X145846580Y-79995780D01*
X145751342Y-80043400D01*
X145703723Y-80091019D01*
X145656104Y-80186257D01*
X145608485Y-80376733D01*
X145608485Y-80614828D01*
X145656104Y-80805304D01*
X145703723Y-80900542D01*
X145751342Y-80948161D01*
X145846580Y-80995780D01*
X145941819Y-80995780D01*
X146037057Y-80948161D01*
X146084676Y-80900542D01*
X146132295Y-80805304D01*
X146179914Y-80614828D01*
X146179914Y-80376733D01*
X146132295Y-80186257D01*
X146084676Y-80091019D01*
X146037057Y-80043400D01*
X145941819Y-79995780D01*
X144751342Y-80329114D02*
X144751342Y-80995780D01*
X144989438Y-79948161D02*
X145227533Y-80662447D01*
X144608485Y-80662447D01*
X149596047Y-90706180D02*
X149929380Y-90229990D01*
X150167476Y-90706180D02*
X150167476Y-89706180D01*
X149786523Y-89706180D01*
X149691285Y-89753800D01*
X149643666Y-89801419D01*
X149596047Y-89896657D01*
X149596047Y-90039514D01*
X149643666Y-90134752D01*
X149691285Y-90182371D01*
X149786523Y-90229990D01*
X150167476Y-90229990D01*
X149262714Y-89706180D02*
X148643666Y-89706180D01*
X148977000Y-90087133D01*
X148834142Y-90087133D01*
X148738904Y-90134752D01*
X148691285Y-90182371D01*
X148643666Y-90277609D01*
X148643666Y-90515704D01*
X148691285Y-90610942D01*
X148738904Y-90658561D01*
X148834142Y-90706180D01*
X149119857Y-90706180D01*
X149215095Y-90658561D01*
X149262714Y-90610942D01*
X148024619Y-89706180D02*
X147929380Y-89706180D01*
X147834142Y-89753800D01*
X147786523Y-89801419D01*
X147738904Y-89896657D01*
X147691285Y-90087133D01*
X147691285Y-90325228D01*
X147738904Y-90515704D01*
X147786523Y-90610942D01*
X147834142Y-90658561D01*
X147929380Y-90706180D01*
X148024619Y-90706180D01*
X148119857Y-90658561D01*
X148167476Y-90610942D01*
X148215095Y-90515704D01*
X148262714Y-90325228D01*
X148262714Y-90087133D01*
X148215095Y-89896657D01*
X148167476Y-89801419D01*
X148119857Y-89753800D01*
X148024619Y-89706180D01*
X146786523Y-89706180D02*
X147262714Y-89706180D01*
X147310333Y-90182371D01*
X147262714Y-90134752D01*
X147167476Y-90087133D01*
X146929380Y-90087133D01*
X146834142Y-90134752D01*
X146786523Y-90182371D01*
X146738904Y-90277609D01*
X146738904Y-90515704D01*
X146786523Y-90610942D01*
X146834142Y-90658561D01*
X146929380Y-90706180D01*
X147167476Y-90706180D01*
X147262714Y-90658561D01*
X147310333Y-90610942D01*
X175796180Y-112799952D02*
X175319990Y-112466619D01*
X175796180Y-112228523D02*
X174796180Y-112228523D01*
X174796180Y-112609476D01*
X174843800Y-112704714D01*
X174891419Y-112752333D01*
X174986657Y-112799952D01*
X175129514Y-112799952D01*
X175224752Y-112752333D01*
X175272371Y-112704714D01*
X175319990Y-112609476D01*
X175319990Y-112228523D01*
X175129514Y-113657095D02*
X175796180Y-113657095D01*
X174748561Y-113419000D02*
X175462847Y-113180904D01*
X175462847Y-113799952D01*
X174796180Y-114371380D02*
X174796180Y-114466619D01*
X174843800Y-114561857D01*
X174891419Y-114609476D01*
X174986657Y-114657095D01*
X175177133Y-114704714D01*
X175415228Y-114704714D01*
X175605704Y-114657095D01*
X175700942Y-114609476D01*
X175748561Y-114561857D01*
X175796180Y-114466619D01*
X175796180Y-114371380D01*
X175748561Y-114276142D01*
X175700942Y-114228523D01*
X175605704Y-114180904D01*
X175415228Y-114133285D01*
X175177133Y-114133285D01*
X174986657Y-114180904D01*
X174891419Y-114228523D01*
X174843800Y-114276142D01*
X174796180Y-114371380D01*
X175796180Y-115657095D02*
X175796180Y-115085666D01*
X175796180Y-115371380D02*
X174796180Y-115371380D01*
X174939038Y-115276142D01*
X175034276Y-115180904D01*
X175081895Y-115085666D01*
X168733647Y-115336580D02*
X169066980Y-114860390D01*
X169305076Y-115336580D02*
X169305076Y-114336580D01*
X168924123Y-114336580D01*
X168828885Y-114384200D01*
X168781266Y-114431819D01*
X168733647Y-114527057D01*
X168733647Y-114669914D01*
X168781266Y-114765152D01*
X168828885Y-114812771D01*
X168924123Y-114860390D01*
X169305076Y-114860390D01*
X167876504Y-114669914D02*
X167876504Y-115336580D01*
X168114600Y-114288961D02*
X168352695Y-115003247D01*
X167733647Y-115003247D01*
X167162219Y-114336580D02*
X167066980Y-114336580D01*
X166971742Y-114384200D01*
X166924123Y-114431819D01*
X166876504Y-114527057D01*
X166828885Y-114717533D01*
X166828885Y-114955628D01*
X166876504Y-115146104D01*
X166924123Y-115241342D01*
X166971742Y-115288961D01*
X167066980Y-115336580D01*
X167162219Y-115336580D01*
X167257457Y-115288961D01*
X167305076Y-115241342D01*
X167352695Y-115146104D01*
X167400314Y-114955628D01*
X167400314Y-114717533D01*
X167352695Y-114527057D01*
X167305076Y-114431819D01*
X167257457Y-114384200D01*
X167162219Y-114336580D01*
X166447933Y-114431819D02*
X166400314Y-114384200D01*
X166305076Y-114336580D01*
X166066980Y-114336580D01*
X165971742Y-114384200D01*
X165924123Y-114431819D01*
X165876504Y-114527057D01*
X165876504Y-114622295D01*
X165924123Y-114765152D01*
X166495552Y-115336580D01*
X165876504Y-115336580D01*
X147245247Y-113312180D02*
X147578580Y-112835990D01*
X147816676Y-113312180D02*
X147816676Y-112312180D01*
X147435723Y-112312180D01*
X147340485Y-112359800D01*
X147292866Y-112407419D01*
X147245247Y-112502657D01*
X147245247Y-112645514D01*
X147292866Y-112740752D01*
X147340485Y-112788371D01*
X147435723Y-112835990D01*
X147816676Y-112835990D01*
X146340485Y-112312180D02*
X146816676Y-112312180D01*
X146864295Y-112788371D01*
X146816676Y-112740752D01*
X146721438Y-112693133D01*
X146483342Y-112693133D01*
X146388104Y-112740752D01*
X146340485Y-112788371D01*
X146292866Y-112883609D01*
X146292866Y-113121704D01*
X146340485Y-113216942D01*
X146388104Y-113264561D01*
X146483342Y-113312180D01*
X146721438Y-113312180D01*
X146816676Y-113264561D01*
X146864295Y-113216942D01*
X145673819Y-112312180D02*
X145578580Y-112312180D01*
X145483342Y-112359800D01*
X145435723Y-112407419D01*
X145388104Y-112502657D01*
X145340485Y-112693133D01*
X145340485Y-112931228D01*
X145388104Y-113121704D01*
X145435723Y-113216942D01*
X145483342Y-113264561D01*
X145578580Y-113312180D01*
X145673819Y-113312180D01*
X145769057Y-113264561D01*
X145816676Y-113216942D01*
X145864295Y-113121704D01*
X145911914Y-112931228D01*
X145911914Y-112693133D01*
X145864295Y-112502657D01*
X145816676Y-112407419D01*
X145769057Y-112359800D01*
X145673819Y-112312180D01*
X144388104Y-113312180D02*
X144959533Y-113312180D01*
X144673819Y-113312180D02*
X144673819Y-112312180D01*
X144769057Y-112455038D01*
X144864295Y-112550276D01*
X144959533Y-112597895D01*
X127636447Y-110960180D02*
X127969780Y-110483990D01*
X128207876Y-110960180D02*
X128207876Y-109960180D01*
X127826923Y-109960180D01*
X127731685Y-110007800D01*
X127684066Y-110055419D01*
X127636447Y-110150657D01*
X127636447Y-110293514D01*
X127684066Y-110388752D01*
X127731685Y-110436371D01*
X127826923Y-110483990D01*
X128207876Y-110483990D01*
X126731685Y-109960180D02*
X127207876Y-109960180D01*
X127255495Y-110436371D01*
X127207876Y-110388752D01*
X127112638Y-110341133D01*
X126874542Y-110341133D01*
X126779304Y-110388752D01*
X126731685Y-110436371D01*
X126684066Y-110531609D01*
X126684066Y-110769704D01*
X126731685Y-110864942D01*
X126779304Y-110912561D01*
X126874542Y-110960180D01*
X127112638Y-110960180D01*
X127207876Y-110912561D01*
X127255495Y-110864942D01*
X126065019Y-109960180D02*
X125969780Y-109960180D01*
X125874542Y-110007800D01*
X125826923Y-110055419D01*
X125779304Y-110150657D01*
X125731685Y-110341133D01*
X125731685Y-110579228D01*
X125779304Y-110769704D01*
X125826923Y-110864942D01*
X125874542Y-110912561D01*
X125969780Y-110960180D01*
X126065019Y-110960180D01*
X126160257Y-110912561D01*
X126207876Y-110864942D01*
X126255495Y-110769704D01*
X126303114Y-110579228D01*
X126303114Y-110341133D01*
X126255495Y-110150657D01*
X126207876Y-110055419D01*
X126160257Y-110007800D01*
X126065019Y-109960180D01*
X125350733Y-110055419D02*
X125303114Y-110007800D01*
X125207876Y-109960180D01*
X124969780Y-109960180D01*
X124874542Y-110007800D01*
X124826923Y-110055419D01*
X124779304Y-110150657D01*
X124779304Y-110245895D01*
X124826923Y-110388752D01*
X125398352Y-110960180D01*
X124779304Y-110960180D01*
X128721380Y-115847952D02*
X128245190Y-115514619D01*
X128721380Y-115276523D02*
X127721380Y-115276523D01*
X127721380Y-115657476D01*
X127769000Y-115752714D01*
X127816619Y-115800333D01*
X127911857Y-115847952D01*
X128054714Y-115847952D01*
X128149952Y-115800333D01*
X128197571Y-115752714D01*
X128245190Y-115657476D01*
X128245190Y-115276523D01*
X127721380Y-116752714D02*
X127721380Y-116276523D01*
X128197571Y-116228904D01*
X128149952Y-116276523D01*
X128102333Y-116371761D01*
X128102333Y-116609857D01*
X128149952Y-116705095D01*
X128197571Y-116752714D01*
X128292809Y-116800333D01*
X128530904Y-116800333D01*
X128626142Y-116752714D01*
X128673761Y-116705095D01*
X128721380Y-116609857D01*
X128721380Y-116371761D01*
X128673761Y-116276523D01*
X128626142Y-116228904D01*
X127721380Y-117419380D02*
X127721380Y-117514619D01*
X127769000Y-117609857D01*
X127816619Y-117657476D01*
X127911857Y-117705095D01*
X128102333Y-117752714D01*
X128340428Y-117752714D01*
X128530904Y-117705095D01*
X128626142Y-117657476D01*
X128673761Y-117609857D01*
X128721380Y-117514619D01*
X128721380Y-117419380D01*
X128673761Y-117324142D01*
X128626142Y-117276523D01*
X128530904Y-117228904D01*
X128340428Y-117181285D01*
X128102333Y-117181285D01*
X127911857Y-117228904D01*
X127816619Y-117276523D01*
X127769000Y-117324142D01*
X127721380Y-117419380D01*
X127721380Y-118086047D02*
X127721380Y-118705095D01*
X128102333Y-118371761D01*
X128102333Y-118514619D01*
X128149952Y-118609857D01*
X128197571Y-118657476D01*
X128292809Y-118705095D01*
X128530904Y-118705095D01*
X128626142Y-118657476D01*
X128673761Y-118609857D01*
X128721380Y-118514619D01*
X128721380Y-118228904D01*
X128673761Y-118133666D01*
X128626142Y-118086047D01*
X147219847Y-110688380D02*
X147553180Y-110212190D01*
X147791276Y-110688380D02*
X147791276Y-109688380D01*
X147410323Y-109688380D01*
X147315085Y-109736000D01*
X147267466Y-109783619D01*
X147219847Y-109878857D01*
X147219847Y-110021714D01*
X147267466Y-110116952D01*
X147315085Y-110164571D01*
X147410323Y-110212190D01*
X147791276Y-110212190D01*
X146315085Y-109688380D02*
X146791276Y-109688380D01*
X146838895Y-110164571D01*
X146791276Y-110116952D01*
X146696038Y-110069333D01*
X146457942Y-110069333D01*
X146362704Y-110116952D01*
X146315085Y-110164571D01*
X146267466Y-110259809D01*
X146267466Y-110497904D01*
X146315085Y-110593142D01*
X146362704Y-110640761D01*
X146457942Y-110688380D01*
X146696038Y-110688380D01*
X146791276Y-110640761D01*
X146838895Y-110593142D01*
X145648419Y-109688380D02*
X145553180Y-109688380D01*
X145457942Y-109736000D01*
X145410323Y-109783619D01*
X145362704Y-109878857D01*
X145315085Y-110069333D01*
X145315085Y-110307428D01*
X145362704Y-110497904D01*
X145410323Y-110593142D01*
X145457942Y-110640761D01*
X145553180Y-110688380D01*
X145648419Y-110688380D01*
X145743657Y-110640761D01*
X145791276Y-110593142D01*
X145838895Y-110497904D01*
X145886514Y-110307428D01*
X145886514Y-110069333D01*
X145838895Y-109878857D01*
X145791276Y-109783619D01*
X145743657Y-109736000D01*
X145648419Y-109688380D01*
X144457942Y-110021714D02*
X144457942Y-110688380D01*
X144696038Y-109640761D02*
X144934133Y-110355047D01*
X144315085Y-110355047D01*
X147270647Y-109062780D02*
X147603980Y-108586590D01*
X147842076Y-109062780D02*
X147842076Y-108062780D01*
X147461123Y-108062780D01*
X147365885Y-108110400D01*
X147318266Y-108158019D01*
X147270647Y-108253257D01*
X147270647Y-108396114D01*
X147318266Y-108491352D01*
X147365885Y-108538971D01*
X147461123Y-108586590D01*
X147842076Y-108586590D01*
X146365885Y-108062780D02*
X146842076Y-108062780D01*
X146889695Y-108538971D01*
X146842076Y-108491352D01*
X146746838Y-108443733D01*
X146508742Y-108443733D01*
X146413504Y-108491352D01*
X146365885Y-108538971D01*
X146318266Y-108634209D01*
X146318266Y-108872304D01*
X146365885Y-108967542D01*
X146413504Y-109015161D01*
X146508742Y-109062780D01*
X146746838Y-109062780D01*
X146842076Y-109015161D01*
X146889695Y-108967542D01*
X145699219Y-108062780D02*
X145603980Y-108062780D01*
X145508742Y-108110400D01*
X145461123Y-108158019D01*
X145413504Y-108253257D01*
X145365885Y-108443733D01*
X145365885Y-108681828D01*
X145413504Y-108872304D01*
X145461123Y-108967542D01*
X145508742Y-109015161D01*
X145603980Y-109062780D01*
X145699219Y-109062780D01*
X145794457Y-109015161D01*
X145842076Y-108967542D01*
X145889695Y-108872304D01*
X145937314Y-108681828D01*
X145937314Y-108443733D01*
X145889695Y-108253257D01*
X145842076Y-108158019D01*
X145794457Y-108110400D01*
X145699219Y-108062780D01*
X144461123Y-108062780D02*
X144937314Y-108062780D01*
X144984933Y-108538971D01*
X144937314Y-108491352D01*
X144842076Y-108443733D01*
X144603980Y-108443733D01*
X144508742Y-108491352D01*
X144461123Y-108538971D01*
X144413504Y-108634209D01*
X144413504Y-108872304D01*
X144461123Y-108967542D01*
X144508742Y-109015161D01*
X144603980Y-109062780D01*
X144842076Y-109062780D01*
X144937314Y-109015161D01*
X144984933Y-108967542D01*
X107900647Y-80546180D02*
X108233980Y-80069990D01*
X108472076Y-80546180D02*
X108472076Y-79546180D01*
X108091123Y-79546180D01*
X107995885Y-79593800D01*
X107948266Y-79641419D01*
X107900647Y-79736657D01*
X107900647Y-79879514D01*
X107948266Y-79974752D01*
X107995885Y-80022371D01*
X108091123Y-80069990D01*
X108472076Y-80069990D01*
X107043504Y-79546180D02*
X107233980Y-79546180D01*
X107329219Y-79593800D01*
X107376838Y-79641419D01*
X107472076Y-79784276D01*
X107519695Y-79974752D01*
X107519695Y-80355704D01*
X107472076Y-80450942D01*
X107424457Y-80498561D01*
X107329219Y-80546180D01*
X107138742Y-80546180D01*
X107043504Y-80498561D01*
X106995885Y-80450942D01*
X106948266Y-80355704D01*
X106948266Y-80117609D01*
X106995885Y-80022371D01*
X107043504Y-79974752D01*
X107138742Y-79927133D01*
X107329219Y-79927133D01*
X107424457Y-79974752D01*
X107472076Y-80022371D01*
X107519695Y-80117609D01*
X106329219Y-79546180D02*
X106233980Y-79546180D01*
X106138742Y-79593800D01*
X106091123Y-79641419D01*
X106043504Y-79736657D01*
X105995885Y-79927133D01*
X105995885Y-80165228D01*
X106043504Y-80355704D01*
X106091123Y-80450942D01*
X106138742Y-80498561D01*
X106233980Y-80546180D01*
X106329219Y-80546180D01*
X106424457Y-80498561D01*
X106472076Y-80450942D01*
X106519695Y-80355704D01*
X106567314Y-80165228D01*
X106567314Y-79927133D01*
X106519695Y-79736657D01*
X106472076Y-79641419D01*
X106424457Y-79593800D01*
X106329219Y-79546180D01*
X105043504Y-80546180D02*
X105614933Y-80546180D01*
X105329219Y-80546180D02*
X105329219Y-79546180D01*
X105424457Y-79689038D01*
X105519695Y-79784276D01*
X105614933Y-79831895D01*
X107995980Y-87857152D02*
X107519790Y-87523819D01*
X107995980Y-87285723D02*
X106995980Y-87285723D01*
X106995980Y-87666676D01*
X107043600Y-87761914D01*
X107091219Y-87809533D01*
X107186457Y-87857152D01*
X107329314Y-87857152D01*
X107424552Y-87809533D01*
X107472171Y-87761914D01*
X107519790Y-87666676D01*
X107519790Y-87285723D01*
X106995980Y-88714295D02*
X106995980Y-88523819D01*
X107043600Y-88428580D01*
X107091219Y-88380961D01*
X107234076Y-88285723D01*
X107424552Y-88238104D01*
X107805504Y-88238104D01*
X107900742Y-88285723D01*
X107948361Y-88333342D01*
X107995980Y-88428580D01*
X107995980Y-88619057D01*
X107948361Y-88714295D01*
X107900742Y-88761914D01*
X107805504Y-88809533D01*
X107567409Y-88809533D01*
X107472171Y-88761914D01*
X107424552Y-88714295D01*
X107376933Y-88619057D01*
X107376933Y-88428580D01*
X107424552Y-88333342D01*
X107472171Y-88285723D01*
X107567409Y-88238104D01*
X106995980Y-89428580D02*
X106995980Y-89523819D01*
X107043600Y-89619057D01*
X107091219Y-89666676D01*
X107186457Y-89714295D01*
X107376933Y-89761914D01*
X107615028Y-89761914D01*
X107805504Y-89714295D01*
X107900742Y-89666676D01*
X107948361Y-89619057D01*
X107995980Y-89523819D01*
X107995980Y-89428580D01*
X107948361Y-89333342D01*
X107900742Y-89285723D01*
X107805504Y-89238104D01*
X107615028Y-89190485D01*
X107376933Y-89190485D01*
X107186457Y-89238104D01*
X107091219Y-89285723D01*
X107043600Y-89333342D01*
X106995980Y-89428580D01*
X107091219Y-90142866D02*
X107043600Y-90190485D01*
X106995980Y-90285723D01*
X106995980Y-90523819D01*
X107043600Y-90619057D01*
X107091219Y-90666676D01*
X107186457Y-90714295D01*
X107281695Y-90714295D01*
X107424552Y-90666676D01*
X107995980Y-90095247D01*
X107995980Y-90714295D01*
X165888847Y-95478880D02*
X166222180Y-95002690D01*
X166460276Y-95478880D02*
X166460276Y-94478880D01*
X166079323Y-94478880D01*
X165984085Y-94526500D01*
X165936466Y-94574119D01*
X165888847Y-94669357D01*
X165888847Y-94812214D01*
X165936466Y-94907452D01*
X165984085Y-94955071D01*
X166079323Y-95002690D01*
X166460276Y-95002690D01*
X165555514Y-94478880D02*
X164888847Y-94478880D01*
X165317419Y-95478880D01*
X164317419Y-94478880D02*
X164222180Y-94478880D01*
X164126942Y-94526500D01*
X164079323Y-94574119D01*
X164031704Y-94669357D01*
X163984085Y-94859833D01*
X163984085Y-95097928D01*
X164031704Y-95288404D01*
X164079323Y-95383642D01*
X164126942Y-95431261D01*
X164222180Y-95478880D01*
X164317419Y-95478880D01*
X164412657Y-95431261D01*
X164460276Y-95383642D01*
X164507895Y-95288404D01*
X164555514Y-95097928D01*
X164555514Y-94859833D01*
X164507895Y-94669357D01*
X164460276Y-94574119D01*
X164412657Y-94526500D01*
X164317419Y-94478880D01*
X163031704Y-95478880D02*
X163603133Y-95478880D01*
X163317419Y-95478880D02*
X163317419Y-94478880D01*
X163412657Y-94621738D01*
X163507895Y-94716976D01*
X163603133Y-94764595D01*
X161774047Y-95504280D02*
X162107380Y-95028090D01*
X162345476Y-95504280D02*
X162345476Y-94504280D01*
X161964523Y-94504280D01*
X161869285Y-94551900D01*
X161821666Y-94599519D01*
X161774047Y-94694757D01*
X161774047Y-94837614D01*
X161821666Y-94932852D01*
X161869285Y-94980471D01*
X161964523Y-95028090D01*
X162345476Y-95028090D01*
X161440714Y-94504280D02*
X160774047Y-94504280D01*
X161202619Y-95504280D01*
X160202619Y-94504280D02*
X160107380Y-94504280D01*
X160012142Y-94551900D01*
X159964523Y-94599519D01*
X159916904Y-94694757D01*
X159869285Y-94885233D01*
X159869285Y-95123328D01*
X159916904Y-95313804D01*
X159964523Y-95409042D01*
X160012142Y-95456661D01*
X160107380Y-95504280D01*
X160202619Y-95504280D01*
X160297857Y-95456661D01*
X160345476Y-95409042D01*
X160393095Y-95313804D01*
X160440714Y-95123328D01*
X160440714Y-94885233D01*
X160393095Y-94694757D01*
X160345476Y-94599519D01*
X160297857Y-94551900D01*
X160202619Y-94504280D01*
X159488333Y-94599519D02*
X159440714Y-94551900D01*
X159345476Y-94504280D01*
X159107380Y-94504280D01*
X159012142Y-94551900D01*
X158964523Y-94599519D01*
X158916904Y-94694757D01*
X158916904Y-94789995D01*
X158964523Y-94932852D01*
X159535952Y-95504280D01*
X158916904Y-95504280D01*
X157597047Y-95478880D02*
X157930380Y-95002690D01*
X158168476Y-95478880D02*
X158168476Y-94478880D01*
X157787523Y-94478880D01*
X157692285Y-94526500D01*
X157644666Y-94574119D01*
X157597047Y-94669357D01*
X157597047Y-94812214D01*
X157644666Y-94907452D01*
X157692285Y-94955071D01*
X157787523Y-95002690D01*
X158168476Y-95002690D01*
X157263714Y-94478880D02*
X156597047Y-94478880D01*
X157025619Y-95478880D01*
X156025619Y-94478880D02*
X155930380Y-94478880D01*
X155835142Y-94526500D01*
X155787523Y-94574119D01*
X155739904Y-94669357D01*
X155692285Y-94859833D01*
X155692285Y-95097928D01*
X155739904Y-95288404D01*
X155787523Y-95383642D01*
X155835142Y-95431261D01*
X155930380Y-95478880D01*
X156025619Y-95478880D01*
X156120857Y-95431261D01*
X156168476Y-95383642D01*
X156216095Y-95288404D01*
X156263714Y-95097928D01*
X156263714Y-94859833D01*
X156216095Y-94669357D01*
X156168476Y-94574119D01*
X156120857Y-94526500D01*
X156025619Y-94478880D01*
X155358952Y-94478880D02*
X154739904Y-94478880D01*
X155073238Y-94859833D01*
X154930380Y-94859833D01*
X154835142Y-94907452D01*
X154787523Y-94955071D01*
X154739904Y-95050309D01*
X154739904Y-95288404D01*
X154787523Y-95383642D01*
X154835142Y-95431261D01*
X154930380Y-95478880D01*
X155216095Y-95478880D01*
X155311333Y-95431261D01*
X155358952Y-95383642D01*
X155246247Y-98699580D02*
X155579580Y-98223390D01*
X155817676Y-98699580D02*
X155817676Y-97699580D01*
X155436723Y-97699580D01*
X155341485Y-97747200D01*
X155293866Y-97794819D01*
X155246247Y-97890057D01*
X155246247Y-98032914D01*
X155293866Y-98128152D01*
X155341485Y-98175771D01*
X155436723Y-98223390D01*
X155817676Y-98223390D01*
X154912914Y-97699580D02*
X154246247Y-97699580D01*
X154674819Y-98699580D01*
X153674819Y-97699580D02*
X153579580Y-97699580D01*
X153484342Y-97747200D01*
X153436723Y-97794819D01*
X153389104Y-97890057D01*
X153341485Y-98080533D01*
X153341485Y-98318628D01*
X153389104Y-98509104D01*
X153436723Y-98604342D01*
X153484342Y-98651961D01*
X153579580Y-98699580D01*
X153674819Y-98699580D01*
X153770057Y-98651961D01*
X153817676Y-98604342D01*
X153865295Y-98509104D01*
X153912914Y-98318628D01*
X153912914Y-98080533D01*
X153865295Y-97890057D01*
X153817676Y-97794819D01*
X153770057Y-97747200D01*
X153674819Y-97699580D01*
X152484342Y-98032914D02*
X152484342Y-98699580D01*
X152722438Y-97651961D02*
X152960533Y-98366247D01*
X152341485Y-98366247D01*
X169698847Y-80988180D02*
X170032180Y-80511990D01*
X170270276Y-80988180D02*
X170270276Y-79988180D01*
X169889323Y-79988180D01*
X169794085Y-80035800D01*
X169746466Y-80083419D01*
X169698847Y-80178657D01*
X169698847Y-80321514D01*
X169746466Y-80416752D01*
X169794085Y-80464371D01*
X169889323Y-80511990D01*
X170270276Y-80511990D01*
X169365514Y-79988180D02*
X168698847Y-79988180D01*
X169127419Y-80988180D01*
X168127419Y-79988180D02*
X168032180Y-79988180D01*
X167936942Y-80035800D01*
X167889323Y-80083419D01*
X167841704Y-80178657D01*
X167794085Y-80369133D01*
X167794085Y-80607228D01*
X167841704Y-80797704D01*
X167889323Y-80892942D01*
X167936942Y-80940561D01*
X168032180Y-80988180D01*
X168127419Y-80988180D01*
X168222657Y-80940561D01*
X168270276Y-80892942D01*
X168317895Y-80797704D01*
X168365514Y-80607228D01*
X168365514Y-80369133D01*
X168317895Y-80178657D01*
X168270276Y-80083419D01*
X168222657Y-80035800D01*
X168127419Y-79988180D01*
X166889323Y-79988180D02*
X167365514Y-79988180D01*
X167413133Y-80464371D01*
X167365514Y-80416752D01*
X167270276Y-80369133D01*
X167032180Y-80369133D01*
X166936942Y-80416752D01*
X166889323Y-80464371D01*
X166841704Y-80559609D01*
X166841704Y-80797704D01*
X166889323Y-80892942D01*
X166936942Y-80940561D01*
X167032180Y-80988180D01*
X167270276Y-80988180D01*
X167365514Y-80940561D01*
X167413133Y-80892942D01*
X169202247Y-94071680D02*
X169535580Y-93595490D01*
X169773676Y-94071680D02*
X169773676Y-93071680D01*
X169392723Y-93071680D01*
X169297485Y-93119300D01*
X169249866Y-93166919D01*
X169202247Y-93262157D01*
X169202247Y-93405014D01*
X169249866Y-93500252D01*
X169297485Y-93547871D01*
X169392723Y-93595490D01*
X169773676Y-93595490D01*
X168868914Y-93071680D02*
X168202247Y-93071680D01*
X168630819Y-94071680D01*
X167630819Y-93071680D02*
X167535580Y-93071680D01*
X167440342Y-93119300D01*
X167392723Y-93166919D01*
X167345104Y-93262157D01*
X167297485Y-93452633D01*
X167297485Y-93690728D01*
X167345104Y-93881204D01*
X167392723Y-93976442D01*
X167440342Y-94024061D01*
X167535580Y-94071680D01*
X167630819Y-94071680D01*
X167726057Y-94024061D01*
X167773676Y-93976442D01*
X167821295Y-93881204D01*
X167868914Y-93690728D01*
X167868914Y-93452633D01*
X167821295Y-93262157D01*
X167773676Y-93166919D01*
X167726057Y-93119300D01*
X167630819Y-93071680D01*
X166440342Y-93071680D02*
X166630819Y-93071680D01*
X166726057Y-93119300D01*
X166773676Y-93166919D01*
X166868914Y-93309776D01*
X166916533Y-93500252D01*
X166916533Y-93881204D01*
X166868914Y-93976442D01*
X166821295Y-94024061D01*
X166726057Y-94071680D01*
X166535580Y-94071680D01*
X166440342Y-94024061D01*
X166392723Y-93976442D01*
X166345104Y-93881204D01*
X166345104Y-93643109D01*
X166392723Y-93547871D01*
X166440342Y-93500252D01*
X166535580Y-93452633D01*
X166726057Y-93452633D01*
X166821295Y-93500252D01*
X166868914Y-93547871D01*
X166916533Y-93643109D01*
X155184047Y-101955880D02*
X155517380Y-101479690D01*
X155755476Y-101955880D02*
X155755476Y-100955880D01*
X155374523Y-100955880D01*
X155279285Y-101003500D01*
X155231666Y-101051119D01*
X155184047Y-101146357D01*
X155184047Y-101289214D01*
X155231666Y-101384452D01*
X155279285Y-101432071D01*
X155374523Y-101479690D01*
X155755476Y-101479690D01*
X154850714Y-100955880D02*
X154184047Y-100955880D01*
X154612619Y-101955880D01*
X153612619Y-100955880D02*
X153517380Y-100955880D01*
X153422142Y-101003500D01*
X153374523Y-101051119D01*
X153326904Y-101146357D01*
X153279285Y-101336833D01*
X153279285Y-101574928D01*
X153326904Y-101765404D01*
X153374523Y-101860642D01*
X153422142Y-101908261D01*
X153517380Y-101955880D01*
X153612619Y-101955880D01*
X153707857Y-101908261D01*
X153755476Y-101860642D01*
X153803095Y-101765404D01*
X153850714Y-101574928D01*
X153850714Y-101336833D01*
X153803095Y-101146357D01*
X153755476Y-101051119D01*
X153707857Y-101003500D01*
X153612619Y-100955880D01*
X152945952Y-100955880D02*
X152279285Y-100955880D01*
X152707857Y-101955880D01*
X161788047Y-103784680D02*
X162121380Y-103308490D01*
X162359476Y-103784680D02*
X162359476Y-102784680D01*
X161978523Y-102784680D01*
X161883285Y-102832300D01*
X161835666Y-102879919D01*
X161788047Y-102975157D01*
X161788047Y-103118014D01*
X161835666Y-103213252D01*
X161883285Y-103260871D01*
X161978523Y-103308490D01*
X162359476Y-103308490D01*
X161454714Y-102784680D02*
X160788047Y-102784680D01*
X161216619Y-103784680D01*
X160216619Y-102784680D02*
X160121380Y-102784680D01*
X160026142Y-102832300D01*
X159978523Y-102879919D01*
X159930904Y-102975157D01*
X159883285Y-103165633D01*
X159883285Y-103403728D01*
X159930904Y-103594204D01*
X159978523Y-103689442D01*
X160026142Y-103737061D01*
X160121380Y-103784680D01*
X160216619Y-103784680D01*
X160311857Y-103737061D01*
X160359476Y-103689442D01*
X160407095Y-103594204D01*
X160454714Y-103403728D01*
X160454714Y-103165633D01*
X160407095Y-102975157D01*
X160359476Y-102879919D01*
X160311857Y-102832300D01*
X160216619Y-102784680D01*
X159311857Y-103213252D02*
X159407095Y-103165633D01*
X159454714Y-103118014D01*
X159502333Y-103022776D01*
X159502333Y-102975157D01*
X159454714Y-102879919D01*
X159407095Y-102832300D01*
X159311857Y-102784680D01*
X159121380Y-102784680D01*
X159026142Y-102832300D01*
X158978523Y-102879919D01*
X158930904Y-102975157D01*
X158930904Y-103022776D01*
X158978523Y-103118014D01*
X159026142Y-103165633D01*
X159121380Y-103213252D01*
X159311857Y-103213252D01*
X159407095Y-103260871D01*
X159454714Y-103308490D01*
X159502333Y-103403728D01*
X159502333Y-103594204D01*
X159454714Y-103689442D01*
X159407095Y-103737061D01*
X159311857Y-103784680D01*
X159121380Y-103784680D01*
X159026142Y-103737061D01*
X158978523Y-103689442D01*
X158930904Y-103594204D01*
X158930904Y-103403728D01*
X158978523Y-103308490D01*
X159026142Y-103260871D01*
X159121380Y-103213252D01*
X131849879Y-79398952D02*
X131373689Y-79065619D01*
X131849879Y-78827523D02*
X130849879Y-78827523D01*
X130849879Y-79208476D01*
X130897499Y-79303714D01*
X130945118Y-79351333D01*
X131040356Y-79398952D01*
X131183213Y-79398952D01*
X131278451Y-79351333D01*
X131326070Y-79303714D01*
X131373689Y-79208476D01*
X131373689Y-78827523D01*
X131278451Y-79970380D02*
X131230832Y-79875142D01*
X131183213Y-79827523D01*
X131087975Y-79779904D01*
X131040356Y-79779904D01*
X130945118Y-79827523D01*
X130897499Y-79875142D01*
X130849879Y-79970380D01*
X130849879Y-80160857D01*
X130897499Y-80256095D01*
X130945118Y-80303714D01*
X131040356Y-80351333D01*
X131087975Y-80351333D01*
X131183213Y-80303714D01*
X131230832Y-80256095D01*
X131278451Y-80160857D01*
X131278451Y-79970380D01*
X131326070Y-79875142D01*
X131373689Y-79827523D01*
X131468927Y-79779904D01*
X131659403Y-79779904D01*
X131754641Y-79827523D01*
X131802260Y-79875142D01*
X131849879Y-79970380D01*
X131849879Y-80160857D01*
X131802260Y-80256095D01*
X131754641Y-80303714D01*
X131659403Y-80351333D01*
X131468927Y-80351333D01*
X131373689Y-80303714D01*
X131326070Y-80256095D01*
X131278451Y-80160857D01*
X130849879Y-80970380D02*
X130849879Y-81065619D01*
X130897499Y-81160857D01*
X130945118Y-81208476D01*
X131040356Y-81256095D01*
X131230832Y-81303714D01*
X131468927Y-81303714D01*
X131659403Y-81256095D01*
X131754641Y-81208476D01*
X131802260Y-81160857D01*
X131849879Y-81065619D01*
X131849879Y-80970380D01*
X131802260Y-80875142D01*
X131754641Y-80827523D01*
X131659403Y-80779904D01*
X131468927Y-80732285D01*
X131230832Y-80732285D01*
X131040356Y-80779904D01*
X130945118Y-80827523D01*
X130897499Y-80875142D01*
X130849879Y-80970380D01*
X131849879Y-82256095D02*
X131849879Y-81684666D01*
X131849879Y-81970380D02*
X130849879Y-81970380D01*
X130992737Y-81875142D01*
X131087975Y-81779904D01*
X131135594Y-81684666D01*
X127687247Y-83771980D02*
X128020580Y-83295790D01*
X128258676Y-83771980D02*
X128258676Y-82771980D01*
X127877723Y-82771980D01*
X127782485Y-82819600D01*
X127734866Y-82867219D01*
X127687247Y-82962457D01*
X127687247Y-83105314D01*
X127734866Y-83200552D01*
X127782485Y-83248171D01*
X127877723Y-83295790D01*
X128258676Y-83295790D01*
X127115819Y-83200552D02*
X127211057Y-83152933D01*
X127258676Y-83105314D01*
X127306295Y-83010076D01*
X127306295Y-82962457D01*
X127258676Y-82867219D01*
X127211057Y-82819600D01*
X127115819Y-82771980D01*
X126925342Y-82771980D01*
X126830104Y-82819600D01*
X126782485Y-82867219D01*
X126734866Y-82962457D01*
X126734866Y-83010076D01*
X126782485Y-83105314D01*
X126830104Y-83152933D01*
X126925342Y-83200552D01*
X127115819Y-83200552D01*
X127211057Y-83248171D01*
X127258676Y-83295790D01*
X127306295Y-83391028D01*
X127306295Y-83581504D01*
X127258676Y-83676742D01*
X127211057Y-83724361D01*
X127115819Y-83771980D01*
X126925342Y-83771980D01*
X126830104Y-83724361D01*
X126782485Y-83676742D01*
X126734866Y-83581504D01*
X126734866Y-83391028D01*
X126782485Y-83295790D01*
X126830104Y-83248171D01*
X126925342Y-83200552D01*
X126115819Y-82771980D02*
X126020580Y-82771980D01*
X125925342Y-82819600D01*
X125877723Y-82867219D01*
X125830104Y-82962457D01*
X125782485Y-83152933D01*
X125782485Y-83391028D01*
X125830104Y-83581504D01*
X125877723Y-83676742D01*
X125925342Y-83724361D01*
X126020580Y-83771980D01*
X126115819Y-83771980D01*
X126211057Y-83724361D01*
X126258676Y-83676742D01*
X126306295Y-83581504D01*
X126353914Y-83391028D01*
X126353914Y-83152933D01*
X126306295Y-82962457D01*
X126258676Y-82867219D01*
X126211057Y-82819600D01*
X126115819Y-82771980D01*
X125401533Y-82867219D02*
X125353914Y-82819600D01*
X125258676Y-82771980D01*
X125020580Y-82771980D01*
X124925342Y-82819600D01*
X124877723Y-82867219D01*
X124830104Y-82962457D01*
X124830104Y-83057695D01*
X124877723Y-83200552D01*
X125449152Y-83771980D01*
X124830104Y-83771980D01*
X141188680Y-97877452D02*
X140712490Y-97544119D01*
X141188680Y-97306023D02*
X140188680Y-97306023D01*
X140188680Y-97686976D01*
X140236300Y-97782214D01*
X140283919Y-97829833D01*
X140379157Y-97877452D01*
X140522014Y-97877452D01*
X140617252Y-97829833D01*
X140664871Y-97782214D01*
X140712490Y-97686976D01*
X140712490Y-97306023D01*
X141188680Y-98353642D02*
X141188680Y-98544119D01*
X141141061Y-98639357D01*
X141093442Y-98686976D01*
X140950585Y-98782214D01*
X140760109Y-98829833D01*
X140379157Y-98829833D01*
X140283919Y-98782214D01*
X140236300Y-98734595D01*
X140188680Y-98639357D01*
X140188680Y-98448880D01*
X140236300Y-98353642D01*
X140283919Y-98306023D01*
X140379157Y-98258404D01*
X140617252Y-98258404D01*
X140712490Y-98306023D01*
X140760109Y-98353642D01*
X140807728Y-98448880D01*
X140807728Y-98639357D01*
X140760109Y-98734595D01*
X140712490Y-98782214D01*
X140617252Y-98829833D01*
X140188680Y-99448880D02*
X140188680Y-99544119D01*
X140236300Y-99639357D01*
X140283919Y-99686976D01*
X140379157Y-99734595D01*
X140569633Y-99782214D01*
X140807728Y-99782214D01*
X140998204Y-99734595D01*
X141093442Y-99686976D01*
X141141061Y-99639357D01*
X141188680Y-99544119D01*
X141188680Y-99448880D01*
X141141061Y-99353642D01*
X141093442Y-99306023D01*
X140998204Y-99258404D01*
X140807728Y-99210785D01*
X140569633Y-99210785D01*
X140379157Y-99258404D01*
X140283919Y-99306023D01*
X140236300Y-99353642D01*
X140188680Y-99448880D01*
X141188680Y-100734595D02*
X141188680Y-100163166D01*
X141188680Y-100448880D02*
X140188680Y-100448880D01*
X140331538Y-100353642D01*
X140426776Y-100258404D01*
X140474395Y-100163166D01*
X122505647Y-108986580D02*
X122838980Y-108510390D01*
X123077076Y-108986580D02*
X123077076Y-107986580D01*
X122696123Y-107986580D01*
X122600885Y-108034200D01*
X122553266Y-108081819D01*
X122505647Y-108177057D01*
X122505647Y-108319914D01*
X122553266Y-108415152D01*
X122600885Y-108462771D01*
X122696123Y-108510390D01*
X123077076Y-108510390D01*
X122029457Y-108986580D02*
X121838980Y-108986580D01*
X121743742Y-108938961D01*
X121696123Y-108891342D01*
X121600885Y-108748485D01*
X121553266Y-108558009D01*
X121553266Y-108177057D01*
X121600885Y-108081819D01*
X121648504Y-108034200D01*
X121743742Y-107986580D01*
X121934219Y-107986580D01*
X122029457Y-108034200D01*
X122077076Y-108081819D01*
X122124695Y-108177057D01*
X122124695Y-108415152D01*
X122077076Y-108510390D01*
X122029457Y-108558009D01*
X121934219Y-108605628D01*
X121743742Y-108605628D01*
X121648504Y-108558009D01*
X121600885Y-108510390D01*
X121553266Y-108415152D01*
X120934219Y-107986580D02*
X120838980Y-107986580D01*
X120743742Y-108034200D01*
X120696123Y-108081819D01*
X120648504Y-108177057D01*
X120600885Y-108367533D01*
X120600885Y-108605628D01*
X120648504Y-108796104D01*
X120696123Y-108891342D01*
X120743742Y-108938961D01*
X120838980Y-108986580D01*
X120934219Y-108986580D01*
X121029457Y-108938961D01*
X121077076Y-108891342D01*
X121124695Y-108796104D01*
X121172314Y-108605628D01*
X121172314Y-108367533D01*
X121124695Y-108177057D01*
X121077076Y-108081819D01*
X121029457Y-108034200D01*
X120934219Y-107986580D01*
X120219933Y-108081819D02*
X120172314Y-108034200D01*
X120077076Y-107986580D01*
X119838980Y-107986580D01*
X119743742Y-108034200D01*
X119696123Y-108081819D01*
X119648504Y-108177057D01*
X119648504Y-108272295D01*
X119696123Y-108415152D01*
X120267552Y-108986580D01*
X119648504Y-108986580D01*
X125783580Y-97940952D02*
X125307390Y-97607619D01*
X125783580Y-97369523D02*
X124783580Y-97369523D01*
X124783580Y-97750476D01*
X124831200Y-97845714D01*
X124878819Y-97893333D01*
X124974057Y-97940952D01*
X125116914Y-97940952D01*
X125212152Y-97893333D01*
X125259771Y-97845714D01*
X125307390Y-97750476D01*
X125307390Y-97369523D01*
X125783580Y-98417142D02*
X125783580Y-98607619D01*
X125735961Y-98702857D01*
X125688342Y-98750476D01*
X125545485Y-98845714D01*
X125355009Y-98893333D01*
X124974057Y-98893333D01*
X124878819Y-98845714D01*
X124831200Y-98798095D01*
X124783580Y-98702857D01*
X124783580Y-98512380D01*
X124831200Y-98417142D01*
X124878819Y-98369523D01*
X124974057Y-98321904D01*
X125212152Y-98321904D01*
X125307390Y-98369523D01*
X125355009Y-98417142D01*
X125402628Y-98512380D01*
X125402628Y-98702857D01*
X125355009Y-98798095D01*
X125307390Y-98845714D01*
X125212152Y-98893333D01*
X124783580Y-99512380D02*
X124783580Y-99607619D01*
X124831200Y-99702857D01*
X124878819Y-99750476D01*
X124974057Y-99798095D01*
X125164533Y-99845714D01*
X125402628Y-99845714D01*
X125593104Y-99798095D01*
X125688342Y-99750476D01*
X125735961Y-99702857D01*
X125783580Y-99607619D01*
X125783580Y-99512380D01*
X125735961Y-99417142D01*
X125688342Y-99369523D01*
X125593104Y-99321904D01*
X125402628Y-99274285D01*
X125164533Y-99274285D01*
X124974057Y-99321904D01*
X124878819Y-99369523D01*
X124831200Y-99417142D01*
X124783580Y-99512380D01*
X124783580Y-100179047D02*
X124783580Y-100798095D01*
X125164533Y-100464761D01*
X125164533Y-100607619D01*
X125212152Y-100702857D01*
X125259771Y-100750476D01*
X125355009Y-100798095D01*
X125593104Y-100798095D01*
X125688342Y-100750476D01*
X125735961Y-100702857D01*
X125783580Y-100607619D01*
X125783580Y-100321904D01*
X125735961Y-100226666D01*
X125688342Y-100179047D01*
X133606780Y-97966352D02*
X133130590Y-97633019D01*
X133606780Y-97394923D02*
X132606780Y-97394923D01*
X132606780Y-97775876D01*
X132654400Y-97871114D01*
X132702019Y-97918733D01*
X132797257Y-97966352D01*
X132940114Y-97966352D01*
X133035352Y-97918733D01*
X133082971Y-97871114D01*
X133130590Y-97775876D01*
X133130590Y-97394923D01*
X133606780Y-98442542D02*
X133606780Y-98633019D01*
X133559161Y-98728257D01*
X133511542Y-98775876D01*
X133368685Y-98871114D01*
X133178209Y-98918733D01*
X132797257Y-98918733D01*
X132702019Y-98871114D01*
X132654400Y-98823495D01*
X132606780Y-98728257D01*
X132606780Y-98537780D01*
X132654400Y-98442542D01*
X132702019Y-98394923D01*
X132797257Y-98347304D01*
X133035352Y-98347304D01*
X133130590Y-98394923D01*
X133178209Y-98442542D01*
X133225828Y-98537780D01*
X133225828Y-98728257D01*
X133178209Y-98823495D01*
X133130590Y-98871114D01*
X133035352Y-98918733D01*
X132606780Y-99537780D02*
X132606780Y-99633019D01*
X132654400Y-99728257D01*
X132702019Y-99775876D01*
X132797257Y-99823495D01*
X132987733Y-99871114D01*
X133225828Y-99871114D01*
X133416304Y-99823495D01*
X133511542Y-99775876D01*
X133559161Y-99728257D01*
X133606780Y-99633019D01*
X133606780Y-99537780D01*
X133559161Y-99442542D01*
X133511542Y-99394923D01*
X133416304Y-99347304D01*
X133225828Y-99299685D01*
X132987733Y-99299685D01*
X132797257Y-99347304D01*
X132702019Y-99394923D01*
X132654400Y-99442542D01*
X132606780Y-99537780D01*
X132940114Y-100728257D02*
X133606780Y-100728257D01*
X132559161Y-100490161D02*
X133273447Y-100252066D01*
X133273447Y-100871114D01*
X116282647Y-108478580D02*
X116615980Y-108002390D01*
X116854076Y-108478580D02*
X116854076Y-107478580D01*
X116473123Y-107478580D01*
X116377885Y-107526200D01*
X116330266Y-107573819D01*
X116282647Y-107669057D01*
X116282647Y-107811914D01*
X116330266Y-107907152D01*
X116377885Y-107954771D01*
X116473123Y-108002390D01*
X116854076Y-108002390D01*
X115806457Y-108478580D02*
X115615980Y-108478580D01*
X115520742Y-108430961D01*
X115473123Y-108383342D01*
X115377885Y-108240485D01*
X115330266Y-108050009D01*
X115330266Y-107669057D01*
X115377885Y-107573819D01*
X115425504Y-107526200D01*
X115520742Y-107478580D01*
X115711219Y-107478580D01*
X115806457Y-107526200D01*
X115854076Y-107573819D01*
X115901695Y-107669057D01*
X115901695Y-107907152D01*
X115854076Y-108002390D01*
X115806457Y-108050009D01*
X115711219Y-108097628D01*
X115520742Y-108097628D01*
X115425504Y-108050009D01*
X115377885Y-108002390D01*
X115330266Y-107907152D01*
X114711219Y-107478580D02*
X114615980Y-107478580D01*
X114520742Y-107526200D01*
X114473123Y-107573819D01*
X114425504Y-107669057D01*
X114377885Y-107859533D01*
X114377885Y-108097628D01*
X114425504Y-108288104D01*
X114473123Y-108383342D01*
X114520742Y-108430961D01*
X114615980Y-108478580D01*
X114711219Y-108478580D01*
X114806457Y-108430961D01*
X114854076Y-108383342D01*
X114901695Y-108288104D01*
X114949314Y-108097628D01*
X114949314Y-107859533D01*
X114901695Y-107669057D01*
X114854076Y-107573819D01*
X114806457Y-107526200D01*
X114711219Y-107478580D01*
X113473123Y-107478580D02*
X113949314Y-107478580D01*
X113996933Y-107954771D01*
X113949314Y-107907152D01*
X113854076Y-107859533D01*
X113615980Y-107859533D01*
X113520742Y-107907152D01*
X113473123Y-107954771D01*
X113425504Y-108050009D01*
X113425504Y-108288104D01*
X113473123Y-108383342D01*
X113520742Y-108430961D01*
X113615980Y-108478580D01*
X113854076Y-108478580D01*
X113949314Y-108430961D01*
X113996933Y-108383342D01*
X152350647Y-107081580D02*
X152683980Y-106605390D01*
X152922076Y-107081580D02*
X152922076Y-106081580D01*
X152541123Y-106081580D01*
X152445885Y-106129200D01*
X152398266Y-106176819D01*
X152350647Y-106272057D01*
X152350647Y-106414914D01*
X152398266Y-106510152D01*
X152445885Y-106557771D01*
X152541123Y-106605390D01*
X152922076Y-106605390D01*
X151874457Y-107081580D02*
X151683980Y-107081580D01*
X151588742Y-107033961D01*
X151541123Y-106986342D01*
X151445885Y-106843485D01*
X151398266Y-106653009D01*
X151398266Y-106272057D01*
X151445885Y-106176819D01*
X151493504Y-106129200D01*
X151588742Y-106081580D01*
X151779219Y-106081580D01*
X151874457Y-106129200D01*
X151922076Y-106176819D01*
X151969695Y-106272057D01*
X151969695Y-106510152D01*
X151922076Y-106605390D01*
X151874457Y-106653009D01*
X151779219Y-106700628D01*
X151588742Y-106700628D01*
X151493504Y-106653009D01*
X151445885Y-106605390D01*
X151398266Y-106510152D01*
X150779219Y-106081580D02*
X150683980Y-106081580D01*
X150588742Y-106129200D01*
X150541123Y-106176819D01*
X150493504Y-106272057D01*
X150445885Y-106462533D01*
X150445885Y-106700628D01*
X150493504Y-106891104D01*
X150541123Y-106986342D01*
X150588742Y-107033961D01*
X150683980Y-107081580D01*
X150779219Y-107081580D01*
X150874457Y-107033961D01*
X150922076Y-106986342D01*
X150969695Y-106891104D01*
X151017314Y-106700628D01*
X151017314Y-106462533D01*
X150969695Y-106272057D01*
X150922076Y-106176819D01*
X150874457Y-106129200D01*
X150779219Y-106081580D01*
X149588742Y-106081580D02*
X149779219Y-106081580D01*
X149874457Y-106129200D01*
X149922076Y-106176819D01*
X150017314Y-106319676D01*
X150064933Y-106510152D01*
X150064933Y-106891104D01*
X150017314Y-106986342D01*
X149969695Y-107033961D01*
X149874457Y-107081580D01*
X149683980Y-107081580D01*
X149588742Y-107033961D01*
X149541123Y-106986342D01*
X149493504Y-106891104D01*
X149493504Y-106653009D01*
X149541123Y-106557771D01*
X149588742Y-106510152D01*
X149683980Y-106462533D01*
X149874457Y-106462533D01*
X149969695Y-106510152D01*
X150017314Y-106557771D01*
X150064933Y-106653009D01*
X116741180Y-98017152D02*
X116264990Y-97683819D01*
X116741180Y-97445723D02*
X115741180Y-97445723D01*
X115741180Y-97826676D01*
X115788800Y-97921914D01*
X115836419Y-97969533D01*
X115931657Y-98017152D01*
X116074514Y-98017152D01*
X116169752Y-97969533D01*
X116217371Y-97921914D01*
X116264990Y-97826676D01*
X116264990Y-97445723D01*
X116741180Y-98493342D02*
X116741180Y-98683819D01*
X116693561Y-98779057D01*
X116645942Y-98826676D01*
X116503085Y-98921914D01*
X116312609Y-98969533D01*
X115931657Y-98969533D01*
X115836419Y-98921914D01*
X115788800Y-98874295D01*
X115741180Y-98779057D01*
X115741180Y-98588580D01*
X115788800Y-98493342D01*
X115836419Y-98445723D01*
X115931657Y-98398104D01*
X116169752Y-98398104D01*
X116264990Y-98445723D01*
X116312609Y-98493342D01*
X116360228Y-98588580D01*
X116360228Y-98779057D01*
X116312609Y-98874295D01*
X116264990Y-98921914D01*
X116169752Y-98969533D01*
X115741180Y-99588580D02*
X115741180Y-99683819D01*
X115788800Y-99779057D01*
X115836419Y-99826676D01*
X115931657Y-99874295D01*
X116122133Y-99921914D01*
X116360228Y-99921914D01*
X116550704Y-99874295D01*
X116645942Y-99826676D01*
X116693561Y-99779057D01*
X116741180Y-99683819D01*
X116741180Y-99588580D01*
X116693561Y-99493342D01*
X116645942Y-99445723D01*
X116550704Y-99398104D01*
X116360228Y-99350485D01*
X116122133Y-99350485D01*
X115931657Y-99398104D01*
X115836419Y-99445723D01*
X115788800Y-99493342D01*
X115741180Y-99588580D01*
X115741180Y-100255247D02*
X115741180Y-100921914D01*
X116741180Y-100493342D01*
X150167580Y-97763152D02*
X149691390Y-97429819D01*
X150167580Y-97191723D02*
X149167580Y-97191723D01*
X149167580Y-97572676D01*
X149215200Y-97667914D01*
X149262819Y-97715533D01*
X149358057Y-97763152D01*
X149500914Y-97763152D01*
X149596152Y-97715533D01*
X149643771Y-97667914D01*
X149691390Y-97572676D01*
X149691390Y-97191723D01*
X150167580Y-98239342D02*
X150167580Y-98429819D01*
X150119961Y-98525057D01*
X150072342Y-98572676D01*
X149929485Y-98667914D01*
X149739009Y-98715533D01*
X149358057Y-98715533D01*
X149262819Y-98667914D01*
X149215200Y-98620295D01*
X149167580Y-98525057D01*
X149167580Y-98334580D01*
X149215200Y-98239342D01*
X149262819Y-98191723D01*
X149358057Y-98144104D01*
X149596152Y-98144104D01*
X149691390Y-98191723D01*
X149739009Y-98239342D01*
X149786628Y-98334580D01*
X149786628Y-98525057D01*
X149739009Y-98620295D01*
X149691390Y-98667914D01*
X149596152Y-98715533D01*
X149167580Y-99334580D02*
X149167580Y-99429819D01*
X149215200Y-99525057D01*
X149262819Y-99572676D01*
X149358057Y-99620295D01*
X149548533Y-99667914D01*
X149786628Y-99667914D01*
X149977104Y-99620295D01*
X150072342Y-99572676D01*
X150119961Y-99525057D01*
X150167580Y-99429819D01*
X150167580Y-99334580D01*
X150119961Y-99239342D01*
X150072342Y-99191723D01*
X149977104Y-99144104D01*
X149786628Y-99096485D01*
X149548533Y-99096485D01*
X149358057Y-99144104D01*
X149262819Y-99191723D01*
X149215200Y-99239342D01*
X149167580Y-99334580D01*
X149596152Y-100239342D02*
X149548533Y-100144104D01*
X149500914Y-100096485D01*
X149405676Y-100048866D01*
X149358057Y-100048866D01*
X149262819Y-100096485D01*
X149215200Y-100144104D01*
X149167580Y-100239342D01*
X149167580Y-100429819D01*
X149215200Y-100525057D01*
X149262819Y-100572676D01*
X149358057Y-100620295D01*
X149405676Y-100620295D01*
X149500914Y-100572676D01*
X149548533Y-100525057D01*
X149596152Y-100429819D01*
X149596152Y-100239342D01*
X149643771Y-100144104D01*
X149691390Y-100096485D01*
X149786628Y-100048866D01*
X149977104Y-100048866D01*
X150072342Y-100096485D01*
X150119961Y-100144104D01*
X150167580Y-100239342D01*
X150167580Y-100429819D01*
X150119961Y-100525057D01*
X150072342Y-100572676D01*
X149977104Y-100620295D01*
X149786628Y-100620295D01*
X149691390Y-100572676D01*
X149643771Y-100525057D01*
X149596152Y-100429819D01*
X103136485Y-99280380D02*
X103136485Y-100089904D01*
X103088866Y-100185142D01*
X103041247Y-100232761D01*
X102946009Y-100280380D01*
X102755533Y-100280380D01*
X102660295Y-100232761D01*
X102612676Y-100185142D01*
X102565057Y-100089904D01*
X102565057Y-99280380D01*
X102136485Y-99375619D02*
X102088866Y-99328000D01*
X101993628Y-99280380D01*
X101755533Y-99280380D01*
X101660295Y-99328000D01*
X101612676Y-99375619D01*
X101565057Y-99470857D01*
X101565057Y-99566095D01*
X101612676Y-99708952D01*
X102184104Y-100280380D01*
X101565057Y-100280380D01*
X100946009Y-99280380D02*
X100850771Y-99280380D01*
X100755533Y-99328000D01*
X100707914Y-99375619D01*
X100660295Y-99470857D01*
X100612676Y-99661333D01*
X100612676Y-99899428D01*
X100660295Y-100089904D01*
X100707914Y-100185142D01*
X100755533Y-100232761D01*
X100850771Y-100280380D01*
X100946009Y-100280380D01*
X101041247Y-100232761D01*
X101088866Y-100185142D01*
X101136485Y-100089904D01*
X101184104Y-99899428D01*
X101184104Y-99661333D01*
X101136485Y-99470857D01*
X101088866Y-99375619D01*
X101041247Y-99328000D01*
X100946009Y-99280380D01*
X99660295Y-100280380D02*
X100231723Y-100280380D01*
X99946009Y-100280380D02*
X99946009Y-99280380D01*
X100041247Y-99423238D01*
X100136485Y-99518476D01*
X100231723Y-99566095D01*
X150253485Y-86802980D02*
X150253485Y-87612504D01*
X150205866Y-87707742D01*
X150158247Y-87755361D01*
X150063009Y-87802980D01*
X149872533Y-87802980D01*
X149777295Y-87755361D01*
X149729676Y-87707742D01*
X149682057Y-87612504D01*
X149682057Y-86802980D01*
X149301104Y-86802980D02*
X148682057Y-86802980D01*
X149015390Y-87183933D01*
X148872533Y-87183933D01*
X148777295Y-87231552D01*
X148729676Y-87279171D01*
X148682057Y-87374409D01*
X148682057Y-87612504D01*
X148729676Y-87707742D01*
X148777295Y-87755361D01*
X148872533Y-87802980D01*
X149158247Y-87802980D01*
X149253485Y-87755361D01*
X149301104Y-87707742D01*
X148063009Y-86802980D02*
X147967771Y-86802980D01*
X147872533Y-86850600D01*
X147824914Y-86898219D01*
X147777295Y-86993457D01*
X147729676Y-87183933D01*
X147729676Y-87422028D01*
X147777295Y-87612504D01*
X147824914Y-87707742D01*
X147872533Y-87755361D01*
X147967771Y-87802980D01*
X148063009Y-87802980D01*
X148158247Y-87755361D01*
X148205866Y-87707742D01*
X148253485Y-87612504D01*
X148301104Y-87422028D01*
X148301104Y-87183933D01*
X148253485Y-86993457D01*
X148205866Y-86898219D01*
X148158247Y-86850600D01*
X148063009Y-86802980D01*
X146777295Y-87802980D02*
X147348723Y-87802980D01*
X147063009Y-87802980D02*
X147063009Y-86802980D01*
X147158247Y-86945838D01*
X147253485Y-87041076D01*
X147348723Y-87088695D01*
X173519885Y-120203980D02*
X173519885Y-121013504D01*
X173472266Y-121108742D01*
X173424647Y-121156361D01*
X173329409Y-121203980D01*
X173138933Y-121203980D01*
X173043695Y-121156361D01*
X172996076Y-121108742D01*
X172948457Y-121013504D01*
X172948457Y-120203980D01*
X172043695Y-120537314D02*
X172043695Y-121203980D01*
X172281790Y-120156361D02*
X172519885Y-120870647D01*
X171900838Y-120870647D01*
X171329409Y-120203980D02*
X171234171Y-120203980D01*
X171138933Y-120251600D01*
X171091314Y-120299219D01*
X171043695Y-120394457D01*
X170996076Y-120584933D01*
X170996076Y-120823028D01*
X171043695Y-121013504D01*
X171091314Y-121108742D01*
X171138933Y-121156361D01*
X171234171Y-121203980D01*
X171329409Y-121203980D01*
X171424647Y-121156361D01*
X171472266Y-121108742D01*
X171519885Y-121013504D01*
X171567504Y-120823028D01*
X171567504Y-120584933D01*
X171519885Y-120394457D01*
X171472266Y-120299219D01*
X171424647Y-120251600D01*
X171329409Y-120203980D01*
X170043695Y-121203980D02*
X170615123Y-121203980D01*
X170329409Y-121203980D02*
X170329409Y-120203980D01*
X170424647Y-120346838D01*
X170519885Y-120442076D01*
X170615123Y-120489695D01*
X137477285Y-110387980D02*
X137477285Y-111197504D01*
X137429666Y-111292742D01*
X137382047Y-111340361D01*
X137286809Y-111387980D01*
X137096333Y-111387980D01*
X137001095Y-111340361D01*
X136953476Y-111292742D01*
X136905857Y-111197504D01*
X136905857Y-110387980D01*
X135953476Y-110387980D02*
X136429666Y-110387980D01*
X136477285Y-110864171D01*
X136429666Y-110816552D01*
X136334428Y-110768933D01*
X136096333Y-110768933D01*
X136001095Y-110816552D01*
X135953476Y-110864171D01*
X135905857Y-110959409D01*
X135905857Y-111197504D01*
X135953476Y-111292742D01*
X136001095Y-111340361D01*
X136096333Y-111387980D01*
X136334428Y-111387980D01*
X136429666Y-111340361D01*
X136477285Y-111292742D01*
X135286809Y-110387980D02*
X135191571Y-110387980D01*
X135096333Y-110435600D01*
X135048714Y-110483219D01*
X135001095Y-110578457D01*
X134953476Y-110768933D01*
X134953476Y-111007028D01*
X135001095Y-111197504D01*
X135048714Y-111292742D01*
X135096333Y-111340361D01*
X135191571Y-111387980D01*
X135286809Y-111387980D01*
X135382047Y-111340361D01*
X135429666Y-111292742D01*
X135477285Y-111197504D01*
X135524904Y-111007028D01*
X135524904Y-110768933D01*
X135477285Y-110578457D01*
X135429666Y-110483219D01*
X135382047Y-110435600D01*
X135286809Y-110387980D01*
X134001095Y-111387980D02*
X134572523Y-111387980D01*
X134286809Y-111387980D02*
X134286809Y-110387980D01*
X134382047Y-110530838D01*
X134477285Y-110626076D01*
X134572523Y-110673695D01*
X110602780Y-82893114D02*
X111412304Y-82893114D01*
X111507542Y-82940733D01*
X111555161Y-82988352D01*
X111602780Y-83083590D01*
X111602780Y-83274066D01*
X111555161Y-83369304D01*
X111507542Y-83416923D01*
X111412304Y-83464542D01*
X110602780Y-83464542D01*
X110602780Y-84369304D02*
X110602780Y-84178828D01*
X110650400Y-84083590D01*
X110698019Y-84035971D01*
X110840876Y-83940733D01*
X111031352Y-83893114D01*
X111412304Y-83893114D01*
X111507542Y-83940733D01*
X111555161Y-83988352D01*
X111602780Y-84083590D01*
X111602780Y-84274066D01*
X111555161Y-84369304D01*
X111507542Y-84416923D01*
X111412304Y-84464542D01*
X111174209Y-84464542D01*
X111078971Y-84416923D01*
X111031352Y-84369304D01*
X110983733Y-84274066D01*
X110983733Y-84083590D01*
X111031352Y-83988352D01*
X111078971Y-83940733D01*
X111174209Y-83893114D01*
X110602780Y-85083590D02*
X110602780Y-85178828D01*
X110650400Y-85274066D01*
X110698019Y-85321685D01*
X110793257Y-85369304D01*
X110983733Y-85416923D01*
X111221828Y-85416923D01*
X111412304Y-85369304D01*
X111507542Y-85321685D01*
X111555161Y-85274066D01*
X111602780Y-85178828D01*
X111602780Y-85083590D01*
X111555161Y-84988352D01*
X111507542Y-84940733D01*
X111412304Y-84893114D01*
X111221828Y-84845495D01*
X110983733Y-84845495D01*
X110793257Y-84893114D01*
X110698019Y-84940733D01*
X110650400Y-84988352D01*
X110602780Y-85083590D01*
X111602780Y-86369304D02*
X111602780Y-85797876D01*
X111602780Y-86083590D02*
X110602780Y-86083590D01*
X110745638Y-85988352D01*
X110840876Y-85893114D01*
X110888495Y-85797876D01*
X157608180Y-98196614D02*
X158417704Y-98196614D01*
X158512942Y-98244233D01*
X158560561Y-98291852D01*
X158608180Y-98387090D01*
X158608180Y-98577566D01*
X158560561Y-98672804D01*
X158512942Y-98720423D01*
X158417704Y-98768042D01*
X157608180Y-98768042D01*
X157608180Y-99148995D02*
X157608180Y-99815661D01*
X158608180Y-99387090D01*
X157608180Y-100387090D02*
X157608180Y-100482328D01*
X157655800Y-100577566D01*
X157703419Y-100625185D01*
X157798657Y-100672804D01*
X157989133Y-100720423D01*
X158227228Y-100720423D01*
X158417704Y-100672804D01*
X158512942Y-100625185D01*
X158560561Y-100577566D01*
X158608180Y-100482328D01*
X158608180Y-100387090D01*
X158560561Y-100291852D01*
X158512942Y-100244233D01*
X158417704Y-100196614D01*
X158227228Y-100148995D01*
X157989133Y-100148995D01*
X157798657Y-100196614D01*
X157703419Y-100244233D01*
X157655800Y-100291852D01*
X157608180Y-100387090D01*
X158608180Y-101672804D02*
X158608180Y-101101376D01*
X158608180Y-101387090D02*
X157608180Y-101387090D01*
X157751038Y-101291852D01*
X157846276Y-101196614D01*
X157893895Y-101101376D01*
X128424485Y-76954380D02*
X128424485Y-77763904D01*
X128376866Y-77859142D01*
X128329247Y-77906761D01*
X128234009Y-77954380D01*
X128043533Y-77954380D01*
X127948295Y-77906761D01*
X127900676Y-77859142D01*
X127853057Y-77763904D01*
X127853057Y-76954380D01*
X127234009Y-77382952D02*
X127329247Y-77335333D01*
X127376866Y-77287714D01*
X127424485Y-77192476D01*
X127424485Y-77144857D01*
X127376866Y-77049619D01*
X127329247Y-77002000D01*
X127234009Y-76954380D01*
X127043533Y-76954380D01*
X126948295Y-77002000D01*
X126900676Y-77049619D01*
X126853057Y-77144857D01*
X126853057Y-77192476D01*
X126900676Y-77287714D01*
X126948295Y-77335333D01*
X127043533Y-77382952D01*
X127234009Y-77382952D01*
X127329247Y-77430571D01*
X127376866Y-77478190D01*
X127424485Y-77573428D01*
X127424485Y-77763904D01*
X127376866Y-77859142D01*
X127329247Y-77906761D01*
X127234009Y-77954380D01*
X127043533Y-77954380D01*
X126948295Y-77906761D01*
X126900676Y-77859142D01*
X126853057Y-77763904D01*
X126853057Y-77573428D01*
X126900676Y-77478190D01*
X126948295Y-77430571D01*
X127043533Y-77382952D01*
X126234009Y-76954380D02*
X126138771Y-76954380D01*
X126043533Y-77002000D01*
X125995914Y-77049619D01*
X125948295Y-77144857D01*
X125900676Y-77335333D01*
X125900676Y-77573428D01*
X125948295Y-77763904D01*
X125995914Y-77859142D01*
X126043533Y-77906761D01*
X126138771Y-77954380D01*
X126234009Y-77954380D01*
X126329247Y-77906761D01*
X126376866Y-77859142D01*
X126424485Y-77763904D01*
X126472104Y-77573428D01*
X126472104Y-77335333D01*
X126424485Y-77144857D01*
X126376866Y-77049619D01*
X126329247Y-77002000D01*
X126234009Y-76954380D01*
X124948295Y-77954380D02*
X125519723Y-77954380D01*
X125234009Y-77954380D02*
X125234009Y-76954380D01*
X125329247Y-77097238D01*
X125424485Y-77192476D01*
X125519723Y-77240095D01*
X139806180Y-102362214D02*
X140615704Y-102362214D01*
X140710942Y-102409833D01*
X140758561Y-102457452D01*
X140806180Y-102552690D01*
X140806180Y-102743166D01*
X140758561Y-102838404D01*
X140710942Y-102886023D01*
X140615704Y-102933642D01*
X139806180Y-102933642D01*
X140806180Y-103457452D02*
X140806180Y-103647928D01*
X140758561Y-103743166D01*
X140710942Y-103790785D01*
X140568085Y-103886023D01*
X140377609Y-103933642D01*
X139996657Y-103933642D01*
X139901419Y-103886023D01*
X139853800Y-103838404D01*
X139806180Y-103743166D01*
X139806180Y-103552690D01*
X139853800Y-103457452D01*
X139901419Y-103409833D01*
X139996657Y-103362214D01*
X140234752Y-103362214D01*
X140329990Y-103409833D01*
X140377609Y-103457452D01*
X140425228Y-103552690D01*
X140425228Y-103743166D01*
X140377609Y-103838404D01*
X140329990Y-103886023D01*
X140234752Y-103933642D01*
X139806180Y-104552690D02*
X139806180Y-104647928D01*
X139853800Y-104743166D01*
X139901419Y-104790785D01*
X139996657Y-104838404D01*
X140187133Y-104886023D01*
X140425228Y-104886023D01*
X140615704Y-104838404D01*
X140710942Y-104790785D01*
X140758561Y-104743166D01*
X140806180Y-104647928D01*
X140806180Y-104552690D01*
X140758561Y-104457452D01*
X140710942Y-104409833D01*
X140615704Y-104362214D01*
X140425228Y-104314595D01*
X140187133Y-104314595D01*
X139996657Y-104362214D01*
X139901419Y-104409833D01*
X139853800Y-104457452D01*
X139806180Y-104552690D01*
X140806180Y-105838404D02*
X140806180Y-105266976D01*
X140806180Y-105552690D02*
X139806180Y-105552690D01*
X139949038Y-105457452D01*
X140044276Y-105362214D01*
X140091895Y-105266976D01*
X123842280Y-102120914D02*
X124651804Y-102120914D01*
X124747042Y-102168533D01*
X124794661Y-102216152D01*
X124842280Y-102311390D01*
X124842280Y-102501866D01*
X124794661Y-102597104D01*
X124747042Y-102644723D01*
X124651804Y-102692342D01*
X123842280Y-102692342D01*
X124842280Y-103216152D02*
X124842280Y-103406628D01*
X124794661Y-103501866D01*
X124747042Y-103549485D01*
X124604185Y-103644723D01*
X124413709Y-103692342D01*
X124032757Y-103692342D01*
X123937519Y-103644723D01*
X123889900Y-103597104D01*
X123842280Y-103501866D01*
X123842280Y-103311390D01*
X123889900Y-103216152D01*
X123937519Y-103168533D01*
X124032757Y-103120914D01*
X124270852Y-103120914D01*
X124366090Y-103168533D01*
X124413709Y-103216152D01*
X124461328Y-103311390D01*
X124461328Y-103501866D01*
X124413709Y-103597104D01*
X124366090Y-103644723D01*
X124270852Y-103692342D01*
X123842280Y-104311390D02*
X123842280Y-104406628D01*
X123889900Y-104501866D01*
X123937519Y-104549485D01*
X124032757Y-104597104D01*
X124223233Y-104644723D01*
X124461328Y-104644723D01*
X124651804Y-104597104D01*
X124747042Y-104549485D01*
X124794661Y-104501866D01*
X124842280Y-104406628D01*
X124842280Y-104311390D01*
X124794661Y-104216152D01*
X124747042Y-104168533D01*
X124651804Y-104120914D01*
X124461328Y-104073295D01*
X124223233Y-104073295D01*
X124032757Y-104120914D01*
X123937519Y-104168533D01*
X123889900Y-104216152D01*
X123842280Y-104311390D01*
X123937519Y-105025676D02*
X123889900Y-105073295D01*
X123842280Y-105168533D01*
X123842280Y-105406628D01*
X123889900Y-105501866D01*
X123937519Y-105549485D01*
X124032757Y-105597104D01*
X124127995Y-105597104D01*
X124270852Y-105549485D01*
X124842280Y-104978057D01*
X124842280Y-105597104D01*
X132338580Y-102324114D02*
X133148104Y-102324114D01*
X133243342Y-102371733D01*
X133290961Y-102419352D01*
X133338580Y-102514590D01*
X133338580Y-102705066D01*
X133290961Y-102800304D01*
X133243342Y-102847923D01*
X133148104Y-102895542D01*
X132338580Y-102895542D01*
X133338580Y-103419352D02*
X133338580Y-103609828D01*
X133290961Y-103705066D01*
X133243342Y-103752685D01*
X133100485Y-103847923D01*
X132910009Y-103895542D01*
X132529057Y-103895542D01*
X132433819Y-103847923D01*
X132386200Y-103800304D01*
X132338580Y-103705066D01*
X132338580Y-103514590D01*
X132386200Y-103419352D01*
X132433819Y-103371733D01*
X132529057Y-103324114D01*
X132767152Y-103324114D01*
X132862390Y-103371733D01*
X132910009Y-103419352D01*
X132957628Y-103514590D01*
X132957628Y-103705066D01*
X132910009Y-103800304D01*
X132862390Y-103847923D01*
X132767152Y-103895542D01*
X132338580Y-104514590D02*
X132338580Y-104609828D01*
X132386200Y-104705066D01*
X132433819Y-104752685D01*
X132529057Y-104800304D01*
X132719533Y-104847923D01*
X132957628Y-104847923D01*
X133148104Y-104800304D01*
X133243342Y-104752685D01*
X133290961Y-104705066D01*
X133338580Y-104609828D01*
X133338580Y-104514590D01*
X133290961Y-104419352D01*
X133243342Y-104371733D01*
X133148104Y-104324114D01*
X132957628Y-104276495D01*
X132719533Y-104276495D01*
X132529057Y-104324114D01*
X132433819Y-104371733D01*
X132386200Y-104419352D01*
X132338580Y-104514590D01*
X132338580Y-105181257D02*
X132338580Y-105800304D01*
X132719533Y-105466971D01*
X132719533Y-105609828D01*
X132767152Y-105705066D01*
X132814771Y-105752685D01*
X132910009Y-105800304D01*
X133148104Y-105800304D01*
X133243342Y-105752685D01*
X133290961Y-105705066D01*
X133338580Y-105609828D01*
X133338580Y-105324114D01*
X133290961Y-105228876D01*
X133243342Y-105181257D01*
X115295180Y-101638314D02*
X116104704Y-101638314D01*
X116199942Y-101685933D01*
X116247561Y-101733552D01*
X116295180Y-101828790D01*
X116295180Y-102019266D01*
X116247561Y-102114504D01*
X116199942Y-102162123D01*
X116104704Y-102209742D01*
X115295180Y-102209742D01*
X116295180Y-102733552D02*
X116295180Y-102924028D01*
X116247561Y-103019266D01*
X116199942Y-103066885D01*
X116057085Y-103162123D01*
X115866609Y-103209742D01*
X115485657Y-103209742D01*
X115390419Y-103162123D01*
X115342800Y-103114504D01*
X115295180Y-103019266D01*
X115295180Y-102828790D01*
X115342800Y-102733552D01*
X115390419Y-102685933D01*
X115485657Y-102638314D01*
X115723752Y-102638314D01*
X115818990Y-102685933D01*
X115866609Y-102733552D01*
X115914228Y-102828790D01*
X115914228Y-103019266D01*
X115866609Y-103114504D01*
X115818990Y-103162123D01*
X115723752Y-103209742D01*
X115295180Y-103828790D02*
X115295180Y-103924028D01*
X115342800Y-104019266D01*
X115390419Y-104066885D01*
X115485657Y-104114504D01*
X115676133Y-104162123D01*
X115914228Y-104162123D01*
X116104704Y-104114504D01*
X116199942Y-104066885D01*
X116247561Y-104019266D01*
X116295180Y-103924028D01*
X116295180Y-103828790D01*
X116247561Y-103733552D01*
X116199942Y-103685933D01*
X116104704Y-103638314D01*
X115914228Y-103590695D01*
X115676133Y-103590695D01*
X115485657Y-103638314D01*
X115390419Y-103685933D01*
X115342800Y-103733552D01*
X115295180Y-103828790D01*
X115628514Y-105019266D02*
X116295180Y-105019266D01*
X115247561Y-104781171D02*
X115961847Y-104543076D01*
X115961847Y-105162123D01*
X149026380Y-101536714D02*
X149835904Y-101536714D01*
X149931142Y-101584333D01*
X149978761Y-101631952D01*
X150026380Y-101727190D01*
X150026380Y-101917666D01*
X149978761Y-102012904D01*
X149931142Y-102060523D01*
X149835904Y-102108142D01*
X149026380Y-102108142D01*
X150026380Y-102631952D02*
X150026380Y-102822428D01*
X149978761Y-102917666D01*
X149931142Y-102965285D01*
X149788285Y-103060523D01*
X149597809Y-103108142D01*
X149216857Y-103108142D01*
X149121619Y-103060523D01*
X149074000Y-103012904D01*
X149026380Y-102917666D01*
X149026380Y-102727190D01*
X149074000Y-102631952D01*
X149121619Y-102584333D01*
X149216857Y-102536714D01*
X149454952Y-102536714D01*
X149550190Y-102584333D01*
X149597809Y-102631952D01*
X149645428Y-102727190D01*
X149645428Y-102917666D01*
X149597809Y-103012904D01*
X149550190Y-103060523D01*
X149454952Y-103108142D01*
X149026380Y-103727190D02*
X149026380Y-103822428D01*
X149074000Y-103917666D01*
X149121619Y-103965285D01*
X149216857Y-104012904D01*
X149407333Y-104060523D01*
X149645428Y-104060523D01*
X149835904Y-104012904D01*
X149931142Y-103965285D01*
X149978761Y-103917666D01*
X150026380Y-103822428D01*
X150026380Y-103727190D01*
X149978761Y-103631952D01*
X149931142Y-103584333D01*
X149835904Y-103536714D01*
X149645428Y-103489095D01*
X149407333Y-103489095D01*
X149216857Y-103536714D01*
X149121619Y-103584333D01*
X149074000Y-103631952D01*
X149026380Y-103727190D01*
X149026380Y-104965285D02*
X149026380Y-104489095D01*
X149502571Y-104441476D01*
X149454952Y-104489095D01*
X149407333Y-104584333D01*
X149407333Y-104822428D01*
X149454952Y-104917666D01*
X149502571Y-104965285D01*
X149597809Y-105012904D01*
X149835904Y-105012904D01*
X149931142Y-104965285D01*
X149978761Y-104917666D01*
X150026380Y-104822428D01*
X150026380Y-104584333D01*
X149978761Y-104489095D01*
X149931142Y-104441476D01*
M02*
